/* XPM */
static char *af142a03d32b48edac8e9253967761793oRmzr5cEyDRxw1H[] = {
/* columns rows colors chars-per-pixel */
"40 40 13 1 ",
"  c black",
". c #0B0B0B",
"X c #131313",
"o c #151515",
"O c gray13",
"+ c #005364",
"@ c #4F6353",
"# c #986F00",
"$ c #855F51",
"% c #7D898A",
"& c #808C8C",
"* c gainsboro",
"= c white",
/* pixels */
"========================================",
"========================================",
"========================================",
"========================================",
"========================================",
"========================================",
"========================================",
"======   ===============================",
"====  %%%  =============================",
"=== %%%+%%% ============================",
"== %%+%%%+%% ===========================",
"= %%%%%%%%%%% =======            =======",
"= %+%%%%%%%+% ======= %%%%%%%%%% =======",
"= %%%%  %%%%% ======  %%%%%%%%%% =======",
"= %+%%% %%%+% =====  %%%%%%%%%%  =$=====",
"= %%%%% %%%%% ===== %%%%%%%%%%% ==$=@===",
"== %%+%%%+%% =====  %%%%%%%%%%  ==$=@===",
"=== %%%+%%% ====== %%%%%%%%%%  ===   ===",
"====  %%%  ==      %%%%%%%%%% ==== & ===",
"=====*O.X=== %%%%%%%%%%%%%%%% ==== & ===",
"=   o                                  =",
"= #################################### =",
"=                                      =",
"== ++++++++++++++++++++++++++++++++++ ==",
"== ++++++++++++++++++++++++++++++++++ ==",
"== ++++++++++++++++++++++++++++++++++ ==",
"== ++++++++++++++++++++++++++++++++++ ==",
"== ++++++++++++++++++++++++++++++++++ ==",
"== ++++++++++++++++++++++++++++++++++ ==",
"== ++++++++++++++++++++++++++++++++++ ==",
"== ++++++++++++++++++++++++++++++++++ ==",
"== ++++++++++++++++++++++++++++++++++ ==",
"== ++++++++++++++++++++++++++++++++++ ==",
"== ++++++++++++++++++++++++++++++++++ ==",
"== ++++++++++++++++++++++++++++++++++ ==",
"==                                    ==",
"========================================",
"========================================",
"========================================",
"========================================"
};
