/* XPM */
static char *result[] = {
/* columns rows colors chars-per-pixel */
"64 61 16 1 ",
"  c black",
". c #E53900",
"X c #9E0057",
"o c #40A100",
"O c #00B06C",
"+ c #FF8C06",
"@ c #91C100",
"# c #A7FF09",
"$ c #EDC400",
"% c #004DB0",
"& c #6200C4",
"* c #9C7BFF",
"= c #0088A4",
"- c #00BCA7",
"; c #FFEBD7",
": c None",
/* pixels */
"::::::::::::                                   :::::::::::::::::",
"::::::::::   X..++$$@@oo--==%%&&XX..++$$@@ooOO-    :::::::::::::",
":::::::::: XX..++$$@@oo--==%%&&XX..++$$@@ooOO--==% :::::::::::::",
":::::::::: X..++$$@@oo--==%%&&XX..++$$@@ooOO--==%% :::::::::::::",
":::::::::: ..++$$@@oo--==%%&&XX..++$$@@ooOO--==%%&&   ::::::::::",
":::::::::: .++$$@@oo--==%%&&XX..++$$@@ooOO--==%%&&XX. ::::::::::",
":::::::::: ++$$@@oo--==%%&&XX..++$$@@ooOO--==%%&&XX.. ::::::::::",
":::::::::: +$$@@oo--==%%&&XX..++$$@@ooOO--==%%&&XX..+ ::::::::::",
":::::::::: $$@@oo--==%%&&XX..++$$@@ooOO--==%%&&XX..++ ::::::::::",
":::::::::: $@@oo--==%%&&XX..++$$@@ooOO--==%%&&XX..++$$  ::::::::",
"::::::::: $@@oo--==%%&&XX..++$$@@ooOO--==%%&&XX..++$$@@ ::::::::",
":::::::   @@oo--==%%&&XX..++$$@@ooOO--==%%&&XX..++$$@@o ::::::::",
":       $ @oo--==%%&&XX..++$$@@ooOO--==%%&&XX..++$$@@oo        :",
": ..++$$@ ;;;;;;%%&&XX..++$$@@ooOO-;;;;;;;;;;;++$$@@ooOO--==%% :",
"  .++$$@@ ;;;;;;;;;;X..++$$@@oo;;;;;;;;;;;;;;;+$$@@ooOO--==%%& :",
" .++$$@@o ;;;;;;;;;;..++$$@@ooO;;;;;;;;;;;;;;;$$@@ooOO--==%%&& :",
" ++$$@@oo ;;;;;;;;;;.++$$@@ooOO;;;;;;;;;;;;;;;$@@ooOO--==%%&&X :",
" ;;;;;;o- ;;;;  ;;;;;+$$@@ooOO;;;;;;;  ;;;;;$$@@ooOO--=;;;;&XX. ",
" ;;;;;;-- ;;; ## ;;;;$$@@ooOO-;;;;;; ** ;;;;$@@ooOO--=;;;;;XX.. ",
" ;; ;;;== ;;; ## ;;;;;;;;;;;;;;;;;;; ** ;;;;;;;;OO--==;; ;;X..+ ",
" ;; ;;;=% ;;;;  ;;;;;;;;;;;;;;;;;;;;;  ;;;;;;;;;O--==%;; ;;..++ ",
" ;;;;;;%% ;;;;;;;;;;;;;;;;;;;;;;;;;;;;;;;;;;;;;;--==%%;;;;;.++$ ",
" o--==%%& ;;;;;;;;;;;;;;;;;;;;;;;;;;;;;;;;;;;;;;-==%%&&XX..++$$ ",
" --==%%&& ;;;;;;;;;;;;;;;;;;;;;;;;;;;;;;;;;;;;;;==%%&&XX..++$$@ ",
" -==%%&&X ;;;;;;;;;;;;;;;;;;;;;;;;;;;;;;;;;;;;;;=%%&&XX..++$    ",
": =%%&&XX ;;;;;;;;;;;;;;;;;;;;;;;;;;;;;;;;;;;;;;%%&&XX..++$$ :::",
":         ;;;;;;;;;;;;;;;; ;;;;;;;;;;;;;;;;;;;;;%&&XX..+     :::",
"::::::::: ;;;;;;;;;;;;;;;; ;;;;;;;;;;;;;;;;;;;;;&&XX..+ ::::::::",
"::::::::: ;;;;;;;;;;;;;;;; ;;;;;;;;;;;;;;;;;;;;;&XX..++ ::::::::",
":::::::::    ;;;;;;;;;;;;;;;;;;;;;;;;;;;;;;;;;;;XX..    ::::::::",
"::::::::::::  ;;;;;;;;;;;;;;;;;;;;;;;;;;;;;;;;;     ::::::::::::",
":::::::::::::;       ooOO--==%%&&XX..++$$@@oo   ::::           :",
":::::::::::::::::::: @ooOO--==%%&&XX..++$$@@o :::::  ==---OOOoo ",
":::::::::::::::::::: @@ooOO--==%%&&XX..++$$@@ ::::: ==::::::::o ",
":::::::::::::::::::: $@@ooOO--==%%&&XX..++$$@ ::::: %:::::::::@ ",
":::::::::::::::::    $$@@ooOO--==%%&&XX..++$$ ::::: %:::::::::@ ",
"::::::::::::::::: ..++$$@@ooOO--==%%&&XX..++$ ::::: &:::::::::@ ",
"::::::::::::::::: X..++$$@@ooOO--==%%&&XX..++ ::::: &:::::::::$ ",
"::::::::::::::    XX..++$$@@ooOO--==%%&&XX..+   ::: X:::::::::$ ",
":::::::::::::: %%&&XX..++$$@@ooOO--==%%&&XX..++ ::: X:::::::::$ ",
":::::::::::::  =%%&&XX;;;;;;;;;;;;;;;;%%&&XX..+ ::::::::::::::+ ",
"::::::::::::: -==%%&&X;;;;;;;;;;;;;;;;;%%&&XX.. :::::::::::..++ ",
":::::::::::: O--==%%&;;;;;;;;;;;;;;;;;;;%%&&XX..   ::::::::.   :",
":::::::::::: OO--==%%;;;;;;;;;;;;;;;;;;;=%%&&XX..+ :::::::XX :::",
":::::::::::: oOO--==%;;;;;;;;;;;;;;;;;;;==%%&&XX.. ::::::&X  :::",
":::::::::::: ooOO--==;;;;;;;;;;;;;;;;;;;-==%%&&XX. ::::::& :::::",
":::::::::::: @ooOO--=;;;;;;;;;;;;;;;;;;;--==%%&&XX :::=%%& :::::",
":::::::::::: @@ooOO--;;;;;;;;;;;;;;;;;;;O--==%%&&X :::=    :::::",
":::::::::::: $@@ooOO--;;;;;;  ;;;;;;;;ooOO--==%%&& :::= ::::::::",
"::::::::::::  $@@ooOO-;;;;;;  ;;;;;;;;@ooOO--==%%&& --- ::::::::",
":::::::::::::  $@@ooOO;;;;;;;;;;;;;;;;@@ooOO--==%%&     ::::::::",
"::::::::::::::       O;;;;;;;;;;;..++$$@@ooOO       ::::::::::::",
":::::::::::::::::::: oOO--==%%&&XX..++$$@@ooO ::::::::::::::::::",
":::::::::::::::::::: ooOO--==%%&&XX..++$$@@oo ::::::::::::::::::",
":::::::::::::::::::: @ooOO--==%%&&XX..++$$@@o ::::::::::::::::::",
":::::::::::::::::::: @@ooOO           .++$    ::::::::::::::::::",
":::::::::::::::::::: $@@oo ::::::::::: .++ :::::::::::::::::::::",
":::::::::::::::::::: $$@   ::::::::::: ..+ :::::::::::::::::::::",
":::::::::::::::::::: +$ ::::::::::::::: .. :::::::::::::::::::::",
":::::::::::::::::::: ++ ::::::::::::::: X. :::::::::::::::::::::",
"::::::::::::::::::::    :::::::::::::::    :::::::::::::::::::::"
};
