/* XPM */
static char *result[] = {
/* columns rows colors chars-per-pixel */
"80 80 2 1 ",
"  c #5C565B",
". c #D1C5CF",
/* pixels */
"                                                                                ",
" .............................................................................. ",
" .............................................................................. ",
" .............................................................................. ",
" .............................................................................. ",
" .............................................................................. ",
" .............................................................................. ",
" .............................................................................. ",
" .............................................................................. ",
" .............................................................................. ",
" .............................................................................. ",
" .............................................................................. ",
" .............................................................................. ",
" .............................................................................. ",
" .............................................................................. ",
" .............................................................................. ",
" .............................................................................. ",
" .............................................................................. ",
" .............................................................................. ",
" .............................................................................. ",
" .............................................................................. ",
" .............................................................................. ",
" .............................................................................. ",
" .............................................................................. ",
" .............................................................................. ",
" .............................................................................. ",
" .............................................................................. ",
" .............................................................................. ",
" .............................................................................. ",
" .............................................................................. ",
" .............................................................................. ",
" .............................................................................. ",
" .............................................................................. ",
" .............................................................................. ",
" .............................................................................. ",
" .............................................................................. ",
" .............................................................................. ",
" .............................................................................. ",
" .............................................................................. ",
" .............................................................................. ",
" .............................................................................. ",
" .............................................................................. ",
" .............................................................................. ",
" .............................................................................. ",
" .............................................................................. ",
" .............................................................................. ",
" .............................................................................. ",
" .............................................................................. ",
" .............................................................................. ",
" .............................................................................. ",
" .............................................................................. ",
" .............................................................................. ",
" .............................................................................. ",
" .............................................................................. ",
" .............................................................................. ",
" .............................................................................. ",
" .............................................................................. ",
" .............................................................................. ",
" .............................................................................. ",
" .............................................................................. ",
" .............................................................................. ",
" .............................................................................. ",
" .............................................................................. ",
" .............................................................................. ",
" .............................................................................. ",
" .............................................................................. ",
" .............................................................................. ",
" .............................................................................. ",
" .............................................................................. ",
" .............................................................................. ",
" .............................................................................. ",
" .............................................................................. ",
" .............................................................................. ",
" .............................................................................. ",
" .............................................................................. ",
" .............................................................................. ",
" .............................................................................. ",
" .............................................................................. ",
" .............................................................................. ",
"                                                                                "
};
