/* XPM */
static char *background_1_112x112[] = {
/* columns rows colors chars-per-pixel */
"112 112 2 1 ",
"  c #5C565B",
". c #D1C5CF",
/* pixels */
"                                                                                                                ",
"                                                                                                                ",
"  ............................................................................................................  ",
"  ............................................................................................................  ",
"  ............................................................................................................  ",
"  ............................................................................................................  ",
"  ............................................................................................................  ",
"  ............................................................................................................  ",
"  ............................................................................................................  ",
"  ............................................................................................................  ",
"  ............................................................................................................  ",
"  ............................................................................................................  ",
"  ............................................................................................................  ",
"  ............................................................................................................  ",
"  ............................................................................................................  ",
"  ............................................................................................................  ",
"  ............................................................................................................  ",
"  ............................................................................................................  ",
"  ............................................................................................................  ",
"  ............................................................................................................  ",
"  ............................................................................................................  ",
"  ............................................................................................................  ",
"  ............................................................................................................  ",
"  ............................................................................................................  ",
"  ............................................................................................................  ",
"  ............................................................................................................  ",
"  ............................................................................................................  ",
"  ............................................................................................................  ",
"  ............................................................................................................  ",
"  ............................................................................................................  ",
"  ............................................................................................................  ",
"  ............................................................................................................  ",
"  ............................................................................................................  ",
"  ............................................................................................................  ",
"  ............................................................................................................  ",
"  ............................................................................................................  ",
"  ............................................................................................................  ",
"  ............................................................................................................  ",
"  ............................................................................................................  ",
"  ............................................................................................................  ",
"  ............................................................................................................  ",
"  ............................................................................................................  ",
"  ............................................................................................................  ",
"  ............................................................................................................  ",
"  ............................................................................................................  ",
"  ............................................................................................................  ",
"  ............................................................................................................  ",
"  ............................................................................................................  ",
"  ............................................................................................................  ",
"  ............................................................................................................  ",
"  ............................................................................................................  ",
"  ............................................................................................................  ",
"  ............................................................................................................  ",
"  ............................................................................................................  ",
"  ............................................................................................................  ",
"  ............................................................................................................  ",
"  ............................................................................................................  ",
"  ............................................................................................................  ",
"  ............................................................................................................  ",
"  ............................................................................................................  ",
"  ............................................................................................................  ",
"  ............................................................................................................  ",
"  ............................................................................................................  ",
"  ............................................................................................................  ",
"  ............................................................................................................  ",
"  ............................................................................................................  ",
"  ............................................................................................................  ",
"  ............................................................................................................  ",
"  ............................................................................................................  ",
"  ............................................................................................................  ",
"  ............................................................................................................  ",
"  ............................................................................................................  ",
"  ............................................................................................................  ",
"  ............................................................................................................  ",
"  ............................................................................................................  ",
"  ............................................................................................................  ",
"  ............................................................................................................  ",
"  ............................................................................................................  ",
"  ............................................................................................................  ",
"  ............................................................................................................  ",
"  ............................................................................................................  ",
"  ............................................................................................................  ",
"  ............................................................................................................  ",
"  ............................................................................................................  ",
"  ............................................................................................................  ",
"  ............................................................................................................  ",
"  ............................................................................................................  ",
"  ............................................................................................................  ",
"  ............................................................................................................  ",
"  ............................................................................................................  ",
"  ............................................................................................................  ",
"  ............................................................................................................  ",
"  ............................................................................................................  ",
"  ............................................................................................................  ",
"  ............................................................................................................  ",
"  ............................................................................................................  ",
"  ............................................................................................................  ",
"  ............................................................................................................  ",
"  ............................................................................................................  ",
"  ............................................................................................................  ",
"  ............................................................................................................  ",
"  ............................................................................................................  ",
"  ............................................................................................................  ",
"  ............................................................................................................  ",
"  ............................................................................................................  ",
"  ............................................................................................................  ",
"  ............................................................................................................  ",
"  ............................................................................................................  ",
"  ............................................................................................................  ",
"  ............................................................................................................  ",
"                                                                                                                ",
"                                                                                                                "
};
