/* XPM */
static char *background_1_80x80[] = {
/* columns rows colors chars-per-pixel */
"80 80 2 1 ",
"  c #5C565B",
". c #D1C5CF",
/* pixels */
"                                                                                ",
" .............................................................................. ",
" .............................................................................. ",
" .............................................................................. ",
" .............................................................................. ",
" .............................................................................. ",
" .............................................................................. ",
" .............................................................................. ",
" .............................................................................. ",
" .............................................................................. ",
" .............................................................................. ",
" .............................................................................. ",
" .............................................................................. ",
" .............................................................................. ",
" .............................................................................. ",
" .............................................................................. ",
" .............................................................................. ",
" .............................................................................. ",
" .............................................................................. ",
" .............................................................................. ",
" .............................................................................. ",
" .............................................................................. ",
" .............................................................................. ",
" .............................................................................. ",
" .............................................................................. ",
" .............................................................................. ",
" .............................................................................. ",
" .............................................................................. ",
" .............................................................................. ",
" .............................................................................. ",
" .............................................................................. ",
" .............................................................................. ",
" .............................................................................. ",
" .............................................................................. ",
" .............................................................................. ",
" .............................................................................. ",
" .............................................................................. ",
" .............................................................................. ",
" .............................................................................. ",
" .............................................................................. ",
" .............................................................................. ",
" .............................................................................. ",
" .............................................................................. ",
" .............................................................................. ",
" .............................................................................. ",
" .............................................................................. ",
" .............................................................................. ",
" .............................................................................. ",
" .............................................................................. ",
" .............................................................................. ",
" .............................................................................. ",
" .............................................................................. ",
" .............................................................................. ",
" .............................................................................. ",
" .............................................................................. ",
" .............................................................................. ",
" .............................................................................. ",
" .............................................................................. ",
" .............................................................................. ",
" .............................................................................. ",
" .............................................................................. ",
" .............................................................................. ",
" .............................................................................. ",
" .............................................................................. ",
" .............................................................................. ",
" .............................................................................. ",
" .............................................................................. ",
" .............................................................................. ",
" .............................................................................. ",
" .............................................................................. ",
" .............................................................................. ",
" .............................................................................. ",
" .............................................................................. ",
" .............................................................................. ",
" .............................................................................. ",
" .............................................................................. ",
" .............................................................................. ",
" .............................................................................. ",
" .............................................................................. ",
"                                                                                "
};
