/* XPM */
static char *bleak_desk_pile_of_death_64x64[] = {
/* columns rows colors chars-per-pixel */
"64 64 14 1 ",
"  c black",
". c #413754",
"X c #005364",
"o c #5C565B",
"O c #5A6363",
"+ c #6F797A",
"@ c #914600",
"# c #986F00",
"$ c #00A406",
"% c #7D898A",
"& c #9BAAAB",
"* c #B3C3C4",
"= c #D1C5CF",
"- c #D3E6E8",
/* pixels */
"oooooooooooooooooooooooooooooooooooooooooooooooooooooooooooooooo",
"o==============================================================o",
"o============================================================@@o",
"o============================================================@@o",
"o===========================================================@@@o",
"o==================================================@=====@@@@==o",
"o==================================================@=====@@@@==o",
"o========        ==================================@=====@@====o",
"o        OOOOOO& ==========================@@@@@===@@@@@@@@====o",
"o &&&&&&&------- ==========================@===@@======@@====@@o",
"o  &&&&&&------- ==========================@===@@======@@====@@o",
"o== ----+++OOOOO ==========================@====@@@=====@====@@o",
"o== OOOO+++OOOO  ==========================@=====@@=====@====@@o",
"o +++++++&&&&&& =================================@@@@@@@@@@@@@@o",
"o +++++++&&&&&& =================================@@@@@@@@@@@@@@o",
"o== ---OOOO--++ ========================================@@@====o",
"o== +++++++++++  ========================================@@====o",
"o== &&&&&------- ================                    ===@@@==@@@",
"o== &&&&&------- ================ %%%%%%%%%%%%%%%%%% ===@@@==@@@",
"o== -----+++++++ ===============  %%%%%%%%%%%%%%%%%% ==@=@@@=@@o",
"o== &&&&&&&+++++ =============== %%%%%%%%%%%%%%%%%%  ==@=@@@@==o",
"o== ++++&&&&&&&& =============== %%%%%******%%%%%%% ===@=@@==$$o",
"o== ++++&&&&&&&& ==============  %%%%********%%%%%  ===@=@@==$$o",
"o== ----OOO+++++ ============== %%%%%********%%%%% ======@@==$$o",
"o== +++++++++++  =============  %%%%%*%%**%%*%%%%  =====@@@====o",
"o  &&&&&&&&++++ ============== %%%%%%*%%**%%*%%%% =====@@======o",
"o &&&&&&&&&++++ ============== %%%%%%********%%% ======@@======o",
"o +++++++++++--  ============  %%%%%%%******%%%% ======@=======o",
"o OO------------ ============ %%%%%%%%%*%%*%%%%  ======@=======o",
"o OOOOO+OOOOO&&& ====         %%%%%%%%%%%%%%%%% ===            o",
"o  OO++++++OO&&& ==== %%%%%%%%%%%%%%%%%%%%%%%%% === .......... o",
"o==  ------++OOO === %%%%%%%%%%%%%%%%%%%%%%%%%% === .......... o",
"                                                                ",
" ############################################################## ",
" ############################################################## ",
" ############################################################## ",
"                                                                ",
"o XXXXXXXXXXXXXXXXXXXXXXXXXXXXXXXXXXXXXXXXXXXXXXXXXXXXXXXXXXXX o",
"o XXXXXXXXXXXXXXXXXXXXXXXXXXXXXXXXXXXXXXXXXXXXXXXXXXXXXXXXXXXX o",
"o XXXXXXXXXXXXXXXXXXXXXXXXXXXXXXXXXXXXXXXXXXXXXXXXXXXXXXXXXXXX o",
"o XXXXXXXXXXXXXXXXXXXXXXXXXXXXXXXXXXXXXXXXXXXXXXXXXXXXXXXXXXXX o",
"o XXXXXXXXXXXXXXXXXXXXXXXXXXXXXXXXXXXXXXXXXXXXXXXXXXXXXXXXXXXX o",
"o XXXXXXXXXXXXXXXXXXXXXXXXXXXXXXXXXXXXXXXXXXXXXXXXXXXXXXXXXXXX o",
"o XXXXXXXXXXXXXXXXXXXXXXXXXXXXXXXXXXXXXXXXXXXXXXXXXXXXXXXXXXXX o",
"o XXXXXXXXXXXXXXXXXXXXXXXXXXXXXXXXXXXXXXXXXXXXXXXXXXXXXXXXXXXX o",
"o XXXXXXXXXXXXXXXXXXXXXXXXXXXXXXXXXXXXXXXXXXXXXXXXXXXXXXXXXXXX o",
"o XXXXXXXXXXXXXXXXXXXXXXXXXXXXXXXXXXXXXXXXXXXXXXXXXXXXXXXXXXXX o",
"o XXXXXXXXXXXXXXXXXXXXXXXXXXXXXXXXXXXXXXXXXXXXXXXXXXXXXXXXXXXX o",
"o XXXXXXXXXXXXXXXXXXXXXXXXXXXXXXXXXXXXXXXXXXXXXXXXXXXXXXXXXXXX o",
"o XXXXXXXXXXXXXXXXXXXXXXXXXXXXXXXXXXXXXXXXXXXXXXXXXXXXXXXXXXXX o",
"o XXXXXXXXXXXXXXXXXXXXXXXXXXXXXXXXXXXXXXXXXXXXXXXXXXXXXXXXXXXX o",
"o XXXXXXXXXXXXXXXXXXXXXXXXXXXXXXXXXXXXXXXXXXXXXXXXXXXXXXXXXXXX o",
"o XXXXXXXXXXXXXXXXXXXXXXXXXXXXXXXXXXXXXXXXXXXXXXXXXXXXXXXXXXXX o",
"o XXXXXXXXXXXXXXXXXXXXXXXXXXXXXXXXXXXXXXXXXXXXXXXXXXXXXXXXXXXX o",
"o XXXXXXXXXXXXXXXXXXXXXXXXXXXXXXXXXXXXXXXXXXXXXXXXXXXXXXXXXXXX o",
"o XXXXXXXXXXXXXXXXXXXXXXXXXXXXXXXXXXXXXXXXXXXXXXXXXXXXXXXXXXXX o",
"o XXXXXXXXXXXXXXXXXXXXXXXXXXXXXXXXXXXXXXXXXXXXXXXXXXXXXXXXXXXX o",
"o XXXXXXXXXXXXXXXXXXXXXXXXXXXXXXXXXXXXXXXXXXXXXXXXXXXXXXXXXXXX o",
"o XXXXXXXXXXXXXXXXXXXXXXXXXXXXXXXXXXXXXXXXXXXXXXXXXXXXXXXXXXXX o",
"o XXXXXXXXXXXXXXXXXXXXXXXXXXXXXXXXXXXXXXXXXXXXXXXXXXXXXXXXXXXX o",
"o XXXXXXXXXXXXXXXXXXXXXXXXXXXXXXXXXXXXXXXXXXXXXXXXXXXXXXXXXXXX o",
"o XXXXXXXXXXXXXXXXXXXXXXXXXXXXXXXXXXXXXXXXXXXXXXXXXXXXXXXXXXXX o",
"o XXXXXXXXXXXXXXXXXXXXXXXXXXXXXXXXXXXXXXXXXXXXXXXXXXXXXXXXXXXX o",
"o                                                              o"
};
