/* XPM */
static char *result[] = {
/* columns rows colors chars-per-pixel */
"64 64 17 1 ",
"  c black",
". c #090100",
"X c #612020",
"o c #002963",
"O c #3C5141",
"+ c #005364",
"@ c #596E5B",
"# c #5A646E",
"$ c #BD0000",
"% c #DB0000",
"& c #986F00",
"* c #AA864A",
"= c #AA8665",
"- c #73808C",
"; c #C7ADAD",
": c gray86",
"> c None",
/* pixels */
">>>>>>>>>>>>>>>>>>>>>>>>>>>>>>>>>>>>>>>>>>>>>>>>>>>>>>>>>>>>>>>>",
">>>>>>>>>>>>>>>>>>>>>>>>>>>>>>>>>>>>>>>>>>>>>>>>>>>>>>>>>>>>>>>>",
">>>>>>>>>>>>>>>>>>>>>>>>>>>>>>>>>>>>>>>>>>>>>>>>>>>>>>>>>>>>>>>>",
">>>>>>>>>>>>>>>>>>>>>>>>>>>>>>>>>>>>>>>>>>>>>>>>>>>>>>>>>>>>>>>>",
">>>>>>>>             >>>>>>>>>>>>>>>>>>>      >>>>>>>>>>>>>>>>>>",
">>>>>>>> @@@@@@@@@@@ >>>>>>>>>>>>>>>     XXXX     >>>>>>>>>>>>>>",
">>>>>>>> @@@@@@@@@@@ >>>>>>>>>>>>>>> XXXXXXXXXXXX >>>>>>>>>>>>>>",
">>>>>>>> @@@@@@@@@@@ >>>>>>>>>>>>>>> XXXXXXXXXXXX >>>>>>>>>>>>>>",
">>>>>   @@@@@@@@@@@@@   >>>>>>>>>>>> XXXXXXXXXXXX >>>>>>>>>>>>>>",
">>>> @@@@@@@@@@@@OOOO@@@ >>>>>>>>>> XXXXXXXXXXXXXX >>>>>>>>>>>>>",
">>>> @@@@@@@@@@@@OOOO@@@ >>>>>>>>>> XXXXX    XXXXX >>>>>>>>>>>>>",
">>>> @@@@@@@@@@@@OOOO@@@ >>>>>>>>>> XXXX      XXXX >>>>>>>>>>>>>",
">>>>>   OOOOOOOOOOOOO   >>>>>>>>>>>      ####      >>>>>>>>>>>>>",
">>>> @@@OOOOOOOOOOOO@@@@ >>>>>>>>>>> ##::####::## >>>>>>>>>>>>>>",
">>>> @@@OOOOOOOOOOOO@@@@ >>>>>>>>>>> ##::####::## >>>>>>>>>>>>>>",
">>>> @@@OOOOOOOOOOOO@@@@ >>>>>>>>>>> ############ >>>>>>>>>>>>>>",
">>>> @@@@@@@@@@@@@@@OOOO >>>>>>>>>>> ############ >>>>>>>>>>>>>>",
">>>>>   OOOOOOOOOOOOO   >>>>>>>>>>>>>    ;;;;    >>>>>>>>>>>>>>>",
">>>>>   OOOOOOOOOOOOO   >>>>>>>>>>>>>>>> ;;;; >>>>>>>>>>>>>>>>>>",
">>>>>   OOOOOOOOOOOOO   >>>>>>>>>>>>>>>> #### >>>>>>>>>>>>>>>>>>",
">>>> @@@@@@@@@@@@@@@OOOO >>>>>>>>>>>>>>> #### >>>>>>>>>>>>>>>>>>",
">>>> @@@@@@@@@@@@@@@OOOO >>>>>>>>>>>>>>>>    >>>>>>>>>>>>>>>>>>>",
">>>> @@@@@@@@@@@@@@@OOOO >>>>>>>>>>>>>>>>    >>>>>>>>>>>>>>>>>>>",
">>>> @@@@@@@@@@@@@@@OOOO >>>>>>>>>>>>>>  ####  >>>>>>>>>>>>>>>>>",
">>>>>   OOOOOOOOOOOOO   >>>>>>>>>>>      ####        >>>>>>>>>>>",
">>>> @@@OOOOOOOOOOOOOOOO >>>>>>>>>> ---- #### ------ >>>>>>>>>>>",
">>>> @@@OOOOOOOOOOOOOOOO >>>>>>>>>> ---- #### ------ >>>>>>>>>>>",
">>>> @@@OOOOOOOOOOOOOOOO >>>>>>>>>> ----      ------ >>>>>>>>>>>",
">>>> @@@@@@@@@@@@@@@@OOO >>>>>>>    ----$    $------    >>>>>>>>",
">>>> @@@OOOOOOOOOOOOOOOO >>>>>>> -------$    $--------- >>>>>>>>",
">>>> @@@OOOOOOOOOOOOOOOO >>>>>>> -------$    $--------- >>>>>>>>",
">>>> @@@OOOOOOOOOOOOOOOO >>>>>>  -------$    $---------  >>>>>>>",
">>>> @@@@@@@@@@@@@@@OOOO >>>>>> --------$    $---------- >>>>>>>",
">>>>>   OOOOOOOOOOOOO   >>>>>>> --------$    $---------- >>>>>>>",
">>>>>   OOOOOOOOOOOOO   >>>>>>> --------$    $---------- >>>>>>>",
">>>>>   OOOOOOOOOOOOO   >>>>                                  >>",
">>>>>>>>    OOOOO    >>>>>>> &&&&&&&&&&&&&&&&&&&&&&&&&&&&&&&& >>",
">>>>>>>>>   OOOOO   >>>>>>>> &&&&&&&&&&&&&&&&&&&&&&&&&&&&&&&& >>",
">>>>>>>>>   OOOOO   >>>>>>>>                                  >>",
">>>>>>>>>   OOOOO   >>>>>>>>> +++++++++++++++++++++++++++++ >>>>",
">                           > +++++++++++++++++++++++++++++ >>>>",
"> ========================= > +++++++++++++++++++++++++++++ >>>>",
"> ========================= > +++++++++++++++++++++++++++++ >>>>",
"> ========================= > +++++++++++++++++++++++++++++ >>>>",
"> ===               ======= > +++++++++++++++++++++++++++++ >>>>",
"> === ************* ======= > +++++++++++++++++++++++++++++ >>>>",
"> === ************* ======= > +++++++++++++++++++++++++++++ >>>>",
"> === ****%%*oo**** ======= > +++++++++++++++++++++++++++++ >>>>",
"> ===    *%%*oo*    ======= > +++++++++++++++++++++++++++++ >>>>",
"> ====== ******* ========== > +++++++++++++++++++++++++++++ >>>>",
"> ====== ******* ========== > +++++++++++++++++++++++++++++ >>>>",
"> ======         ========== > +++++++++++++++++++++++++++++ >>>>",
"> ========================= > +++++++++++++++++++++++++++++ >>>>",
"> ========================= > +++++++++++++++++++++++++++++ >>>>",
"> ========================= > +++++++++++++++++++++++++++++ >>>>",
"> ========================= > +++++++++++++++++++++++++++++ >>>>",
"> ========================= > +++++++++++++++++++++++++++++ >>>>",
"> ========================= > +++++++++++++++++++++++++++++ >>>>",
"> ========================= > +++++++++++++++++++++++++++++ >>>>",
"> ========================= > +++++++++++++++++++++++++++++ >>>>",
">   =====================   > +++++++++++++++++++++++++++++ >>>>",
">>>.=====================.>>> +++++++++++++++++++++++++++++ >>>>",
">>>.=====================.>>> +++++++++++++++++++++++++++++ >>>>",
">>>>                     >>>>                               >>>>"
};
