/* XPM */
static char *result[] = {
/* columns rows colors chars-per-pixel */
"64 64 13 1 ",
"  c black",
". c #413754",
"X c #005364",
"o c #5A6363",
"O c #6F797A",
"+ c #914600",
"@ c #986F00",
"# c #00A406",
"$ c #7D898A",
"% c #9BAAAB",
"& c #B3C3C4",
"* c #D3E6E8",
"= c None",
/* pixels */
"================================================================",
"================================================================",
"=============================================================++=",
"=============================================================++=",
"============================================================+++=",
"===================================================+=====++++===",
"===================================================+=====++++===",
"=========        ==================================+=====++=====",
"=        oooooo% ==========================+++++===++++++++=====",
"= %%%%%%%******* ==========================+===++======++====++=",
"=  %%%%%%******* ==========================+===++======++====++=",
"=== ****OOOooooo ==========================+====+++=====+====++=",
"=== ooooOOOoooo  ==========================+=====++=====+====++=",
"= OOOOOOO%%%%%% =================================++++++++++++++=",
"= OOOOOOO%%%%%% =================================++++++++++++++=",
"=== ***oooo**OO ========================================+++=====",
"=== OOOOOOOOOOO  ========================================++=====",
"=== %%%%%******* ================                    ===+++==+++",
"=== %%%%%******* ================ $$$$$$$$$$$$$$$$$$ ===+++==+++",
"=== *****OOOOOOO ===============  $$$$$$$$$$$$$$$$$$ ==+=+++=++=",
"=== %%%%%%%OOOOO =============== $$$$$$$$$$$$$$$$$$  ==+=++++===",
"=== OOOO%%%%%%%% =============== $$$$$&&&&&&$$$$$$$ ===+=++==##=",
"=== OOOO%%%%%%%% ==============  $$$$&&&&&&&&$$$$$  ===+=++==##=",
"=== ****oooOOOOO ============== $$$$$&&&&&&&&$$$$$ ======++==##=",
"=== OOOOOOOOOOO  =============  $$$$$&$$&&$$&$$$$  =====+++=====",
"=  %%%%%%%%OOOO ============== $$$$$$&$$&&$$&$$$$ =====++=======",
"= %%%%%%%%%OOOO ============== $$$$$$&&&&&&&&$$$ ======++=======",
"= OOOOOOOOOOO**  ============  $$$$$$$&&&&&&$$$$ ======+========",
"= oo************ ============ $$$$$$$$$&$$&$$$$  ======+========",
"= oooooOooooo%%% ====         $$$$$$$$$$$$$$$$$ ===            =",
"=  ooOOOOOOoo%%% ==== $$$$$$$$$$$$$$$$$$$$$$$$$ === .......... =",
"===  ******OOooo === $$$$$$$$$$$$$$$$$$$$$$$$$$ === .......... =",
"                                                                ",
" @@@@@@@@@@@@@@@@@@@@@@@@@@@@@@@@@@@@@@@@@@@@@@@@@@@@@@@@@@@@@@ ",
" @@@@@@@@@@@@@@@@@@@@@@@@@@@@@@@@@@@@@@@@@@@@@@@@@@@@@@@@@@@@@@ ",
" @@@@@@@@@@@@@@@@@@@@@@@@@@@@@@@@@@@@@@@@@@@@@@@@@@@@@@@@@@@@@@ ",
"                                                                ",
"= XXXXXXXXXXXXXXXXXXXXXXXXXXXXXXXXXXXXXXXXXXXXXXXXXXXXXXXXXXXX =",
"= XXXXXXXXXXXXXXXXXXXXXXXXXXXXXXXXXXXXXXXXXXXXXXXXXXXXXXXXXXXX =",
"= XXXXXXXXXXXXXXXXXXXXXXXXXXXXXXXXXXXXXXXXXXXXXXXXXXXXXXXXXXXX =",
"= XXXXXXXXXXXXXXXXXXXXXXXXXXXXXXXXXXXXXXXXXXXXXXXXXXXXXXXXXXXX =",
"= XXXXXXXXXXXXXXXXXXXXXXXXXXXXXXXXXXXXXXXXXXXXXXXXXXXXXXXXXXXX =",
"= XXXXXXXXXXXXXXXXXXXXXXXXXXXXXXXXXXXXXXXXXXXXXXXXXXXXXXXXXXXX =",
"= XXXXXXXXXXXXXXXXXXXXXXXXXXXXXXXXXXXXXXXXXXXXXXXXXXXXXXXXXXXX =",
"= XXXXXXXXXXXXXXXXXXXXXXXXXXXXXXXXXXXXXXXXXXXXXXXXXXXXXXXXXXXX =",
"= XXXXXXXXXXXXXXXXXXXXXXXXXXXXXXXXXXXXXXXXXXXXXXXXXXXXXXXXXXXX =",
"= XXXXXXXXXXXXXXXXXXXXXXXXXXXXXXXXXXXXXXXXXXXXXXXXXXXXXXXXXXXX =",
"= XXXXXXXXXXXXXXXXXXXXXXXXXXXXXXXXXXXXXXXXXXXXXXXXXXXXXXXXXXXX =",
"= XXXXXXXXXXXXXXXXXXXXXXXXXXXXXXXXXXXXXXXXXXXXXXXXXXXXXXXXXXXX =",
"= XXXXXXXXXXXXXXXXXXXXXXXXXXXXXXXXXXXXXXXXXXXXXXXXXXXXXXXXXXXX =",
"= XXXXXXXXXXXXXXXXXXXXXXXXXXXXXXXXXXXXXXXXXXXXXXXXXXXXXXXXXXXX =",
"= XXXXXXXXXXXXXXXXXXXXXXXXXXXXXXXXXXXXXXXXXXXXXXXXXXXXXXXXXXXX =",
"= XXXXXXXXXXXXXXXXXXXXXXXXXXXXXXXXXXXXXXXXXXXXXXXXXXXXXXXXXXXX =",
"= XXXXXXXXXXXXXXXXXXXXXXXXXXXXXXXXXXXXXXXXXXXXXXXXXXXXXXXXXXXX =",
"= XXXXXXXXXXXXXXXXXXXXXXXXXXXXXXXXXXXXXXXXXXXXXXXXXXXXXXXXXXXX =",
"= XXXXXXXXXXXXXXXXXXXXXXXXXXXXXXXXXXXXXXXXXXXXXXXXXXXXXXXXXXXX =",
"= XXXXXXXXXXXXXXXXXXXXXXXXXXXXXXXXXXXXXXXXXXXXXXXXXXXXXXXXXXXX =",
"= XXXXXXXXXXXXXXXXXXXXXXXXXXXXXXXXXXXXXXXXXXXXXXXXXXXXXXXXXXXX =",
"= XXXXXXXXXXXXXXXXXXXXXXXXXXXXXXXXXXXXXXXXXXXXXXXXXXXXXXXXXXXX =",
"= XXXXXXXXXXXXXXXXXXXXXXXXXXXXXXXXXXXXXXXXXXXXXXXXXXXXXXXXXXXX =",
"= XXXXXXXXXXXXXXXXXXXXXXXXXXXXXXXXXXXXXXXXXXXXXXXXXXXXXXXXXXXX =",
"= XXXXXXXXXXXXXXXXXXXXXXXXXXXXXXXXXXXXXXXXXXXXXXXXXXXXXXXXXXXX =",
"= XXXXXXXXXXXXXXXXXXXXXXXXXXXXXXXXXXXXXXXXXXXXXXXXXXXXXXXXXXXX =",
"=                                                              ="
};
