/* XPM */
static char *bleak_desk_poison_water_80x80[] = {
/* columns rows colors chars-per-pixel */
"80 80 18 1 ",
"  c black",
". c #090100",
"X c #612020",
"o c #002963",
"O c #3C5141",
"+ c #005364",
"@ c #5C565B",
"# c #596E5B",
"$ c #5A646E",
"% c #BD0000",
"& c #DB0000",
"* c #986F00",
"= c #AA864A",
"- c #AA8665",
"; c #73808C",
": c #C7ADAD",
"> c #D1C5CF",
", c gray86",
/* pixels */
"@@@@@@@@@@@@@@@@@@@@@@@@@@@@@@@@@@@@@@@@@@@@@@@@@@@@@@@@@@@@@@@@@@@@@@@@@@@@@@@@",
"@>>>>>>>>>>>>>>>>>>>>>>>>>>>>>>>>>>>>>>>>>>>>>>>>>>>>>>>>>>>>>>>>>>>>>>>>>>>>>>@",
"@>>>>>>>>>>>>>>>>>>>>>>>>>>>>>>>>>>>>>>>>>>>>>>>>>>>>>>>>>>>>>>>>>>>>>>>>>>>>>>@",
"@>>>>>>>>>>>>>>>>>>>>>>>>>>>>>>>>>>>>>>>>>>>>>>>>>>>>>>>>>>>>>>>>>>>>>>>>>>>>>>@",
"@>>>>>>>>>>>>>>>>>>>>>>>>>>>>>>>>>>>>>>>>>>>>>>>>>>>>>>>>>>>>>>>>>>>>>>>>>>>>>>@",
"@>>>>>>>>>                >>>>>>>>>>>>>>>>>>>>>>>>       >>>>>>>>>>>>>>>>>>>>>>@",
"@>>>>>>>>> ############## >>>>>>>>>>>>>>>>>>>      XXXXX      >>>>>>>>>>>>>>>>>@",
"@>>>>>>>>> ############## >>>>>>>>>>>>>>>>>>> XXXXXXXXXXXXXXX >>>>>>>>>>>>>>>>>@",
"@>>>>>>>>> ############## >>>>>>>>>>>>>>>>>>> XXXXXXXXXXXXXXX >>>>>>>>>>>>>>>>>@",
"@>>>>>>>>> ############## >>>>>>>>>>>>>>>>>>> XXXXXXXXXXXXXXX >>>>>>>>>>>>>>>>>@",
"@>>>>>    ################    >>>>>>>>>>>>>>> XXXXXXXXXXXXXXX >>>>>>>>>>>>>>>>>@",
"@>>>> ###############OOOOO#### >>>>>>>>>>>>> XXXXXXXXXXXXXXXXX  >>>>>>>>>>>>>>>@",
"@>>>> ###############OOOOO#### >>>>>>>>>>>>> XXXXXX     XXXXXX  >>>>>>>>>>>>>>>@",
"@>>>> ###############OOOOO#### >>>>>>>>>>>>> XXXXXX     XXXXXX  >>>>>>>>>>>>>>>@",
"@>>>> ###############OOOOO#### >>>>>>>>>>>>> XXXXX       XXXXX  >>>>>>>>>>>>>>>@",
"@>>>>>    OOOOOOOOOOOOOOOO    >>>>>>>>>>>>>>       $$$$$        >>>>>>>>>>>>>>>@",
"@>>>> ####OOOOOOOOOOOOOOO##### >>>>>>>>>>>>>> $$$,,$$$$$,,,$$ >>>>>>>>>>>>>>>>>@",
"@>>>> ####OOOOOOOOOOOOOOO##### >>>>>>>>>>>>>> $$$,,$$$$$,,,$$ >>>>>>>>>>>>>>>>>@",
"@>>>> ####OOOOOOOOOOOOOOO##### >>>>>>>>>>>>>> $$$,,$$$$$,,,$$ >>>>>>>>>>>>>>>>>@",
"@>>>> ####OOOOOOOOOOOOOOO##### >>>>>>>>>>>>>> $$$$$$$$$$$$$$$ >>>>>>>>>>>>>>>>>@",
"@>>>> ###################OOOOO >>>>>>>>>>>>>> $$$$$$$$$$$$$$$ >>>>>>>>>>>>>>>>>@",
"@>>>>>    OOOOOOOOOOOOOOOO    >>>>>>>>>>>>>>>>     :::::     >>>>>>>>>>>>>>>>>>@",
"@>>>>>    OOOOOOOOOOOOOOOO    >>>>>>>>>>>>>>>>>>>> ::::: >>>>>>>>>>>>>>>>>>>>>>@",
"@>>>>>    OOOOOOOOOOOOOOOO    >>>>>>>>>>>>>>>>>>>> ::::: >>>>>>>>>>>>>>>>>>>>>>@",
"@>>>>>    OOOOOOOOOOOOOOOO    >>>>>>>>>>>>>>>>>>>> $$$$$ >>>>>>>>>>>>>>>>>>>>>>@",
"@>>>> ###################OOOOO >>>>>>>>>>>>>>>>>>> $$$$$ >>>>>>>>>>>>>>>>>>>>>>@",
"@>>>> ###################OOOOO >>>>>>>>>>>>>>>>>>>>     >>>>>>>>>>>>>>>>>>>>>>>@",
"@>>>> ###################OOOOO >>>>>>>>>>>>>>>>>>>>     >>>>>>>>>>>>>>>>>>>>>>>@",
"@>>>> ###################OOOOO >>>>>>>>>>>>>>>>>>>>     >>>>>>>>>>>>>>>>>>>>>>>@",
"@>>>> ###################OOOOO >>>>>>>>>>>>>>>>>>  $$$$$   >>>>>>>>>>>>>>>>>>>>@",
"@>>>>>    OOOOOOOOOOOOOOOO    >>>>>>>>>>>>>>       $$$$$          >>>>>>>>>>>>>@",
"@>>>> ####OOOOOOOOOOOOOOOOOOOO >>>>>>>>>>>>> ;;;;; $$$$$ ;;;;;;;; >>>>>>>>>>>>>@",
"@>>>> ####OOOOOOOOOOOOOOOOOOOO >>>>>>>>>>>>> ;;;;; $$$$$ ;;;;;;;; >>>>>>>>>>>>>@",
"@>>>> ####OOOOOOOOOOOOOOOOOOOO >>>>>>>>>>>>> ;;;;; $$$$$ ;;;;;;;; >>>>>>>>>>>>>@",
"@>>>> ####OOOOOOOOOOOOOOOOOOOO >>>>>>>>>>>>> ;;;;;       ;;;;;;;; >>>>>>>>>>>>>@",
"@>>>> ####################OOOO >>>>>>>>>     ;;;;;%     %;;;;;;;;     >>>>>>>>>@",
"@>>>> ####OOOOOOOOOOOOOOOOOOOO >>>>>>>>> ;;;;;;;;;%     %;;;;;;;;;;;; >>>>>>>>>@",
"@>>>> ####OOOOOOOOOOOOOOOOOOOO >>>>>>>>> ;;;;;;;;;%     %;;;;;;;;;;;; >>>>>>>>>@",
"@>>>> ####OOOOOOOOOOOOOOOOOOOO >>>>>>>>> ;;;;;;;;;%     %;;;;;;;;;;;; >>>>>>>>>@",
"@>>>> ####OOOOOOOOOOOOOOOOOOOO >>>>>>>>  ;;;;;;;;;%     %;;;;;;;;;;;;  >>>>>>>>@",
"@>>>> ###################OOOOO >>>>>>>> ;;;;;;;;;;%     %;;;;;;;;;;;;; >>>>>>>>@",
"@>>>>>    OOOOOOOOOOOOOOOO    >>>>>>>>> ;;;;;;;;;;%     %;;;;;;;;;;;;; >>>>>>>>@",
"@>>>>>    OOOOOOOOOOOOOOOO    >>>>>>>>> ;;;;;;;;;;%     %;;;;;;;;;;;;; >>>>>>>>@",
"@>>>>>    OOOOOOOOOOOOOOOO    >>>>>>>>> ;;;;;;;;;;%     %;;;;;;;;;;;;; >>>>>>>>@",
"@>>>>>    OOOOOOOOOOOOOOOO    >>>>>                                           >@",
"@>>>>>>>>>     OOOOOO     >>>>>>>>> ****************************************  >@",
"@>>>>>>>>>>    OOOOOO    >>>>>>>>>> ****************************************  >@",
"@>>>>>>>>>>    OOOOOO    >>>>>>>>>>                                           >@",
"@>>>>>>>>>>    OOOOOO    >>>>>>>>>>                                           >@",
"@>>>>>>>>>>    OOOOOO    >>>>>>>>>>> +++++++++++++++++++++++++++++++++++++ >>>>@",
"@                                  > +++++++++++++++++++++++++++++++++++++ >>>>@",
"@ -------------------------------- > +++++++++++++++++++++++++++++++++++++ >>>>@",
"@ -------------------------------- > +++++++++++++++++++++++++++++++++++++ >>>>@",
"@ -------------------------------- > +++++++++++++++++++++++++++++++++++++ >>>>@",
"@ -------------------------------- > +++++++++++++++++++++++++++++++++++++ >>>>@",
"@ ----                   --------- > +++++++++++++++++++++++++++++++++++++ >>>>@",
"@ ---- ================= --------- > +++++++++++++++++++++++++++++++++++++ >>>>@",
"@ ---- ================= --------- > +++++++++++++++++++++++++++++++++++++ >>>>@",
"@ ---- ================= --------- > +++++++++++++++++++++++++++++++++++++ >>>>@",
"@ ---- =====&&&=ooo===== --------- > +++++++++++++++++++++++++++++++++++++ >>>>@",
"@ ----     =&&&=ooo=     --------- > +++++++++++++++++++++++++++++++++++++ >>>>@",
"@ -------- ========= ------------- > +++++++++++++++++++++++++++++++++++++ >>>>@",
"@ -------- ========= ------------- > +++++++++++++++++++++++++++++++++++++ >>>>@",
"@ -------- ========= ------------- > +++++++++++++++++++++++++++++++++++++ >>>>@",
"@ --------           ------------- > +++++++++++++++++++++++++++++++++++++ >>>>@",
"@ -------------------------------- > +++++++++++++++++++++++++++++++++++++ >>>>@",
"@ -------------------------------- > +++++++++++++++++++++++++++++++++++++ >>>>@",
"@ -------------------------------- > +++++++++++++++++++++++++++++++++++++ >>>>@",
"@ -------------------------------- > +++++++++++++++++++++++++++++++++++++ >>>>@",
"@ -------------------------------- > +++++++++++++++++++++++++++++++++++++ >>>>@",
"@ -------------------------------- > +++++++++++++++++++++++++++++++++++++ >>>>@",
"@ -------------------------------- > +++++++++++++++++++++++++++++++++++++ >>>>@",
"@ -------------------------------- > +++++++++++++++++++++++++++++++++++++ >>>>@",
"@ -------------------------------- > +++++++++++++++++++++++++++++++++++++ >>>>@",
"@ -------------------------------- > +++++++++++++++++++++++++++++++++++++ >>>>@",
"@    --------------------------    > +++++++++++++++++++++++++++++++++++++ >>>>@",
"@>>>.--------------------------.>>>> +++++++++++++++++++++++++++++++++++++ >>>>@",
"@>>>.--------------------------.>>>> +++++++++++++++++++++++++++++++++++++ >>>>@",
"@>>>.--------------------------.>>>> +++++++++++++++++++++++++++++++++++++ >>>>@",
"@@@@@                          @@@@@                                       @@@@@"
};
