/* XPM */
static char *result[] = {
/* columns rows colors chars-per-pixel */
"48 48 13 1 ",
"  c black",
". c #413754",
"X c #005364",
"o c #5A6363",
"O c #6F797A",
"+ c #914600",
"@ c #986F00",
"# c #00A406",
"$ c #7D898A",
"% c #9BAAAB",
"& c #B3C3C4",
"* c #D3E6E8",
"= c None",
/* pixels */
"================================================",
"================================================",
"==============================================+=",
"=============================================++=",
"======================================+====+++==",
"=======      =========================+====+====",
"=      oooo% ===================++++==++++++====",
"= %%%%%***** ===================+==++====++===+=",
"== ***OOoooo ===================+===++====+===+=",
"== oooOOooo  ===================+====+====+===+=",
"= OOOOO%%%% =========================++++++++++=",
"== **ooo**O ==============================++====",
"== OOOOOOOO  ==============================+====",
"== %%%%***** ============               ==++==++",
"==  ***OOOOO ============ $$$$$$$$$$$$$ =+=++=+=",
"== %%%%%OOOO ============ $$$$$$$$$$$$$ =+=+++==",
"== OOO%%%%%% ===========  $$$&&&&$$$$$  =+=+==#=",
"== ***ooOOOO =========== $$$&&&&&&$$$$ ====+==#=",
"== OOOOOOOO  ==========  $$$&$&&$&$$$ ====++====",
"= %%%%%%OOO =========== $$$$&&&&&&$$$ ===++=====",
"= OOOOOOOO*  =========  $$$$$&$$&$$$ ====+======",
"= ooooo***** ========= $$$$$$$$$$$$  ====+======",
"= oooOoooo%% ===       $$$$$$$$$$$$ ==         =",
"==  ****OOoo == $$$$$$$$$$$$$$$$$$$ == ....... =",
"                                                ",
" @@@@@@@@@@@@@@@@@@@@@@@@@@@@@@@@@@@@@@@@@@@@@@ ",
" @@@@@@@@@@@@@@@@@@@@@@@@@@@@@@@@@@@@@@@@@@@@@@ ",
"                                                ",
"= XXXXXXXXXXXXXXXXXXXXXXXXXXXXXXXXXXXXXXXXXXXX =",
"= XXXXXXXXXXXXXXXXXXXXXXXXXXXXXXXXXXXXXXXXXXXX =",
"= XXXXXXXXXXXXXXXXXXXXXXXXXXXXXXXXXXXXXXXXXXXX =",
"= XXXXXXXXXXXXXXXXXXXXXXXXXXXXXXXXXXXXXXXXXXXX =",
"= XXXXXXXXXXXXXXXXXXXXXXXXXXXXXXXXXXXXXXXXXXXX =",
"= XXXXXXXXXXXXXXXXXXXXXXXXXXXXXXXXXXXXXXXXXXXX =",
"= XXXXXXXXXXXXXXXXXXXXXXXXXXXXXXXXXXXXXXXXXXXX =",
"= XXXXXXXXXXXXXXXXXXXXXXXXXXXXXXXXXXXXXXXXXXXX =",
"= XXXXXXXXXXXXXXXXXXXXXXXXXXXXXXXXXXXXXXXXXXXX =",
"= XXXXXXXXXXXXXXXXXXXXXXXXXXXXXXXXXXXXXXXXXXXX =",
"= XXXXXXXXXXXXXXXXXXXXXXXXXXXXXXXXXXXXXXXXXXXX =",
"= XXXXXXXXXXXXXXXXXXXXXXXXXXXXXXXXXXXXXXXXXXXX =",
"= XXXXXXXXXXXXXXXXXXXXXXXXXXXXXXXXXXXXXXXXXXXX =",
"= XXXXXXXXXXXXXXXXXXXXXXXXXXXXXXXXXXXXXXXXXXXX =",
"= XXXXXXXXXXXXXXXXXXXXXXXXXXXXXXXXXXXXXXXXXXXX =",
"= XXXXXXXXXXXXXXXXXXXXXXXXXXXXXXXXXXXXXXXXXXXX =",
"= XXXXXXXXXXXXXXXXXXXXXXXXXXXXXXXXXXXXXXXXXXXX =",
"= XXXXXXXXXXXXXXXXXXXXXXXXXXXXXXXXXXXXXXXXXXXX =",
"= XXXXXXXXXXXXXXXXXXXXXXXXXXXXXXXXXXXXXXXXXXXX =",
"=                                              ="
};
