/* XPM */
static char *bleak_desk_clock_64x64[] = {
/* columns rows colors chars-per-pixel */
"64 64 9 1 ",
"  c black",
". c #005364",
"X c #5C565B",
"o c #4F6353",
"O c #986F00",
"+ c #855F51",
"@ c #7D898A",
"# c #808C8C",
"$ c #D1C5CF",
/* pixels */
"XXXXXXXXXXXXXXXXXXXXXXXXXXXXXXXXXXXXXXXXXXXXXXXXXXXXXXXXXXXXXXXX",
"X$$$$$$$$$$$$$$$$$$$$$$$$$$$$$$$$$$$$$$$$$$$$$$$$$$$$$$$$$$$$$$X",
"X$$$$$$$$$$$$$$$$$$$$$$$$$$$$$$$$$$$$$$$$$$$$$$$$$$$$$$$$$$$$$$X",
"X$$$$$$$$$$$$$$$$$$$$$$$$$$$$$$$$$$$$$$$$$$$$$$$$$$$$$$$$$$$$$$X",
"X$$$$$$$$$$$$$$$$$$$$$$$$$$$$$$$$$$$$$$$$$$$$$$$$$$$$$$$$$$$$$$X",
"X$$$$$$$$$$$$$$$$$$$$$$$$$$$$$$$$$$$$$$$$$$$$$$$$$$$$$$$$$$$$$$X",
"X$$$$$$$$$$$$$$$$$$$$$$$$$$$$$$$$$$$$$$$$$$$$$$$$$$$$$$$$$$$$$$X",
"X$$$$$$$$$$$$$$$$$$$$$$$$$$$$$$$$$$$$$$$$$$$$$$$$$$$$$$$$$$$$$$X",
"X$$$$$$$$$$$$$$$$$$$$$$$$$$$$$$$$$$$$$$$$$$$$$$$$$$$$$$$$$$$$$$X",
"X$$$$$$$$$$$$$$$$$$$$$$$$$$$$$$$$$$$$$$$$$$$$$$$$$$$$$$$$$$$$$$X",
"X$$$$$$$$$$$$$$$$$$$$$$$$$$$$$$$$$$$$$$$$$$$$$$$$$$$$$$$$$$$$$$X",
"X$$$$$$$$    $$$$$$$$$$$$$$$$$$$$$$$$$$$$$$$$$$$$$$$$$$$$$$$$$$X",
"X$$$$    @@@@    $$$$$$$$$$$$$$$$$$$$$$$$$$$$$$$$$$$$$$$$$$$$$$X",
"X$$$ @@@@@@@@@@@@ $$$$$$$$$$$$$$$$$$$$$$$$$$$$$$$$$$$$$$$$$$$$$X",
"X$$$ @@@@@..@@@@@ $$$$$$$$$$$$$$$$$$$$$$$$$$$$$$$$$$$$$$$$$$$$$X",
"X$$$ @@@@@@@@@@@@ $$$$$$$$$$$$$$$$$$$$$$$$$$$$$$$$$$$$$$$$$$$$$X",
"X$$ @@.@@@@@@@@.@@ $$$$$$$$$$$$$$$$$$$$$$$$$$$$$$$$$$$$$$$$$$$$X",
"X$ @@@@@@@@ @@@@@@@ $$$$$$$$$$$$$                   $$$$$$$$$$$X",
"X$ @@@@@@@@ @@@@@@@ $$$$$$$$$$$$$ @@@@@@@@@@@@@@@@@ $$$$$$$$$$$X",
"X$ @.@@@@@@ @@@@@.@ $$$$$$$$$$$$ @@@@@@@@@@@@@@@@@@ $$$$$$$$$$$X",
"X$ @.@@@@@@ @@@@@.@ $$$$$$$$$$$$ @@@@@@@@@@@@@@@@@@ $$$$$$$$$$$X",
"X$ @@@@@@   @@@@@@@ $$$$$$$$$$$  @@@@@@@@@@@@@@@@@ $$$$+$$$$$$$X",
"X$ @@@@@@@@@@@@@@@@ $$$$$$$$$$$ @@@@@@@@@@@@@@@@@@ $$$$+$$$$$$$X",
"X$ @@@@@@@@@@@@@@@@ $$$$$$$$$$  @@@@@@@@@@@@@@@@@  $$$$+$$$$$$$X",
"X$$ @@@.@@@@@@@.@@ $$$$$$$$$$$ @@@@@@@@@@@@@@@@@@ $$$$$+$oo$$$$X",
"X$$$ @@@@@@@@@@@@ $$$$$$$$$$$  @@@@@@@@@@@@@@@@@  $$$$$+$oo$$$$X",
"X$$$ @@@@@@@@@@@@ $$$$$$$$$$$ @@@@@@@@@@@@@@@@@@ $$$$$$+$oo$$$$X",
"X$$$ @@@@@..@@@@@ $$$$$$$$$$ @@@@@@@@@@@@@@@@@@  $$$$$$+$oo$$$$X",
"X$$$$    @@@@    $$$$        @@@@@@@@@@@@@@@@@@ $$$$$       $$$X",
"X$$$$$$$$    $$$$$$$$ @@@@@@@@@@@@@@@@@@@@@@@@@ $$$$$ @@#@@ $$$X",
"X$$$$$$$$    $$$$$$$$ @@@@@@@@@@@@@@@@@@@@@@@@@ $$$$$ @@#@@ $$$X",
"X$$$$$$$$    $$$$$$$$ @@@@@@@@@@@@@@@@@@@@@@@@@ $$$$$ @@#@@ $$$X",
"                                                                ",
" OOOOOOOOOOOOOOOOOOOOOOOOOOOOOOOOOOOOOOOOOOOOOOOOOOOOOOOOOOOOOO ",
" OOOOOOOOOOOOOOOOOOOOOOOOOOOOOOOOOOOOOOOOOOOOOOOOOOOOOOOOOOOOOO ",
" OOOOOOOOOOOOOOOOOOOOOOOOOOOOOOOOOOOOOOOOOOOOOOOOOOOOOOOOOOOOOO ",
"                                                                ",
"X ............................................................ X",
"X ............................................................ X",
"X ............................................................ X",
"X ............................................................ X",
"X ............................................................ X",
"X ............................................................ X",
"X ............................................................ X",
"X ............................................................ X",
"X ............................................................ X",
"X ............................................................ X",
"X ............................................................ X",
"X ............................................................ X",
"X ............................................................ X",
"X ............................................................ X",
"X ............................................................ X",
"X ............................................................ X",
"X ............................................................ X",
"X ............................................................ X",
"X ............................................................ X",
"X ............................................................ X",
"X ............................................................ X",
"X ............................................................ X",
"X ............................................................ X",
"X ............................................................ X",
"X ............................................................ X",
"X ............................................................ X",
"X                                                              X"
};
