/* XPM */
static char *d5ab2a2c14cd44b48a2de5bc63323eb18y1C7AWuE6ULxbgM[] = {
/* columns rows colors chars-per-pixel */
"40 40 18 1 ",
"  c black",
". c #140402",
"X c #612020",
"o c #002963",
"O c #3C5141",
"+ c #005364",
"@ c #596E5B",
"# c #5A646E",
"$ c #BD0000",
"% c #DB0000",
"& c #986F00",
"* c #AA864A",
"= c #AA8665",
"- c #73808C",
"; c #C7ADAD",
": c gray86",
"> c #F9F9F9",
", c white",
/* pixels */
",,,,,,,,,,,,,,,,,,,,,,,,,,,,,,,,,,,,,,,,",
",,,,,,,,,,,,,,,,,,,,,,,,,,,,,,,,,,,,,,,,",
",,,,,,,,,,,,,,,,,,,,,,,,,,,,,,,,,,,,,,,,",
",,,,,,,,,,,,,,,,,,,,,,,,,,,,,,,,,,,,,,,,",
",,,,,,        ,,,,,,,,,,,,,    ,,,,,,,,,",
",,,,, @@@@@@@@ ,,,,,,,,,,   XX   ,,,,,,,",
",,,, @@@@@@@@O@ ,,,,,,,,, XXXXXX ,,,,,,,",
",,,, OO@@@@@OOO ,,,,,,,, XX    XX ,,,,,,",
",,,,, O@OOOOOO ,,,,,,,,, X  ##  X ,,,,,,",
",,,, @OOOOOOO@@ ,,,,,,,,, #:##:# ,,,,,,,",
",,,, @@@@@@@@OO ,,,,,,,,, ###### ,,,,,,,",
",,,,, O@OOOOOO ,,,,,,,,,,,  ;;  ,,,,,,,,",
",,,, OOOOOOOOOO ,,,,,,,,,,, ## ,,,,,,,,,",
",,,, @@@@@@@@OO ,,,,,,,,,,,,  ,,,,,,,,,,",
",,,,, O@OOOOOO ,,,,,,,,,,,, ## ,,,,,,,,,",
",,,, @OOOOOOOOO ,,,,,,,,    ##    ,,,,,,",
",,,, @@@@@@@O@O ,,,,,,,, --    -- ,,,,,,",
",,,,, O@OOOOOO ,,,,,,,,  --$  $--  ,,,,,",
",,,, @OOOOOOOOO ,,,,,,  ---$  $---  ,,,,",
",,,, @@@@@@@@OO ,,,,,,, ---$  $--- ,,,,,",
",,,,, OOOOOOOO ,,,,,                   ,",
",,,,,,   OO   ,,,,,, &&&&&&&&&&&&&&&&& ,",
",,,,            ,,,,                   ,",
",,, ============ ,,,, +++++++++++++++ ,,",
",,, ============ ,,,, +++++++++++++++ ,,",
",,, =       ==== ,,,, +++++++++++++++ ,,",
",,, = ***** ==== ,,,, +++++++++++++++ ,,",
",,, = *%*o* ==== ,,,, +++++++++++++++ ,,",
",,, =  ***  ==== ,,,, +++++++++++++++ ,,",
",,, ==     ===== ,,,, +++++++++++++++ ,,",
",,, ============ ,,,, +++++++++++++++ ,,",
",,, ============ ,,,, +++++++++++++++ ,,",
",,, ============ ,,,, +++++++++++++++ ,,",
",,, ============ ,,,, +++++++++++++++ ,,",
",,, ============.,,,, +++++++++++++++ ,,",
",,,,            ,,,,,                 ,,",
",,,,,,,,,,,,,,,,,,,,,,,,,,,,,,,,,,,,,,,,",
",,,,,,,,,,,,,,,,,,,,,,,,,,,,,,,,,,,,,,,,",
",,,,,,,,,,,,,,,,,,,,,,,,,,,,,,,,,,,,,,,,",
",,,,,,,,,,,,,,>,,,,,,,,,,,,,,,,,,,,,,,,,"
};
