/* XPM */
static char *bleak_desk_poison_water_32x32[] = {
/* columns rows colors chars-per-pixel */
"32 32 18 1 ",
"  c black",
". c #090100",
"X c #612020",
"o c #002963",
"O c #3C5141",
"+ c #005364",
"@ c #5C565B",
"# c #596E5B",
"$ c #5A646E",
"% c #BD0000",
"& c #DB0000",
"* c #986F00",
"= c #AA864A",
"- c #AA8665",
"; c #73808C",
": c #C7ADAD",
"> c #D1C5CF",
", c gray86",
/* pixels */
"@@@@@@@@@@@@@@@@@@@@@@@@@@@@@@@@",
"@>>>>>>>>>>>>>>>>>>>>>>>>>>>>>>@",
"@>>>       >>>>>>>>>>>>>>>>>>>>@",
"@>>> ##### >>>>>>>>>>    >>>>>>@",
"@>> ####### >>>>>>>   XX   >>>>@",
"@> ######OO# >>>>>> XXXXXX >>>>@",
"@>> OOOOOOO >>>>>> XX    XX >>>@",
"@> #OOOOOO## >>>>>> $,$$,$ >>>>@",
"@> #######OO >>>>>> $$$$$$ >>>>@",
"@>> OOOOOOO >>>>>>>>  ::  >>>>>@",
"@> #######OO >>>>>>>> $$ >>>>>>@",
"@> #######OO >>>>>>>>>  >>>>>>>@",
"@>> OOOOOOO >>>>>>>>> $$ >>>>>>@",
"@> #OOOOOOOO >>>>>    $$    >>>@",
"@> ########O >>>>> ;;    ;; >>>@",
"@> #OOOOOOOO >>>>  ;;%  %;;  >>@",
"@> #######OO >>>  ;;;%  %;;;  >@",
"@>> OOOOOOO >>                  ",
"@>>>  OOO  >>> **************** ",
"@>>>  OOO  >>>                  ",
"@   -------   > ++++++++++++++ @",
"@ ----------- > ++++++++++++++ @",
"@ -       --- > ++++++++++++++ @",
"@ - ===== --- > ++++++++++++++ @",
"@ -  &=o  --- > ++++++++++++++ @",
"@ --     ---- > ++++++++++++++ @",
"@ ----------- > ++++++++++++++ @",
"@ ----------- > ++++++++++++++ @",
"@ ----------- > ++++++++++++++ @",
"@ ----------- > ++++++++++++++ @",
"@ -----------.> ++++++++++++++ @",
"@@           @@                @"
};
