/* XPM */
static char *result[] = {
/* columns rows colors chars-per-pixel */
"80 80 13 1 ",
"  c black",
". c #413754",
"X c #005364",
"o c #5A6363",
"O c #6F797A",
"+ c #914600",
"@ c #986F00",
"# c #00A406",
"$ c #7D898A",
"% c #9BAAAB",
"& c #B3C3C4",
"* c #D3E6E8",
"= c None",
/* pixels */
"================================================================================",
"================================================================================",
"============================================================================+++=",
"============================================================================+++=",
"============================================================================+++=",
"===========================================================================++++=",
"================================================================+======+++++====",
"================================================================+======+++++====",
"================================================================+======+++++====",
"===========          ===========================================+======+++======",
"=          oooooooo% =================================++++++====++++++++++======",
"= %%%%%%%%%********* =================================+====++========++=====++==",
"= %%%%%%%%%********* =================================+====++========++=====++==",
"=   %%%%%%%********* =================================+====++========++=====++==",
"==== *****OOOOoooooo =================================+=====++++======+=====++==",
"==== oooooOOOOooooo  =================================+======+++======+=====++==",
"= OOOOOOOOO%%%%%%%% =========================================+++++++++++++++++==",
"= OOOOOOOOO%%%%%%%% =========================================+++++++++++++++++==",
"= OOOOOOOOO%%%%%%%% ==================================================++++======",
"==== ****ooooo**OOO ==================================================++++======",
"==== OOOOOOOOOOOOOO  ==================================================+++======",
"==== %%%%%%********* ====================                         ====++++==++++",
"==== %%%%%%********* ==================== $$$$$$$$$$$$$$$$$$$$$$$ ====++++==++++",
"==== %%%%%%********* ==================== $$$$$$$$$$$$$$$$$$$$$$$ ====++++==++==",
"==== ******OOOOOOOOO ===================  $$$$$$$$$$$$$$$$$$$$$$$ ===+=++++=++==",
"==== %%%%%%%%%OOOOOO =================== $$$$$$$$$$$$$$$$$$$$$$$  ===+=+++++====",
"==== OOOOO%%%%%%%%%% =================== $$$$$$&&&&&&&&$$$$$$$$$ ====+=+++==###=",
"==== OOOOO%%%%%%%%%% ==================  $$$$$&&&&&&&&&&$$$$$$$$ ====+=+++==###=",
"==== OOOOO%%%%%%%%%% ==================  $$$$$&&&&&&&&&&$$$$$$$$ ====+=+++==###=",
"==== *****ooooOOOOOO ================== $$$$$$&&&&&&&&&&$$$$$$$ =======+++==###=",
"==== OOOOOOOOOOOOOO  ================   $$$$$$&$$$&&$$$&$$$$$$  ======++++======",
"=   %%%%%%%%%%OOOOO =================  $$$$$$$&$$$&&$$$&$$$$$ =======++=========",
"= %%%%%%%%%%%%OOOOO ================= $$$$$$$$&&&&&&&&&&$$$$ ========++=========",
"= %%%%%%%%%%%%OOOOO ================= $$$$$$$$&&&&&&&&&&$$$$ ========++=========",
"= OOOOOOOOOOOOOO***  ===============  $$$$$$$$$&&&&&&&&$$$$$ ========+==========",
"= ooo*************** =============== $$$$$$$$$$$$&$$&&$$$$$  ========+==========",
"= oooooooOoooooo%%%% =====           $$$$$$$$$$$$$$$$$$$$$$ ====               =",
"= ooooOOOOOOOOoo%%%% ===== $$$$$$$$$$$$$$$$$$$$$$$$$$$$$$$$ ==== ............. =",
"=   ooOOOOOOOOoo%%%% ===== $$$$$$$$$$$$$$$$$$$$$$$$$$$$$$$$ ==== ............. =",
"====  ********OOoooo ==== $$$$$$$$$$$$$$$$$$$$$$$$$$$$$$$$$ ==== ............. =",
"                                                                                ",
" @@@@@@@@@@@@@@@@@@@@@@@@@@@@@@@@@@@@@@@@@@@@@@@@@@@@@@@@@@@@@@@@@@@@@@@@@@@@@@ ",
" @@@@@@@@@@@@@@@@@@@@@@@@@@@@@@@@@@@@@@@@@@@@@@@@@@@@@@@@@@@@@@@@@@@@@@@@@@@@@@ ",
" @@@@@@@@@@@@@@@@@@@@@@@@@@@@@@@@@@@@@@@@@@@@@@@@@@@@@@@@@@@@@@@@@@@@@@@@@@@@@@ ",
" @@@@@@@@@@@@@@@@@@@@@@@@@@@@@@@@@@@@@@@@@@@@@@@@@@@@@@@@@@@@@@@@@@@@@@@@@@@@@@ ",
"                                                                                ",
"= XXXXXXXXXXXXXXXXXXXXXXXXXXXXXXXXXXXXXXXXXXXXXXXXXXXXXXXXXXXXXXXXXXXXXXXXXXXX =",
"= XXXXXXXXXXXXXXXXXXXXXXXXXXXXXXXXXXXXXXXXXXXXXXXXXXXXXXXXXXXXXXXXXXXXXXXXXXXX =",
"= XXXXXXXXXXXXXXXXXXXXXXXXXXXXXXXXXXXXXXXXXXXXXXXXXXXXXXXXXXXXXXXXXXXXXXXXXXXX =",
"= XXXXXXXXXXXXXXXXXXXXXXXXXXXXXXXXXXXXXXXXXXXXXXXXXXXXXXXXXXXXXXXXXXXXXXXXXXXX =",
"= XXXXXXXXXXXXXXXXXXXXXXXXXXXXXXXXXXXXXXXXXXXXXXXXXXXXXXXXXXXXXXXXXXXXXXXXXXXX =",
"= XXXXXXXXXXXXXXXXXXXXXXXXXXXXXXXXXXXXXXXXXXXXXXXXXXXXXXXXXXXXXXXXXXXXXXXXXXXX =",
"= XXXXXXXXXXXXXXXXXXXXXXXXXXXXXXXXXXXXXXXXXXXXXXXXXXXXXXXXXXXXXXXXXXXXXXXXXXXX =",
"= XXXXXXXXXXXXXXXXXXXXXXXXXXXXXXXXXXXXXXXXXXXXXXXXXXXXXXXXXXXXXXXXXXXXXXXXXXXX =",
"= XXXXXXXXXXXXXXXXXXXXXXXXXXXXXXXXXXXXXXXXXXXXXXXXXXXXXXXXXXXXXXXXXXXXXXXXXXXX =",
"= XXXXXXXXXXXXXXXXXXXXXXXXXXXXXXXXXXXXXXXXXXXXXXXXXXXXXXXXXXXXXXXXXXXXXXXXXXXX =",
"= XXXXXXXXXXXXXXXXXXXXXXXXXXXXXXXXXXXXXXXXXXXXXXXXXXXXXXXXXXXXXXXXXXXXXXXXXXXX =",
"= XXXXXXXXXXXXXXXXXXXXXXXXXXXXXXXXXXXXXXXXXXXXXXXXXXXXXXXXXXXXXXXXXXXXXXXXXXXX =",
"= XXXXXXXXXXXXXXXXXXXXXXXXXXXXXXXXXXXXXXXXXXXXXXXXXXXXXXXXXXXXXXXXXXXXXXXXXXXX =",
"= XXXXXXXXXXXXXXXXXXXXXXXXXXXXXXXXXXXXXXXXXXXXXXXXXXXXXXXXXXXXXXXXXXXXXXXXXXXX =",
"= XXXXXXXXXXXXXXXXXXXXXXXXXXXXXXXXXXXXXXXXXXXXXXXXXXXXXXXXXXXXXXXXXXXXXXXXXXXX =",
"= XXXXXXXXXXXXXXXXXXXXXXXXXXXXXXXXXXXXXXXXXXXXXXXXXXXXXXXXXXXXXXXXXXXXXXXXXXXX =",
"= XXXXXXXXXXXXXXXXXXXXXXXXXXXXXXXXXXXXXXXXXXXXXXXXXXXXXXXXXXXXXXXXXXXXXXXXXXXX =",
"= XXXXXXXXXXXXXXXXXXXXXXXXXXXXXXXXXXXXXXXXXXXXXXXXXXXXXXXXXXXXXXXXXXXXXXXXXXXX =",
"= XXXXXXXXXXXXXXXXXXXXXXXXXXXXXXXXXXXXXXXXXXXXXXXXXXXXXXXXXXXXXXXXXXXXXXXXXXXX =",
"= XXXXXXXXXXXXXXXXXXXXXXXXXXXXXXXXXXXXXXXXXXXXXXXXXXXXXXXXXXXXXXXXXXXXXXXXXXXX =",
"= XXXXXXXXXXXXXXXXXXXXXXXXXXXXXXXXXXXXXXXXXXXXXXXXXXXXXXXXXXXXXXXXXXXXXXXXXXXX =",
"= XXXXXXXXXXXXXXXXXXXXXXXXXXXXXXXXXXXXXXXXXXXXXXXXXXXXXXXXXXXXXXXXXXXXXXXXXXXX =",
"= XXXXXXXXXXXXXXXXXXXXXXXXXXXXXXXXXXXXXXXXXXXXXXXXXXXXXXXXXXXXXXXXXXXXXXXXXXXX =",
"= XXXXXXXXXXXXXXXXXXXXXXXXXXXXXXXXXXXXXXXXXXXXXXXXXXXXXXXXXXXXXXXXXXXXXXXXXXXX =",
"= XXXXXXXXXXXXXXXXXXXXXXXXXXXXXXXXXXXXXXXXXXXXXXXXXXXXXXXXXXXXXXXXXXXXXXXXXXXX =",
"= XXXXXXXXXXXXXXXXXXXXXXXXXXXXXXXXXXXXXXXXXXXXXXXXXXXXXXXXXXXXXXXXXXXXXXXXXXXX =",
"= XXXXXXXXXXXXXXXXXXXXXXXXXXXXXXXXXXXXXXXXXXXXXXXXXXXXXXXXXXXXXXXXXXXXXXXXXXXX =",
"= XXXXXXXXXXXXXXXXXXXXXXXXXXXXXXXXXXXXXXXXXXXXXXXXXXXXXXXXXXXXXXXXXXXXXXXXXXXX =",
"= XXXXXXXXXXXXXXXXXXXXXXXXXXXXXXXXXXXXXXXXXXXXXXXXXXXXXXXXXXXXXXXXXXXXXXXXXXXX =",
"= XXXXXXXXXXXXXXXXXXXXXXXXXXXXXXXXXXXXXXXXXXXXXXXXXXXXXXXXXXXXXXXXXXXXXXXXXXXX =",
"= XXXXXXXXXXXXXXXXXXXXXXXXXXXXXXXXXXXXXXXXXXXXXXXXXXXXXXXXXXXXXXXXXXXXXXXXXXXX =",
"= XXXXXXXXXXXXXXXXXXXXXXXXXXXXXXXXXXXXXXXXXXXXXXXXXXXXXXXXXXXXXXXXXXXXXXXXXXXX =",
"= XXXXXXXXXXXXXXXXXXXXXXXXXXXXXXXXXXXXXXXXXXXXXXXXXXXXXXXXXXXXXXXXXXXXXXXXXXXX =",
"=                                                                              ="
};
