/* XPM */
static char *bleak_desk_clock_48x48[] = {
/* columns rows colors chars-per-pixel */
"48 48 9 1 ",
"  c black",
". c #005364",
"X c #5C565B",
"o c #4F6353",
"O c #986F00",
"+ c #855F51",
"@ c #7D898A",
"# c #808C8C",
"$ c #D1C5CF",
/* pixels */
"XXXXXXXXXXXXXXXXXXXXXXXXXXXXXXXXXXXXXXXXXXXXXXXX",
"X$$$$$$$$$$$$$$$$$$$$$$$$$$$$$$$$$$$$$$$$$$$$$$X",
"X$$$$$$$$$$$$$$$$$$$$$$$$$$$$$$$$$$$$$$$$$$$$$$X",
"X$$$$$$$$$$$$$$$$$$$$$$$$$$$$$$$$$$$$$$$$$$$$$$X",
"X$$$$$$$$$$$$$$$$$$$$$$$$$$$$$$$$$$$$$$$$$$$$$$X",
"X$$$$$$$$$$$$$$$$$$$$$$$$$$$$$$$$$$$$$$$$$$$$$$X",
"X$$$$$$$$$$$$$$$$$$$$$$$$$$$$$$$$$$$$$$$$$$$$$$X",
"X$$$$$$$$$$$$$$$$$$$$$$$$$$$$$$$$$$$$$$$$$$$$$$X",
"X$$$$$$   $$$$$$$$$$$$$$$$$$$$$$$$$$$$$$$$$$$$$X",
"X$$$   @@@   $$$$$$$$$$$$$$$$$$$$$$$$$$$$$$$$$$X",
"X$$ @@@@.@@@@ $$$$$$$$$$$$$$$$$$$$$$$$$$$$$$$$$X",
"X$$ @@@@@@@@@ $$$$$$$$$$$$$$$$$$$$$$$$$$$$$$$$$X",
"X$ @@.@@@@@.@@ $$$$$$$$$$$$$$$$$$$$$$$$$$$$$$$$X",
"X @@@@@@ @@@@@@ $$$$$$$$$              $$$$$$$$X",
"X @@@@@@ @@@@@@ $$$$$$$$$ @@@@@@@@@@@@ $$$$$$$$X",
"X @.@@@@ @@@@.@ $$$$$$$$  @@@@@@@@@@@@ $$$$$$$$X",
"X @@@@   @@@@@@ $$$$$$   @@@@@@@@@@@@@ $$+$$$$$X",
"X @@@@@@@@@@@@@ $$$$$$ @@@@@@@@@@@@@@@ $$+$$$$$X",
"X$ @@.@@@@@.@@ $$$$$$$ @@@@@@@@@@@@@@@ $$+$o$$$X",
"X$$ @@@@@@@@@ $$$$$$$  @@@@@@@@@@@@@@@ $$+$o$$$X",
"X$$ @@@@.@@@@ $$$$$$$ @@@@@@@@@@@@@@   $$+$o$$$X",
"X$$$   @@@   $$$      @@@@@@@@@@@@@ $$$$     $$X",
"X$$$$$$   $$$$$$ @@@@@@@@@@@@@@@@@@ $$$$ @#@ $$X",
"X$$$$$$   $$$$$$ @@@@@@@@@@@@@@@@@@ $$$$ @#@ $$X",
"                                                ",
" OOOOOOOOOOOOOOOOOOOOOOOOOOOOOOOOOOOOOOOOOOOOOO ",
" OOOOOOOOOOOOOOOOOOOOOOOOOOOOOOOOOOOOOOOOOOOOOO ",
"  ...........................................   ",
"X ........................................... $X",
"X ........................................... $X",
"X ........................................... $X",
"X ........................................... $X",
"X ........................................... $X",
"X ........................................... $X",
"X ........................................... $X",
"X ........................................... $X",
"X ........................................... $X",
"X ........................................... $X",
"X ........................................... $X",
"X ........................................... $X",
"X ........................................... $X",
"X ........................................... $X",
"X ........................................... $X",
"X                                             $X",
"X$$$$$$$$$$$$$$$$$$$$$$$$$$$$$$$$$$$$$$$$$$$$$$X",
"X$$$$$$$$$$$$$$$$$$$$$$$$$$$$$$$$$$$$$$$$$$$$$$X",
"X$$$$$$$$$$$$$$$$$$$$$$$$$$$$$$$$$$$$$$$$$$$$$$X",
"XXXXXXXXXXXXXXXXXXXXXXXXXXXXXXXXXXXXXXXXXXXXXXXX"
};
