/* XPM */
static char *result[] = {
/* columns rows colors chars-per-pixel */
"64 64 8 1 ",
"  c black",
". c #005364",
"X c #4F6353",
"o c #986F00",
"O c #855F51",
"+ c #7D898A",
"@ c #808C8C",
"# c None",
/* pixels */
"################################################################",
"################################################################",
"################################################################",
"################################################################",
"################################################################",
"################################################################",
"################################################################",
"################################################################",
"################################################################",
"################################################################",
"################################################################",
"#########    ###################################################",
"#####    ++++    ###############################################",
"#### ++++++++++++ ##############################################",
"#### +++++..+++++ ##############################################",
"#### ++++++++++++ ##############################################",
"### ++.++++++++.++ #############################################",
"## ++++++++ +++++++ #############                   ############",
"## ++++++++ +++++++ ############# +++++++++++++++++ ############",
"## +.++++++ +++++.+ ############ ++++++++++++++++++ ############",
"## +.++++++ +++++.+ ############ ++++++++++++++++++ ############",
"## ++++++   +++++++ ###########  +++++++++++++++++ ####O########",
"## ++++++++++++++++ ########### ++++++++++++++++++ ####O########",
"## ++++++++++++++++ ##########  +++++++++++++++++  ####O########",
"### +++.+++++++.++ ########### ++++++++++++++++++ #####O#XX#####",
"#### ++++++++++++ ###########  +++++++++++++++++  #####O#XX#####",
"#### ++++++++++++ ########### ++++++++++++++++++ ######O#XX#####",
"#### +++++..+++++ ########## ++++++++++++++++++  ######O#XX#####",
"#####    ++++    ####        ++++++++++++++++++ #####       ####",
"#########    ######## +++++++++++++++++++++++++ ##### ++@++ ####",
"#########    ######## +++++++++++++++++++++++++ ##### ++@++ ####",
"#########    ######## +++++++++++++++++++++++++ ##### ++@++ ####",
"                                                                ",
" oooooooooooooooooooooooooooooooooooooooooooooooooooooooooooooo ",
" oooooooooooooooooooooooooooooooooooooooooooooooooooooooooooooo ",
" oooooooooooooooooooooooooooooooooooooooooooooooooooooooooooooo ",
"                                                                ",
"# ............................................................ #",
"# ............................................................ #",
"# ............................................................ #",
"# ............................................................ #",
"# ............................................................ #",
"# ............................................................ #",
"# ............................................................ #",
"# ............................................................ #",
"# ............................................................ #",
"# ............................................................ #",
"# ............................................................ #",
"# ............................................................ #",
"# ............................................................ #",
"# ............................................................ #",
"# ............................................................ #",
"# ............................................................ #",
"# ............................................................ #",
"# ............................................................ #",
"# ............................................................ #",
"# ............................................................ #",
"# ............................................................ #",
"# ............................................................ #",
"# ............................................................ #",
"# ............................................................ #",
"# ............................................................ #",
"# ............................................................ #",
"#                                                              #"
};
