/* XPM */
static char *result[] = {
/* columns rows colors chars-per-pixel */
"112 112 8 1 ",
"  c black",
". c #005364",
"X c #4F6353",
"o c #986F00",
"O c #855F51",
"+ c #7D898A",
"@ c #808C8C",
"# c None",
/* pixels */
"################################################################################################################",
"################################################################################################################",
"################################################################################################################",
"################################################################################################################",
"################################################################################################################",
"################################################################################################################",
"################################################################################################################",
"################################################################################################################",
"################################################################################################################",
"################################################################################################################",
"################################################################################################################",
"################################################################################################################",
"################################################################################################################",
"################################################################################################################",
"################################################################################################################",
"################################################################################################################",
"################################################################################################################",
"################################################################################################################",
"################################################################################################################",
"################       #########################################################################################",
"################       #########################################################################################",
"#########       +++++++       ##################################################################################",
"#########       +++++++       ##################################################################################",
"#######  +++++++++++++++++++++ #################################################################################",
"#######  ++++++++....+++++++++ #################################################################################",
"#######  ++++++++....+++++++++ #################################################################################",
"#######  +++++++++++++++++++++ #################################################################################",
"#######  +++++++++++++++++++++ #################################################################################",
"#####  +++..++++++++++++++..+++  ###############################################################################",
"#####  +++..++++++++++++++..+++  ###############################################################################",
"###  ++++++++++++++  ++++++++++++  #######################                                 #####################",
"###  ++++++++++++++  ++++++++++++  ####################### ++++++++++++++++++++++++++++++  #####################",
"###  ++++++++++++++  ++++++++++++  ####################### ++++++++++++++++++++++++++++++  #####################",
"###  ++..++++++++++  +++++++++.++  #####################  +++++++++++++++++++++++++++++++  #####################",
"###  ++..++++++++++  +++++++++.++  #####################  +++++++++++++++++++++++++++++++  #####################",
"###  ++..++++++++++  +++++++++.++  #####################  +++++++++++++++++++++++++++++++  #####################",
"###  ++..++++++++++  +++++++++.++  #####################  +++++++++++++++++++++++++++++++  #####################",
"###  +++++++++++     ++++++++++++  ###################    +++++++++++++++++++++++++++++  #######OO##############",
"###  ++++++++++++++++++++++++++++  ###################  +++++++++++++++++++++++++++++++  #######OO##############",
"###  ++++++++++++++++++++++++++++  ###################  +++++++++++++++++++++++++++++++  #######OO##############",
"###  ++++++++++++++++++++++++++++  #################    ++++++++++++++++++++++++++++++   #######OO##############",
"###  ++++++++++++++++++++++++++++  #################    ++++++++++++++++++++++++++++++   #######OO##############",
"#####  +++++..++++++++++++..+++  ###################  ++++++++++++++++++++++++++++++++ #########OO##XXX#########",
"#####  +++++..++++++++++++..+++  ###################  ++++++++++++++++++++++++++++++++ #########OO##XXX#########",
"#######  +++++++++++++++++++++ ####################   ++++++++++++++++++++++++++++++   #########OO##XXX#########",
"#######  +++++++++++++++++++++ #################### ++++++++++++++++++++++++++++++++  ##########OO##XXX#########",
"#######  +++++++++++++++++++++ #################### ++++++++++++++++++++++++++++++++  ##########OO##XXX#########",
"#######  ++++++++....+++++++++ ##################  +++++++++++++++++++++++++++++++    ##########OO##XXX#########",
"#######  ++++++++....+++++++++ ##################  +++++++++++++++++++++++++++++++    ##########OO##XXX#########",
"#########       +++++++       #######              +++++++++++++++++++++++++++++++  #########            #######",
"#########       +++++++       #######              +++++++++++++++++++++++++++++++  #########            #######",
"################       ############## ++++++++++++++++++++++++++++++++++++++++++++  ######### ++++@@+++  #######",
"################       ############## ++++++++++++++++++++++++++++++++++++++++++++  ######### ++++@@+++  #######",
"################       ############## ++++++++++++++++++++++++++++++++++++++++++++  ######### ++++@@+++  #######",
"################       ############## ++++++++++++++++++++++++++++++++++++++++++++  ######### ++++@@+++  #######",
"################       ############## ++++++++++++++++++++++++++++++++++++++++++++  ######### ++++@@+++  #######",
"                                                                                                                ",
"                                                                                                                ",
"  oooooooooooooooooooooooooooooooooooooooooooooooooooooooooooooooooooooooooooooooooooooooooooooooooooooooooooo  ",
"  oooooooooooooooooooooooooooooooooooooooooooooooooooooooooooooooooooooooooooooooooooooooooooooooooooooooooooo  ",
"  oooooooooooooooooooooooooooooooooooooooooooooooooooooooooooooooooooooooooooooooooooooooooooooooooooooooooooo  ",
"  oooooooooooooooooooooooooooooooooooooooooooooooooooooooooooooooooooooooooooooooooooooooooooooooooooooooooooo  ",
"  oooooooooooooooooooooooooooooooooooooooooooooooooooooooooooooooooooooooooooooooooooooooooooooooooooooooooooo  ",
"                                                                                                                ",
"                                                                                                                ",
"## .........................................................................................................  ##",
"## .........................................................................................................  ##",
"## .........................................................................................................  ##",
"## .........................................................................................................  ##",
"## .........................................................................................................  ##",
"## .........................................................................................................  ##",
"## .........................................................................................................  ##",
"## .........................................................................................................  ##",
"## .........................................................................................................  ##",
"## .........................................................................................................  ##",
"## .........................................................................................................  ##",
"## .........................................................................................................  ##",
"## .........................................................................................................  ##",
"## .........................................................................................................  ##",
"## .........................................................................................................  ##",
"## .........................................................................................................  ##",
"## .........................................................................................................  ##",
"## .........................................................................................................  ##",
"## .........................................................................................................  ##",
"## .........................................................................................................  ##",
"## .........................................................................................................  ##",
"## .........................................................................................................  ##",
"## .........................................................................................................  ##",
"## .........................................................................................................  ##",
"## .........................................................................................................  ##",
"## .........................................................................................................  ##",
"## .........................................................................................................  ##",
"## .........................................................................................................  ##",
"## .........................................................................................................  ##",
"## .........................................................................................................  ##",
"## .........................................................................................................  ##",
"## .........................................................................................................  ##",
"## .........................................................................................................  ##",
"## .........................................................................................................  ##",
"## .........................................................................................................  ##",
"## .........................................................................................................  ##",
"## .........................................................................................................  ##",
"## .........................................................................................................  ##",
"## .........................................................................................................  ##",
"## .........................................................................................................  ##",
"## .........................................................................................................  ##",
"## .........................................................................................................  ##",
"## .........................................................................................................  ##",
"## .........................................................................................................  ##",
"## .........................................................................................................  ##",
"##                                                                                                            ##",
"##                                                                                                            ##"
};
