/* XPM */
static char *_758cc45b6fc4cbbc422270f669c1b42XJBVaPUFxG4b5Ez1[] = {
/* columns rows colors chars-per-pixel */
"40 40 14 1 ",
"  c black",
". c #151515",
"X c #413754",
"o c #005364",
"O c #5A6363",
"+ c #6F797A",
"@ c #914600",
"# c #986F00",
"$ c #00A406",
"% c #7D898A",
"& c #9BAAAB",
"* c #B3C3C4",
"= c #D3E6E8",
"- c white",
/* pixels */
"----------------------------------------",
"----------------------------------------",
"-------------------------------------@@-",
"--------------------------------@---@@--",
"------     ---------------------@---@---",
"-     OOO& ----------------@@@--@@@@@---",
"- &&&&==== ----------------@-@@---@@--@-",
"-- ==++OO  ----------------@--@@---@--@-",
"- ++&&&&& ---------------------@@@@@@@@-",
"-- =OOO=+ -------------------------@@---",
"-- ++++++  -------------------------@---",
"-- &&&==== ----------            --@@-@-",
"-- ===++++ ---------- %%%%%%%%%% -@-@@--",
"-- ++&&&&& ---------  %%***%%%%% -@-@-$-",
"-- ==OO+++ --------  %%*****%%%  ---@-$-",
"-- ++++++  -------- %%%*%*%*%%% ---@@---",
"- &&&&&++ --------  %%%*****%%  --@@----",
"- +++====  ------- %%%%%*%*%%  ---@-----",
"- OO+&&&&& --      %%%%%%%%%% --       -",
"-- ====+OO - %%%%%%%%%%%%%%%% -- XXXXX -",
"-   .                                  -",
"- #################################### -",
"-                                      -",
"-- oooooooooooooooooooooooooooooooooo --",
"-- oooooooooooooooooooooooooooooooooo --",
"-- oooooooooooooooooooooooooooooooooo --",
"-- oooooooooooooooooooooooooooooooooo --",
"-- oooooooooooooooooooooooooooooooooo --",
"-- oooooooooooooooooooooooooooooooooo --",
"-- oooooooooooooooooooooooooooooooooo --",
"-- oooooooooooooooooooooooooooooooooo --",
"-- oooooooooooooooooooooooooooooooooo --",
"-- oooooooooooooooooooooooooooooooooo --",
"-- oooooooooooooooooooooooooooooooooo --",
"-- oooooooooooooooooooooooooooooooooo --",
"--                                    --",
"----------------------------------------",
"----------------------------------------",
"----------------------------------------",
"----------------------------------------"
};
