/* XPM */
static char *bleak_desk_clock_112x112[] = {
/* columns rows colors chars-per-pixel */
"112 112 9 1 ",
"  c black",
". c #005364",
"X c #5C565B",
"o c #4F6353",
"O c #986F00",
"+ c #855F51",
"@ c #7D898A",
"# c #808C8C",
"$ c #D1C5CF",
/* pixels */
"XXXXXXXXXXXXXXXXXXXXXXXXXXXXXXXXXXXXXXXXXXXXXXXXXXXXXXXXXXXXXXXXXXXXXXXXXXXXXXXXXXXXXXXXXXXXXXXXXXXXXXXXXXXXXXXX",
"XXXXXXXXXXXXXXXXXXXXXXXXXXXXXXXXXXXXXXXXXXXXXXXXXXXXXXXXXXXXXXXXXXXXXXXXXXXXXXXXXXXXXXXXXXXXXXXXXXXXXXXXXXXXXXXX",
"XX$$$$$$$$$$$$$$$$$$$$$$$$$$$$$$$$$$$$$$$$$$$$$$$$$$$$$$$$$$$$$$$$$$$$$$$$$$$$$$$$$$$$$$$$$$$$$$$$$$$$$$$$$$$$XX",
"XX$$$$$$$$$$$$$$$$$$$$$$$$$$$$$$$$$$$$$$$$$$$$$$$$$$$$$$$$$$$$$$$$$$$$$$$$$$$$$$$$$$$$$$$$$$$$$$$$$$$$$$$$$$$$XX",
"XX$$$$$$$$$$$$$$$$$$$$$$$$$$$$$$$$$$$$$$$$$$$$$$$$$$$$$$$$$$$$$$$$$$$$$$$$$$$$$$$$$$$$$$$$$$$$$$$$$$$$$$$$$$$$XX",
"XX$$$$$$$$$$$$$$$$$$$$$$$$$$$$$$$$$$$$$$$$$$$$$$$$$$$$$$$$$$$$$$$$$$$$$$$$$$$$$$$$$$$$$$$$$$$$$$$$$$$$$$$$$$$$XX",
"XX$$$$$$$$$$$$$$$$$$$$$$$$$$$$$$$$$$$$$$$$$$$$$$$$$$$$$$$$$$$$$$$$$$$$$$$$$$$$$$$$$$$$$$$$$$$$$$$$$$$$$$$$$$$$XX",
"XX$$$$$$$$$$$$$$$$$$$$$$$$$$$$$$$$$$$$$$$$$$$$$$$$$$$$$$$$$$$$$$$$$$$$$$$$$$$$$$$$$$$$$$$$$$$$$$$$$$$$$$$$$$$$XX",
"XX$$$$$$$$$$$$$$$$$$$$$$$$$$$$$$$$$$$$$$$$$$$$$$$$$$$$$$$$$$$$$$$$$$$$$$$$$$$$$$$$$$$$$$$$$$$$$$$$$$$$$$$$$$$$XX",
"XX$$$$$$$$$$$$$$$$$$$$$$$$$$$$$$$$$$$$$$$$$$$$$$$$$$$$$$$$$$$$$$$$$$$$$$$$$$$$$$$$$$$$$$$$$$$$$$$$$$$$$$$$$$$$XX",
"XX$$$$$$$$$$$$$$$$$$$$$$$$$$$$$$$$$$$$$$$$$$$$$$$$$$$$$$$$$$$$$$$$$$$$$$$$$$$$$$$$$$$$$$$$$$$$$$$$$$$$$$$$$$$$XX",
"XX$$$$$$$$$$$$$$$$$$$$$$$$$$$$$$$$$$$$$$$$$$$$$$$$$$$$$$$$$$$$$$$$$$$$$$$$$$$$$$$$$$$$$$$$$$$$$$$$$$$$$$$$$$$$XX",
"XX$$$$$$$$$$$$$$$$$$$$$$$$$$$$$$$$$$$$$$$$$$$$$$$$$$$$$$$$$$$$$$$$$$$$$$$$$$$$$$$$$$$$$$$$$$$$$$$$$$$$$$$$$$$$XX",
"XX$$$$$$$$$$$$$$$$$$$$$$$$$$$$$$$$$$$$$$$$$$$$$$$$$$$$$$$$$$$$$$$$$$$$$$$$$$$$$$$$$$$$$$$$$$$$$$$$$$$$$$$$$$$$XX",
"XX$$$$$$$$$$$$$$$$$$$$$$$$$$$$$$$$$$$$$$$$$$$$$$$$$$$$$$$$$$$$$$$$$$$$$$$$$$$$$$$$$$$$$$$$$$$$$$$$$$$$$$$$$$$$XX",
"XX$$$$$$$$$$$$$$$$$$$$$$$$$$$$$$$$$$$$$$$$$$$$$$$$$$$$$$$$$$$$$$$$$$$$$$$$$$$$$$$$$$$$$$$$$$$$$$$$$$$$$$$$$$$$XX",
"XX$$$$$$$$$$$$$$$$$$$$$$$$$$$$$$$$$$$$$$$$$$$$$$$$$$$$$$$$$$$$$$$$$$$$$$$$$$$$$$$$$$$$$$$$$$$$$$$$$$$$$$$$$$$$XX",
"XX$$$$$$$$$$$$$$$$$$$$$$$$$$$$$$$$$$$$$$$$$$$$$$$$$$$$$$$$$$$$$$$$$$$$$$$$$$$$$$$$$$$$$$$$$$$$$$$$$$$$$$$$$$$$XX",
"XX$$$$$$$$$$$$$$$$$$$$$$$$$$$$$$$$$$$$$$$$$$$$$$$$$$$$$$$$$$$$$$$$$$$$$$$$$$$$$$$$$$$$$$$$$$$$$$$$$$$$$$$$$$$$XX",
"XX$$$$$$$$$$$$$$       $$$$$$$$$$$$$$$$$$$$$$$$$$$$$$$$$$$$$$$$$$$$$$$$$$$$$$$$$$$$$$$$$$$$$$$$$$$$$$$$$$$$$$$XX",
"XX$$$$$$$$$$$$$$       $$$$$$$$$$$$$$$$$$$$$$$$$$$$$$$$$$$$$$$$$$$$$$$$$$$$$$$$$$$$$$$$$$$$$$$$$$$$$$$$$$$$$$$XX",
"XX$$$$$$$       @@@@@@@       $$$$$$$$$$$$$$$$$$$$$$$$$$$$$$$$$$$$$$$$$$$$$$$$$$$$$$$$$$$$$$$$$$$$$$$$$$$$$$$$XX",
"XX$$$$$$$       @@@@@@@       $$$$$$$$$$$$$$$$$$$$$$$$$$$$$$$$$$$$$$$$$$$$$$$$$$$$$$$$$$$$$$$$$$$$$$$$$$$$$$$$XX",
"XX$$$$$  @@@@@@@@@@@@@@@@@@@@@ $$$$$$$$$$$$$$$$$$$$$$$$$$$$$$$$$$$$$$$$$$$$$$$$$$$$$$$$$$$$$$$$$$$$$$$$$$$$$$$XX",
"XX$$$$$  @@@@@@@@....@@@@@@@@@ $$$$$$$$$$$$$$$$$$$$$$$$$$$$$$$$$$$$$$$$$$$$$$$$$$$$$$$$$$$$$$$$$$$$$$$$$$$$$$$XX",
"XX$$$$$  @@@@@@@@....@@@@@@@@@ $$$$$$$$$$$$$$$$$$$$$$$$$$$$$$$$$$$$$$$$$$$$$$$$$$$$$$$$$$$$$$$$$$$$$$$$$$$$$$$XX",
"XX$$$$$  @@@@@@@@@@@@@@@@@@@@@ $$$$$$$$$$$$$$$$$$$$$$$$$$$$$$$$$$$$$$$$$$$$$$$$$$$$$$$$$$$$$$$$$$$$$$$$$$$$$$$XX",
"XX$$$$$  @@@@@@@@@@@@@@@@@@@@@ $$$$$$$$$$$$$$$$$$$$$$$$$$$$$$$$$$$$$$$$$$$$$$$$$$$$$$$$$$$$$$$$$$$$$$$$$$$$$$$XX",
"XX$$$  @@@..@@@@@@@@@@@@@@..@@@  $$$$$$$$$$$$$$$$$$$$$$$$$$$$$$$$$$$$$$$$$$$$$$$$$$$$$$$$$$$$$$$$$$$$$$$$$$$$$XX",
"XX$$$  @@@..@@@@@@@@@@@@@@..@@@  $$$$$$$$$$$$$$$$$$$$$$$$$$$$$$$$$$$$$$$$$$$$$$$$$$$$$$$$$$$$$$$$$$$$$$$$$$$$$XX",
"XX$  @@@@@@@@@@@@@@  @@@@@@@@@@@@  $$$$$$$$$$$$$$$$$$$$$$$                                 $$$$$$$$$$$$$$$$$$$XX",
"XX$  @@@@@@@@@@@@@@  @@@@@@@@@@@@  $$$$$$$$$$$$$$$$$$$$$$$ @@@@@@@@@@@@@@@@@@@@@@@@@@@@@@  $$$$$$$$$$$$$$$$$$$XX",
"XX$  @@@@@@@@@@@@@@  @@@@@@@@@@@@  $$$$$$$$$$$$$$$$$$$$$$$ @@@@@@@@@@@@@@@@@@@@@@@@@@@@@@  $$$$$$$$$$$$$$$$$$$XX",
"XX$  @@..@@@@@@@@@@  @@@@@@@@@.@@  $$$$$$$$$$$$$$$$$$$$$  @@@@@@@@@@@@@@@@@@@@@@@@@@@@@@@  $$$$$$$$$$$$$$$$$$$XX",
"XX$  @@..@@@@@@@@@@  @@@@@@@@@.@@  $$$$$$$$$$$$$$$$$$$$$  @@@@@@@@@@@@@@@@@@@@@@@@@@@@@@@  $$$$$$$$$$$$$$$$$$$XX",
"XX$  @@..@@@@@@@@@@  @@@@@@@@@.@@  $$$$$$$$$$$$$$$$$$$$$  @@@@@@@@@@@@@@@@@@@@@@@@@@@@@@@  $$$$$$$$$$$$$$$$$$$XX",
"XX$  @@..@@@@@@@@@@  @@@@@@@@@.@@  $$$$$$$$$$$$$$$$$$$$$  @@@@@@@@@@@@@@@@@@@@@@@@@@@@@@@  $$$$$$$$$$$$$$$$$$$XX",
"XX$  @@@@@@@@@@@     @@@@@@@@@@@@  $$$$$$$$$$$$$$$$$$$    @@@@@@@@@@@@@@@@@@@@@@@@@@@@@  $$$$$$$++$$$$$$$$$$$$XX",
"XX$  @@@@@@@@@@@@@@@@@@@@@@@@@@@@  $$$$$$$$$$$$$$$$$$$  @@@@@@@@@@@@@@@@@@@@@@@@@@@@@@@  $$$$$$$++$$$$$$$$$$$$XX",
"XX$  @@@@@@@@@@@@@@@@@@@@@@@@@@@@  $$$$$$$$$$$$$$$$$$$  @@@@@@@@@@@@@@@@@@@@@@@@@@@@@@@  $$$$$$$++$$$$$$$$$$$$XX",
"XX$  @@@@@@@@@@@@@@@@@@@@@@@@@@@@  $$$$$$$$$$$$$$$$$    @@@@@@@@@@@@@@@@@@@@@@@@@@@@@@   $$$$$$$++$$$$$$$$$$$$XX",
"XX$  @@@@@@@@@@@@@@@@@@@@@@@@@@@@  $$$$$$$$$$$$$$$$$    @@@@@@@@@@@@@@@@@@@@@@@@@@@@@@   $$$$$$$++$$$$$$$$$$$$XX",
"XX$$$  @@@@@..@@@@@@@@@@@@..@@@  $$$$$$$$$$$$$$$$$$$  @@@@@@@@@@@@@@@@@@@@@@@@@@@@@@@@ $$$$$$$$$++$$ooo$$$$$$$XX",
"XX$$$  @@@@@..@@@@@@@@@@@@..@@@  $$$$$$$$$$$$$$$$$$$  @@@@@@@@@@@@@@@@@@@@@@@@@@@@@@@@ $$$$$$$$$++$$ooo$$$$$$$XX",
"XX$$$$$  @@@@@@@@@@@@@@@@@@@@@ $$$$$$$$$$$$$$$$$$$$   @@@@@@@@@@@@@@@@@@@@@@@@@@@@@@   $$$$$$$$$++$$ooo$$$$$$$XX",
"XX$$$$$  @@@@@@@@@@@@@@@@@@@@@ $$$$$$$$$$$$$$$$$$$$ @@@@@@@@@@@@@@@@@@@@@@@@@@@@@@@@  $$$$$$$$$$++$$ooo$$$$$$$XX",
"XX$$$$$  @@@@@@@@@@@@@@@@@@@@@ $$$$$$$$$$$$$$$$$$$$ @@@@@@@@@@@@@@@@@@@@@@@@@@@@@@@@  $$$$$$$$$$++$$ooo$$$$$$$XX",
"XX$$$$$  @@@@@@@@....@@@@@@@@@ $$$$$$$$$$$$$$$$$$  @@@@@@@@@@@@@@@@@@@@@@@@@@@@@@@    $$$$$$$$$$++$$ooo$$$$$$$XX",
"XX$$$$$  @@@@@@@@....@@@@@@@@@ $$$$$$$$$$$$$$$$$$  @@@@@@@@@@@@@@@@@@@@@@@@@@@@@@@    $$$$$$$$$$++$$ooo$$$$$$$XX",
"XX$$$$$$$       @@@@@@@       $$$$$$$              @@@@@@@@@@@@@@@@@@@@@@@@@@@@@@@  $$$$$$$$$            $$$$$XX",
"XX$$$$$$$       @@@@@@@       $$$$$$$              @@@@@@@@@@@@@@@@@@@@@@@@@@@@@@@  $$$$$$$$$            $$$$$XX",
"XX$$$$$$$$$$$$$$       $$$$$$$$$$$$$$ @@@@@@@@@@@@@@@@@@@@@@@@@@@@@@@@@@@@@@@@@@@@  $$$$$$$$$ @@@@##@@@  $$$$$XX",
"XX$$$$$$$$$$$$$$       $$$$$$$$$$$$$$ @@@@@@@@@@@@@@@@@@@@@@@@@@@@@@@@@@@@@@@@@@@@  $$$$$$$$$ @@@@##@@@  $$$$$XX",
"XX$$$$$$$$$$$$$$       $$$$$$$$$$$$$$ @@@@@@@@@@@@@@@@@@@@@@@@@@@@@@@@@@@@@@@@@@@@  $$$$$$$$$ @@@@##@@@  $$$$$XX",
"XX$$$$$$$$$$$$$$       $$$$$$$$$$$$$$ @@@@@@@@@@@@@@@@@@@@@@@@@@@@@@@@@@@@@@@@@@@@  $$$$$$$$$ @@@@##@@@  $$$$$XX",
"XX$$$$$$$$$$$$$$       $$$$$$$$$$$$$$ @@@@@@@@@@@@@@@@@@@@@@@@@@@@@@@@@@@@@@@@@@@@  $$$$$$$$$ @@@@##@@@  $$$$$XX",
"                                                                                                                ",
"                                                                                                                ",
"  OOOOOOOOOOOOOOOOOOOOOOOOOOOOOOOOOOOOOOOOOOOOOOOOOOOOOOOOOOOOOOOOOOOOOOOOOOOOOOOOOOOOOOOOOOOOOOOOOOOOOOOOOOOO  ",
"  OOOOOOOOOOOOOOOOOOOOOOOOOOOOOOOOOOOOOOOOOOOOOOOOOOOOOOOOOOOOOOOOOOOOOOOOOOOOOOOOOOOOOOOOOOOOOOOOOOOOOOOOOOOO  ",
"  OOOOOOOOOOOOOOOOOOOOOOOOOOOOOOOOOOOOOOOOOOOOOOOOOOOOOOOOOOOOOOOOOOOOOOOOOOOOOOOOOOOOOOOOOOOOOOOOOOOOOOOOOOOO  ",
"  OOOOOOOOOOOOOOOOOOOOOOOOOOOOOOOOOOOOOOOOOOOOOOOOOOOOOOOOOOOOOOOOOOOOOOOOOOOOOOOOOOOOOOOOOOOOOOOOOOOOOOOOOOOO  ",
"  OOOOOOOOOOOOOOOOOOOOOOOOOOOOOOOOOOOOOOOOOOOOOOOOOOOOOOOOOOOOOOOOOOOOOOOOOOOOOOOOOOOOOOOOOOOOOOOOOOOOOOOOOOOO  ",
"                                                                                                                ",
"                                                                                                                ",
"XX .........................................................................................................  XX",
"XX .........................................................................................................  XX",
"XX .........................................................................................................  XX",
"XX .........................................................................................................  XX",
"XX .........................................................................................................  XX",
"XX .........................................................................................................  XX",
"XX .........................................................................................................  XX",
"XX .........................................................................................................  XX",
"XX .........................................................................................................  XX",
"XX .........................................................................................................  XX",
"XX .........................................................................................................  XX",
"XX .........................................................................................................  XX",
"XX .........................................................................................................  XX",
"XX .........................................................................................................  XX",
"XX .........................................................................................................  XX",
"XX .........................................................................................................  XX",
"XX .........................................................................................................  XX",
"XX .........................................................................................................  XX",
"XX .........................................................................................................  XX",
"XX .........................................................................................................  XX",
"XX .........................................................................................................  XX",
"XX .........................................................................................................  XX",
"XX .........................................................................................................  XX",
"XX .........................................................................................................  XX",
"XX .........................................................................................................  XX",
"XX .........................................................................................................  XX",
"XX .........................................................................................................  XX",
"XX .........................................................................................................  XX",
"XX .........................................................................................................  XX",
"XX .........................................................................................................  XX",
"XX .........................................................................................................  XX",
"XX .........................................................................................................  XX",
"XX .........................................................................................................  XX",
"XX .........................................................................................................  XX",
"XX .........................................................................................................  XX",
"XX .........................................................................................................  XX",
"XX .........................................................................................................  XX",
"XX .........................................................................................................  XX",
"XX .........................................................................................................  XX",
"XX .........................................................................................................  XX",
"XX .........................................................................................................  XX",
"XX .........................................................................................................  XX",
"XX .........................................................................................................  XX",
"XX .........................................................................................................  XX",
"XX .........................................................................................................  XX",
"XX                                                                                                            XX",
"XX                                                                                                            XX"
};
