/* XPM */
static char *result[] = {
/* columns rows colors chars-per-pixel */
"48 48 17 1 ",
"  c black",
". c #090100",
"X c #612020",
"o c #002963",
"O c #3C5141",
"+ c #005364",
"@ c #596E5B",
"# c #5A646E",
"$ c #BD0000",
"% c #DB0000",
"& c #986F00",
"* c #AA864A",
"= c #AA8665",
"- c #73808C",
"; c #C7ADAD",
": c gray86",
"> c None",
/* pixels */
">>>>>>>>>>>>>>>>>>>>>>>>>>>>>>>>>>>>>>>>>>>>>>>>",
">>>>>>>>>>>>>>>>>>>>>>>>>>>>>>>>>>>>>>>>>>>>>>>>",
">>>>>>>>>>>>>>>>>>>>>>>>>>>>>>>>>>>>>>>>>>>>>>>>",
">>>>>>          >>>>>>>>>>>>>>     >>>>>>>>>>>>>",
">>>>>> @@@@@@@@ >>>>>>>>>>>    XXX    >>>>>>>>>>",
">>>>>> @@@@@@@@ >>>>>>>>>>> XXXXXXXXX >>>>>>>>>>",
">>>>  @@@@@@@@@@  >>>>>>>>> XXXXXXXXX >>>>>>>>>>",
">>> @@@@@@@@@OOO@@ >>>>>>> XXXX   XXXX >>>>>>>>>",
">>> @@@@@@@@@OOO@@ >>>>>>> XXX     XXX >>>>>>>>>",
">>>>  OOOOOOOOOO  >>>>>>>>     ###     >>>>>>>>>",
">>> @@OOOOOOOOO@@@ >>>>>>>> #::###::# >>>>>>>>>>",
">>> @@OOOOOOOOO@@@ >>>>>>>> ######### >>>>>>>>>>",
">>> @@@@@@@@@@@OOO >>>>>>>> ######### >>>>>>>>>>",
">>>>  OOOOOOOOOO  >>>>>>>>>>   ;;;   >>>>>>>>>>>",
">>>>  OOOOOOOOOO  >>>>>>>>>>>> ### >>>>>>>>>>>>>",
">>> @@@@@@@@@@@OOO >>>>>>>>>>> ### >>>>>>>>>>>>>",
">>> @@@@@@@@@@@OOO >>>>>>>>>>>>   >>>>>>>>>>>>>>",
">>> @@@@@@@@@@@OOO >>>>>>>>>>  ###  >>>>>>>>>>>>",
">>>>  OOOOOOOOOO  >>>>>>>>     ###      >>>>>>>>",
">>> @@OOOOOOOOOOOO >>>>>>> --- ### ---- >>>>>>>>",
">>> @@OOOOOOOOOOOO >>>>>>> ---     ---- >>>>>>>>",
">>> @@@@@@@@@@@@OO >>>>>   ---$   $----   >>>>>>",
">>> @@OOOOOOOOOOOO >>>>> -----$   $------ >>>>>>",
">>> @@OOOOOOOOOOOO >>>>  -----$   $------  >>>>>",
">>> @@@@@@@@@@@OOO >>>> ------$   $------- >>>>>",
">>>>  OOOOOOOOOO  >>>>> ------$   $------- >>>>>",
">>>>  OOOOOOOOOO  >>>                         >>",
">>>>>>   OOOO   >>>>> &&&&&&&&&&&&&&&&&&&&&&& >>",
">>>>>>   OOOO   >>>>>                         >>",
">>>>>>   OOOO   >>>>>> +++++++++++++++++++++ >>>",
">                    > +++++++++++++++++++++ >>>",
"> ================== > +++++++++++++++++++++ >>>",
"> ================== > +++++++++++++++++++++ >>>",
"> ==           ===== > +++++++++++++++++++++ >>>",
"> == ********* ===== > +++++++++++++++++++++ >>>",
"> == ********* ===== > +++++++++++++++++++++ >>>",
"> ==   *%*o*   ===== > +++++++++++++++++++++ >>>",
"> ==== ***** ======= > +++++++++++++++++++++ >>>",
"> ====       ======= > +++++++++++++++++++++ >>>",
"> ================== > +++++++++++++++++++++ >>>",
"> ================== > +++++++++++++++++++++ >>>",
"> ================== > +++++++++++++++++++++ >>>",
"> ================== > +++++++++++++++++++++ >>>",
"> ================== > +++++++++++++++++++++ >>>",
"> ================== > +++++++++++++++++++++ >>>",
">  ================  > +++++++++++++++++++++ >>>",
">>.================.>> +++++++++++++++++++++ >>>",
">>>                >>>                       >>>"
};
