/* XPM */
static char *result[] = {
/* columns rows colors chars-per-pixel */
"32 32 13 1 ",
"  c black",
". c #413754",
"X c #005364",
"o c #5A6363",
"O c #6F797A",
"+ c #914600",
"@ c #986F00",
"# c #00A406",
"$ c #7D898A",
"% c #9BAAAB",
"& c #B3C3C4",
"* c #D3E6E8",
"= c None",
/* pixels */
"================================",
"==============================++",
"=============================+==",
"=====    ====================+==",
"=    oo% =============++==++++==",
"= %%%*** ==============++===+=++",
"= O%%%% =================++++++=",
" **oooO ====================++==",
" oOOO**  ====================+==",
" %%%oooo ========         ==++++",
" OOO%%%% =======  $&&&$$$ =+=+=#",
"= **ooOO ======  $&&&&&$$ ===+==",
"= OOOOO  ====== $$&$&$&$$ ==++==",
"  %%%%O ======  $$&&&&&$  =++===",
"  oO%%%% =     $$$$$&$$$ =     =",
" *****oo = $$$$$$$$$$$$ == ... =",
"                                ",
" @@@@@@@@@@@@@@@@@@@@@@@@@@@@@@ ",
"                                ",
"= XXXXXXXXXXXXXXXXXXXXXXXXXXXX =",
"= XXXXXXXXXXXXXXXXXXXXXXXXXXXX =",
"= XXXXXXXXXXXXXXXXXXXXXXXXXXXX =",
"= XXXXXXXXXXXXXXXXXXXXXXXXXXXX =",
"= XXXXXXXXXXXXXXXXXXXXXXXXXXXX =",
"= XXXXXXXXXXXXXXXXXXXXXXXXXXXX =",
"= XXXXXXXXXXXXXXXXXXXXXXXXXXXX =",
"= XXXXXXXXXXXXXXXXXXXXXXXXXXXX =",
"= XXXXXXXXXXXXXXXXXXXXXXXXXXXX =",
"= XXXXXXXXXXXXXXXXXXXXXXXXXXXX =",
"= XXXXXXXXXXXXXXXXXXXXXXXXXXXX =",
"= XXXXXXXXXXXXXXXXXXXXXXXXXXXX =",
"=                              ="
};
