/* XPM */
static char *bleak_desk_pile_of_death_112x112[] = {
/* columns rows colors chars-per-pixel */
"112 112 14 1 ",
"  c black",
". c #413754",
"X c #005364",
"o c #5C565B",
"O c #5A6363",
"+ c #6F797A",
"@ c #914600",
"# c #986F00",
"$ c #00A406",
"% c #7D898A",
"& c #9BAAAB",
"* c #B3C3C4",
"= c #D1C5CF",
"- c #D3E6E8",
/* pixels */
"oooooooooooooooooooooooooooooooooooooooooooooooooooooooooooooooooooooooooooooooooooooooooooooooooooooooooooooooo",
"oooooooooooooooooooooooooooooooooooooooooooooooooooooooooooooooooooooooooooooooooooooooooooooooooooooooooooooooo",
"oo============================================================================================================oo",
"oo=========================================================================================================@@@oo",
"oo=========================================================================================================@@@oo",
"oo=========================================================================================================@@@oo",
"oo=========================================================================================================@@@oo",
"oo=======================================================================================================@@@@@oo",
"oo=======================================================================================================@@@@@oo",
"oo=======================================================================================@@=========@@@@@@@===oo",
"oo=======================================================================================@@=========@@@@@@@===oo",
"oo=======================================================================================@@=========@@@@@@@===oo",
"oo==============              ===========================================================@@=========@@@=======oo",
"oo==============              ===========================================================@@=========@@@=======oo",
"oo              OOOOOOOOOO&&  =============================================@@@@@@@@@=====@@@@@@@@@@@@@@=======oo",
"oo              OOOOOOOOOO&&  =============================================@@@@@@@@@=====@@@@@@@@@@@@@@=======oo",
"oo &&&&&&&&&&&&&------------  =============================================@@=====@@@@==========@@@@=======@@@oo",
"oo   &&&&&&&&&&&------------  =============================================@@=====@@@@==========@@@@=======@@@oo",
"oo   &&&&&&&&&&&------------  =============================================@@=====@@@@==========@@@@=======@@@oo",
"oo===  -------+++++OOOOOOOOO  =============================================@@=======@@@@@=========@@=======@@@oo",
"oo===  -------+++++OOOOOOOOO  =============================================@@=======@@@@@=========@@=======@@@oo",
"oo===  OOOOOOO+++++OOOOOOO    =============================================@@=========@@@=========@@=======@@@oo",
"oo===  OOOOOOO+++++OOOOOOO    =============================================@@=========@@@=========@@=======@@@oo",
"oo +++++++++++++&&&&&&&&&&  ==========================================================@@@@@@@@@@@@@@@@@@@@@@@@oo",
"oo +++++++++++++&&&&&&&&&&  ==========================================================@@@@@@@@@@@@@@@@@@@@@@@@oo",
"oo +++++++++++++&&&&&&&&&&  ==========================================================@@@@@@@@@@@@@@@@@@@@@@@@oo",
"oo===  -----OOOOOOO----+++  ======================================================================@@@@@=======oo",
"oo===  -----OOOOOOO----+++  ======================================================================@@@@@=======oo",
"oo===  +++++++++++++++++++    ======================================================================@@@=======oo",
"oo===  +++++++++++++++++++    ======================================================================@@@=======oo",
"oo===  &&&&&&&&&------------  ============================                                   =====@@@@@====@@@@@",
"oo===  &&&&&&&&&------------  ============================ %%%%%%%%%%%%%%%%%%%%%%%%%%%%%%%%  =====@@@@@====@@@@@",
"oo===  &&&&&&&&&------------  ============================ %%%%%%%%%%%%%%%%%%%%%%%%%%%%%%%%  =====@@@@@====@@@@@",
"oo===  ---------++++++++++++  ==========================   %%%%%%%%%%%%%%%%%%%%%%%%%%%%%%%%  ===@@==@@@@@==@@@oo",
"oo===  ---------++++++++++++  ==========================   %%%%%%%%%%%%%%%%%%%%%%%%%%%%%%%%  ===@@==@@@@@==@@@oo",
"oo===  &&&&&&&&&&&&+++++++++  ==========================  %%%%%%%%%%%%%%%%%%%%%%%%%%%%%%%    ===@@==@@@@@@@===oo",
"oo===  &&&&&&&&&&&&+++++++++  ==========================  %%%%%%%%%%%%%%%%%%%%%%%%%%%%%%%    ===@@==@@@@@@@===oo",
"oo===  +++++++&&&&&&&&&&&&&&  ==========================  %%%%%%%%***********%%%%%%%%%%%%  =====@@==@@@====$$$oo",
"oo===  +++++++&&&&&&&&&&&&&&  ========================    %%%%%%%**************%%%%%%%%    =====@@==@@@====$$$oo",
"oo===  +++++++&&&&&&&&&&&&&&  ========================    %%%%%%%**************%%%%%%%%    =====@@==@@@====$$$oo",
"oo===  -------OOOOO+++++++++  ========================  %%%%%%%%%**************%%%%%%%%  ===========@@@====$$$oo",
"oo===  -------OOOOO+++++++++  ========================  %%%%%%%%%**************%%%%%%%%  ===========@@@====$$$oo",
"oo===  +++++++++++++++++++    ======================    %%%%%%%%%*%%%%***%%%%**%%%%%%%   =========@@@@@=======oo",
"oo===  +++++++++++++++++++    ======================    %%%%%%%%%*%%%%***%%%%**%%%%%%%   =========@@@@@=======oo",
"oo   &&&&&&&&&&&&&&+++++++  ========================  %%%%%%%%%%%*%%%%***%%%%**%%%%%%% =========@@@@==========oo",
"oo &&&&&&&&&&&&&&&&+++++++  ========================  %%%%%%%%%%%**************%%%%%  ==========@@@@==========oo",
"oo &&&&&&&&&&&&&&&&+++++++  ========================  %%%%%%%%%%%**************%%%%%  ==========@@@@==========oo",
"oo ++++++++++++++++++++---    =====================   %%%%%%%%%%%%***********%%%%%%%  ==========@@============oo",
"oo ++++++++++++++++++++---    =====================   %%%%%%%%%%%%***********%%%%%%%  ==========@@============oo",
"oo OOOO---------------------  ===================== %%%%%%%%%%%%%%%%**%%%**%%%%%%%    ==========@@============oo",
"oo OOOO---------------------  ===================== %%%%%%%%%%%%%%%%**%%%**%%%%%%%    ==========@@============oo",
"oo OOOOOOOOO++OOOOOOOOO&&&&&  =======               %%%%%%%%%%%%%%%%%%%%%%%%%%%%%%  =====                     oo",
"oo   OOOO++++++++++OOOO&&&&&  ======= %%%%%%%%%%%%%%%%%%%%%%%%%%%%%%%%%%%%%%%%%%%%  =====  .................  oo",
"oo   OOOO++++++++++OOOO&&&&&  ======= %%%%%%%%%%%%%%%%%%%%%%%%%%%%%%%%%%%%%%%%%%%%  =====  .................  oo",
"oo===    ----------++++OOOOO  =====  %%%%%%%%%%%%%%%%%%%%%%%%%%%%%%%%%%%%%%%%%%%%%  =====  .................  oo",
"oo===    ----------++++OOOOO  =====  %%%%%%%%%%%%%%%%%%%%%%%%%%%%%%%%%%%%%%%%%%%%%  =====  .................  oo",
"                                                                                                                ",
"                                                                                                                ",
"  ############################################################################################################  ",
"  ############################################################################################################  ",
"  ############################################################################################################  ",
"  ############################################################################################################  ",
"  ############################################################################################################  ",
"                                                                                                                ",
"                                                                                                                ",
"oo XXXXXXXXXXXXXXXXXXXXXXXXXXXXXXXXXXXXXXXXXXXXXXXXXXXXXXXXXXXXXXXXXXXXXXXXXXXXXXXXXXXXXXXXXXXXXXXXXXXXXXXXX  oo",
"oo XXXXXXXXXXXXXXXXXXXXXXXXXXXXXXXXXXXXXXXXXXXXXXXXXXXXXXXXXXXXXXXXXXXXXXXXXXXXXXXXXXXXXXXXXXXXXXXXXXXXXXXXX  oo",
"oo XXXXXXXXXXXXXXXXXXXXXXXXXXXXXXXXXXXXXXXXXXXXXXXXXXXXXXXXXXXXXXXXXXXXXXXXXXXXXXXXXXXXXXXXXXXXXXXXXXXXXXXXX  oo",
"oo XXXXXXXXXXXXXXXXXXXXXXXXXXXXXXXXXXXXXXXXXXXXXXXXXXXXXXXXXXXXXXXXXXXXXXXXXXXXXXXXXXXXXXXXXXXXXXXXXXXXXXXXX  oo",
"oo XXXXXXXXXXXXXXXXXXXXXXXXXXXXXXXXXXXXXXXXXXXXXXXXXXXXXXXXXXXXXXXXXXXXXXXXXXXXXXXXXXXXXXXXXXXXXXXXXXXXXXXXX  oo",
"oo XXXXXXXXXXXXXXXXXXXXXXXXXXXXXXXXXXXXXXXXXXXXXXXXXXXXXXXXXXXXXXXXXXXXXXXXXXXXXXXXXXXXXXXXXXXXXXXXXXXXXXXXX  oo",
"oo XXXXXXXXXXXXXXXXXXXXXXXXXXXXXXXXXXXXXXXXXXXXXXXXXXXXXXXXXXXXXXXXXXXXXXXXXXXXXXXXXXXXXXXXXXXXXXXXXXXXXXXXX  oo",
"oo XXXXXXXXXXXXXXXXXXXXXXXXXXXXXXXXXXXXXXXXXXXXXXXXXXXXXXXXXXXXXXXXXXXXXXXXXXXXXXXXXXXXXXXXXXXXXXXXXXXXXXXXX  oo",
"oo XXXXXXXXXXXXXXXXXXXXXXXXXXXXXXXXXXXXXXXXXXXXXXXXXXXXXXXXXXXXXXXXXXXXXXXXXXXXXXXXXXXXXXXXXXXXXXXXXXXXXXXXX  oo",
"oo XXXXXXXXXXXXXXXXXXXXXXXXXXXXXXXXXXXXXXXXXXXXXXXXXXXXXXXXXXXXXXXXXXXXXXXXXXXXXXXXXXXXXXXXXXXXXXXXXXXXXXXXX  oo",
"oo XXXXXXXXXXXXXXXXXXXXXXXXXXXXXXXXXXXXXXXXXXXXXXXXXXXXXXXXXXXXXXXXXXXXXXXXXXXXXXXXXXXXXXXXXXXXXXXXXXXXXXXXX  oo",
"oo XXXXXXXXXXXXXXXXXXXXXXXXXXXXXXXXXXXXXXXXXXXXXXXXXXXXXXXXXXXXXXXXXXXXXXXXXXXXXXXXXXXXXXXXXXXXXXXXXXXXXXXXX  oo",
"oo XXXXXXXXXXXXXXXXXXXXXXXXXXXXXXXXXXXXXXXXXXXXXXXXXXXXXXXXXXXXXXXXXXXXXXXXXXXXXXXXXXXXXXXXXXXXXXXXXXXXXXXXX  oo",
"oo XXXXXXXXXXXXXXXXXXXXXXXXXXXXXXXXXXXXXXXXXXXXXXXXXXXXXXXXXXXXXXXXXXXXXXXXXXXXXXXXXXXXXXXXXXXXXXXXXXXXXXXXX  oo",
"oo XXXXXXXXXXXXXXXXXXXXXXXXXXXXXXXXXXXXXXXXXXXXXXXXXXXXXXXXXXXXXXXXXXXXXXXXXXXXXXXXXXXXXXXXXXXXXXXXXXXXXXXXX  oo",
"oo XXXXXXXXXXXXXXXXXXXXXXXXXXXXXXXXXXXXXXXXXXXXXXXXXXXXXXXXXXXXXXXXXXXXXXXXXXXXXXXXXXXXXXXXXXXXXXXXXXXXXXXXX  oo",
"oo XXXXXXXXXXXXXXXXXXXXXXXXXXXXXXXXXXXXXXXXXXXXXXXXXXXXXXXXXXXXXXXXXXXXXXXXXXXXXXXXXXXXXXXXXXXXXXXXXXXXXXXXX  oo",
"oo XXXXXXXXXXXXXXXXXXXXXXXXXXXXXXXXXXXXXXXXXXXXXXXXXXXXXXXXXXXXXXXXXXXXXXXXXXXXXXXXXXXXXXXXXXXXXXXXXXXXXXXXX  oo",
"oo XXXXXXXXXXXXXXXXXXXXXXXXXXXXXXXXXXXXXXXXXXXXXXXXXXXXXXXXXXXXXXXXXXXXXXXXXXXXXXXXXXXXXXXXXXXXXXXXXXXXXXXXX  oo",
"oo XXXXXXXXXXXXXXXXXXXXXXXXXXXXXXXXXXXXXXXXXXXXXXXXXXXXXXXXXXXXXXXXXXXXXXXXXXXXXXXXXXXXXXXXXXXXXXXXXXXXXXXXX  oo",
"oo XXXXXXXXXXXXXXXXXXXXXXXXXXXXXXXXXXXXXXXXXXXXXXXXXXXXXXXXXXXXXXXXXXXXXXXXXXXXXXXXXXXXXXXXXXXXXXXXXXXXXXXXX  oo",
"oo XXXXXXXXXXXXXXXXXXXXXXXXXXXXXXXXXXXXXXXXXXXXXXXXXXXXXXXXXXXXXXXXXXXXXXXXXXXXXXXXXXXXXXXXXXXXXXXXXXXXXXXXX  oo",
"oo XXXXXXXXXXXXXXXXXXXXXXXXXXXXXXXXXXXXXXXXXXXXXXXXXXXXXXXXXXXXXXXXXXXXXXXXXXXXXXXXXXXXXXXXXXXXXXXXXXXXXXXXX  oo",
"oo XXXXXXXXXXXXXXXXXXXXXXXXXXXXXXXXXXXXXXXXXXXXXXXXXXXXXXXXXXXXXXXXXXXXXXXXXXXXXXXXXXXXXXXXXXXXXXXXXXXXXXXXX  oo",
"oo XXXXXXXXXXXXXXXXXXXXXXXXXXXXXXXXXXXXXXXXXXXXXXXXXXXXXXXXXXXXXXXXXXXXXXXXXXXXXXXXXXXXXXXXXXXXXXXXXXXXXXXXX  oo",
"oo XXXXXXXXXXXXXXXXXXXXXXXXXXXXXXXXXXXXXXXXXXXXXXXXXXXXXXXXXXXXXXXXXXXXXXXXXXXXXXXXXXXXXXXXXXXXXXXXXXXXXXXXX  oo",
"oo XXXXXXXXXXXXXXXXXXXXXXXXXXXXXXXXXXXXXXXXXXXXXXXXXXXXXXXXXXXXXXXXXXXXXXXXXXXXXXXXXXXXXXXXXXXXXXXXXXXXXXXXX  oo",
"oo XXXXXXXXXXXXXXXXXXXXXXXXXXXXXXXXXXXXXXXXXXXXXXXXXXXXXXXXXXXXXXXXXXXXXXXXXXXXXXXXXXXXXXXXXXXXXXXXXXXXXXXXX  oo",
"oo XXXXXXXXXXXXXXXXXXXXXXXXXXXXXXXXXXXXXXXXXXXXXXXXXXXXXXXXXXXXXXXXXXXXXXXXXXXXXXXXXXXXXXXXXXXXXXXXXXXXXXXXX  oo",
"oo XXXXXXXXXXXXXXXXXXXXXXXXXXXXXXXXXXXXXXXXXXXXXXXXXXXXXXXXXXXXXXXXXXXXXXXXXXXXXXXXXXXXXXXXXXXXXXXXXXXXXXXXX  oo",
"oo XXXXXXXXXXXXXXXXXXXXXXXXXXXXXXXXXXXXXXXXXXXXXXXXXXXXXXXXXXXXXXXXXXXXXXXXXXXXXXXXXXXXXXXXXXXXXXXXXXXXXXXXX  oo",
"oo XXXXXXXXXXXXXXXXXXXXXXXXXXXXXXXXXXXXXXXXXXXXXXXXXXXXXXXXXXXXXXXXXXXXXXXXXXXXXXXXXXXXXXXXXXXXXXXXXXXXXXXXX  oo",
"oo XXXXXXXXXXXXXXXXXXXXXXXXXXXXXXXXXXXXXXXXXXXXXXXXXXXXXXXXXXXXXXXXXXXXXXXXXXXXXXXXXXXXXXXXXXXXXXXXXXXXXXXXX  oo",
"oo XXXXXXXXXXXXXXXXXXXXXXXXXXXXXXXXXXXXXXXXXXXXXXXXXXXXXXXXXXXXXXXXXXXXXXXXXXXXXXXXXXXXXXXXXXXXXXXXXXXXXXXXX  oo",
"oo XXXXXXXXXXXXXXXXXXXXXXXXXXXXXXXXXXXXXXXXXXXXXXXXXXXXXXXXXXXXXXXXXXXXXXXXXXXXXXXXXXXXXXXXXXXXXXXXXXXXXXXXX  oo",
"oo XXXXXXXXXXXXXXXXXXXXXXXXXXXXXXXXXXXXXXXXXXXXXXXXXXXXXXXXXXXXXXXXXXXXXXXXXXXXXXXXXXXXXXXXXXXXXXXXXXXXXXXXX  oo",
"oo XXXXXXXXXXXXXXXXXXXXXXXXXXXXXXXXXXXXXXXXXXXXXXXXXXXXXXXXXXXXXXXXXXXXXXXXXXXXXXXXXXXXXXXXXXXXXXXXXXXXXXXXX  oo",
"oo XXXXXXXXXXXXXXXXXXXXXXXXXXXXXXXXXXXXXXXXXXXXXXXXXXXXXXXXXXXXXXXXXXXXXXXXXXXXXXXXXXXXXXXXXXXXXXXXXXXXXXXXX  oo",
"oo XXXXXXXXXXXXXXXXXXXXXXXXXXXXXXXXXXXXXXXXXXXXXXXXXXXXXXXXXXXXXXXXXXXXXXXXXXXXXXXXXXXXXXXXXXXXXXXXXXXXXXXXX  oo",
"oo XXXXXXXXXXXXXXXXXXXXXXXXXXXXXXXXXXXXXXXXXXXXXXXXXXXXXXXXXXXXXXXXXXXXXXXXXXXXXXXXXXXXXXXXXXXXXXXXXXXXXXXXX  oo",
"oo XXXXXXXXXXXXXXXXXXXXXXXXXXXXXXXXXXXXXXXXXXXXXXXXXXXXXXXXXXXXXXXXXXXXXXXXXXXXXXXXXXXXXXXXXXXXXXXXXXXXXXXXX  oo",
"oo XXXXXXXXXXXXXXXXXXXXXXXXXXXXXXXXXXXXXXXXXXXXXXXXXXXXXXXXXXXXXXXXXXXXXXXXXXXXXXXXXXXXXXXXXXXXXXXXXXXXXXXXX  oo",
"oo XXXXXXXXXXXXXXXXXXXXXXXXXXXXXXXXXXXXXXXXXXXXXXXXXXXXXXXXXXXXXXXXXXXXXXXXXXXXXXXXXXXXXXXXXXXXXXXXXXXXXXXXX  oo",
"oo XXXXXXXXXXXXXXXXXXXXXXXXXXXXXXXXXXXXXXXXXXXXXXXXXXXXXXXXXXXXXXXXXXXXXXXXXXXXXXXXXXXXXXXXXXXXXXXXXXXXXXXXX  oo",
"oo XXXXXXXXXXXXXXXXXXXXXXXXXXXXXXXXXXXXXXXXXXXXXXXXXXXXXXXXXXXXXXXXXXXXXXXXXXXXXXXXXXXXXXXXXXXXXXXXXXXXXXXXX  oo",
"oo                                                                                                            oo",
"oo                                                                                                            oo"
};
