/* XPM */
static char *bleak_desk_clock_32x32[] = {
/* columns rows colors chars-per-pixel */
"32 32 9 1 ",
"  c black",
". c #005364",
"X c #5C565B",
"o c #4F6353",
"O c #986F00",
"+ c #855F51",
"@ c #7D898A",
"# c #808C8C",
"$ c #D1C5CF",
/* pixels */
"XXXXXXXXXXXXXXXXXXXXXXXXXXXXXXXX",
"X$$$$$$$$$$$$$$$$$$$$$$$$$$$$$$X",
"X$$$$$$$$$$$$$$$$$$$$$$$$$$$$$$X",
"X$$$$$$$$$$$$$$$$$$$$$$$$$$$$$$X",
"X$$$$$$$$$$$$$$$$$$$$$$$$$$$$$$X",
"X$$$$  $$$$$$$$$$$$$$$$$$$$$$$$X",
"X$$  @@  $$$$$$$$$$$$$$$$$$$$$$X",
"X$ @@@@@@ $$$$$$$$$$$$$$$$$$$$$X",
"X$ @@@@@@ $$$$$$$$$$$$$$$$$$$$$X",
"X @@@@ @@@ $$$$$$         $$$$$X",
"X @@@@ @@@ $$$$$  @@@@@@@ $$$$$X",
"X @@  @@@@ $$$$  @@@@@@@@ $+$$$X",
"X$ @@@@@@ $$$$$ @@@@@@@@@ $+$o$X",
"X$ @@@@@@ $$$$  @@@@@@@@  $+$o$X",
"X$$  @@  $$    @@@@@@@@ $$$   $X",
"X$$$$  $$$$ @@@@@@@@@@@ $$$ # $X",
"                                ",
" OOOOOOOOOOOOOOOOOOOOOOOOOOOOOO ",
"  ............................  ",
"X ............................ X",
"X ............................ X",
"X ............................ X",
"X ............................ X",
"X ............................ X",
"X ............................ X",
"X ............................ X",
"X ............................ X",
"X ............................ X",
"X                              X",
"X$$$$$$$$$$$$$$$$$$$$$$$$$$$$$$X",
"X$$$$$$$$$$$$$$$$$$$$$$$$$$$$$$X",
"XXXXXXXXXXXXXXXXXXXXXXXXXXXXXXXX"
};
