/* XPM */
static char *result[] = {
/* columns rows colors chars-per-pixel */
"80 80 10 1 ",
"  c black",
". c #005364",
"X c #5C565B",
"o c #4F6353",
"O c #986F00",
"+ c #855F51",
"@ c #7D898A",
"# c #808C8C",
"$ c #B4AAB3",
"% c #D1C5CF",
/* pixels */
"XXXXXXXXXXXXXXXXXXXXXXXXXXXXXXXXXXXXXXXXXXXXXXXXXXXXXXXXXXXXXXXXXXXXXXXXXXXXXXXX",
"X%%%%%%%%%%%%%%%%%%%%%%%%%%%%%%%%%%%%%%%%%%%%%%%%%%%%%%%%%%%%%%%%%%%%%%%%%%%%%%X",
"X%%%%%%%%%%%%%%%%%%%%%%%%%%%%%%%%%%%%%%%%%%%%%%%%%%%%%%%%%%%%%%%%%%%%%%%%%%%%%%X",
"X%%%%%%%%%%%%%%%%%%%%%%%%%%%%%%%%%%%%%%%%%%%%%%%%%%%%%%%%%%%%%%%%%%%%%%%%%%%%%%X",
"X%%%%%%%%%%%%%%%%%%%%%%%%%%%%%%%%%%%%%%%%%%%%%%%%%%%%%%%%%%%%%%%%%%%%%%%%%%%%%%X",
"X%%%%%%%%%%%%%%%%%%%%%%%%%%%%%%%%%%%%%%%%%%%%%%%%%%%%%%%%%%%%%%%%%%%%%%%%%%%%%%X",
"X%%%%%%%%%%%%%%%%%%%%%%%%%%%%%%%%%%%%%%%%%%%%%%%%%%%%%%%%%%%%%%%%%%%%%%%%%%%%%%X",
"X%%%%%%%%%%%%%%%%%%%%%%%%%%%%%%%%%%%%%%%%%%%%%%%%%%%%%%%%%%%%%%%%%%%%%%%%%%%%%%X",
"X%%%%%%%%%%%%%%%%%%%%%%%%%%%%%%%%%%%%%%%%%%%%%%%%%%%%%%%%%%%%%%%%%%%%%%%%%%%%%%X",
"X%%%%%%%%%%%%%%%%%%%%%%%%%%%%%%%%%%%%%%%%%%%%%%%%%%%%%%%%%%%%%%%%%%%%%%%%%%%%%%X",
"X%%%%%%%%%%%%%%%%%%%%%%%%%%%%%%%%%%%%%%%%%%%%%%%%%%%%%%%%%%%%%%%%%%%%%%%%%%%%%%X",
"X%%%%%%%%%%%%%%%%%%%%%%%%%%%%%%%%%%%%%%%%%%%%%%%%%%%%%%%%%%%%%%%%%%%%%%%%%%%%%%X",
"X%%%%%%%%%%%%%%%%%%%%%%%%%%%%%%%%%%%%%%%%%%%%%%%%%%%%%%%%%%%%%%%%%%%%%%%%%%%%%%X",
"X%%%%%%%%%%     %%%%%%%%%%%%%%%%%%%%%%%%%%%%%%%%%%%%%%%%%%%%%%%%%%%%%%%%%%%%%%%X",
"X%%%%%%%%% @@@@@ %%%%%%%%%%%%%%%%%%%%%%%%%%%%%%%%%%%%%%%%%%%%%%%%%%%%%%%%%%%%%%X",
"X%%%%%     @@@@@     %%%%%%%%%%%%%%%%%%%%%%%%%%%%%%%%%%%%%%%%%%%%%%%%%%%%%%%%%%X",
"X%%%% @@@@@@@@@@@@@@@ %%%%%%%%%%%%%%%%%%%%%%%%%%%%%%%%%%%%%%%%%%%%%%%%%%%%%%%%%X",
"X%%%% @@@@@@...@@@@@@ %%%%%%%%%%%%%%%%%%%%%%%%%%%%%%%%%%%%%%%%%%%%%%%%%%%%%%%%%X",
"X%%%% @@@@@@...@@@@@@ %%%%%%%%%%%%%%%%%%%%%%%%%%%%%%%%%%%%%%%%%%%%%%%%%%%%%%%%%X",
"X%%%% @@@@@@@@@@@@@@@ %%%%%%%%%%%%%%%%%%%%%%%%%%%%%%%%%%%%%%%%%%%%%%%%%%%%%%%%%X",
"X%%% @@..@@@@@@@@@@.@@  %%%%%%%%%%%%%%%%%%%%%%%%%%%%%%%%%%%%%%%%%%%%%%%%%%%%%%%X",
"X%  @@@@@@@@@@ @@@@@@@@@ %%%%%%%%%%%%%%%%                        %%%%%%%%%%%%%%X",
"X% @@@@@@@@@@@ @@@@@@@@@ %%%%%%%%%%%%%%%% @@@@@@@@@@@@@@@@@@@@@@ %%%%%%%%%%%%%%X",
"X% @@@@@@@@@@@ @@@@@@@@@ %%%%%%%%%%%%%%%% @@@@@@@@@@@@@@@@@@@@@@ %%%%%%%%%%%%%%X",
"X% @@.@@@@@@@@ @@@@@@.@@ %%%%%%%%%%%%%%% @@@@@@@@@@@@@@@@@@@@@@@ %%%%%%%%%%%%%%X",
"X% @@.@@@@@@@@ @@@@@@.@@ %%%%%%%%%%%%%%% @@@@@@@@@@@@@@@@@@@@@@@ %%%%%%%%%%%%%%X",
"X% @@@@@@@@    @@@@@@@@@ %%%%%%%%%%%%%%  @@@@@@@@@@@@@@@@@@@@@@ %%%%%+%%%%%%%%%X",
"X% @@@@@@@@@@@@@@@@@@@@@ %%%%%%%%%%%%%% @@@@@@@@@@@@@@@@@@@@@@@ %%%%%+%%%%%%%%%X",
"X% @@@@@@@@@@@@@@@@@@@@@ %%%%%%%%%%%%%% @@@@@@@@@@@@@@@@@@@@@@@ %%%%%+%%%%%%%%%X",
"X%  @@@@@@@@@@@@@@@@@@@@ %%%%%%%%%%%%   @@@@@@@@@@@@@@@@@@@@@   %%%%%+%%%%%%%%%X",
"X%%% @@@@.@@@@@@@@@.@@  %%%%%%%%%%%%% @@@@@@@@@@@@@@@@@@@@@@@ %%%%%%%+%ooo%%%%%X",
"X%%%% @@@@@@@@@@@@@@@ %%%%%%%%%%%%%%  @@@@@@@@@@@@@@@@@@@@@@  %%%%%%%+%ooo%%%%%X",
"X%%%% @@@@@@@@@@@@@@@ %%%%%%%%%%%%%% @@@@@@@@@@@@@@@@@@@@@@@ %%%%%%%%+%ooo%%%%%X",
"X%%%% @@@@@@@@@@@@@@@ %%%%%%%%%%%%%% @@@@@@@@@@@@@@@@@@@@@@@ %%%%%%%%+%ooo%%%%%X",
"X%%%% @@@@@@...@@@@@@ %%%%%%%%%%%%% @@@@@@@@@@@@@@@@@@@@@@@  %%%%%%%%+%ooo%%%%%X",
"X%%%%%     @@@@@     %%%%%          @@@@@@@@@@@@@@@@@@@@@@@ %%%%%%         %%%%X",
"X%%%%%%%%%$     %%%%%%%%%% @@@@@@@@@@@@@@@@@@@@@@@@@@@@@@@@ %%%%%% @@@#@@@ %%%%X",
"X%%%%%%%%%$     %%%%%%%%%% @@@@@@@@@@@@@@@@@@@@@@@@@@@@@@@@ %%%%%% @@@#@@@ %%%%X",
"X%%%%%%%%%$     %%%%%%%%%% @@@@@@@@@@@@@@@@@@@@@@@@@@@@@@@@ %%%%%% @@@#@@@ %%%%X",
"X%%%%%%%%%$     %%%%%%%%%% @@@@@@@@@@@@@@@@@@@@@@@@@@@@@@@@ %%%%%% @@@#@@@ %%%%X",
"                                                                                ",
" OOOOOOOOOOOOOOOOOOOOOOOOOOOOOOOOOOOOOOOOOOOOOOOOOOOOOOOOOOOOOOOOOOOOOOOOOOOOOO ",
" OOOOOOOOOOOOOOOOOOOOOOOOOOOOOOOOOOOOOOOOOOOOOOOOOOOOOOOOOOOOOOOOOOOOOOOOOOOOOO ",
" OOOOOOOOOOOOOOOOOOOOOOOOOOOOOOOOOOOOOOOOOOOOOOOOOOOOOOOOOOOOOOOOOOOOOOOOOOOOOO ",
" OOOOOOOOOOOOOOOOOOOOOOOOOOOOOOOOOOOOOOOOOOOOOOOOOOOOOOOOOOOOOOOOOOOOOOOOOOOOOO ",
"                                                                                ",
"X ...........................................................................  X",
"X ...........................................................................  X",
"X ...........................................................................  X",
"X ...........................................................................  X",
"X ...........................................................................  X",
"X ...........................................................................  X",
"X ...........................................................................  X",
"X ...........................................................................  X",
"X ...........................................................................  X",
"X ...........................................................................  X",
"X ...........................................................................  X",
"X ...........................................................................  X",
"X ...........................................................................  X",
"X ...........................................................................  X",
"X ...........................................................................  X",
"X ...........................................................................  X",
"X ...........................................................................  X",
"X ...........................................................................  X",
"X ...........................................................................  X",
"X ...........................................................................  X",
"X ...........................................................................  X",
"X ...........................................................................  X",
"X ...........................................................................  X",
"X ...........................................................................  X",
"X ...........................................................................  X",
"X ...........................................................................  X",
"X ...........................................................................  X",
"X ...........................................................................  X",
"X ...........................................................................  X",
"X ...........................................................................  X",
"X ...........................................................................  X",
"X ...........................................................................  X",
"X ...........................................................................  X",
"X                                                                              X"
};
