/* XPM */
static char *bleak_desk_pile_of_death_32x32[] = {
/* columns rows colors chars-per-pixel */
"32 32 14 1 ",
"  c black",
". c #413754",
"X c #005364",
"o c #5C565B",
"O c #5A6363",
"+ c #6F797A",
"@ c #914600",
"# c #986F00",
"$ c #00A406",
"% c #7D898A",
"& c #9BAAAB",
"* c #B3C3C4",
"= c #D1C5CF",
"- c #D3E6E8",
/* pixels */
"oooooooooooooooooooooooooooooooo",
"o=============================@@",
"o============================@=o",
"o====    ====================@=o",
"o    OO& =============@@==@@@@=o",
"o &&&--- ==============@@===@=@@",
"o +&&&& =================@@@@@@o",
" --OOO+ ====================@@=o",
" O+++--  ====================@=o",
" &&&OOOO ========         ==@@@@",
" +++&&&& =======  %***%%% =@=@=$",
"o --OO++ ======  %*****%% ===@=o",
"o +++++  ====== %%*%*%*%% ==@@=o",
"  &&&&+ ======  %%*****%  =@@==o",
"  O+&&&& =     %%%%%*%%% =     o",
" -----OO = %%%%%%%%%%%% == ... o",
"                                ",
" ############################## ",
"                                ",
"o XXXXXXXXXXXXXXXXXXXXXXXXXXXX o",
"o XXXXXXXXXXXXXXXXXXXXXXXXXXXX o",
"o XXXXXXXXXXXXXXXXXXXXXXXXXXXX o",
"o XXXXXXXXXXXXXXXXXXXXXXXXXXXX o",
"o XXXXXXXXXXXXXXXXXXXXXXXXXXXX o",
"o XXXXXXXXXXXXXXXXXXXXXXXXXXXX o",
"o XXXXXXXXXXXXXXXXXXXXXXXXXXXX o",
"o XXXXXXXXXXXXXXXXXXXXXXXXXXXX o",
"o XXXXXXXXXXXXXXXXXXXXXXXXXXXX o",
"o XXXXXXXXXXXXXXXXXXXXXXXXXXXX o",
"o XXXXXXXXXXXXXXXXXXXXXXXXXXXX o",
"o XXXXXXXXXXXXXXXXXXXXXXXXXXXX o",
"o                              o"
};
