/* XPM */
static char *result[] = {
/* columns rows colors chars-per-pixel */
"32 32 17 1 ",
"  c black",
". c #090100",
"X c #612020",
"o c #002963",
"O c #3C5141",
"+ c #005364",
"@ c #596E5B",
"# c #5A646E",
"$ c #BD0000",
"% c #DB0000",
"& c #986F00",
"* c #AA864A",
"= c #AA8665",
"- c #73808C",
"; c #C7ADAD",
": c gray86",
"> c None",
/* pixels */
">>>>>>>>>>>>>>>>>>>>>>>>>>>>>>>>",
">>>>>>>>>>>>>>>>>>>>>>>>>>>>>>>>",
">>>>       >>>>>>>>>>>>>>>>>>>>>",
">>>> @@@@@ >>>>>>>>>>    >>>>>>>",
">>> @@@@@@@ >>>>>>>   XX   >>>>>",
">> @@@@@@OO@ >>>>>> XXXXXX >>>>>",
">>> OOOOOOO >>>>>> XX    XX >>>>",
">> @OOOOOO@@ >>>>>> #:##:# >>>>>",
">> @@@@@@@OO >>>>>> ###### >>>>>",
">>> OOOOOOO >>>>>>>>  ;;  >>>>>>",
">> @@@@@@@OO >>>>>>>> ## >>>>>>>",
">> @@@@@@@OO >>>>>>>>>  >>>>>>>>",
">>> OOOOOOO >>>>>>>>> ## >>>>>>>",
">> @OOOOOOOO >>>>>    ##    >>>>",
">> @@@@@@@@O >>>>> --    -- >>>>",
">> @OOOOOOOO >>>>  --$  $--  >>>",
">> @@@@@@@OO >>>  ---$  $---  >>",
">>> OOOOOOO >>                  ",
">>>>  OOO  >>> &&&&&&&&&&&&&&&& ",
">>>>  OOO  >>>                  ",
">   =======   > ++++++++++++++ >",
"> =========== > ++++++++++++++ >",
"> =       === > ++++++++++++++ >",
"> = ***** === > ++++++++++++++ >",
"> =  %*o  === > ++++++++++++++ >",
"> ==     ==== > ++++++++++++++ >",
"> =========== > ++++++++++++++ >",
"> =========== > ++++++++++++++ >",
"> =========== > ++++++++++++++ >",
"> =========== > ++++++++++++++ >",
"> ===========.> ++++++++++++++ >",
">>           >>                >"
};
