/* XPM */
static char *_3932db3060247f8e5c303e37e41c50efG43ht4iF7UAe0lY[] = {
/* columns rows colors chars-per-pixel */
"32 32 8 1 ",
"  c None",
". c black",
"X c #005364",
"o c #4F6353",
"O c #986F00",
"+ c #855F51",
"@ c #7D898A",
"# c #808C8C",
/* pixels */
"                                ",
"                                ",
"                                ",
"                                ",
"                                ",
"     ..                         ",
"   ..@@..                       ",
"  .@@@@@@.                      ",
"  .@@@@@@.                      ",
" .@@@@.@@@.      .........      ",
" .@@@@.@@@.     ..@@@@@@@.      ",
" .@@..@@@@.    ..@@@@@@@@. +    ",
"  .@@@@@@.     .@@@@@@@@@. + o  ",
"  .@@@@@@.    ..@@@@@@@@.. + o  ",
"   ..@@..  ....@@@@@@@@.   ...  ",
"     ..    .@@@@@@@@@@@.   .#.  ",
"................................",
".OOOOOOOOOOOOOOOOOOOOOOOOOOOOOO.",
"..XXXXXXXXXXXXXXXXXXXXXXXXXXXX..",
" .XXXXXXXXXXXXXXXXXXXXXXXXXXXX. ",
" .XXXXXXXXXXXXXXXXXXXXXXXXXXXX. ",
" .XXXXXXXXXXXXXXXXXXXXXXXXXXXX. ",
" .XXXXXXXXXXXXXXXXXXXXXXXXXXXX. ",
" .XXXXXXXXXXXXXXXXXXXXXXXXXXXX. ",
" .XXXXXXXXXXXXXXXXXXXXXXXXXXXX. ",
" .XXXXXXXXXXXXXXXXXXXXXXXXXXXX. ",
" .XXXXXXXXXXXXXXXXXXXXXXXXXXXX. ",
" .XXXXXXXXXXXXXXXXXXXXXXXXXXXX. ",
" .............................. ",
"                                ",
"                                ",
"                                "
};
