/* XPM */
static char *bleak_desk_poison_water_112x112[] = {
/* columns rows colors chars-per-pixel */
"112 112 18 1 ",
"  c black",
". c #090100",
"X c #612020",
"o c #002963",
"O c #3C5141",
"+ c #005364",
"@ c #5C565B",
"# c #596E5B",
"$ c #5A646E",
"% c #BD0000",
"& c #DB0000",
"* c #986F00",
"= c #AA864A",
"- c #AA8665",
"; c #73808C",
": c #C7ADAD",
"> c #D1C5CF",
", c gray86",
/* pixels */
"@@@@@@@@@@@@@@@@@@@@@@@@@@@@@@@@@@@@@@@@@@@@@@@@@@@@@@@@@@@@@@@@@@@@@@@@@@@@@@@@@@@@@@@@@@@@@@@@@@@@@@@@@@@@@@@@",
"@@@@@@@@@@@@@@@@@@@@@@@@@@@@@@@@@@@@@@@@@@@@@@@@@@@@@@@@@@@@@@@@@@@@@@@@@@@@@@@@@@@@@@@@@@@@@@@@@@@@@@@@@@@@@@@@",
"@@>>>>>>>>>>>>>>>>>>>>>>>>>>>>>>>>>>>>>>>>>>>>>>>>>>>>>>>>>>>>>>>>>>>>>>>>>>>>>>>>>>>>>>>>>>>>>>>>>>>>>>>>>>>>@@",
"@@>>>>>>>>>>>>>>>>>>>>>>>>>>>>>>>>>>>>>>>>>>>>>>>>>>>>>>>>>>>>>>>>>>>>>>>>>>>>>>>>>>>>>>>>>>>>>>>>>>>>>>>>>>>>@@",
"@@>>>>>>>>>>>>>>>>>>>>>>>>>>>>>>>>>>>>>>>>>>>>>>>>>>>>>>>>>>>>>>>>>>>>>>>>>>>>>>>>>>>>>>>>>>>>>>>>>>>>>>>>>>>>@@",
"@@>>>>>>>>>>>>>>>>>>>>>>>>>>>>>>>>>>>>>>>>>>>>>>>>>>>>>>>>>>>>>>>>>>>>>>>>>>>>>>>>>>>>>>>>>>>>>>>>>>>>>>>>>>>>@@",
"@@>>>>>>>>>>>>>>>>>>>>>>>>>>>>>>>>>>>>>>>>>>>>>>>>>>>>>>>>>>>>>>>>>>>>>>>>>>>>>>>>>>>>>>>>>>>>>>>>>>>>>>>>>>>>@@",
"@@>>>>>>>>>>>>>>>>>>>>>>>>>>>>>>>>>>>>>>>>>>>>>>>>>>>>>>>>>>>>>>>>>>>>>>          >>>>>>>>>>>>>>>>>>>>>>>>>>>>@@",
"@@>>>>>>>>>>>>>>>>>>>>>>>>>>>>>>>>>>>>>>>>>>>>>>>>>>>>>>>>>>>>>>>        XXXXXXXX        >>>>>>>>>>>>>>>>>>>>>@@",
"@@>>>>>>>>>>>>>>>>>>>>>>>>>>>>>>>>>>>>>>>>>>>>>>>>>>>>>>>>>>>>>>>        XXXXXXXX        >>>>>>>>>>>>>>>>>>>>>@@",
"@@>>>>>>>>>>>>>>>>>>>>>>>>>>>>>>>>>>>>>>>>>>>>>>>>>>>>>>>>>>>>>>> XXXXXXXXXXXXXXXXXXXXX  >>>>>>>>>>>>>>>>>>>>>@@",
"@@>>>>>>>>>>>>>>>>>>>>>>>>>>>>>>>>>>>>>>>>>>>>>>>>>>>>>>>>>>>>>>> XXXXXXXXXXXXXXXXXXXXX  >>>>>>>>>>>>>>>>>>>>>@@",
"@@>>>>>>>>>>>>>>>>>>>>>>>>>>>>>>>>>>>>>>>>>>>>>>>>>>>>>>>>>>>>>>> XXXXXXXXXXXXXXXXXXXXX  >>>>>>>>>>>>>>>>>>>>>@@",
"@@>>>>>>>>>>>>>>>>>>>>>>>>>>>>>>>>>>>>>>>>>>>>>>>>>>>>>>>>>>>>>>> XXXXXXXXXXXXXXXXXXXXX  >>>>>>>>>>>>>>>>>>>>>@@",
"@@>>>>>                                    >>>>>>>>>>>>>>>>>>>>>> XXXXXXXXXXXXXXXXXXXXX  >>>>>>>>>>>>>>>>>>>>>@@",
"@@>>>>  ##################################  >>>>>>>>>>>>>>>>>>>> XXXXXXXXXXXXXXXXXXXXXXXX >>>>>>>>>>>>>>>>>>>>@@",
"@@>>>  ####################################  >>>>>>>>>>>>>>>>>>> XXXXXXXXXXXXXXXXXXXXXXXX >>>>>>>>>>>>>>>>>>>>@@",
"@@>>> ###################################### >>>>>>>>>>>>>>>>>>> XXXXXXXXXXXXXXXXXXXXXXXX >>>>>>>>>>>>>>>>>>>>@@",
"@@>> ######################################## >>>>>>>>>>>>>>>>>> XXXXXXXXXXXXXXXXXXXXXXXX >>>>>>>>>>>>>>>>>>>>@@",
"@@>> ######################################## >>>>>>>>>>>>>>>>>> XXXXXXXX       XXXXXXXXX >>>>>>>>>>>>>>>>>>>>@@",
"@@>  #######################################O  >>>>>>>>>>>>>>>>> XXXXXXX         XXXXXXXX >>>>>>>>>>>>>>>>>>>>@@",
"@@> ######################################OOOO >>>>>>>>>>>>>>>>>         $$$$$$$          >>>>>>>>>>>>>>>>>>>>@@",
"@@> #####################################OOOOO >>>>>>>>>>>>>>>>>> $$$,,,,$$$$$$$,,,,$$$ >>>>>>>>>>>>>>>>>>>>>>@@",
"@@> ####################################OOOOOO >>>>>>>>>>>>>>>>>> $$$,,,,$$$$$$$,,,,$$$ >>>>>>>>>>>>>>>>>>>>>>@@",
"@@> ###################################OOOOOOO >>>>>>>>>>>>>>>>>> $$$,,,,$$$$$$$,,,,$$$ >>>>>>>>>>>>>>>>>>>>>>@@",
"@@>> ##############################OOOOOOOOOO >>>>>>>>>>>>>>>>>>> $$$$$$$$$$$$$$$$$$$$$ >>>>>>>>>>>>>>>>>>>>>>@@",
"@@>>  ##################OO##OOOOOOOOOOOOOOOO  >>>>>>>>>>>>>>>>>>> $$$$$$$$$$$$$$$$$$$$$ >>>>>>>>>>>>>>>>>>>>>>@@",
"@@>>>  OOOOOO#######OOOOOOOOOOOOOOOOOOOOOOO  >>>>>>>>>>>>>>>>>>>> $$$$$$$$$$$$$$$$$$$$$ >>>>>>>>>>>>>>>>>>>>>>@@",
"@@>>>> OOOOOOOOOOOOOOOOOOOOOOOOOOOOOOOOOOOO >>>>>>>>>>>>>>>>>>>>> $$$$$$$$$$$$$$$$$$$$$ >>>>>>>>>>>>>>>>>>>>>>@@",
"@@>>>> OOOOOOOOOOOOOOOOOOOOOOOOOOOOOOOOOOOO >>>>>>>>>>>>>>>>>>>>>>       :::::::       >>>>>>>>>>>>>>>>>>>>>>>@@",
"@@>>>  OOOOOOOOOOOOOOO#####OOOOO###########  >>>>>>>>>>>>>>>>>>>>>       :::::::       >>>>>>>>>>>>>>>>>>>>>>>@@",
"@@>>> #OOOO################################# >>>>>>>>>>>>>>>>>>>>>>>>>>> ::::::: >>>>>>>>>>>>>>>>>>>>>>>>>>>>>@@",
"@@>> ######################################## >>>>>>>>>>>>>>>>>>>>>>>>>> $$$$$$$ >>>>>>>>>>>>>>>>>>>>>>>>>>>>>@@",
"@@>> ######################################## >>>>>>>>>>>>>>>>>>>>>>>>>> $$$$$$$ >>>>>>>>>>>>>>>>>>>>>>>>>>>>>@@",
"@@>  ########################################  >>>>>>>>>>>>>>>>>>>>>>>>> $$$$$$$ >>>>>>>>>>>>>>>>>>>>>>>>>>>>>@@",
"@@> #########################################O >>>>>>>>>>>>>>>>>>>>>>>>> $$$$$$$ >>>>>>>>>>>>>>>>>>>>>>>>>>>>>@@",
"@@> ########################################OO >>>>>>>>>>>>>>>>>>>>>>>>>>       >>>>>>>>>>>>>>>>>>>>>>>>>>>>>>@@",
"@@> #######################################OOO >>>>>>>>>>>>>>>>>>>>>>>>>>       >>>>>>>>>>>>>>>>>>>>>>>>>>>>>>@@",
"@@> #####################################OOOOO >>>>>>>>>>>>>>>>>>>>>>>>>>       >>>>>>>>>>>>>>>>>>>>>>>>>>>>>>@@",
"@@>> ##################################OOOOOO >>>>>>>>>>>>>>>>>>>>>>>>>>>       >>>>>>>>>>>>>>>>>>>>>>>>>>>>>>@@",
"@@>>  ###############################OOOOOOO  >>>>>>>>>>>>>>>>>>>>>>>>>>>       >>>>>>>>>>>>>>>>>>>>>>>>>>>>>>@@",
"@@>>>  OOOO#####################OOOOOOOOOOO  >>>>>>>>>>>>>>>>>>>>>>>>>>  $$$$$$$  >>>>>>>>>>>>>>>>>>>>>>>>>>>>@@",
"@@>>>> OOOOOOOOOOOOOOOOOOOOOOOOOOOOOOOOOOOO >>>>>>>>>>>>>>>>>>>          $$$$$$$             >>>>>>>>>>>>>>>>>@@",
"@@>>>> OOOOOOOOOOOOOOOOOOOOOOOOOOOOOOOOOOOO >>>>>>>>>>>>>>>>>>> ;;;;;;;; $$$$$$$ ;;;;;;;;;;; >>>>>>>>>>>>>>>>>@@",
"@@>>>  OOOOOOOOOOOOOOOOOOOOOOOOOOOOOOOO#OOO  >>>>>>>>>>>>>>>>>> ;;;;;;;; $$$$$$$ ;;;;;;;;;;; >>>>>>>>>>>>>>>>>@@",
"@@>>> ###################################### >>>>>>>>>>>>>>>>>> ;;;;;;;; $$$$$$$ ;;;;;;;;;;; >>>>>>>>>>>>>>>>>@@",
"@@>> ######################################## >>>>>>>>>>>>>>>>> ;;;;;;;; $$$$$$$ ;;;;;;;;;;; >>>>>>>>>>>>>>>>>@@",
"@@>> ######################################## >>>>>>>>>>>>>>>>> ;;;;;;;; $$$$$$$ ;;;;;;;;;;; >>>>>>>>>>>>>>>>>@@",
"@@>  ########################################  >>>>>>>>>>>>>>>> ;;;;;;;;         ;;;;;;;;;;; >>>>>>>>>>>>>>>>>@@",
"@@> ########################################## >>>>>>>>>>       ;;;;;;;;%       %;;;;;;;;;;;       >>>>>>>>>>>@@",
"@@> ########################################OO >>>>>>>>>> ;;;;;;;;;;;;;;%       %;;;;;;;;;;;;;;;;; >>>>>>>>>>>@@",
"@@> ######################################OOOO >>>>>>>>>> ;;;;;;;;;;;;;;%       %;;;;;;;;;;;;;;;;; >>>>>>>>>>>@@",
"@@> ####################################OOOOOO >>>>>>>>>> ;;;;;;;;;;;;;;%       %;;;;;;;;;;;;;;;;; >>>>>>>>>>>@@",
"@@>> ################################OOOOOOOO >>>>>>>>>>> ;;;;;;;;;;;;;;%       %;;;;;;;;;;;;;;;;; >>>>>>>>>>>@@",
"@@>>  ##########################OOOOOOOOOOOO  >>>>>>>>>>> ;;;;;;;;;;;;;;%       %;;;;;;;;;;;;;;;;; >>>>>>>>>>>@@",
"@@>>>  OO##################OOOOOOOOOOOOOOOO  >>>>>>>>>>>  ;;;;;;;;;;;;;;%       %;;;;;;;;;;;;;;;;;  >>>>>>>>>>@@",
"@@>>>> OOOOOOOOOOOOOOOOOOOOOOOOOOOOOOOOOO## >>>>>>>>>>>> ;;;;;;;;;;;;;;;%       %;;;;;;;;;;;;;;;;;; >>>>>>>>>>@@",
"@@>>>> OOOOOOOOOOOOOOOOOOOOOOOOOOO######### >>>>>>>>>>>> ;;;;;;;;;;;;;;;%       %;;;;;;;;;;;;;;;;;; >>>>>>>>>>@@",
"@@>>>  ##OOOOOOOOOOOOOOO###################  >>>>>>>>>>> ;;;;;;;;;;;;;;;%       %;;;;;;;;;;;;;;;;;; >>>>>>>>>>@@",
"@@>>> ###################################### >>>>>>>>>>> ;;;;;;;;;;;;;;;%       %;;;;;;;;;;;;;;;;;; >>>>>>>>>>@@",
"@@>> ######################################## >>>>>>>>>> ;;;;;;;;;;;;;;;%       %;;;;;;;;;;;;;;;;;; >>>>>>>>>>@@",
"@@>> ######################################## >>>>>>>>>> ;;;;;;;;;;;;;;;%       %;;;;;;;;;;;;;;;;;; >>>>>>>>>>@@",
"@@>  ######################################OOO >>                                                          >>>@@",
"@@> ####################################OOOOOO >> ******************************************************** >>>@@",
"@@> #################################OOOOOOOOO >> ******************************************************** >>>@@",
"@@> #############################OOOOOOOOOOOOO >> ******************************************************** >>>@@",
"@@> ##########################OOOOOOOOOOOOOOOO >> ******************************************************** >>>@@",
"@@>> ##OOO###############OOOOOOOOOOOOOOOOOOOO >>>                                                          >>>@@",
"@@>> OOOOOOOOOOOOOOOOOOOOOOOOOOOOOOOOOOOOOOO  >>>>> ++++++++++++++++++++++++++++++++++++++++++++++++++++ >>>>>@@",
"@@>>> OOOOOOOOOOOOOOOOOOOOOOOOOOOOOOOOOOOOO  >>>>>> ++++++++++++++++++++++++++++++++++++++++++++++++++++ >>>>>@@",
"@                                                >> ++++++++++++++++++++++++++++++++++++++++++++++++++++ >>>>>@@",
"@ ---------------------------------------------- >> ++++++++++++++++++++++++++++++++++++++++++++++++++++ >>>>>@@",
"@ ---------------------------------------------- >> ++++++++++++++++++++++++++++++++++++++++++++++++++++ >>>>>@@",
"@ ---------------------------------------------- >> ++++++++++++++++++++++++++++++++++++++++++++++++++++ >>>>>@@",
"@ ---------------------------------------------- >> ++++++++++++++++++++++++++++++++++++++++++++++++++++ >>>>>@@",
"@ ---------------------------------------------- >> ++++++++++++++++++++++++++++++++++++++++++++++++++++ >>>>>@@",
"@ ---------------------------------------------- >> ++++++++++++++++++++++++++++++++++++++++++++++++++++ >>>>>@@",
"@ ------                           ------------- >> ++++++++++++++++++++++++++++++++++++++++++++++++++++ >>>>>@@",
"@ ------ ========================= ------------- >> ++++++++++++++++++++++++++++++++++++++++++++++++++++ >>>>>@@",
"@ ------ ========================= ------------- >> ++++++++++++++++++++++++++++++++++++++++++++++++++++ >>>>>@@",
"@ ------ ========================= ------------- >> ++++++++++++++++++++++++++++++++++++++++++++++++++++ >>>>>@@",
"@ ------ ========================= ------------- >> ++++++++++++++++++++++++++++++++++++++++++++++++++++ >>>>>@@",
"@ ------ ========================= ------------- >> ++++++++++++++++++++++++++++++++++++++++++++++++++++ >>>>>@@",
"@ ------ =======&&&&&=ooooo======= ------------- >> ++++++++++++++++++++++++++++++++++++++++++++++++++++ >>>>>@@",
"@ ------       =&&&&&=ooooo=       ------------- >> ++++++++++++++++++++++++++++++++++++++++++++++++++++ >>>>>@@",
"@ ------------ ============= ------------------- >> ++++++++++++++++++++++++++++++++++++++++++++++++++++ >>>>>@@",
"@ ------------ ============= ------------------- >> ++++++++++++++++++++++++++++++++++++++++++++++++++++ >>>>>@@",
"@ ------------ ============= ------------------- >> ++++++++++++++++++++++++++++++++++++++++++++++++++++ >>>>>@@",
"@ ------------ ============= ------------------- >> ++++++++++++++++++++++++++++++++++++++++++++++++++++ >>>>>@@",
"@ ------------ ============= ------------------- >> ++++++++++++++++++++++++++++++++++++++++++++++++++++ >>>>>@@",
"@ ------------               ------------------- >> ++++++++++++++++++++++++++++++++++++++++++++++++++++ >>>>>@@",
"@ ---------------------------------------------- >> ++++++++++++++++++++++++++++++++++++++++++++++++++++ >>>>>@@",
"@ ---------------------------------------------- >> ++++++++++++++++++++++++++++++++++++++++++++++++++++ >>>>>@@",
"@ ---------------------------------------------- >> ++++++++++++++++++++++++++++++++++++++++++++++++++++ >>>>>@@",
"@ ---------------------------------------------- >> ++++++++++++++++++++++++++++++++++++++++++++++++++++ >>>>>@@",
"@ ---------------------------------------------- >> ++++++++++++++++++++++++++++++++++++++++++++++++++++ >>>>>@@",
"@ ---------------------------------------------- >> ++++++++++++++++++++++++++++++++++++++++++++++++++++ >>>>>@@",
"@ ---------------------------------------------- >> ++++++++++++++++++++++++++++++++++++++++++++++++++++ >>>>>@@",
"@ ---------------------------------------------- >> ++++++++++++++++++++++++++++++++++++++++++++++++++++ >>>>>@@",
"@ ---------------------------------------------- >> ++++++++++++++++++++++++++++++++++++++++++++++++++++ >>>>>@@",
"@ ---------------------------------------------- >> ++++++++++++++++++++++++++++++++++++++++++++++++++++ >>>>>@@",
"@ ---------------------------------------------- >> ++++++++++++++++++++++++++++++++++++++++++++++++++++ >>>>>@@",
"@ ---------------------------------------------- >> ++++++++++++++++++++++++++++++++++++++++++++++++++++ >>>>>@@",
"@ ---------------------------------------------- >> ++++++++++++++++++++++++++++++++++++++++++++++++++++ >>>>>@@",
"@ ---------------------------------------------- >> ++++++++++++++++++++++++++++++++++++++++++++++++++++ >>>>>@@",
"@      ------------------------------------      >> ++++++++++++++++++++++++++++++++++++++++++++++++++++ >>>>>@@",
"@@>>>>.------------------------------------.>>>>>>> ++++++++++++++++++++++++++++++++++++++++++++++++++++ >>>>>@@",
"@@>>>>.------------------------------------.>>>>>>> ++++++++++++++++++++++++++++++++++++++++++++++++++++ >>>>>@@",
"@@>>>>.------------------------------------.>>>>>>> ++++++++++++++++++++++++++++++++++++++++++++++++++++ >>>>>@@",
"@@>>>>.------------------------------------.>>>>>>> ++++++++++++++++++++++++++++++++++++++++++++++++++++ >>>>>@@",
"@@@@@@.------------------------------------.@@@@@@@ ++++++++++++++++++++++++++++++++++++++++++++++++++++ @@@@@@@",
"@@@@@@@                                    @@@@@@@@                                                      @@@@@@@"
};
