/* XPM */
static char *exit_80x80[] = {
/* columns rows colors chars-per-pixel */
"80 80 18 1 ",
"  c #57261B",
". c #753324",
"X c #316B21",
"o c #5C565B",
"O c #8C3D2B",
"+ c #CF5A40",
"@ c #E86548",
"# c #408C2B",
"$ c #6DA12A",
"% c #6FA32A",
"& c #2DE336",
"* c #93D938",
"= c #FFDF67",
"- c #FFE999",
"; c #8ABCDE",
": c #D1C5CF",
"> c #FFF3C9",
", c #FFFAE8",
/* pixels */
"ooooooooooooo&&&&&&&&&&&&&&&&&&&&&&&&&&&&&&&&&&&&&&&&&&&&&&&&&&&&&&&oooooooooooo",
"o::::::::::::&:::::::::::::::::::::::::::::::::::::::::::::::::::::&:::::::::::o",
"o::::::::::::&::&&&&&&&&&:::&&&::::::&&&:::&&&&&&&&&:::&&&&&&&&&:::&:::::::::::o",
"o::::::::::::&::&&&&&&&&&::::&&&::::&&&::::&&&&&&&&&:::&&&&&&&&&:::&:::::::::::o",
"o::::::::::::&::&&::::::::::::&&&::&&&::::::::&&&:::::::::&&&::::::&:::::::::::o",
"o::::::::::::&::&&:::::::::::::&&&&&&:::::::::&&&:::::::::&&&::::::&:::::::::::o",
"o::::::::::::&::&&&&&&&:::::::::&&&&::::::::::&&&:::::::::&&&::::::&:::::::::::o",
"o::::::::::::&::&&&&&&&:::::::::&&&&::::::::::&&&:::::::::&&&::::::&:::::::::::o",
"o::::::::::::&::&&&&&&&::::::::&&&&&&:::::::::&&&:::::::::&&&::::::&:::::::::::o",
"o::::::::::::&::&&::::::::::::&&&::&&&::::::::&&&:::::::::&&&::::::&:::::::::::o",
"o::::::::::::&::&&:::::::::::&&&::::&&&:::::::&&&:::::::::&&&::::::&:::::::::::o",
"o::::::::::::&::&&&&&&&&&:::&&&::::::&&&:::&&&&&&&&&::::::&&&::::::&:::::::::::o",
"o::::::::::::&::&&&&&&&&&:::&&::::::::&&:::&&&&&&&&&::::::&&&::::::&:::::::::::o",
"o::::::::::::&:::::::::::::::::::::::::::::::::::::::::::::::::::::&:::::::::::o",
"o::::::::::::&:::::::::::::::::::::::::::::::::::::::::::::::::::::&:::::::::::o",
"o::::::::::::&&&&&&&&&&&&&&&&&&&&&&&&&&&&&&&&&&&&&&&&&&&&&&&&&&&&&&&:::::::::::o",
"o::::::::::::::::::::::::::::::::::::::::::::::::::::::::::::::::::::::::::::::o",
"o::::::::::::::::::::::::::::::::::::::::::::::::::::::::::::::::::::::::::::::o",
"o::::::::::::;;;;;;;;;;;;;;;;;;;;------==;;;;;;====--->>>>>>>>>>>>>>:::::::::::o",
"o::::::::::::;;;;;;;;;;;;;;;;;;;;;;;;;;;;==;;;====---->>>>>>>>>>>>>>:::::::::::o",
"o::::::::::::;;;;;;;;;;;;;;;;;;;;;;;;;;;;;;;;;====--->>>>>>>>>>>>>>>:::::::::::o",
"o::::::::::::;;;;;;;;;;;;;;;;;;;;>>>;;;;;;;;;;====---->>>>>>>>>>>>>>:::::::::::o",
"o::::::::::::;;;;;;;;;;;;;;;;;;;;;;>---==;;;;=====---->>>>>>>>>>>>>>:::::::::::o",
"o::::::::::::;;;;;;;;;;;;;;;;;;;;;;;;;;;;;;;;=====---->>>>>>>>>>>>>>:::::::::::o",
"o::::::::::::;;;;;;;;;;;;;;;;;;;;;;;;;;;;;;;;=====---->>>>>>>>>>>>>>:::::::::::o",
"o::::::::::::;;;;;;;;;;;;;;;;;;;;;;;---===;;;=====----->>>>>>>>>>>>>:::::::::::o",
"o::::::::::::;;;;;;;;;;;;;;;;;;;;;>>>;;;;=;;;======----->>>>>>>>>>>>:::::::::::o",
"o::::::::::::;;;;;;;;;;;;;;;;;;;;;;;;;;;;;;;;======------->>>>>>>>>>:::::::::::o",
"o::::::::::::;;;;;;;;;;;;;;;;;;;;;;;;;;;;;;;;;======------->>>>>>>>>:::::::::::o",
"o::::::::::::;;;;;;;;;;;;;;;;;;;;;;;;;;;;;;;;;=======-------->>>>>>>:::::::::::o",
"o::::::::::::;;;;;;;;;;;;;;;;;;;;;;;;;;;-===;;========--------------:::::::::::o",
"o::::::::::::;;;;;;;;;;;;;;;;;;;;;;>>---;;;;;;;========-------------:::::::::::o",
"o::::::::::::;;;;;;;;;;;;;;;;;;;;;>>;;;;;;;;;;;;=========-----------:::::::::::o",
"o::::::::::::;;;;;;;;;;;;;;;;;;;;;;;;;;;;;;;;;;;===========---------:::::::::::o",
"o::::::::::::;;;;;;;;;;;;;;;;;;;;;;;;;;;;;;;;;;;;=============---===:::::::::::o",
"o::::::::::::;;;;;;;;;;;;;;;;;;;;;;;;;;;;;;;;;;;;;==================:::::::::::o",
"o::::::::::::;;;;;;;;;;;;;;;;;;;;;;;;;;;;-===;;;;;;=================:::::::::::o",
"o::::::::::::;;;;;;;;;;;;;;;;;;;;;;;;;;---;;;;;;;;;;;===============:::::::::::o",
"o::::::::::::;;;;;;;;;;;;;;;;;;;;;;;>>>;;;;;;;;;;;;;;;;============;:::::::::::o",
"o::::::::::::;;;;;;;;;;;;;;;;;;;;;;;;;;;;;;;;;;;;;;;;;;;;;;===;;;;;;:::::::::::o",
"o::::::::::::;;;;;;;;;;;;;X%*;;;;;;;$$$;;;;;;;;;=;;;;;;;;;;;;;;;;;;;:::::::::::o",
"o::::::::::::;;;;;;;;;;;;;X%*;;;;;;;$$$;;;;;;;;--;;;;;;;;;;;;;;;;;;;:::::::::::o",
"o::::::::::::;;;;$*$;#**;%****;;;;*$$*$;;;;;;;-==;;;;;;;;;;;;;;;;;;;:::::::::::o",
"o::::::::::::;;;$***;**X***%%***XX****$;;;;;;->;;;;;;;==;;;;;=;;;;=;:::::::::::o",
"o::::::::::::;;;***$%X%**%XXX%X****$**$$$$$$;>;;;;;;;;=;;;;;;=;;;;==:::::::::::o",
"o::::::::::::;;;***#*X%%X%%%%%*X$$$$$**XX**$$;$**;;;;;=;;;;;;=;;;;;-:::::::::::o",
"o::::::::::::;;$*$$$XX*%%%%*X**X$$$$$$*XX$$*$XX$X;;;;;-;;;;;;--;;;;-:::::::::::o",
"o::::::::::::;;*$$$$XXX%X%XXX**%%X$$$$$XX$X**$XX;;;;;--;;;;;;;-;;;;;:::::::::::o",
"o::::::::::::;$X$$$XXXXX%***X%%%%XXXXXXXXX$$$$*X$;;;>>;;;;;;;;>;;;;;:::::::::::o",
"o::::::::::::;$XX$XXXXXXXXXXXX%%X$XXXXXXXX$$$X*X$;;;;,;;;;;;;;>;;;;;:::::::::::o",
"o::::::::::::;*XXXXXXXXX*XX%X%%X$$X****XXX$X$X*X;;;;;,;;;;;;;;,;;;;;:::::::::::o",
"o::::::::::::;*$XXX$X**XXX**XXXXXXX$$$**XX$$$$XX$;;;;;;;;;;;;;,;;;;;:::::::::::o",
"o::::::::::::$*$%#*%$$$$$$$***$XXX**$$$**XX$$XX**;;;;;;;;;;;;;;;;;;;:::::::::::o",
"o::::::::::::$*****X$$$$$$XXX********$$$$$XXXXX$;;;;;;;;;;;;;;;;;;;;:::::::::::o",
"o::::::::::::;$$%%XX$$$$XX*****X*$$***XX$$$X*X*$;;;;;;;;;;;;;;;;;;;;:::::::::::o",
"o::::::::::::;;$X%XXXXX*X***$XX$$$$$XX$$$$$X$X*$X$;;;;;;;;;;;;;;;;;;:::::::::::o",
"o::::::::::::XX*XXXXXX**XX%$$XXX$$$$$XX$$XXXXX$*XX$$;;;;;;;;;;;;;;;;:::::::::::o",
"o::::::::::::X$****XX***XXXXXX*X$X$$$XXXXXX***$XXX$$;;;;;;;;;;;;;;;;:::::::::::o",
"o::::::::::::;;XX$XXX**%%%XXX**XX$$$$*XXXXX***XX*;;;;;;;;;;;;;;;;;;;:::::::::::o",
"o::::::::::::;;XX$$***$$%%X*****XXXX*XX***XX***XX;;;;;;;;;;;;;;;;;;;:::::::::::o",
"o::::::::::::;;;XX$$$$$$%***$$$$**XXXX$**$$XXXXX*$;;;;;;;;;;;;;;;;;;:::::::::::o",
"o::::::::::::;;;;X$$XXX$$*$$$$$$X$XXX$$$$$XXX$XXX*;;;;;;;;;;;;;;;;;;:::::::::::o",
"o::::::::::::;;;;XXXXXXXXX$$XX$XXXXXXXXXXXXXXXXXX;;;;;;;;;;;;;;;;;;;:::::::::::o",
"o::::::::::::;;;;%X ;;XXXXXXXXXXXXXX#XXXXXX XX;X;;;;;;;;;;;;;;;;;;;;:::::::::::o",
"o::::::::::::;;;;%  ;;%;;XXXXXXXXXXX#  XX;   ;;%;;;;;;;;;;;;;;;;;;;;:::::::::::o",
"o::::::::::::;;;;X%  %%;;;  XXXXXX ;;  ;;;  ;;;%*;;;;;;;;;;;;;;;;;;;:::::::::::o",
"o::::::::::::;;;;;X  X ;;;   X     ;;  ;;   ;;;;X%;;;;;;;;;;;;;;;;;;:::::::::::o",
"o::::::::::::;;;;;;;         XXX   ;  ;    ;;;;;;;;;;;;;;;;;;;;;;;;;:::::::::::o",
"o::::::::::::;;;;;;;;;      ...XX         ;;;;;;;;;;;;;;;;;;;;;;;;;;:::::::::::o",
"o::::::::::::;;;;;;;;;;;   .......O      ;;;;;;;;;;;;;;;;;;;;;;;;;;;:::::::::::o",
"o::::::::::::;;;;;;;;;;;  ..........  ;;;;;;;;;;;;;;;;;;;;;;;;;;;;;;:::::::::::o",
"o::::::::::::;;;;;;;;;;; ...+O...+... ;;;;;;;;;;;;;;;;;;;;;;;;;;;;;;:::::::::::o",
"o::::::::::::;;;;;;;;;;OO..+OO..O++@..;;;;;;;;;;;;;;;;;;;;;;;;;;;;;;:::::::::::o",
"o::::::::::::;;;;;;;;;;O..++OO..OO++@O;;;;;;;;;;;;;;;;;;;;;;;;;;;;;;:::::::::::o",
"o::::::::::::;;;;;;;;;OO.++++OO.OOO++@@;;;;;;;;;;;;;;;;;;;;;;;;;;;;;:::::::::::o",
"o::::::::::::;;;;;;;;OOO....+OOOOOO+++@@;;;;;;;;;;;;;;;;;;;;;;;;;;;;:::::::::::o",
"o::::::::::::;;;;;;..O++OO....+OOOOO++++@@@@;;;;;;;;;;;;;;;;;;;;;;;;:::::::::::o",
"o::::::::::::;;;OOO...++++OO....+OOOOOOO+++@@@;;;;;;;;;;;;;;;;;;;;;;:::::::::::o",
"o::::::::::::;;;OOO.......++OOOOOOOOOOOOOOO++++;;;;;;;;;;;;;;;;;;;;;:::::::::::o",
"ooooooooooooo;;;OOO.......++OOOOOOOOOOOOOOO++++;;;;;;;;;;;;;;;;;;;;;oooooooooooo"
};
