/* XPM */
static char *result[] = {
/* columns rows colors chars-per-pixel */
"32 32 15 1 ",
"  c #57261B",
". c #753324",
"X c #316B21",
"o c #8C3D2B",
"O c #CF5A40",
"+ c #E86548",
"@ c #6DA12A",
"# c #6FA32A",
"$ c #2DE336",
"% c #93D938",
"& c #FFDF67",
"* c #FFE999",
"= c #8ABCDE",
"- c #FFF3C9",
"; c None",
/* pixels */
";;;;$$$$$$$$$$$$$$$$$$$$$$$$;;;;",
";;;;$;;;;;;;;;;;;;;;;;;;;;;$;;;;",
";;;;$;$$$$;$$;;;$$;$;$$$$$;$;;;;",
";;;;$;$;;;;;$$;$$;;$;;;$;;;$;;;;",
";;;;$;$;;;;;;$$$;;;$;;;$;;;$;;;;",
";;;;$;$$$;;;;$$$;;;$;;;$;;;$;;;;",
";;;;$;$;;;;;;$$$;;;$;;;$;;;$;;;;",
";;;;$;$;;;;;$$;$$;;$;;;$;;;$;;;;",
";;;;$;$$$$;$$;;;$$;$;;;$;;;$;;;;",
";;;;$;;;;;;;;;;;;;;;;;;;;;;$;;;;",
";;;;$$$$$$$$$$$$$$$$$$$$$$$$;;;;",
";;;;===============&&****---;;;;",
";;;;===========**==&&*******;;;;",
";;;;=========--====&&&&&&*&&;;;;",
";;;;================&&&&&&&&;;;;",
";;;;=============*&====&&===;;;;",
";;;;=======%===@=-==========;;;;",
";;;;===%#%#XX%@@@@===&==&===;;;;",
";;;;===%%###%@@%X@=%=&==&===;;;;",
";;;;==XXXXXX#@XXX@X@====*==-;;;;",
";;;;==XXXXXX#@%%XXX========-;;;;",
";;;;==@X@@X%%@%X@XX=========;;;;",
";;;;==@XX%%@X@@@@XXX========;;;;",
";;;;==X@%@#%%XXX%X%X========;;;;",
";;;;===@@@%@@%X@%XX%========;;;;",
";;;;=== ==XXXXX X ==========;;;;",
";;;;===# ==XXX= = =%========;;;;",
";;;;====== ...   ===========;;;;",
";;;;====== ....=============;;;;",
";;;;=====oOOooO+============;;;;",
";;;;=====o.OooO+============;;;;",
";;;;===o...ooooooOO=========;;;;"
};
