/* XPM */
static char *result[] = {
/* columns rows colors chars-per-pixel */
"64 64 17 1 ",
"  c #57261B",
". c #753324",
"X c #316B21",
"o c #8C3D2B",
"O c #CF5A40",
"+ c #E86548",
"@ c #408C2B",
"# c #6DA12A",
"$ c #6FA32A",
"% c #2DE336",
"& c #93D938",
"* c #FFDF67",
"= c #FFE999",
"- c #8ABCDE",
"; c #FFF3C9",
": c #FFFAE8",
"> c None",
/* pixels */
">>>>>>>>>>%%%%%%%%%%%%%%%%%%%%%%%%%%%%%%%%%%%%%%%%%%%%%>>>>>>>>>",
">>>>>>>>>>%>>>>>>>>>>>>>>>>>>>>>>>>>>>>>>>>>>>>>>>>>>>%>>>>>>>>>",
">>>>>>>>>>%>>%%%%%%%>>>%%%>>>%%>>>%%%%%%%%>>%%%%%%%>>>%>>>>>>>>>",
">>>>>>>>>>%>>%>>>>>>>>>>%%>>%%>>>>>>>%%>>>>>>>%%%>>>>>%>>>>>>>>>",
">>>>>>>>>>%>>%>>>>>>>>>>>%%%%%>>>>>>>%%>>>>>>>%%%>>>>>%>>>>>>>>>",
">>>>>>>>>>%>>%%%%%>>>>>>>>%%%>>>>>>>>%%>>>>>>>%%%>>>>>%>>>>>>>>>",
">>>>>>>>>>%>>%%%%%>>>>>>>%%%%%>>>>>>>%%>>>>>>>%%%>>>>>%>>>>>>>>>",
">>>>>>>>>>%>>%>>>>>>>>>>%%>>%%>>>>>>>%%>>>>>>>%%%>>>>>%>>>>>>>>>",
">>>>>>>>>>%>>%>>>>>>>>>%%%>>>%%>>>>>>%%>>>>>>>%%%>>>>>%>>>>>>>>>",
">>>>>>>>>>%>>%%%%%%%>>%%%>>>>>%%>>%%%%%%%%>>>>%%%>>>>>%>>>>>>>>>",
">>>>>>>>>>%>>>>>>>>>>>>>>>>>>>>>>>>>>>>>>>>>>>>>>>>>>>%>>>>>>>>>",
">>>>>>>>>>%>>>>>>>>>>>>>>>>>>>>>>>>>>>>>>>>>>>>>>>>>>>%>>>>>>>>>",
">>>>>>>>>>%%%%%%%%%%%%%%%%%%%%%%%%%%%%%%%%%%%%%%%%%%%%%>>>>>>>>>",
">>>>>>>>>>>>>>>>>>>>>>>>>>>>>>>>>>>>>>>>>>>>>>>>>>>>>>>>>>>>>>>>",
">>>>>>>>>>----------------=====**-----***==;;;;;;;;;;;;>>>>>>>>>",
">>>>>>>>>>-----------------------*---***===;;;;;;;;;;;;>>>>>>>>>",
">>>>>>>>>>---------------------------***==;;;;;;;;;;;;;>>>>>>>>>",
">>>>>>>>>>----------------;;;--------***===;;;;;;;;;;;;>>>>>>>>>",
">>>>>>>>>>--------------------------****===;;;;;;;;;;;;>>>>>>>>>",
">>>>>>>>>>--------------------------****===;;;;;;;;;;;;>>>>>>>>>",
">>>>>>>>>>-------------------==***--****====;;;;;;;;;;;>>>>>>>>>",
">>>>>>>>>>-----------------;;;---*--*****====;;;;;;;;;;>>>>>>>>>",
">>>>>>>>>>---------------------------*****=====;;;;;;;;>>>>>>>>>",
">>>>>>>>>>---------------------------*****=======;;;;;;>>>>>>>>>",
">>>>>>>>>>----------------------=**--******============>>>>>>>>>",
">>>>>>>>>>------------------;;==------******===========>>>>>>>>>",
">>>>>>>>>>----------------------------*********========>>>>>>>>>",
">>>>>>>>>>-----------------------------***********==***>>>>>>>>>",
">>>>>>>>>>------------------------------***************>>>>>>>>>",
">>>>>>>>>>-----------------------=**-----**************>>>>>>>>>",
">>>>>>>>>>-------------------;;-------------**********->>>>>>>>>",
">>>>>>>>>>-------------------------------------***----->>>>>>>>>",
">>>>>>>>>>----------X$&-----###-------*---------------->>>>>>>>>",
">>>>>>>>>>----------X$&-----###-------=---------------->>>>>>>>>",
">>>>>>>>>>--#&&&&&X&&$$&&XX&&&#-----=;-----**----*---*->>>>>>>>>",
">>>>>>>>>>--&&&#X$&&XXX$&&&&&&#####-;------*-----*---**>>>>>>>>>",
">>>>>>>>>>--&&&@X$$X$$$$X$###&&X&&###&&----*-----*----=>>>>>>>>>",
">>>>>>>>>>--&###X&$$$&X&X$####&X##&#X#X----=-----=----=>>>>>>>>>",
">>>>>>>>>>-####XXXX$&&X$$$XXXXXXX###&X#---;------------>>>>>>>>>",
">>>>>>>>>>-#X#XXXXXXXXXX$X#XXXXXX###&X#---:------------>>>>>>>>>",
">>>>>>>>>>-&XXXXXXX&X$X$X##X&&&XX#X#&X----:------------>>>>>>>>>",
">>>>>>>>>>-&XXX#&&XX&&XXXXXX##&&X###XX#---------------->>>>>>>>>",
">>>>>>>>>>#&&&&X####XXX&&&&&&####XXXX#----------------->>>>>>>>>",
">>>>>>>>>>-#$$XX###X&&&&X&##&&XX##X&&#----------------->>>>>>>>>",
">>>>>>>>>>--X$XXXX&X&&#X####XX####X#&#X#--------------->>>>>>>>>",
">>>>>>>>>>XXXXXXX&&X$##XX####XX#XXXX#&XX#-------------->>>>>>>>>",
">>>>>>>>>>--X#XX&&$$XXX&XX###&XXXX&&XX&---------------->>>>>>>>>",
">>>>>>>>>>--X##&&##$X&&&&XXX&XX&&XX&&XX---------------->>>>>>>>>",
">>>>>>>>>>--XX#####$&&###&&XXX#&##XXXX&#--------------->>>>>>>>>",
">>>>>>>>>>---X##XX#######X#XX####XXXXXX&--------------->>>>>>>>>",
">>>>>>>>>>---$X -XXXXXXXXXXX@XXXXX X-X----------------->>>>>>>>>",
">>>>>>>>>>---$  -$--XXXXXXXX@  X-   -$----------------->>>>>>>>>",
">>>>>>>>>>---X$ $$--  XXXXX -  --  --$&---------------->>>>>>>>>",
">>>>>>>>>>----X X --   X    -  -   ---X$--------------->>>>>>>>>",
">>>>>>>>>>-------     ..XX       ---------------------->>>>>>>>>",
">>>>>>>>>>---------  ......o    ----------------------->>>>>>>>>",
">>>>>>>>>>--------- ........  ------------------------->>>>>>>>>",
">>>>>>>>>>--------- ..Oo..O.. ------------------------->>>>>>>>>",
">>>>>>>>>>--------o.OOoo.ooO+o------------------------->>>>>>>>>",
">>>>>>>>>>-------oo.OOOo.oooO++------------------------>>>>>>>>>",
">>>>>>>>>>------ooo...OoooooOO++----------------------->>>>>>>>>",
">>>>>>>>>>-----.oOOo....ooooOOOO+++-------------------->>>>>>>>>",
">>>>>>>>>>--ooo.....OOooooooooooooOOO------------------>>>>>>>>>",
">>>>>>>>>>--ooo.....OOooooooooooooOOO------------------>>>>>>>>>"
};
