/* XPM */
static char *result[] = {
/* columns rows colors chars-per-pixel */
"80 80 17 1 ",
"  c #57261B",
". c #753324",
"X c #316B21",
"o c #8C3D2B",
"O c #CF5A40",
"+ c #E86548",
"@ c #408C2B",
"# c #6DA12A",
"$ c #6FA32A",
"% c #2DE336",
"& c #93D938",
"* c #FFDF67",
"= c #FFE999",
"- c #8ABCDE",
"; c #FFF3C9",
": c #FFFAE8",
"> c None",
/* pixels */
">>>>>>>>>>>>>%%%%%%%%%%%%%%%%%%%%%%%%%%%%%%%%%%%%%%%%%%%%%%%%%%%%%%%>>>>>>>>>>>>",
">>>>>>>>>>>>>%>>>>>>>>>>>>>>>>>>>>>>>>>>>>>>>>>>>>>>>>>>>>>>>>>>>>>%>>>>>>>>>>>>",
">>>>>>>>>>>>>%>>%%%%%%%%%>>>%%%>>>>>>%%%>>>%%%%%%%%%>>>%%%%%%%%%>>>%>>>>>>>>>>>>",
">>>>>>>>>>>>>%>>%%%%%%%%%>>>>%%%>>>>%%%>>>>%%%%%%%%%>>>%%%%%%%%%>>>%>>>>>>>>>>>>",
">>>>>>>>>>>>>%>>%%>>>>>>>>>>>>%%%>>%%%>>>>>>>>%%%>>>>>>>>>%%%>>>>>>%>>>>>>>>>>>>",
">>>>>>>>>>>>>%>>%%>>>>>>>>>>>>>%%%%%%>>>>>>>>>%%%>>>>>>>>>%%%>>>>>>%>>>>>>>>>>>>",
">>>>>>>>>>>>>%>>%%%%%%%>>>>>>>>>%%%%>>>>>>>>>>%%%>>>>>>>>>%%%>>>>>>%>>>>>>>>>>>>",
">>>>>>>>>>>>>%>>%%%%%%%>>>>>>>>>%%%%>>>>>>>>>>%%%>>>>>>>>>%%%>>>>>>%>>>>>>>>>>>>",
">>>>>>>>>>>>>%>>%%%%%%%>>>>>>>>%%%%%%>>>>>>>>>%%%>>>>>>>>>%%%>>>>>>%>>>>>>>>>>>>",
">>>>>>>>>>>>>%>>%%>>>>>>>>>>>>%%%>>%%%>>>>>>>>%%%>>>>>>>>>%%%>>>>>>%>>>>>>>>>>>>",
">>>>>>>>>>>>>%>>%%>>>>>>>>>>>%%%>>>>%%%>>>>>>>%%%>>>>>>>>>%%%>>>>>>%>>>>>>>>>>>>",
">>>>>>>>>>>>>%>>%%%%%%%%%>>>%%%>>>>>>%%%>>>%%%%%%%%%>>>>>>%%%>>>>>>%>>>>>>>>>>>>",
">>>>>>>>>>>>>%>>%%%%%%%%%>>>%%>>>>>>>>%%>>>%%%%%%%%%>>>>>>%%%>>>>>>%>>>>>>>>>>>>",
">>>>>>>>>>>>>%>>>>>>>>>>>>>>>>>>>>>>>>>>>>>>>>>>>>>>>>>>>>>>>>>>>>>%>>>>>>>>>>>>",
">>>>>>>>>>>>>%>>>>>>>>>>>>>>>>>>>>>>>>>>>>>>>>>>>>>>>>>>>>>>>>>>>>>%>>>>>>>>>>>>",
">>>>>>>>>>>>>%%%%%%%%%%%%%%%%%%%%%%%%%%%%%%%%%%%%%%%%%%%%%%%%%%%%%%%>>>>>>>>>>>>",
">>>>>>>>>>>>>>>>>>>>>>>>>>>>>>>>>>>>>>>>>>>>>>>>>>>>>>>>>>>>>>>>>>>>>>>>>>>>>>>>",
">>>>>>>>>>>>>>>>>>>>>>>>>>>>>>>>>>>>>>>>>>>>>>>>>>>>>>>>>>>>>>>>>>>>>>>>>>>>>>>>",
">>>>>>>>>>>>>--------------------======**------****===;;;;;;;;;;;;;;>>>>>>>>>>>>",
">>>>>>>>>>>>>----------------------------**---****====;;;;;;;;;;;;;;>>>>>>>>>>>>",
">>>>>>>>>>>>>---------------------------------****===;;;;;;;;;;;;;;;>>>>>>>>>>>>",
">>>>>>>>>>>>>--------------------;;;----------****====;;;;;;;;;;;;;;>>>>>>>>>>>>",
">>>>>>>>>>>>>----------------------;===**----*****====;;;;;;;;;;;;;;>>>>>>>>>>>>",
">>>>>>>>>>>>>--------------------------------*****====;;;;;;;;;;;;;;>>>>>>>>>>>>",
">>>>>>>>>>>>>--------------------------------*****====;;;;;;;;;;;;;;>>>>>>>>>>>>",
">>>>>>>>>>>>>-----------------------===***---*****=====;;;;;;;;;;;;;>>>>>>>>>>>>",
">>>>>>>>>>>>>---------------------;;;----*---******=====;;;;;;;;;;;;>>>>>>>>>>>>",
">>>>>>>>>>>>>--------------------------------******=======;;;;;;;;;;>>>>>>>>>>>>",
">>>>>>>>>>>>>---------------------------------******=======;;;;;;;;;>>>>>>>>>>>>",
">>>>>>>>>>>>>---------------------------------*******========;;;;;;;>>>>>>>>>>>>",
">>>>>>>>>>>>>---------------------------=***--********==============>>>>>>>>>>>>",
">>>>>>>>>>>>>----------------------;;===-------********=============>>>>>>>>>>>>",
">>>>>>>>>>>>>---------------------;;------------*********===========>>>>>>>>>>>>",
">>>>>>>>>>>>>-----------------------------------***********=========>>>>>>>>>>>>",
">>>>>>>>>>>>>------------------------------------*************===***>>>>>>>>>>>>",
">>>>>>>>>>>>>-------------------------------------******************>>>>>>>>>>>>",
">>>>>>>>>>>>>----------------------------=***------*****************>>>>>>>>>>>>",
">>>>>>>>>>>>>--------------------------===-----------***************>>>>>>>>>>>>",
">>>>>>>>>>>>>-----------------------;;;----------------************->>>>>>>>>>>>",
">>>>>>>>>>>>>----------------------------------------------***------>>>>>>>>>>>>",
">>>>>>>>>>>>>-------------X$&-------###---------*------------------->>>>>>>>>>>>",
">>>>>>>>>>>>>-------------X$&-------###--------==------------------->>>>>>>>>>>>",
">>>>>>>>>>>>>----#&#-@&&-$&&&&----&##&#-------=**------------------->>>>>>>>>>>>",
">>>>>>>>>>>>>---#&&&-&&X&&&$$&&&XX&&&&#------=;-------**-----*----*->>>>>>>>>>>>",
">>>>>>>>>>>>>---&&&#$X$&&$XXX$X&&&&#&&######-;--------*------*----**>>>>>>>>>>>>",
">>>>>>>>>>>>>---&&&@&X$$X$$$$$&X$####&&XX&&##-#&&-----*------*-----=>>>>>>>>>>>>",
">>>>>>>>>>>>>--#&###XX&$$$$&X&&X$#####&XX##&#XX#X-----=------==----=>>>>>>>>>>>>",
">>>>>>>>>>>>>--&####XXX$X$XXX&&$$X#####XX#X&&#XX-----==-------=----->>>>>>>>>>>>",
">>>>>>>>>>>>>-#X###XXXXX$&&&X$$$$XXXXXXXXX####&X#---;;--------;----->>>>>>>>>>>>",
">>>>>>>>>>>>>-#XX#XXXXXXXXXXXX$$X#XXXXXXXX###X&X#----:--------;----->>>>>>>>>>>>",
">>>>>>>>>>>>>-&XXXXXXXXX&XX$X$$X##X&&&&XXX#X#X&X-----:--------:----->>>>>>>>>>>>",
">>>>>>>>>>>>>-&#XXX#X&&XXX&&XXXXXXX###&&XX####XX#-------------:----->>>>>>>>>>>>",
">>>>>>>>>>>>>#&#$@&$#######&&&#XXX&&###&&XX##XX&&------------------->>>>>>>>>>>>",
">>>>>>>>>>>>>#&&&&&X######XXX&&&&&&&&#####XXXXX#-------------------->>>>>>>>>>>>",
">>>>>>>>>>>>>-##$$XX####XX&&&&&X&##&&&XX###X&X&#-------------------->>>>>>>>>>>>",
">>>>>>>>>>>>>--#X$XXXXX&X&&&#XX#####XX#####X#X&#X#------------------>>>>>>>>>>>>",
">>>>>>>>>>>>>XX&XXXXXX&&XX$##XXX#####XX##XXXXX#&XX##---------------->>>>>>>>>>>>",
">>>>>>>>>>>>>X#&&&&XX&&&XXXXXX&X#X###XXXXXX&&&#XXX##---------------->>>>>>>>>>>>",
">>>>>>>>>>>>>--XX#XXX&&$$$XXX&&XX####&XXXXX&&&XX&------------------->>>>>>>>>>>>",
">>>>>>>>>>>>>--XX##&&&##$$X&&&&&XXXX&XX&&&XX&&&XX------------------->>>>>>>>>>>>",
">>>>>>>>>>>>>---XX######$&&&####&&XXXX#&&##XXXXX&#------------------>>>>>>>>>>>>",
">>>>>>>>>>>>>----X##XXX##&######X#XXX#####XXX#XXX&------------------>>>>>>>>>>>>",
">>>>>>>>>>>>>----XXXXXXXXX##XX#XXXXXXXXXXXXXXXXXX------------------->>>>>>>>>>>>",
">>>>>>>>>>>>>----$X --XXXXXXXXXXXXXX@XXXXXX XX-X-------------------->>>>>>>>>>>>",
">>>>>>>>>>>>>----$  --$--XXXXXXXXXXX@  XX-   --$-------------------->>>>>>>>>>>>",
">>>>>>>>>>>>>----X$  $$---  XXXXXX --  ---  ---$&------------------->>>>>>>>>>>>",
">>>>>>>>>>>>>-----X  X ---   X     --  --   ----X$------------------>>>>>>>>>>>>",
">>>>>>>>>>>>>-------         XXX   -  -    ------------------------->>>>>>>>>>>>",
">>>>>>>>>>>>>---------      ...XX         -------------------------->>>>>>>>>>>>",
">>>>>>>>>>>>>-----------   .......o      --------------------------->>>>>>>>>>>>",
">>>>>>>>>>>>>-----------  ..........  ------------------------------>>>>>>>>>>>>",
">>>>>>>>>>>>>----------- ...Oo...O... ------------------------------>>>>>>>>>>>>",
">>>>>>>>>>>>>----------oo..Ooo..oOO+..------------------------------>>>>>>>>>>>>",
">>>>>>>>>>>>>----------o..OOoo..ooOO+o------------------------------>>>>>>>>>>>>",
">>>>>>>>>>>>>---------oo.OOOOoo.oooOO++----------------------------->>>>>>>>>>>>",
">>>>>>>>>>>>>--------ooo....OooooooOOO++---------------------------->>>>>>>>>>>>",
">>>>>>>>>>>>>------..oOOoo....OoooooOOOO++++------------------------>>>>>>>>>>>>",
">>>>>>>>>>>>>---ooo...OOOOoo....OoooooooOOO+++---------------------->>>>>>>>>>>>",
">>>>>>>>>>>>>---ooo.......OOoooooooooooooooOOOO--------------------->>>>>>>>>>>>",
">>>>>>>>>>>>>---ooo.......OOoooooooooooooooOOOO--------------------->>>>>>>>>>>>"
};
