/* XPM */
static char *exit_64x64[] = {
/* columns rows colors chars-per-pixel */
"64 64 18 1 ",
"  c #57261B",
". c #753324",
"X c #316B21",
"o c #5C565B",
"O c #8C3D2B",
"+ c #CF5A40",
"@ c #E86548",
"# c #408C2B",
"$ c #6DA12A",
"% c #6FA32A",
"& c #2DE336",
"* c #93D938",
"= c #FFDF67",
"- c #FFE999",
"; c #8ABCDE",
": c #D1C5CF",
"> c #FFF3C9",
", c #FFFAE8",
/* pixels */
"oooooooooo&&&&&&&&&&&&&&&&&&&&&&&&&&&&&&&&&&&&&&&&&&&&&ooooooooo",
"o:::::::::&:::::::::::::::::::::::::::::::::::::::::::&::::::::o",
"o:::::::::&::&&&&&&&:::&&&:::&&:::&&&&&&&&::&&&&&&&:::&::::::::o",
"o:::::::::&::&::::::::::&&::&&:::::::&&:::::::&&&:::::&::::::::o",
"o:::::::::&::&:::::::::::&&&&&:::::::&&:::::::&&&:::::&::::::::o",
"o:::::::::&::&&&&&::::::::&&&::::::::&&:::::::&&&:::::&::::::::o",
"o:::::::::&::&&&&&:::::::&&&&&:::::::&&:::::::&&&:::::&::::::::o",
"o:::::::::&::&::::::::::&&::&&:::::::&&:::::::&&&:::::&::::::::o",
"o:::::::::&::&:::::::::&&&:::&&::::::&&:::::::&&&:::::&::::::::o",
"o:::::::::&::&&&&&&&::&&&:::::&&::&&&&&&&&::::&&&:::::&::::::::o",
"o:::::::::&:::::::::::::::::::::::::::::::::::::::::::&::::::::o",
"o:::::::::&:::::::::::::::::::::::::::::::::::::::::::&::::::::o",
"o:::::::::&&&&&&&&&&&&&&&&&&&&&&&&&&&&&&&&&&&&&&&&&&&&&::::::::o",
"o::::::::::::::::::::::::::::::::::::::::::::::::::::::::::::::o",
"o:::::::::;;;;;;;;;;;;;;;;-----==;;;;;===-->>>>>>>>>>>>::::::::o",
"o:::::::::;;;;;;;;;;;;;;;;;;;;;;;=;;;===--->>>>>>>>>>>>::::::::o",
"o:::::::::;;;;;;;;;;;;;;;;;;;;;;;;;;;===-->>>>>>>>>>>>>::::::::o",
"o:::::::::;;;;;;;;;;;;;;;;>>>;;;;;;;;===--->>>>>>>>>>>>::::::::o",
"o:::::::::;;;;;;;;;;;;;;;;;;;;;;;;;;====--->>>>>>>>>>>>::::::::o",
"o:::::::::;;;;;;;;;;;;;;;;;;;;;;;;;;====--->>>>>>>>>>>>::::::::o",
"o:::::::::;;;;;;;;;;;;;;;;;;;--===;;====---->>>>>>>>>>>::::::::o",
"o:::::::::;;;;;;;;;;;;;;;;;>>>;;;=;;=====---->>>>>>>>>>::::::::o",
"o:::::::::;;;;;;;;;;;;;;;;;;;;;;;;;;;=====----->>>>>>>>::::::::o",
"o:::::::::;;;;;;;;;;;;;;;;;;;;;;;;;;;=====------->>>>>>::::::::o",
"o:::::::::;;;;;;;;;;;;;;;;;;;;;;-==;;======------------::::::::o",
"o:::::::::;;;;;;;;;;;;;;;;;;>>--;;;;;;======-----------::::::::o",
"o:::::::::;;;;;;;;;;;;;;;;;;;;;;;;;;;;=========--------::::::::o",
"o:::::::::;;;;;;;;;;;;;;;;;;;;;;;;;;;;;===========--===::::::::o",
"o:::::::::;;;;;;;;;;;;;;;;;;;;;;;;;;;;;;===============::::::::o",
"o:::::::::;;;;;;;;;;;;;;;;;;;;;;;-==;;;;;==============::::::::o",
"o:::::::::;;;;;;;;;;;;;;;;;;;>>;;;;;;;;;;;;;==========;::::::::o",
"o:::::::::;;;;;;;;;;;;;;;;;;;;;;;;;;;;;;;;;;;;;===;;;;;::::::::o",
"o:::::::::;;;;;;;;;;X%*;;;;;$$$;;;;;;;=;;;;;;;;;;;;;;;;::::::::o",
"o:::::::::;;;;;;;;;;X%*;;;;;$$$;;;;;;;-;;;;;;;;;;;;;;;;::::::::o",
"o:::::::::;;$*****X**%%**XX***$;;;;;->;;;;;==;;;;=;;;=;::::::::o",
"o:::::::::;;***$X%**XXX%******$$$$$;>;;;;;;=;;;;;=;;;==::::::::o",
"o:::::::::;;***#X%%X%%%%X%$$$**X**$$$**;;;;=;;;;;=;;;;-::::::::o",
"o:::::::::;;*$$$X*%%%*X*X%$$$$*X$$*$X$X;;;;-;;;;;-;;;;-::::::::o",
"o:::::::::;$$$$XXXX%**X%%%XXXXXXX$$$*X$;;;>;;;;;;;;;;;;::::::::o",
"o:::::::::;$X$XXXXXXXXXX%X$XXXXXX$$$*X$;;;,;;;;;;;;;;;;::::::::o",
"o:::::::::;*XXXXXXX*X%X%X$$X***XX$X$*X;;;;,;;;;;;;;;;;;::::::::o",
"o:::::::::;*XXX$**XX**XXXXXX$$**X$$$XX$;;;;;;;;;;;;;;;;::::::::o",
"o:::::::::$****X$$$$XXX******$$$$XXXX$;;;;;;;;;;;;;;;;;::::::::o",
"o:::::::::;$%%XX$$$X****X*$$**XX$$X**$;;;;;;;;;;;;;;;;;::::::::o",
"o:::::::::;;X%XXXX*X**$X$$$$XX$$$$X$*$X$;;;;;;;;;;;;;;;::::::::o",
"o:::::::::XXXXXXX**X%$$XX$$$$XX$XXXX$*XX$;;;;;;;;;;;;;;::::::::o",
"o:::::::::;;X$XX**%%XXX*XX$$$*XXXX**XX*;;;;;;;;;;;;;;;;::::::::o",
"o:::::::::;;X$$**$$%X****XXX*XX**XX**XX;;;;;;;;;;;;;;;;::::::::o",
"o:::::::::;;XX$$$$$%**$$$**XXX$*$$XXXX*$;;;;;;;;;;;;;;;::::::::o",
"o:::::::::;;;X$$XX$$$$$$$X$XX$$$$XXXXXX*;;;;;;;;;;;;;;;::::::::o",
"o:::::::::;;;%X ;XXXXXXXXXXX#XXXXX X;X;;;;;;;;;;;;;;;;;::::::::o",
"o:::::::::;;;%  ;%;;XXXXXXXX#  X;   ;%;;;;;;;;;;;;;;;;;::::::::o",
"o:::::::::;;;X% %%;;  XXXXX ;  ;;  ;;$*;;;;;;;;;;;;;;;;::::::::o",
"o:::::::::;;;;X X ;;   X    ;  ;   ;;;X$;;;;;;;;;;;;;;;::::::::o",
"o:::::::::;;;;;;;     ..XX       ;;;;;;;;;;;;;;;;;;;;;;::::::::o",
"o:::::::::;;;;;;;;;  ......O    ;;;;;;;;;;;;;;;;;;;;;;;::::::::o",
"o:::::::::;;;;;;;;; ........  ;;;;;;;;;;;;;;;;;;;;;;;;;::::::::o",
"o:::::::::;;;;;;;;; ..+O..+.. ;;;;;;;;;;;;;;;;;;;;;;;;;::::::::o",
"o:::::::::;;;;;;;;O.++OO.OO+@O;;;;;;;;;;;;;;;;;;;;;;;;;::::::::o",
"o:::::::::;;;;;;;OO.+++O.OOO+@@;;;;;;;;;;;;;;;;;;;;;;;;::::::::o",
"o:::::::::;;;;;;OOO...+OOOOO++@@;;;;;;;;;;;;;;;;;;;;;;;::::::::o",
"o:::::::::;;;;;.O++O....OOOO++++@@@;;;;;;;;;;;;;;;;;;;;::::::::o",
"o:::::::::;;OOO.....++OOOOOOOOOOOO+++;;;;;;;;;;;;;;;;;;::::::::o",
"oooooooooo;;OOO.....++OOOOOOOOOOOO+++;;;;;;;;;;;;;;;;;;ooooooooo"
};
