/* XPM */
static char *exit_112x112[] = {
/* columns rows colors chars-per-pixel */
"112 112 18 1 ",
"  c #57261B",
". c #753324",
"X c #316B21",
"o c #5C565B",
"O c #8C3D2B",
"+ c #CF5A40",
"@ c #E86548",
"# c #408C2B",
"$ c #6DA12A",
"% c #6FA32A",
"& c #2DE336",
"* c #93D938",
"= c #FFDF67",
"- c #FFE999",
"; c #8ABCDE",
": c #D1C5CF",
"> c #FFF3C9",
", c #FFFAE8",
/* pixels */
"oooooooooooooooooo&&&&&&&&&&&&&&&&&&&&&&&&&&&&&&&&&&&&&&&&&&&&&&&&&&&&&&&&&&&&&&&&&&&&&&&&&&&&&&oooooooooooooooo",
"oooooooooooooooooo&&oooooooooooooooooooooooooooooooooooooooooooooooooooooooooooooooooooooooooo&&oooooooooooooooo",
"oo::::::::::::::::&&::::::::::::::::::::::::::::::::::::::::::::::::::::::::::::::::::::::::::&&::::::::::::::oo",
"oo::::::::::::::::&&::&&&&&&&&&&&&&::::&&&:::::::::::&&&::::&&&&&&&&&&&&&::::&&&&&&&&&&&&&::::&&::::::::::::::oo",
"oo::::::::::::::::&&::&&&&&&&&&&&&&:::::&&&:::::::::&&&:::::&&&&&&&&&&&&&::::&&&&&&&&&&&&&::::&&::::::::::::::oo",
"oo::::::::::::::::&&::&&&&&&&&&&&&&:::::&&&&:::::::&&&&:::::&&&&&&&&&&&&&::::&&&&&&&&&&&&&::::&&::::::::::::::oo",
"oo::::::::::::::::&&::&&&::::::::::::::::&&&&:::::&&&&::::::::::&&&&&::::::::::::&&&&:::::::::&&::::::::::::::oo",
"oo::::::::::::::::&&::&&&:::::::::::::::::&&&&:::&&&&:::::::::::&&&&&::::::::::::&&&&:::::::::&&::::::::::::::oo",
"oo::::::::::::::::&&::&&&::::::::::::::::::&&&&:&&&&::::::::::::&&&&&::::::::::::&&&&:::::::::&&::::::::::::::oo",
"oo::::::::::::::::&&::&&&&&&&&&&::::::::::::&&&&&&&:::::::::::::&&&&&::::::::::::&&&&:::::::::&&::::::::::::::oo",
"oo::::::::::::::::&&::&&&&&&&&&&:::::::::::::&&&&&::::::::::::::&&&&&::::::::::::&&&&:::::::::&&::::::::::::::oo",
"oo::::::::::::::::&&::&&&&&&&&&&:::::::::::::&&&&&::::::::::::::&&&&&::::::::::::&&&&:::::::::&&::::::::::::::oo",
"oo::::::::::::::::&&::&&&:::::::::::::::::::&&&&&&&:::::::::::::&&&&&::::::::::::&&&&:::::::::&&::::::::::::::oo",
"oo::::::::::::::::&&::&&&::::::::::::::::::&&&&:&&&&::::::::::::&&&&&::::::::::::&&&&:::::::::&&::::::::::::::oo",
"oo::::::::::::::::&&::&&&:::::::::::::::::&&&&:::&&&&:::::::::::&&&&&::::::::::::&&&&:::::::::&&::::::::::::::oo",
"oo::::::::::::::::&&::&&&&&&&&&&&&&::::::&&&&:::::&&&&::::::&&&&&&&&&&&&&::::::::&&&&:::::::::&&::::::::::::::oo",
"oo::::::::::::::::&&::&&&&&&&&&&&&&:::::&&&&:::::::&&&&:::::&&&&&&&&&&&&&::::::::&&&&:::::::::&&::::::::::::::oo",
"oo::::::::::::::::&&::&&&&&&&&&&&&&::::&&&&:::::::::&&&&::::&&&&&&&&&&&&&::::::::&&&&:::::::::&&::::::::::::::oo",
"oo::::::::::::::::&&::::::::::::::::::::::::::::::::::::::::::::::::::::::::::::::::::::::::::&&::::::::::::::oo",
"oo::::::::::::::::&&::::::::::::::::::::::::::::::::::::::::::::::::::::::::::::::::::::::::::&&::::::::::::::oo",
"oo::::::::::::::::&&::::::::::::::::::::::::::::::::::::::::::::::::::::::::::::::::::::::::::&&::::::::::::::oo",
"oo::::::::::::::::&&&&&&&&&&&&&&&&&&&&&&&&&&&&&&&&&&&&&&&&&&&&&&&&&&&&&&&&&&&&&&&&&&&&&&&&&&&&&&::::::::::::::oo",
"oo::::::::::::::::::::::::::::::::::::::::::::::::::::::::::::::::::::::::::::::::::::::::::::::::::::::::::::oo",
"oo::::::::::::::::::::::::::::::::::::::::::::::::::::::::::::::::::::::::::::::::::::::::::::::::::::::::::::oo",
"oo::::::::::::::::::::::::::::::::::::::::::::::::::::::::::::::::::::::::::::::::::::::::::::::::::::::::::::oo",
"oo::::::::::::::::;;;;;;;;;;;;;;;;;;;;;;;;;;;;---------==;;;;;;;;;=====----->>>>>>>>>>>>>>>>>>>>::::::::::::::oo",
"oo::::::::::::::::;;;;;;;;;;;;;;;;;;;;;;;;;;;;---------==;;;;;;;;;=====----->>>>>>>>>>>>>>>>>>>>::::::::::::::oo",
"oo::::::::::::::::;;;;;;;;;;;;;;;;;;;;;;;;;;;;;;;;;;;;;;;===;;;;======------>>>>>>>>>>>>>>>>>>>>::::::::::::::oo",
"oo::::::::::::::::;;;;;;;;;;;;;;;;;;;;;;;;;;;;;;;;;;;;;;;;;;;;;;======---->>>>>>>>>>>>>>>>>>>>>>::::::::::::::oo",
"oo::::::::::::::::;;;;;;;;;;;;;;;;;;;;;;;;;;;;>>>>;;;;;;;;;;;;;;======------>>>>>>>>>>>>>>>>>>>>::::::::::::::oo",
"oo::::::::::::::::;;;;;;;;;;;;;;;;;;;;;;;;;;;;>>>>;;;;;;;;;;;;;;======------>>>>>>>>>>>>>>>>>>>>::::::::::::::oo",
"oo::::::::::::::::;;;;;;;;;;;;;;;;;;;;;;;;;;;;;;;>-----==;;;;;;=======------>>>>>>>>>>>>>>>>>>>>::::::::::::::oo",
"oo::::::::::::::::;;;;;;;;;;;;;;;;;;;;;;;;;;;;;;;;;;;;;;;;;;;;;=======------>>>>>>>>>>>>>>>>>>>>::::::::::::::oo",
"oo::::::::::::::::;;;;;;;;;;;;;;;;;;;;;;;;;;;;;;;;;;;;;;;;;;;;;=======------>>>>>>>>>>>>>>>>>>>>::::::::::::::oo",
"oo::::::::::::::::;;;;;;;;;;;;;;;;;;;;;;;;;;;;;;;;;;;;;;;;;;;;;=======------>>>>>>>>>>>>>>>>>>>>::::::::::::::oo",
"oo::::::::::::::::;;;;;;;;;;;;;;;;;;;;;;;;;;;;;;;;-----====;;;;=======------->>>>>>>>>>>>>>>>>>>::::::::::::::oo",
"oo::::::::::::::::;;;;;;;;;;;;;;;;;;;;;;;;;;;;;;>>>>;;;;;==;;;;========------->>>>>>>>>>>>>>>>>>::::::::::::::oo",
"oo::::::::::::::::;;;;;;;;;;;;;;;;;;;;;;;;;;;;;;>>>>;;;;;==;;;;========------->>>>>>>>>>>>>>>>>>::::::::::::::oo",
"oo::::::::::::::::;;;;;;;;;;;;;;;;;;;;;;;;;;;;;;;;;;;;;;;;;;;;;========---------->>>>>>>>>>>>>>>::::::::::::::oo",
"oo::::::::::::::::;;;;;;;;;;;;;;;;;;;;;;;;;;;;;;;;;;;;;;;;;;;;;;=========---------->>>>>>>>>>>>>::::::::::::::oo",
"oo::::::::::::::::;;;;;;;;;;;;;;;;;;;;;;;;;;;;;;;;;;;;;;;;;;;;;;=========---------->>>>>>>>>>>>>::::::::::::::oo",
"oo::::::::::::::::;;;;;;;;;;;;;;;;;;;;;;;;;;;;;;;;;;;;;;;;;;;;;;==========----------->>>>>>>>>>>::::::::::::::oo",
"oo::::::::::::::::;;;;;;;;;;;;;;;;;;;;;;;;;;;;;;;;;;;;;;-=====;;============--------------------::::::::::::::oo",
"oo::::::::::::::::;;;;;;;;;;;;;;;;;;;;;;;;;;;;;;;>>>----;;;;;;;;;;===========-------------------::::::::::::::oo",
"oo::::::::::::::::;;;;;;;;;;;;;;;;;;;;;;;;;;;;;;;>>>----;;;;;;;;;;===========-------------------::::::::::::::oo",
"oo::::::::::::::::;;;;;;;;;;;;;;;;;;;;;;;;;;;;;;>>;;;;;;;;;;;;;;;;;=============----------------::::::::::::::oo",
"oo::::::::::::::::;;;;;;;;;;;;;;;;;;;;;;;;;;;;;;;;;;;;;;;;;;;;;;;;;================-------------::::::::::::::oo",
"oo::::::::::::::::;;;;;;;;;;;;;;;;;;;;;;;;;;;;;;;;;;;;;;;;;;;;;;;;;================-------------::::::::::::::oo",
"oo::::::::::::::::;;;;;;;;;;;;;;;;;;;;;;;;;;;;;;;;;;;;;;;;;;;;;;;;;;;==================----=====::::::::::::::oo",
"oo::::::::::::::::;;;;;;;;;;;;;;;;;;;;;;;;;;;;;;;;;;;;;;;;;;;;;;;;;;;;==========================::::::::::::::oo",
"oo::::::::::::::::;;;;;;;;;;;;;;;;;;;;;;;;;;;;;;;;;;;;;;;--====;;;;;;;;=========================::::::::::::::oo",
"oo::::::::::::::::;;;;;;;;;;;;;;;;;;;;;;;;;;;;;;;;;;;;;;;--====;;;;;;;;=========================::::::::::::::oo",
"oo::::::::::::::::;;;;;;;;;;;;;;;;;;;;;;;;;;;;;;;;;;;;;----;;;;;;;;;;;;;;;======================::::::::::::::oo",
"oo::::::::::::::::;;;;;;;;;;;;;;;;;;;;;;;;;;;;;;;;>>>>>;;;;;;;;;;;;;;;;;;;;;;=================;;::::::::::::::oo",
"oo::::::::::::::::;;;;;;;;;;;;;;;;;;;;;;;;;;;;;;;;>>>>>;;;;;;;;;;;;;;;;;;;;;;=================;;::::::::::::::oo",
"oo::::::::::::::::;;;;;;;;;;;;;;;;;;;;;;;;;;;;;;;;;;;;;;;;;;;;;;;;;;;;;;;;;;;;;;;;;====;;;;;;;;;::::::::::::::oo",
"oo::::::::::::::::;;;;;;;;;;;;;;;;;;XX%*;;;;;;;;;;$$$$;;;;;;;;;;;;;==;;;;;;;;;;;;;;;;;;;;;;;;;;;::::::::::::::oo",
"oo::::::::::::::::;;;;;;;;;;;;;;;;;;XX%*;;;;;;;;;;$$$$;;;;;;;;;;;;---;;;;;;;;;;;;;;;;;;;;;;;;;;;::::::::::::::oo",
"oo::::::::::::::::;;;;;;;;;;;;;;;;;;XX%*;;;;;;;;;;$$$$;;;;;;;;;;;;---;;;;;;;;;;;;;;;;;;;;;;;;;;;::::::::::::::oo",
"oo::::::::::::::::;;;;;;$*$$;##**;;%******;;;;;**$$$*$;;;;;;;;;;--===;;;;;;;;;;;;;;;;;;;;;;;;;;;::::::::::::::oo",
"oo::::::::::::::::;;;;$$****;***X*****%%*****XX******$;;;;;;;;;->>;;;;;;;;;;==;;;;;;;==;;;;;==;;::::::::::::::oo",
"oo::::::::::::::::;;;;$$****;***X*****%%*****XX******$;;;;;;;;;->>;;;;;;;;;;==;;;;;;;==;;;;;==;;::::::::::::::oo",
"oo::::::::::::::::;;;;****$$%XX%***%XXXX%%X******$***$$$$$$$$;;>;;;;;;;;;;;;=;;;;;;;;==;;;;;====::::::::::::::oo",
"oo::::::::::::::::;;;;****##*XX%%XX%%%%%%$*XX$$$$$$$**XXX***$$$;$$**;;;;;;;;=;;;;;;;;==;;;;;;;--::::::::::::::oo",
"oo::::::::::::::::;;;$**$$$$XXX*%%%%%%*X***XX%$$$$$$$*XXX$$$*$$XXX$X;;;;;;;;-;;;;;;;;---;;;;;;--::::::::::::::oo",
"oo::::::::::::::::;;;$**$$$$XXX*%%%%%%*X***XX%$$$$$$$*XXX$$$*$$XXX$X;;;;;;;;-;;;;;;;;---;;;;;;--::::::::::::::oo",
"oo::::::::::::::::;;;*$$$$$$XXXX%XX%XXXX***%%%X$$$$$$$XXX$$X***$XXX;;;;;;;---;;;;;;;;;;-;;;;;;;;::::::::::::::oo",
"oo::::::::::::::::;$$X$$$$XXXXXXX%%****X%%%%%%XXXXXXXXXXXXX$$$$$**X$;;;;;>>>;;;;;;;;;;;>;;;;;;;;::::::::::::::oo",
"oo::::::::::::::::;$$X$$$$XXXXXXX%%****X%%%%%%XXXXXXXXXXXXX$$$$$**X$;;;;;>>>;;;;;;;;;;;>;;;;;;;;::::::::::::::oo",
"oo::::::::::::::::;$$XXX$XXXXXXXXXXXXXXXXX%%%X$XXXXXXXXXXXX$$$$X**X$;;;;;;,,;;;;;;;;;;;>;;;;;;;;::::::::::::::oo",
"oo::::::::::::::::;**XXXXXXXXXXXX**XXX%X%%%XX$$XX*****XXXXX$X$$X**X;;;;;;;,,;;;;;;;;;;;,;;;;;;;;::::::::::::::oo",
"oo::::::::::::::::;**$XXXX$$X***XXXX***XXXXXXXXXX$$$$***XXX$$$$$XXX$;;;;;;;;;;;;;;;;;;;,;;;;;;;;::::::::::::::oo",
"oo::::::::::::::::;**$XXXX$$X***XXXX***XXXXXXXXXX$$$$***XXX$$$$$XXX$;;;;;;;;;;;;;;;;;;;,;;;;;;;;::::::::::::::oo",
"oo::::::::::::::::$**$%%#*%%$$$$$$$$$$****$XXXX***$$$$***XXX$$$XXX**;;;;;;;;;;;;;;;;;;;;;;;;;;;;::::::::::::::oo",
"oo::::::::::::::::$*******XX$$$$$$$$XXXX************$$$$$$$XXXXXXX$;;;;;;;;;;;;;;;;;;;;;;;;;;;;;::::::::::::::oo",
"oo::::::::::::::::$*******XX$$$$$$$$XXXX************$$$$$$$XXXXXXX$;;;;;;;;;;;;;;;;;;;;;;;;;;;;;::::::::::::::oo",
"oo::::::::::::::::;$$$%%%XXX$$$$$XXX*******XX*$$$****XXX$$$$X**X**$;;;;;;;;;;;;;;;;;;;;;;;;;;;;;::::::::::::::oo",
"oo::::::::::::::::;;;$XX%XXXXXXX*XX****$XXX$$$$$$$XXX$$$$$$$X$$X**$X$$;;;;;;;;;;;;;;;;;;;;;;;;;;::::::::::::::oo",
"oo::::::::::::::::XXX*XXXXXXXXX**XXX%%$$XXXXX$$$$$$$XX$$$XXXXXXX$$*XXX$$$;;;;;;;;;;;;;;;;;;;;;;;::::::::::::::oo",
"oo::::::::::::::::XXX*XXXXXXXXX**XXX%%$$XXXXX$$$$$$$XX$$$XXXXXXX$$*XXX$$$;;;;;;;;;;;;;;;;;;;;;;;::::::::::::::oo",
"oo::::::::::::::::X$$*****XXX****XXXXXXXXX*XX$X$$$$$XXXXXXXX****$$XXXX$$$;;;;;;;;;;;;;;;;;;;;;;;::::::::::::::oo",
"oo::::::::::::::::;;;XXX$XXXX***%%%%XXXX***XXX$$$$$$*XXXXXXX****XXX*;;;;;;;;;;;;;;;;;;;;;;;;;;;;::::::::::::::oo",
"oo::::::::::::::::;;;XXX$XXXX***%%%%XXXX***XXX$$$$$$*XXXXXXX****XXX*;;;;;;;;;;;;;;;;;;;;;;;;;;;;::::::::::::::oo",
"oo::::::::::::::::;;;XXX$$*****$$%%%XX*******XXXXX**XX*****XX*****XX;;;;;;;;;;;;;;;;;;;;;;;;;;;;::::::::::::::oo",
"oo::::::::::::::::;;;;XXX$$$$$$$$%%****$$$$$$**XXXXXX$***$$$XXXXXXX*$$;;;;;;;;;;;;;;;;;;;;;;;;;;::::::::::::::oo",
"oo::::::::::::::::;;;;;;X$$$XXXX$$$*$$$$$$$$$X$XXXXX$$$$$$$XXXX$XXXX**;;;;;;;;;;;;;;;;;;;;;;;;;;::::::::::::::oo",
"oo::::::::::::::::;;;;;;X$$$XXXX$$$*$$$$$$$$$X$XXXXX$$$$$$$XXXX$XXXX**;;;;;;;;;;;;;;;;;;;;;;;;;;::::::::::::::oo",
"oo::::::::::::::::;;;;;;XXXXXXXXXXXX$$$XXX$XXXXXXXXXXXXXXXXXXXXXXXXX;;;;;;;;;;;;;;;;;;;;;;;;;;;;::::::::::::::oo",
"oo::::::::::::::::;;;;;;%X  ;;;XXXXXXXXXXXXXXXXXXX##XXXXXXXX XXX;;X;;;;;;;;;;;;;;;;;;;;;;;;;;;;;::::::::::::::oo",
"oo::::::::::::::::;;;;;;%X  ;;;XXXXXXXXXXXXXXXXXXX##XXXXXXXX XXX;;X;;;;;;;;;;;;;;;;;;;;;;;;;;;;;::::::::::::::oo",
"oo::::::::::::::::;;;;;;%   ;;;%;;;XXXXXXXXXXXXXXX##  XXX;;    ;;;%;;;;;;;;;;;;;;;;;;;;;;;;;;;;;::::::::::::::oo",
"oo::::::::::::::::;;;;;;X%   %%%;;;;   XXXXXXXX  ;;;  ;;;;;  ;;;;;%*;;;;;;;;;;;;;;;;;;;;;;;;;;;;::::::::::::::oo",
"oo::::::::::::::::;;;;;;;X   XX ;;;;    XX       ;;;  ;;;    ;;;;;;X%%;;;;;;;;;;;;;;;;;;;;;;;;;;::::::::::::::oo",
"oo::::::::::::::::;;;;;;;X   XX ;;;;    XX       ;;;  ;;;    ;;;;;;X%%;;;;;;;;;;;;;;;;;;;;;;;;;;::::::::::::::oo",
"oo::::::::::::::::;;;;;;;;;;            XXXXX    ;   ;      ;;;;;;;;;;;;;;;;;;;;;;;;;;;;;;;;;;;;::::::::::::::oo",
"oo::::::::::::::::;;;;;;;;;;;;;        ....XXX             ;;;;;;;;;;;;;;;;;;;;;;;;;;;;;;;;;;;;;::::::::::::::oo",
"oo::::::::::::::::;;;;;;;;;;;;;        ....XXX             ;;;;;;;;;;;;;;;;;;;;;;;;;;;;;;;;;;;;;::::::::::::::oo",
"oo::::::::::::::::;;;;;;;;;;;;;;;     .........OO        ;;;;;;;;;;;;;;;;;;;;;;;;;;;;;;;;;;;;;;;::::::::::::::oo",
"oo::::::::::::::::;;;;;;;;;;;;;;;   ..............   ;;;;;;;;;;;;;;;;;;;;;;;;;;;;;;;;;;;;;;;;;;;::::::::::::::oo",
"oo::::::::::::::::;;;;;;;;;;;;;;;  ....+OO....+..... ;;;;;;;;;;;;;;;;;;;;;;;;;;;;;;;;;;;;;;;;;;;::::::::::::::oo",
"oo::::::::::::::::;;;;;;;;;;;;;;;  ....+OO....+..... ;;;;;;;;;;;;;;;;;;;;;;;;;;;;;;;;;;;;;;;;;;;::::::::::::::oo",
"oo::::::::::::::::;;;;;;;;;;;;;;OOO...+OOO...O+++@...;;;;;;;;;;;;;;;;;;;;;;;;;;;;;;;;;;;;;;;;;;;::::::::::::::oo",
"oo::::::::::::::::;;;;;;;;;;;;;;O...+++OOO...OO+++@@O;;;;;;;;;;;;;;;;;;;;;;;;;;;;;;;;;;;;;;;;;;;::::::::::::::oo",
"oo::::::::::::::::;;;;;;;;;;;;;;O...+++OOO...OO+++@@O;;;;;;;;;;;;;;;;;;;;;;;;;;;;;;;;;;;;;;;;;;;::::::::::::::oo",
"oo::::::::::::::::;;;;;;;;;;;;;OO..+++++OOO..OOOO+++@@;;;;;;;;;;;;;;;;;;;;;;;;;;;;;;;;;;;;;;;;;;::::::::::::::oo",
"oo::::::::::::::::;;;;;;;;;;;OOOO......+OOOOOOOOO++++@@@;;;;;;;;;;;;;;;;;;;;;;;;;;;;;;;;;;;;;;;;::::::::::::::oo",
"oo::::::::::::::::;;;;;;;;...OO++OOO......+OOOOOOO++++++@@@@@;;;;;;;;;;;;;;;;;;;;;;;;;;;;;;;;;;;::::::::::::::oo",
"oo::::::::::::::::;;;;;;;;...OO++OOO......+OOOOOOO++++++@@@@@;;;;;;;;;;;;;;;;;;;;;;;;;;;;;;;;;;;::::::::::::::oo",
"oo::::::::::::::::;;;;OOOO.....+++++OOO......+OOOOOOOOOO++++@@@@;;;;;;;;;;;;;;;;;;;;;;;;;;;;;;;;::::::::::::::oo",
"oo::::::::::::::::;;;;OOOO..........+++OOOOOOOOOOOOOOOOOOOOO++++++;;;;;;;;;;;;;;;;;;;;;;;;;;;;;;::::::::::::::oo",
"oooooooooooooooooo;;;;OOOO..........+++OOOOOOOOOOOOOOOOOOOOO++++++;;;;;;;;;;;;;;;;;;;;;;;;;;;;;;oooooooooooooooo",
"oooooooooooooooooo;;;;OOOO..........+++OOOOOOOOOOOOOOOOOOOOO++++++;;;;;;;;;;;;;;;;;;;;;;;;;;;;;;oooooooooooooooo"
};
