/* XPM */
static char *result[] = {
/* columns rows colors chars-per-pixel */
"112 112 17 1 ",
"  c #57261B",
". c #753324",
"X c #316B21",
"o c #8C3D2B",
"O c #CF5A40",
"+ c #E86548",
"@ c #408C2B",
"# c #6DA12A",
"$ c #6FA32A",
"% c #2DE336",
"& c #93D938",
"* c #FFDF67",
"= c #FFE999",
"- c #8ABCDE",
"; c #FFF3C9",
": c #FFFAE8",
"> c None",
/* pixels */
">>>>>>>>>>>>>>>>>>%%%%%%%%%%%%%%%%%%%%%%%%%%%%%%%%%%%%%%%%%%%%%%%%%%%%%%%%%%%%%%%%%%%%%%%%%%%%%%>>>>>>>>>>>>>>>>",
">>>>>>>>>>>>>>>>>>%%>>>>>>>>>>>>>>>>>>>>>>>>>>>>>>>>>>>>>>>>>>>>>>>>>>>>>>>>>>>>>>>>>>>>>>>>>>%%>>>>>>>>>>>>>>>>",
">>>>>>>>>>>>>>>>>>%%>>>>>>>>>>>>>>>>>>>>>>>>>>>>>>>>>>>>>>>>>>>>>>>>>>>>>>>>>>>>>>>>>>>>>>>>>>%%>>>>>>>>>>>>>>>>",
">>>>>>>>>>>>>>>>>>%%>>%%%%%%%%%%%%%>>>>%%%>>>>>>>>>>>%%%>>>>%%%%%%%%%%%%%>>>>%%%%%%%%%%%%%>>>>%%>>>>>>>>>>>>>>>>",
">>>>>>>>>>>>>>>>>>%%>>%%%%%%%%%%%%%>>>>>%%%>>>>>>>>>%%%>>>>>%%%%%%%%%%%%%>>>>%%%%%%%%%%%%%>>>>%%>>>>>>>>>>>>>>>>",
">>>>>>>>>>>>>>>>>>%%>>%%%%%%%%%%%%%>>>>>%%%%>>>>>>>%%%%>>>>>%%%%%%%%%%%%%>>>>%%%%%%%%%%%%%>>>>%%>>>>>>>>>>>>>>>>",
">>>>>>>>>>>>>>>>>>%%>>%%%>>>>>>>>>>>>>>>>%%%%>>>>>%%%%>>>>>>>>>>%%%%%>>>>>>>>>>>>%%%%>>>>>>>>>%%>>>>>>>>>>>>>>>>",
">>>>>>>>>>>>>>>>>>%%>>%%%>>>>>>>>>>>>>>>>>%%%%>>>%%%%>>>>>>>>>>>%%%%%>>>>>>>>>>>>%%%%>>>>>>>>>%%>>>>>>>>>>>>>>>>",
">>>>>>>>>>>>>>>>>>%%>>%%%>>>>>>>>>>>>>>>>>>%%%%>%%%%>>>>>>>>>>>>%%%%%>>>>>>>>>>>>%%%%>>>>>>>>>%%>>>>>>>>>>>>>>>>",
">>>>>>>>>>>>>>>>>>%%>>%%%%%%%%%%>>>>>>>>>>>>%%%%%%%>>>>>>>>>>>>>%%%%%>>>>>>>>>>>>%%%%>>>>>>>>>%%>>>>>>>>>>>>>>>>",
">>>>>>>>>>>>>>>>>>%%>>%%%%%%%%%%>>>>>>>>>>>>>%%%%%>>>>>>>>>>>>>>%%%%%>>>>>>>>>>>>%%%%>>>>>>>>>%%>>>>>>>>>>>>>>>>",
">>>>>>>>>>>>>>>>>>%%>>%%%%%%%%%%>>>>>>>>>>>>>%%%%%>>>>>>>>>>>>>>%%%%%>>>>>>>>>>>>%%%%>>>>>>>>>%%>>>>>>>>>>>>>>>>",
">>>>>>>>>>>>>>>>>>%%>>%%%>>>>>>>>>>>>>>>>>>>%%%%%%%>>>>>>>>>>>>>%%%%%>>>>>>>>>>>>%%%%>>>>>>>>>%%>>>>>>>>>>>>>>>>",
">>>>>>>>>>>>>>>>>>%%>>%%%>>>>>>>>>>>>>>>>>>%%%%>%%%%>>>>>>>>>>>>%%%%%>>>>>>>>>>>>%%%%>>>>>>>>>%%>>>>>>>>>>>>>>>>",
">>>>>>>>>>>>>>>>>>%%>>%%%>>>>>>>>>>>>>>>>>%%%%>>>%%%%>>>>>>>>>>>%%%%%>>>>>>>>>>>>%%%%>>>>>>>>>%%>>>>>>>>>>>>>>>>",
">>>>>>>>>>>>>>>>>>%%>>%%%%%%%%%%%%%>>>>>>%%%%>>>>>%%%%>>>>>>%%%%%%%%%%%%%>>>>>>>>%%%%>>>>>>>>>%%>>>>>>>>>>>>>>>>",
">>>>>>>>>>>>>>>>>>%%>>%%%%%%%%%%%%%>>>>>%%%%>>>>>>>%%%%>>>>>%%%%%%%%%%%%%>>>>>>>>%%%%>>>>>>>>>%%>>>>>>>>>>>>>>>>",
">>>>>>>>>>>>>>>>>>%%>>%%%%%%%%%%%%%>>>>%%%%>>>>>>>>>%%%%>>>>%%%%%%%%%%%%%>>>>>>>>%%%%>>>>>>>>>%%>>>>>>>>>>>>>>>>",
">>>>>>>>>>>>>>>>>>%%>>>>>>>>>>>>>>>>>>>>>>>>>>>>>>>>>>>>>>>>>>>>>>>>>>>>>>>>>>>>>>>>>>>>>>>>>>%%>>>>>>>>>>>>>>>>",
">>>>>>>>>>>>>>>>>>%%>>>>>>>>>>>>>>>>>>>>>>>>>>>>>>>>>>>>>>>>>>>>>>>>>>>>>>>>>>>>>>>>>>>>>>>>>>%%>>>>>>>>>>>>>>>>",
">>>>>>>>>>>>>>>>>>%%>>>>>>>>>>>>>>>>>>>>>>>>>>>>>>>>>>>>>>>>>>>>>>>>>>>>>>>>>>>>>>>>>>>>>>>>>>%%>>>>>>>>>>>>>>>>",
">>>>>>>>>>>>>>>>>>%%%%%%%%%%%%%%%%%%%%%%%%%%%%%%%%%%%%%%%%%%%%%%%%%%%%%%%%%%%%%%%%%%%%%%%%%%%%%%>>>>>>>>>>>>>>>>",
">>>>>>>>>>>>>>>>>>>>>>>>>>>>>>>>>>>>>>>>>>>>>>>>>>>>>>>>>>>>>>>>>>>>>>>>>>>>>>>>>>>>>>>>>>>>>>>>>>>>>>>>>>>>>>>>",
">>>>>>>>>>>>>>>>>>>>>>>>>>>>>>>>>>>>>>>>>>>>>>>>>>>>>>>>>>>>>>>>>>>>>>>>>>>>>>>>>>>>>>>>>>>>>>>>>>>>>>>>>>>>>>>>",
">>>>>>>>>>>>>>>>>>>>>>>>>>>>>>>>>>>>>>>>>>>>>>>>>>>>>>>>>>>>>>>>>>>>>>>>>>>>>>>>>>>>>>>>>>>>>>>>>>>>>>>>>>>>>>>>",
">>>>>>>>>>>>>>>>>>----------------------------=========**---------*****=====;;;;;;;;;;;;;;;;;;;;>>>>>>>>>>>>>>>>",
">>>>>>>>>>>>>>>>>>----------------------------=========**---------*****=====;;;;;;;;;;;;;;;;;;;;>>>>>>>>>>>>>>>>",
">>>>>>>>>>>>>>>>>>---------------------------------------***----******======;;;;;;;;;;;;;;;;;;;;>>>>>>>>>>>>>>>>",
">>>>>>>>>>>>>>>>>>----------------------------------------------******====;;;;;;;;;;;;;;;;;;;;;;>>>>>>>>>>>>>>>>",
">>>>>>>>>>>>>>>>>>----------------------------;;;;--------------******======;;;;;;;;;;;;;;;;;;;;>>>>>>>>>>>>>>>>",
">>>>>>>>>>>>>>>>>>----------------------------;;;;--------------******======;;;;;;;;;;;;;;;;;;;;>>>>>>>>>>>>>>>>",
">>>>>>>>>>>>>>>>>>-------------------------------;=====**------*******======;;;;;;;;;;;;;;;;;;;;>>>>>>>>>>>>>>>>",
">>>>>>>>>>>>>>>>>>---------------------------------------------*******======;;;;;;;;;;;;;;;;;;;;>>>>>>>>>>>>>>>>",
">>>>>>>>>>>>>>>>>>---------------------------------------------*******======;;;;;;;;;;;;;;;;;;;;>>>>>>>>>>>>>>>>",
">>>>>>>>>>>>>>>>>>---------------------------------------------*******======;;;;;;;;;;;;;;;;;;;;>>>>>>>>>>>>>>>>",
">>>>>>>>>>>>>>>>>>--------------------------------=====****----*******=======;;;;;;;;;;;;;;;;;;;>>>>>>>>>>>>>>>>",
">>>>>>>>>>>>>>>>>>------------------------------;;;;-----**----********=======;;;;;;;;;;;;;;;;;;>>>>>>>>>>>>>>>>",
">>>>>>>>>>>>>>>>>>------------------------------;;;;-----**----********=======;;;;;;;;;;;;;;;;;;>>>>>>>>>>>>>>>>",
">>>>>>>>>>>>>>>>>>---------------------------------------------********==========;;;;;;;;;;;;;;;>>>>>>>>>>>>>>>>",
">>>>>>>>>>>>>>>>>>----------------------------------------------*********==========;;;;;;;;;;;;;>>>>>>>>>>>>>>>>",
">>>>>>>>>>>>>>>>>>----------------------------------------------*********==========;;;;;;;;;;;;;>>>>>>>>>>>>>>>>",
">>>>>>>>>>>>>>>>>>----------------------------------------------**********===========;;;;;;;;;;;>>>>>>>>>>>>>>>>",
">>>>>>>>>>>>>>>>>>--------------------------------------=*****--************====================>>>>>>>>>>>>>>>>",
">>>>>>>>>>>>>>>>>>-------------------------------;;;====----------***********===================>>>>>>>>>>>>>>>>",
">>>>>>>>>>>>>>>>>>-------------------------------;;;====----------***********===================>>>>>>>>>>>>>>>>",
">>>>>>>>>>>>>>>>>>------------------------------;;-----------------*************================>>>>>>>>>>>>>>>>",
">>>>>>>>>>>>>>>>>>-------------------------------------------------****************=============>>>>>>>>>>>>>>>>",
">>>>>>>>>>>>>>>>>>-------------------------------------------------****************=============>>>>>>>>>>>>>>>>",
">>>>>>>>>>>>>>>>>>---------------------------------------------------******************====*****>>>>>>>>>>>>>>>>",
">>>>>>>>>>>>>>>>>>----------------------------------------------------**************************>>>>>>>>>>>>>>>>",
">>>>>>>>>>>>>>>>>>---------------------------------------==****--------*************************>>>>>>>>>>>>>>>>",
">>>>>>>>>>>>>>>>>>---------------------------------------==****--------*************************>>>>>>>>>>>>>>>>",
">>>>>>>>>>>>>>>>>>-------------------------------------====---------------**********************>>>>>>>>>>>>>>>>",
">>>>>>>>>>>>>>>>>>--------------------------------;;;;;----------------------*****************-->>>>>>>>>>>>>>>>",
">>>>>>>>>>>>>>>>>>--------------------------------;;;;;----------------------*****************-->>>>>>>>>>>>>>>>",
">>>>>>>>>>>>>>>>>>-----------------------------------------------------------------****--------->>>>>>>>>>>>>>>>",
">>>>>>>>>>>>>>>>>>------------------XX$&----------####-------------**--------------------------->>>>>>>>>>>>>>>>",
">>>>>>>>>>>>>>>>>>------------------XX$&----------####------------===--------------------------->>>>>>>>>>>>>>>>",
">>>>>>>>>>>>>>>>>>------------------XX$&----------####------------===--------------------------->>>>>>>>>>>>>>>>",
">>>>>>>>>>>>>>>>>>------#&##-@@&&--$&&&&&&-----&&###&#----------==***--------------------------->>>>>>>>>>>>>>>>",
">>>>>>>>>>>>>>>>>>----##&&&&-&&&X&&&&&$$&&&&&XX&&&&&&#---------=;;----------**-------**-----**-->>>>>>>>>>>>>>>>",
">>>>>>>>>>>>>>>>>>----##&&&&-&&&X&&&&&$$&&&&&XX&&&&&&#---------=;;----------**-------**-----**-->>>>>>>>>>>>>>>>",
">>>>>>>>>>>>>>>>>>----&&&&##$XX$&&&$XXXX$$X&&&&&&#&&&########--;------------*--------**-----****>>>>>>>>>>>>>>>>",
">>>>>>>>>>>>>>>>>>----&&&&@@&XX$$XX$$$$$$$&XX$######&&XXX&&&###-##&&--------*--------**-------==>>>>>>>>>>>>>>>>",
">>>>>>>>>>>>>>>>>>---#&&####XXX&$$$$$$&X&&&XX$#######&XXX###&##XXX#X--------=--------===------==>>>>>>>>>>>>>>>>",
">>>>>>>>>>>>>>>>>>---#&&####XXX&$$$$$$&X&&&XX$#######&XXX###&##XXX#X--------=--------===------==>>>>>>>>>>>>>>>>",
">>>>>>>>>>>>>>>>>>---&######XXXX$XX$XXXX&&&$$$X#######XXX##X&&&#XXX-------===----------=-------->>>>>>>>>>>>>>>>",
">>>>>>>>>>>>>>>>>>-##X####XXXXXXX$$&&&&X$$$$$$XXXXXXXXXXXXX#####&&X#-----;;;-----------;-------->>>>>>>>>>>>>>>>",
">>>>>>>>>>>>>>>>>>-##X####XXXXXXX$$&&&&X$$$$$$XXXXXXXXXXXXX#####&&X#-----;;;-----------;-------->>>>>>>>>>>>>>>>",
">>>>>>>>>>>>>>>>>>-##XXX#XXXXXXXXXXXXXXXXX$$$X#XXXXXXXXXXXX####X&&X#------::-----------;-------->>>>>>>>>>>>>>>>",
">>>>>>>>>>>>>>>>>>-&&XXXXXXXXXXXX&&XXX$X$$$XX##XX&&&&&XXXXX#X##X&&X-------::-----------:-------->>>>>>>>>>>>>>>>",
">>>>>>>>>>>>>>>>>>-&&#XXXX##X&&&XXXX&&&XXXXXXXXXX####&&&XXX#####XXX#-------------------:-------->>>>>>>>>>>>>>>>",
">>>>>>>>>>>>>>>>>>-&&#XXXX##X&&&XXXX&&&XXXXXXXXXX####&&&XXX#####XXX#-------------------:-------->>>>>>>>>>>>>>>>",
">>>>>>>>>>>>>>>>>>#&&#$$@&$$##########&&&&#XXXX&&&####&&&XXX###XXX&&---------------------------->>>>>>>>>>>>>>>>",
">>>>>>>>>>>>>>>>>>#&&&&&&&XX########XXXX&&&&&&&&&&&&#######XXXXXXX#----------------------------->>>>>>>>>>>>>>>>",
">>>>>>>>>>>>>>>>>>#&&&&&&&XX########XXXX&&&&&&&&&&&&#######XXXXXXX#----------------------------->>>>>>>>>>>>>>>>",
">>>>>>>>>>>>>>>>>>-###$$$XXX#####XXX&&&&&&&XX&###&&&&XXX####X&&X&&#----------------------------->>>>>>>>>>>>>>>>",
">>>>>>>>>>>>>>>>>>---#XX$XXXXXXX&XX&&&&#XXX#######XXX#######X##X&&#X##-------------------------->>>>>>>>>>>>>>>>",
">>>>>>>>>>>>>>>>>>XXX&XXXXXXXXX&&XXX$$##XXXXX#######XX###XXXXXXX##&XXX###----------------------->>>>>>>>>>>>>>>>",
">>>>>>>>>>>>>>>>>>XXX&XXXXXXXXX&&XXX$$##XXXXX#######XX###XXXXXXX##&XXX###----------------------->>>>>>>>>>>>>>>>",
">>>>>>>>>>>>>>>>>>X##&&&&&XXX&&&&XXXXXXXXX&XX#X#####XXXXXXXX&&&&##XXXX###----------------------->>>>>>>>>>>>>>>>",
">>>>>>>>>>>>>>>>>>---XXX#XXXX&&&$$$$XXXX&&&XXX######&XXXXXXX&&&&XXX&---------------------------->>>>>>>>>>>>>>>>",
">>>>>>>>>>>>>>>>>>---XXX#XXXX&&&$$$$XXXX&&&XXX######&XXXXXXX&&&&XXX&---------------------------->>>>>>>>>>>>>>>>",
">>>>>>>>>>>>>>>>>>---XXX##&&&&&##$$$XX&&&&&&&XXXXX&&XX&&&&&XX&&&&&XX---------------------------->>>>>>>>>>>>>>>>",
">>>>>>>>>>>>>>>>>>----XXX########$$&&&&######&&XXXXXX#&&&###XXXXXXX&##-------------------------->>>>>>>>>>>>>>>>",
">>>>>>>>>>>>>>>>>>------X###XXXX###&#########X#XXXXX#######XXXX#XXXX&&-------------------------->>>>>>>>>>>>>>>>",
">>>>>>>>>>>>>>>>>>------X###XXXX###&#########X#XXXXX#######XXXX#XXXX&&-------------------------->>>>>>>>>>>>>>>>",
">>>>>>>>>>>>>>>>>>------XXXXXXXXXXXX###XXX#XXXXXXXXXXXXXXXXXXXXXXXXX---------------------------->>>>>>>>>>>>>>>>",
">>>>>>>>>>>>>>>>>>------$X  ---XXXXXXXXXXXXXXXXXXX@@XXXXXXXX XXX--X----------------------------->>>>>>>>>>>>>>>>",
">>>>>>>>>>>>>>>>>>------$X  ---XXXXXXXXXXXXXXXXXXX@@XXXXXXXX XXX--X----------------------------->>>>>>>>>>>>>>>>",
">>>>>>>>>>>>>>>>>>------$   ---$---XXXXXXXXXXXXXXX@@  XXX--    ---$----------------------------->>>>>>>>>>>>>>>>",
">>>>>>>>>>>>>>>>>>------X$   $$$----   XXXXXXXX  ---  -----  -----$&---------------------------->>>>>>>>>>>>>>>>",
">>>>>>>>>>>>>>>>>>-------X   XX ----    XX       ---  ---    ------X$$-------------------------->>>>>>>>>>>>>>>>",
">>>>>>>>>>>>>>>>>>-------X   XX ----    XX       ---  ---    ------X$$-------------------------->>>>>>>>>>>>>>>>",
">>>>>>>>>>>>>>>>>>----------            XXXXX    -   -      ------------------------------------>>>>>>>>>>>>>>>>",
">>>>>>>>>>>>>>>>>>-------------        ....XXX             ------------------------------------->>>>>>>>>>>>>>>>",
">>>>>>>>>>>>>>>>>>-------------        ....XXX             ------------------------------------->>>>>>>>>>>>>>>>",
">>>>>>>>>>>>>>>>>>---------------     .........oo        --------------------------------------->>>>>>>>>>>>>>>>",
">>>>>>>>>>>>>>>>>>---------------   ..............   ------------------------------------------->>>>>>>>>>>>>>>>",
">>>>>>>>>>>>>>>>>>---------------  ....Ooo....O..... ------------------------------------------->>>>>>>>>>>>>>>>",
">>>>>>>>>>>>>>>>>>---------------  ....Ooo....O..... ------------------------------------------->>>>>>>>>>>>>>>>",
">>>>>>>>>>>>>>>>>>--------------ooo...Oooo...oOOO+...------------------------------------------->>>>>>>>>>>>>>>>",
">>>>>>>>>>>>>>>>>>--------------o...OOOooo...ooOOO++o------------------------------------------->>>>>>>>>>>>>>>>",
">>>>>>>>>>>>>>>>>>--------------o...OOOooo...ooOOO++o------------------------------------------->>>>>>>>>>>>>>>>",
">>>>>>>>>>>>>>>>>>-------------oo..OOOOOooo..ooooOOO++------------------------------------------>>>>>>>>>>>>>>>>",
">>>>>>>>>>>>>>>>>>-----------oooo......OoooooooooOOOO+++---------------------------------------->>>>>>>>>>>>>>>>",
">>>>>>>>>>>>>>>>>>--------...ooOOooo......OoooooooOOOOOO+++++----------------------------------->>>>>>>>>>>>>>>>",
">>>>>>>>>>>>>>>>>>--------...ooOOooo......OoooooooOOOOOO+++++----------------------------------->>>>>>>>>>>>>>>>",
">>>>>>>>>>>>>>>>>>----oooo.....OOOOOooo......OooooooooooOOOO++++-------------------------------->>>>>>>>>>>>>>>>",
">>>>>>>>>>>>>>>>>>----oooo..........OOOoooooooooooooooooooooOOOOOO------------------------------>>>>>>>>>>>>>>>>",
">>>>>>>>>>>>>>>>>>----oooo..........OOOoooooooooooooooooooooOOOOOO------------------------------>>>>>>>>>>>>>>>>",
">>>>>>>>>>>>>>>>>>----oooo..........OOOoooooooooooooooooooooOOOOOO------------------------------>>>>>>>>>>>>>>>>"
};
