/* XPM */
static char *exit_32x32[] = {
/* columns rows colors chars-per-pixel */
"32 32 16 1 ",
"  c #57261B",
". c #753324",
"X c #316B21",
"o c #5C565B",
"O c #8C3D2B",
"+ c #CF5A40",
"@ c #E86548",
"# c #6DA12A",
"$ c #6FA32A",
"% c #2DE336",
"& c #93D938",
"* c #FFDF67",
"= c #FFE999",
"- c #8ABCDE",
"; c #D1C5CF",
": c #FFF3C9",
/* pixels */
"oooo%%%%%%%%%%%%%%%%%%%%%%%%oooo",
"o;;;%;;;;;;;;;;;;;;;;;;;;;;%;;;o",
"o;;;%;%%%%;%%;;;%%;%;%%%%%;%;;;o",
"o;;;%;%;;;;;%%;%%;;%;;;%;;;%;;;o",
"o;;;%;%;;;;;;%%%;;;%;;;%;;;%;;;o",
"o;;;%;%%%;;;;%%%;;;%;;;%;;;%;;;o",
"o;;;%;%;;;;;;%%%;;;%;;;%;;;%;;;o",
"o;;;%;%;;;;;%%;%%;;%;;;%;;;%;;;o",
"o;;;%;%%%%;%%;;;%%;%;;;%;;;%;;;o",
"o;;;%;;;;;;;;;;;;;;;;;;;;;;%;;;o",
"o;;;%%%%%%%%%%%%%%%%%%%%%%%%;;;o",
"o;;;---------------**====:::;;;o",
"o;;;-----------==--**=======;;;o",
"o;;;---------::----******=**;;;o",
"o;;;----------------********;;;o",
"o;;;-------------=*----**---;;;o",
"o;;;-------&---#-:----------;;;o",
"o;;;---&$&$XX&####---*--*---;;;o",
"o;;;---&&$$$&##&X#-&-*--*---;;;o",
"o;;;--XXXXXX##XXX#X#----=--:;;;o",
"o;;;--XXXXXX##&&XXX--------:;;;o",
"o;;;--#X##X&&#&X#XX---------;;;o",
"o;;;--#XX&&#X####XXX--------;;;o",
"o;;;--X#&#$&&XXX&X&X--------;;;o",
"o;;;---###&##&X#&XX&--------;;;o",
"o;;;--- --XXXXX X ----------;;;o",
"o;;;---$ --XXX- - -&--------;;;o",
"o;;;------ ...   -----------;;;o",
"o;;;------ ....-------------;;;o",
"o;;;-----O++OO+@------------;;;o",
"o;;;-----O.+OO+@------------;;;o",
"oooo---O...OOOOOO++---------oooo"
};
