/* XPM */
static char *exit_48x48[] = {
/* columns rows colors chars-per-pixel */
"48 48 18 1 ",
"  c #57261B",
". c #753324",
"X c #316B21",
"o c #5C565B",
"O c #8C3D2B",
"+ c #CF5A40",
"@ c #E86548",
"# c #408C2B",
"$ c #6DA12A",
"% c #6FA32A",
"& c #2DE336",
"* c #93D938",
"= c #FFDF67",
"- c #FFE999",
"; c #8ABCDE",
": c #D1C5CF",
"> c #FFF3C9",
", c #FFFAE8",
/* pixels */
"ooooooo&&&&&&&&&&&&&&&&&&&&&&&&&&&&&&&&&&&oooooo",
"o::::::&::::::::::::::::::::::::::::::::&&:::::o",
"o::::::&:&&&&&&::&&::::&&:&&&&&:&&&&&&&:&&:::::o",
"o::::::&:&&:::::::&&::&&::::&::::::&::::&&:::::o",
"o::::::&:&&&&::::::&&&&:::::&::::::&::::&&:::::o",
"o::::::&:&&&&::::::&&&&:::::&::::::&::::&&:::::o",
"o::::::&:&&:::::::&&::&&::::&::::::&::::&&:::::o",
"o::::::&:&&&&&&::&&::::&&:&&&&&::::&::::&&:::::o",
"o::::::&::::::::::::::::::::::::::::::::&&:::::o",
"o::::::&&&&&&&&&&&&&&&&&&&&&&&&&&&&&&&&&&&:::::o",
"o::::::;;;;;;;;;;;;----==;;;===->>>>>>>>>>:::::o",
"o::::::;;;;;;;;;;;;;;;;;;;;;==-->>>>>>>>>>:::::o",
"o::::::;;;;;;;;;;;;;;;;;;;;;==->>>>>>>>>>>:::::o",
"o::::::;;;;;;;;;;;;;;;;;;;;===-->>>>>>>>>>:::::o",
"o::::::;;;;;;;;;;;;;;;;;;;;===-->>>>>>>>>>:::::o",
"o::::::;;;;;;;;;;;;;;;-==;;===--->>>>>>>>>:::::o",
"o::::::;;;;;;;;;;;;;;;;;;;;;===---->>>>>>>:::::o",
"o::::::;;;;;;;;;;;;;;;;;;;;;===------>>>>>:::::o",
"o::::::;;;;;;;;;;;;;;;;;-=;;====----------:::::o",
"o::::::;;;;;;;;;;;;;;;;;;;;;=======-------:::::o",
"o::::::;;;;;;;;;;;;;;;;;;;;;;========--===:::::o",
"o::::::;;;;;;;;;;;;;;;;;;;;;;;============:::::o",
"o::::::;;;;;;;;;;;;;;;>;;;;;;;;;;=======;;:::::o",
"o::::::;;;;;;;;;;;;;;;;;;;;;;;;;;;;==;;;;;:::::o",
"o::::::;;;;;;;;;$*;;;;$$;;;;=;;;;;;;;;;;;;:::::o",
"o::::::;;;$*;**%**;;;$*$;;;-;;;;==;;;;;;;;:::::o",
"o::::::;;;**%%*%XXX**$*$$$$>;;;;=;;;;;;;==:::::o",
"o::::::;;;***%%%%%*$$$**X*$;**;;=;;;;;;;--:::::o",
"o::::::;;*$$XX%%XX*%X$$$XX*$X;;>;;;;;;;;;;:::::o",
"o::::::;;X$XXXXXXX%X$XXXX$$XX$;,;;;;;;;;;;:::::o",
"o::::::;;XXXXXXX%X%$$***X$XXX;;,;;;;;;;;;;:::::o",
"o::::::;$$#*$$$$**$XX*$$*X$X**;;;;;;;;;;;;:::::o",
"o::::::;;$%X$$$X****$**X$$XX$;;;;;;;;;;;;;:::::o",
"o::::::;;$%XXX***$X$$$X$$$XX$X;;;;;;;;;;;;:::::o",
"o::::::;X***X**XXX*$X$XXXX**XX$;;;;;;;;;;;:::::o",
"o::::::;;X$$*$$%***XXXXX*XX*XX;;;;;;;;;;;;:::::o",
"o::::::;;;X$$$$**$$**XX$*$XXX*;;;;;;;;;;;;:::::o",
"o::::::;;;XXXXXX$X$XXXXXXXXXXX;;;;;;;;;;;;:::::o",
"o::::::;;;% ;%;XXXXXXX  X  ;%;;;;;;;;;;;;;:::::o",
"o::::::;;;X% %;; XXXX;  ;  ;%*;;;;;;;;;;;;:::::o",
"o::::::;;;;;      X  ; ;  ;;;;;;;;;;;;;;;;:::::o",
"o::::::;;;;;;;; .....    ;;;;;;;;;;;;;;;;;:::::o",
"o::::::;;;;;;;; ...... ;;;;;;;;;;;;;;;;;;;:::::o",
"o::::::;;;;;;;O.+O.O+@.;;;;;;;;;;;;;;;;;;;:::::o",
"o::::::;;;;;;OO+++OOO+@@;;;;;;;;;;;;;;;;;;:::::o",
"o::::::;;;;;;OO..+OOO++@;;;;;;;;;;;;;;;;;;:::::o",
"o::::::;;;OO.+++O..+OOOO++@@;;;;;;;;;;;;;;:::::o",
"ooooooo;;;OO....+OOOOOOOOO++;;;;;;;;;;;;;;oooooo"
};
