/* XPM */
static char *result[] = {
/* columns rows colors chars-per-pixel */
"48 48 17 1 ",
"  c #57261B",
". c #753324",
"X c #316B21",
"o c #8C3D2B",
"O c #CF5A40",
"+ c #E86548",
"@ c #408C2B",
"# c #6DA12A",
"$ c #6FA32A",
"% c #2DE336",
"& c #93D938",
"* c #FFDF67",
"= c #FFE999",
"- c #8ABCDE",
"; c #FFF3C9",
": c #FFFAE8",
"> c None",
/* pixels */
">>>>>>>%%%%%%%%%%%%%%%%%%%%%%%%%%%%%%%%%%%>>>>>>",
">>>>>>>%>>>>>>>>>>>>>>>>>>>>>>>>>>>>>>>>%%>>>>>>",
">>>>>>>%>%%%%%%>>%%>>>>%%>%%%%%>%%%%%%%>%%>>>>>>",
">>>>>>>%>%%>>>>>>>%%>>%%>>>>%>>>>>>%>>>>%%>>>>>>",
">>>>>>>%>%%%%>>>>>>%%%%>>>>>%>>>>>>%>>>>%%>>>>>>",
">>>>>>>%>%%%%>>>>>>%%%%>>>>>%>>>>>>%>>>>%%>>>>>>",
">>>>>>>%>%%>>>>>>>%%>>%%>>>>%>>>>>>%>>>>%%>>>>>>",
">>>>>>>%>%%%%%%>>%%>>>>%%>%%%%%>>>>%>>>>%%>>>>>>",
">>>>>>>%>>>>>>>>>>>>>>>>>>>>>>>>>>>>>>>>%%>>>>>>",
">>>>>>>%%%%%%%%%%%%%%%%%%%%%%%%%%%%%%%%%%%>>>>>>",
">>>>>>>------------====**---***=;;;;;;;;;;>>>>>>",
">>>>>>>---------------------**==;;;;;;;;;;>>>>>>",
">>>>>>>---------------------**=;;;;;;;;;;;>>>>>>",
">>>>>>>--------------------***==;;;;;;;;;;>>>>>>",
">>>>>>>--------------------***==;;;;;;;;;;>>>>>>",
">>>>>>>---------------=**--***===;;;;;;;;;>>>>>>",
">>>>>>>---------------------***====;;;;;;;>>>>>>",
">>>>>>>---------------------***======;;;;;>>>>>>",
">>>>>>>-----------------=*--****==========>>>>>>",
">>>>>>>---------------------*******=======>>>>>>",
">>>>>>>----------------------********==***>>>>>>",
">>>>>>>-----------------------************>>>>>>",
">>>>>>>---------------;----------*******-->>>>>>",
">>>>>>>----------------------------**----->>>>>>",
">>>>>>>---------$&----##----*------------->>>>>>",
">>>>>>>---#&-&&$&&---#&#---=----**-------->>>>>>",
">>>>>>>---&&$$&$XXX&&#&####;----*-------**>>>>>>",
">>>>>>>---&&&$$$$$&$##&&X&#-&&--*-------==>>>>>>",
">>>>>>>--&##XX$$XX&$X###XX&#X--;---------->>>>>>",
">>>>>>>--X#XXXXXXX$X#XXXX##XX#-:---------->>>>>>",
">>>>>>>--XXXXXXX$X$##&&&X#XXX--:---------->>>>>>",
">>>>>>>-##@&####&&#XX&##&X#X&&------------>>>>>>",
">>>>>>>--#$X###X&&&&#&&X##XX#------------->>>>>>",
">>>>>>>--#$XXX&&&#X###X###XX#X------------>>>>>>",
">>>>>>>-X&&&X&&XXX&#X#XXXX&&XX#----------->>>>>>",
">>>>>>>--X##&##$&&&XXXXX&XX&XX------------>>>>>>",
">>>>>>>---X####&&##&&XX#&#XXX&------------>>>>>>",
">>>>>>>---XXXXXX#X#XXXXXXXXXXX------------>>>>>>",
">>>>>>>---$ -$-XXXXXXX  X  -$------------->>>>>>",
">>>>>>>---X$ $-- XXXX-  -  -$&------------>>>>>>",
">>>>>>>-----      X  - -  ---------------->>>>>>",
">>>>>>>-------- .....    ----------------->>>>>>",
">>>>>>>-------- ...... ------------------->>>>>>",
">>>>>>>-------o.Oo.oO+.------------------->>>>>>",
">>>>>>>------ooOOOoooO++------------------>>>>>>",
">>>>>>>------oo..OoooOO+------------------>>>>>>",
">>>>>>>---oo.OOOo..OooooOO++-------------->>>>>>",
">>>>>>>---oo....OoooooooooOO-------------->>>>>>"
};
