/* XPM */
static char *form_3_80x80[] = {
/* columns rows colors chars-per-pixel */
"80 80 5 1 ",
"  c black",
". c #5C565B",
"X c #A49CA4",
"o c #C4BCC4",
"O c #D1C5CF",
/* pixels */
"................................................................................",
".OOOOOOOOOOOOOOOOOOOOOOOOOOOOOOOOOOOOOOOOOOOOOOOOOOOOOOOOOOOOOOOOOOOOOOOOOOOOOO.",
".OOOOOOOOOOOOOOOOOOOOOOOOOOOOOOOOOOOOOOOOOOOOOOOOOOOOOOOOOOOOOOOOOOOOOOOOOOOOOO.",
".OOOOOOOOOOOOOOOOOOOOOOOOOOOOOOOOOOOOOOOOOOOOOOOOOOOOOOOOOOOOOOOOOOOOOOOOOOOOOO.",
".OOOOOOOOOOOOOOOOOOOOOOOOOOOOOOOOOOOOOOOOOOOOOOOOOOOOOOOOOOOOOOOOOOOOOOOOOOOOOO.",
".OOOOOOOOOOOOOOOOOOOOOOOOOOOOOOOOOOOOOOOOOOOOOOOOOOOOOOOOOOOOOOOOOOOOOOOOOOOOOO.",
".OOOOOOOOOOOOOOOOOOOOOOOOOOOOOOOOOOOOOOOOOOOOOOOOOOOOOOOOOOOOOOOOOOOOOOOOOOOOOO.",
".OOOOOOOOOOOOOOOOOOOOOOOOOOOOOOOOOOOOOOOOOOOOOOOOOOOOOOOOOOOOOOOOOOOOOOOOOOOOOO.",
".OOOOOOOOOOOOOOOOOOOOOOOOOOOOOOOOOOOOOOOOOOOOOOOOOOOOOOOOOOOOOOOOOOOOOOOOOOOOOO.",
".OOOOOOOOOOOOOOOOOOOOOOOOOOOOOOOOOOOOOOOOOOOOOOOOOOOOOOOOOOOOOOOOOOOOOOOOOOOOOO.",
".OOOOOOOOOOOOOOOOOOOOOOOOOOOOOOOOOOOOOOOOOOOOOOOOOOOOOOOOOOOOOOOOOOOOOOOOOOOOOO.",
".OOOOOOOOOOOOOOOOOOOOOOOOOOOOOOOOOOOOOOOOOOOOOOOOOOOOOOOOOOOOOOOOOOOOOOOOOOOOOO.",
".OOOOOOOOOOOOOOOOOOOOOOOOOOOOOOOOOOOOOOOOOOOOOOOOOOOOOOOOOOOOOOOOOOOOOOOOOOOOOO.",
".OOOOOOOOOOOOOOOOOOOOOOOOOOOOOOOOOOOOOOOOOOOOOOOOOOOOOOOOOOOOOOOOOOOOOOOOOOOOOO.",
".OOOOOOOOOOOOOOOOOOOOOOOOOOOOOOOOOOOOOOOOOOOOOOOOOOOOOOOOOOOOOOOOOOOOOOOOOOOOOO.",
".OOOOOOOOOOOOOOOOOOOOOOOOOOOOOOOOOOOOOOOOOOOOOOOOOOOOOOOOOOOOOOOOOOOOOOOOOOOOOO.",
".OOOOOOOOOOOOOOOOOOOOOOOOOOOOOOOOOOOOOOOOOOOOOOOOOOOOOOOOOOOOOOOOOOOOOOOOOOOOOO.",
".OOOOOOOOOOOOOOOOOOOO                          OOOOOOOOOOOOOOOOOOOOOOOOOOOOOOOO.",
".OOOOOOOOOOOOOOOOOOOO                           OOOOOOOOOOOOOOOOOOOOOOOOOOOOOOO.",
".OOOOOOOOOOOOOOOOOOOO                            OOOOOOOOOOOOOOOOOOOOOOOOOOOOOO.",
".OOOOOOOOOOOOOOOOOOOO   ooooooooooooooooo   XX    OOOOOOOOOOOOOOOOOOOOOOOOOOOOO.",
".OOOOOOOOOOOOOOOOOOOO   ooooooooooooooooo   XXX    OOOOOOOOOOOOOOOOOOOOOOOOOOOO.",
".OOOOOOOOOOOOOOOOOOOO   ooooooooooooooooo   XXXX    OOOOOOOOOOOOOOOOOOOOOOOOOOO.",
".OOOOOOOOOOOOOOOOOOOO   ooooooooooooooooo   XXXXX    OOOOOOOOOOOOOOOOOOOOOOOOOO.",
".OOOOOOOOOOOOOOOOOOOO   ooooooooooooooooo   XXXXXX    OOOOOOOOOOOOOOOOOOOOOOOOO.",
".OOOOOOOOOOOOOOOOOOOO   oo             oo   XXXXXXX    OOOOOOOOOOOOOOOOOOOOOOOO.",
".OOOOOOOOOOOOOOOOOOOO   oo             oo   XXXXXXXX    OOOOOOOOOOOOOOOOOOOOOOO.",
".OOOOOOOOOOOOOOOOOOOO   oo             oo   XXXXXXXXXX   OOOOOOOOOOOOOOOOOOOOOO.",
".OOOOOOOOOOOOOOOOOOOO   oo             oo   XXXXXXXXXX   OOOOOOOOOOOOOOOOOOOOOO.",
".OOOOOOOOOOOOOOOOOOOO   oo             oo   XXXXXXXXXXX   OOOOOOOOOOOOOOOOOOOOO.",
".OOOOOOOOOOOOOOOOOOOO   oo             oo   XXXXXXXXXXXX   OOOOOOOOOOOOOOOOOOOO.",
".OOOOOOOOOOOOOOOOOOOO   oo             oo                  OOOOOOOOOOOOOOOOOOOO.",
".OOOOOOOOOOOOOOOOOOOO   oo             oo                  OOOOOOOOOOOOOOOOOOOO.",
".OOOOOOOOOOOOOOOOOOOO   oo             oo                  OOOOOOOOOOOOOOOOOOOO.",
".OOOOOOOOOOOOOOOOOOOO   oooooooooooooooooooooooooooooooo   OOOOOOOOOOOOOOOOOOOO.",
".OOOOOOOOOOOOOOOOOOOO   oooooooooooooooooooooooooooooooo   OOOOOOOOOOOOOOOOOOOO.",
".OOOOOOOOOOOOOOOOOOOO   oooooooooooooooooooooooooooooooo   OOOOOOOOOOOOOOOOOOOO.",
".OOOOOOOOOOOOOOOOOOOO   oooooooooooooooooooooooooooooooo   OOOOOOOOOOOOOOOOOOOO.",
".OOOOOOOOOOOOOOOOOOOO   oooooooooooooooooooooooooooooooo   OOOOOOOOOOOOOOOOOOOO.",
".OOOOOOOOOOOOOOOOOOOO   oo         ooooooooooooooooooooo   OOOOOOOOOOOOOOOOOOOO.",
".OOOOOOOOOOOOOOOOOOOO   oo         ooooooooooooooooooooo   OOOOOOOOOOOOOOOOOOOO.",
".OOOOOOOOOOOOOOOOOOOO   oooooooooooooooooooooooooooooooo   OOOOOOOOOOOOOOOOOOOO.",
".OOOOOOOOOOOOOOOOOOOO   oo                          oooo   OOOOOOOOOOOOOOOOOOOO.",
".OOOOOOOOOOOOOOOOOOOO   oo                          oooo   OOOOOOOOOOOOOOOOOOOO.",
".OOOOOOOOOOOOOOOOOOOO   oo                          oooo   OOOOOOOOOOOOOOOOOOOO.",
".OOOOOOOOOOOOOOOOOOOO   oooooooooooooooooooooooooooooooo   OOOOOOOOOOOOOOOOOOOO.",
".OOOOOOOOOOOOOOOOOOOO   oo                          oooo   OOOOOOOOOOOOOOOOOOOO.",
".OOOOOOOOOOOOOOOOOOOO   oo                          oooo   OOOOOOOOOOOOOOOOOOOO.",
".OOOOOOOOOOOOOOOOOOOO   oo                          oooo   OOOOOOOOOOOOOOOOOOOO.",
".OOOOOOOOOOOOOOOOOOOO   oooooooooooooooooooooooooooooooo   OOOOOOOOOOOOOOOOOOOO.",
".OOOOOOOOOOOOOOOOOOOO   oo                          oooo   OOOOOOOOOOOOOOOOOOOO.",
".OOOOOOOOOOOOOOOOOOOO   oo                          oooo   OOOOOOOOOOOOOOOOOOOO.",
".OOOOOOOOOOOOOOOOOOOO   oo                          oooo   OOOOOOOOOOOOOOOOOOOO.",
".OOOOOOOOOOOOOOOOOOOO   oooooooooooooooooooooooooooooooo   OOOOOOOOOOOOOOOOOOOO.",
".OOOOOOOOOOOOOOOOOOOO   oooooooooooooooooooooooooooooooo   OOOOOOOOOOOOOOOOOOOO.",
".OOOOOOOOOOOOOOOOOOOO   oooooooooooooooooooooooooo    oo   OOOOOOOOOOOOOOOOOOOO.",
".OOOOOOOOOOOOOOOOOOOO   oooooooooooooooooooooo    oooooo   OOOOOOOOOOOOOOOOOOOO.",
".OOOOOOOOOOOOOOOOOOOO   oooooooooooooooooooooooooooooooo   OOOOOOOOOOOOOOOOOOOO.",
".OOOOOOOOOOOOOOOOOOOO   oooooooooooooooooooooooooooooooo   OOOOOOOOOOOOOOOOOOOO.",
".OOOOOOOOOOOOOOOOOOOO   oooooooooooooooooooooooooooooooo   OOOOOOOOOOOOOOOOOOOO.",
".OOOOOOOOOOOOOOOOOOOO                                      OOOOOOOOOOOOOOOOOOOO.",
".OOOOOOOOOOOOOOOOOOOO                                      OOOOOOOOOOOOOOOOOOOO.",
".OOOOOOOOOOOOOOOOOOOO                                      OOOOOOOOOOOOOOOOOOOO.",
".OOOOOOOOOOOOOOOOOOOOOOOOOOOOOOOOOOOOOOOOOOOOOOOOOOOOOOOOOOOOOOOOOOOOOOOOOOOOOO.",
".OOOOOOOOOOOOOOOOOOOOOOOOOOOOOOOOOOOOOOOOOOOOOOOOOOOOOOOOOOOOOOOOOOOOOOOOOOOOOO.",
".OOOOOOOOOOOOOOOOOOOOOOOOOOOOOOOOOOOOOOOOOOOOOOOOOOOOOOOOOOOOOOOOOOOOOOOOOOOOOO.",
".OOOOOOOOOOOOOOOOOOOOOOOOOOOOOOOOOOOOOOOOOOOOOOOOOOOOOOOOOOOOOOOOOOOOOOOOOOOOOO.",
".OOOOOOOOOOOOOOOOOOOOOOOOOOOOOOOOOOOOOOOOOOOOOOOOOOOOOOOOOOOOOOOOOOOOOOOOOOOOOO.",
".OOOOOOOOOOOOOOOOOOOOOOOOOOOOOOOOOOOOOOOOOOOOOOOOOOOOOOOOOOOOOOOOOOOOOOOOOOOOOO.",
".OOOOOOOOOOOOOOOOOOOOOOOOOOOOOOOOOOOOOOOOOOOOOOOOOOOOOOOOOOOOOOOOOOOOOOOOOOOOOO.",
".OOOOOOOOOOOOOOOOOOOOOOOOOOOOOOOOOOOOOOOOOOOOOOOOOOOOOOOOOOOOOOOOOOOOOOOOOOOOOO.",
".OOOOOOOOOOOOOOOOOOOOOOOOOOOOOOOOOOOOOOOOOOOOOOOOOOOOOOOOOOOOOOOOOOOOOOOOOOOOOO.",
".OOOOOOOOOOOOOOOOOOOOOOOOOOOOOOOOOOOOOOOOOOOOOOOOOOOOOOOOOOOOOOOOOOOOOOOOOOOOOO.",
".OOOOOOOOOOOOOOOOOOOOOOOOOOOOOOOOOOOOOOOOOOOOOOOOOOOOOOOOOOOOOOOOOOOOOOOOOOOOOO.",
".OOOOOOOOOOOOOOOOOOOOOOOOOOOOOOOOOOOOOOOOOOOOOOOOOOOOOOOOOOOOOOOOOOOOOOOOOOOOOO.",
".OOOOOOOOOOOOOOOOOOOOOOOOOOOOOOOOOOOOOOOOOOOOOOOOOOOOOOOOOOOOOOOOOOOOOOOOOOOOOO.",
".OOOOOOOOOOOOOOOOOOOOOOOOOOOOOOOOOOOOOOOOOOOOOOOOOOOOOOOOOOOOOOOOOOOOOOOOOOOOOO.",
".OOOOOOOOOOOOOOOOOOOOOOOOOOOOOOOOOOOOOOOOOOOOOOOOOOOOOOOOOOOOOOOOOOOOOOOOOOOOOO.",
".OOOOOOOOOOOOOOOOOOOOOOOOOOOOOOOOOOOOOOOOOOOOOOOOOOOOOOOOOOOOOOOOOOOOOOOOOOOOOO.",
"................................................................................"
};
