/* XPM */
static char *form_3_48x48[] = {
/* columns rows colors chars-per-pixel */
"48 48 5 1 ",
"  c black",
". c #5C565B",
"X c #A49CA4",
"o c #C4BCC4",
"O c #D1C5CF",
/* pixels */
"................................................",
".OOOOOOOOOOOOOOOOOOOOOOOOOOOOOOOOOOOOOOOOOOOOOO.",
".OOOOOOOOOOOOOOOOOOOOOOOOOOOOOOOOOOOOOOOOOOOOOO.",
".OOOOOOOOOOOOOOOOOOOOOOOOOOOOOOOOOOOOOOOOOOOOOO.",
".OOOOOOOOOOOOOOOOOOOOOOOOOOOOOOOOOOOOOOOOOOOOOO.",
".OOOOOOOOOOOOOOOOOOOOOOOOOOOOOOOOOOOOOOOOOOOOOO.",
".OOOOOOOOOOOOOOOOOOOOOOOOOOOOOOOOOOOOOOOOOOOOOO.",
".OOOOOOOOOOOOOOOOOOOOOOOOOOOOOOOOOOOOOOOOOOOOOO.",
".OOOOOOOOOOOOOOOOOOOOOOOOOOOOOOOOOOOOOOOOOOOOOO.",
".OOOOOOOOOOOOOOOOOOOOOOOOOOOOOOOOOOOOOOOOOOOOOO.",
".OOOOOOOOOOOOOOOOOOOOOOOOOOOOOOOOOOOOOOOOOOOOOO.",
".OOOOOOOOOOOO                OOOOOOOOOOOOOOOOOO.",
".OOOOOOOOOOOO ooooooooooo XX  OOOOOOOOOOOOOOOOO.",
".OOOOOOOOOOOO ooooooooooo XXX  OOOOOOOOOOOOOOOO.",
".OOOOOOOOOOOO ooooooooooo XXXX  OOOOOOOOOOOOOOO.",
".OOOOOOOOOOOO oo       oo XXXXX  OOOOOOOOOOOOOO.",
".OOOOOOOOOOOO oo       oo XXXXXX  OOOOOOOOOOOOO.",
".OOOOOOOOOOOO oo       oo XXXXXXX  OOOOOOOOOOOO.",
".OOOOOOOOOOOO oo       oo XXXXXXXX OOOOOOOOOOOO.",
".OOOOOOOOOOOO oo       oo          OOOOOOOOOOOO.",
".OOOOOOOOOOOO oooooooooooooooooooo OOOOOOOOOOOO.",
".OOOOOOOOOOOO oooooooooooooooooooo OOOOOOOOOOOO.",
".OOOOOOOOOOOO oooooooooooooooooooo OOOOOOOOOOOO.",
".OOOOOOOOOOOO oo     ooooooooooooo OOOOOOOOOOOO.",
".OOOOOOOOOOOO oooooooooooooooooooo OOOOOOOOOOOO.",
".OOOOOOOOOOOO oo              oooo OOOOOOOOOOOO.",
".OOOOOOOOOOOO oooooooooooooooooooo OOOOOOOOOOOO.",
".OOOOOOOOOOOO oo              oooo OOOOOOOOOOOO.",
".OOOOOOOOOOOO oooooooooooooooooooo OOOOOOOOOOOO.",
".OOOOOOOOOOOO oo              oooo OOOOOOOOOOOO.",
".OOOOOOOOOOOO oooooooooooooooooooo OOOOOOOOOOOO.",
".OOOOOOOOOOOO oo              oooo OOOOOOOOOOOO.",
".OOOOOOOOOOOO oooooooooooooooooooo OOOOOOOOOOOO.",
".OOOOOOOOOOOO oooooooooooooooo  oo OOOOOOOOOOOO.",
".OOOOOOOOOOOO oooooooooooooo  oooo OOOOOOOOOOOO.",
".OOOOOOOOOOOO oooooooooooooooooooo OOOOOOOOOOOO.",
".OOOOOOOOOOOO                      OOOOOOOOOOOO.",
".OOOOOOOOOOOOOOOOOOOOOOOOOOOOOOOOOOOOOOOOOOOOOO.",
".OOOOOOOOOOOOOOOOOOOOOOOOOOOOOOOOOOOOOOOOOOOOOO.",
".OOOOOOOOOOOOOOOOOOOOOOOOOOOOOOOOOOOOOOOOOOOOOO.",
".OOOOOOOOOOOOOOOOOOOOOOOOOOOOOOOOOOOOOOOOOOOOOO.",
".OOOOOOOOOOOOOOOOOOOOOOOOOOOOOOOOOOOOOOOOOOOOOO.",
".OOOOOOOOOOOOOOOOOOOOOOOOOOOOOOOOOOOOOOOOOOOOOO.",
".OOOOOOOOOOOOOOOOOOOOOOOOOOOOOOOOOOOOOOOOOOOOOO.",
".OOOOOOOOOOOOOOOOOOOOOOOOOOOOOOOOOOOOOOOOOOOOOO.",
".OOOOOOOOOOOOOOOOOOOOOOOOOOOOOOOOOOOOOOOOOOOOOO.",
".OOOOOOOOOOOOOOOOOOOOOOOOOOOOOOOOOOOOOOOOOOOOOO.",
"................................................"
};
