/* XPM */
static char *result[] = {
/* columns rows colors chars-per-pixel */
"64 64 4 1 ",
"  c black",
". c #C79B7B",
"X c #FFC69E",
"o c white",
/* pixels */
"oooooooooooooooooooooooooooooooooooooooooooooooooooooooooooooooo",
"oooooooooooooooooooooooooooooooooooooooooooooooooooooooooooooooo",
"oooooooooooooooooooooooooooooooooooooooooooooooooooooooooooooooo",
"oooooooooooooooooooooooooooooooooooooooooooooooooooooooooooooooo",
"oooooooooooooooooooooooooooooooooooooooooooooooooooooooooooooooo",
"oooooooooooooooooooooooooooooooooooooooooooooooooooooooooooooooo",
"oooooooooooooooooooooooooooooooooooooooooooooooooooooooooooooooo",
"oooooooooooooooooooooooooooooooooooooooooooooooooooooooooooooooo",
"oooooooooooooooooooooooooooooooooooooooooooooooooooooooooooooooo",
"oooooooooooooooooooooooooooooooooooooooooooooooooooooooooooooooo",
"oooooooooooooooooooooooooooooooooooooooooooooooooooooooooooooooo",
"oooooooooooooooooooooooooooooooooooooooooooooooooooooooooooooooo",
"oooooooooooooooooooooooooooooooooooooooooooooooooooooooooooooooo",
"oooooooooooooooooooooooooooooooooooooooooooooooooooooooooooooooo",
"ooooooooooooooooo                      ooooooooooooooooooooooooo",
"ooooooooooooooooo                      ooooooooooooooooooooooooo",
"ooooooooooooooooo  XXXXXXXXXXXXXX  ..   oooooooooooooooooooooooo",
"ooooooooooooooooo  XXXXXXXXXXXXXX  ...   ooooooooooooooooooooooo",
"ooooooooooooooooo  XXXXXXXXXXXXXX  ....   oooooooooooooooooooooo",
"ooooooooooooooooo  XXXXXXXXXXXXXX  .....   ooooooooooooooooooooo",
"ooooooooooooooooo  XX          XX  ......   oooooooooooooooooooo",
"ooooooooooooooooo  XX          XX  .......   ooooooooooooooooooo",
"ooooooooooooooooo  XX          XX  ........   oooooooooooooooooo",
"ooooooooooooooooo  XX          XX  .........   ooooooooooooooooo",
"ooooooooooooooooo  XX          XX  ..........  ooooooooooooooooo",
"ooooooooooooooooo  XX          XX              ooooooooooooooooo",
"ooooooooooooooooo  XX          XX              ooooooooooooooooo",
"ooooooooooooooooo  XXXXXXXXXXXXXXXXXXXXXXXXXX  ooooooooooooooooo",
"ooooooooooooooooo  XXXXXXXXXXXXXXXXXXXXXXXXXX  ooooooooooooooooo",
"ooooooooooooooooo  XXXXXXXXXXXXXXXXXXXXXXXXXX  ooooooooooooooooo",
"ooooooooooooooooo  XXXXXXXXXXXXXXXXXXXXXXXXXX  ooooooooooooooooo",
"ooooooooooooooooo  XX       XXXXXXXXXXXXXXXXX  ooooooooooooooooo",
"ooooooooooooooooo  XX       XXXXXXXXXXXXXXXXX  ooooooooooooooooo",
"ooooooooooooooooo  XXXXXXXXXXXXXXXXXXXXXXXXXX  ooooooooooooooooo",
"ooooooooooooooooo  XX                     XXX  ooooooooooooooooo",
"ooooooooooooooooo  XX                     XXX  ooooooooooooooooo",
"ooooooooooooooooo  XXXXXXXXXXXXXXXXXXXXXXXXXX  ooooooooooooooooo",
"ooooooooooooooooo  XX                     XXX  ooooooooooooooooo",
"ooooooooooooooooo  XX                     XXX  ooooooooooooooooo",
"ooooooooooooooooo  XXXXXXXXXXXXXXXXXXXXXXXXXX  ooooooooooooooooo",
"ooooooooooooooooo  XX                     XXX  ooooooooooooooooo",
"ooooooooooooooooo  XX                     XXX  ooooooooooooooooo",
"ooooooooooooooooo  XXXXXXXXXXXXXXXXXXXXXXXXXX  ooooooooooooooooo",
"ooooooooooooooooo  XXXXXXXXXXXXXXXXXXXXXXXXXX  ooooooooooooooooo",
"ooooooooooooooooo  XXXXXXXXXXXXXXXXXXXXX   XX  ooooooooooooooooo",
"ooooooooooooooooo  XXXXXXXXXXXXXXXXXX   XXXXX  ooooooooooooooooo",
"ooooooooooooooooo  XXXXXXXXXXXXXXXXXXXXXXXXXX  ooooooooooooooooo",
"ooooooooooooooooo  XXXXXXXXXXXXXXXXXXXXXXXXXX  ooooooooooooooooo",
"ooooooooooooooooo                              ooooooooooooooooo",
"ooooooooooooooooo                              ooooooooooooooooo",
"oooooooooooooooooooooooooooooooooooooooooooooooooooooooooooooooo",
"oooooooooooooooooooooooooooooooooooooooooooooooooooooooooooooooo",
"oooooooooooooooooooooooooooooooooooooooooooooooooooooooooooooooo",
"oooooooooooooooooooooooooooooooooooooooooooooooooooooooooooooooo",
"oooooooooooooooooooooooooooooooooooooooooooooooooooooooooooooooo",
"oooooooooooooooooooooooooooooooooooooooooooooooooooooooooooooooo",
"oooooooooooooooooooooooooooooooooooooooooooooooooooooooooooooooo",
"oooooooooooooooooooooooooooooooooooooooooooooooooooooooooooooooo",
"oooooooooooooooooooooooooooooooooooooooooooooooooooooooooooooooo",
"oooooooooooooooooooooooooooooooooooooooooooooooooooooooooooooooo",
"oooooooooooooooooooooooooooooooooooooooooooooooooooooooooooooooo",
"oooooooooooooooooooooooooooooooooooooooooooooooooooooooooooooooo",
"oooooooooooooooooooooooooooooooooooooooooooooooooooooooooooooooo",
"oooooooooooooooooooooooooooooooooooooooooooooooooooooooooooooooo"
};
