/* XPM */
static char *result[] = {
/* columns rows colors chars-per-pixel */
"80 80 4 1 ",
"  c black",
". c #98AFB5",
"X c #B4CFD6",
"o c None",
/* pixels */
"oooooooooooooooooooooooooooooooooooooooooooooooooooooooooooooooooooooooooooooooo",
"oooooooooooooooooooooooooooooooooooooooooooooooooooooooooooooooooooooooooooooooo",
"oooooooooooooooooooooooooooooooooooooooooooooooooooooooooooooooooooooooooooooooo",
"oooooooooooooooooooooooooooooooooooooooooooooooooooooooooooooooooooooooooooooooo",
"oooooooooooooooooooooooooooooooooooooooooooooooooooooooooooooooooooooooooooooooo",
"oooooooooooooooooooooooooooooooooooooooooooooooooooooooooooooooooooooooooooooooo",
"oooooooooooooooooooooooooooooooooooooooooooooooooooooooooooooooooooooooooooooooo",
"oooooooooooooooooooooooooooooooooooooooooooooooooooooooooooooooooooooooooooooooo",
"oooooooooooooooooooooooooooooooooooooooooooooooooooooooooooooooooooooooooooooooo",
"oooooooooooooooooooooooooooooooooooooooooooooooooooooooooooooooooooooooooooooooo",
"oooooooooooooooooooooooooooooooooooooooooooooooooooooooooooooooooooooooooooooooo",
"oooooooooooooooooooooooooooooooooooooooooooooooooooooooooooooooooooooooooooooooo",
"oooooooooooooooooooooooooooooooooooooooooooooooooooooooooooooooooooooooooooooooo",
"oooooooooooooooooooooooooooooooooooooooooooooooooooooooooooooooooooooooooooooooo",
"oooooooooooooooooooooooooooooooooooooooooooooooooooooooooooooooooooooooooooooooo",
"oooooooooooooooooooooooooooooooooooooooooooooooooooooooooooooooooooooooooooooooo",
"oooooooooooooooooooooooooooooooooooooooooooooooooooooooooooooooooooooooooooooooo",
"ooooooooooooooooooooo                          ooooooooooooooooooooooooooooooooo",
"ooooooooooooooooooooo                           oooooooooooooooooooooooooooooooo",
"ooooooooooooooooooooo                            ooooooooooooooooooooooooooooooo",
"ooooooooooooooooooooo   XXXXXXXXXXXXXXXXX   ..    oooooooooooooooooooooooooooooo",
"ooooooooooooooooooooo   XXXXXXXXXXXXXXXXX   ...    ooooooooooooooooooooooooooooo",
"ooooooooooooooooooooo   XXXXXXXXXXXXXXXXX   ....    oooooooooooooooooooooooooooo",
"ooooooooooooooooooooo   XXXXXXXXXXXXXXXXX   .....    ooooooooooooooooooooooooooo",
"ooooooooooooooooooooo   XXXXXXXXXXXXXXXXX   ......    oooooooooooooooooooooooooo",
"ooooooooooooooooooooo   XX             XX   .......    ooooooooooooooooooooooooo",
"ooooooooooooooooooooo   XX             XX   ........    oooooooooooooooooooooooo",
"ooooooooooooooooooooo   XX             XX   ..........   ooooooooooooooooooooooo",
"ooooooooooooooooooooo   XX             XX   ..........   ooooooooooooooooooooooo",
"ooooooooooooooooooooo   XX             XX   ...........   oooooooooooooooooooooo",
"ooooooooooooooooooooo   XX             XX   ............   ooooooooooooooooooooo",
"ooooooooooooooooooooo   XX             XX                  ooooooooooooooooooooo",
"ooooooooooooooooooooo   XX             XX                  ooooooooooooooooooooo",
"ooooooooooooooooooooo   XX             XX                  ooooooooooooooooooooo",
"ooooooooooooooooooooo   XXXXXXXXXXXXXXXXXXXXXXXXXXXXXXXX   ooooooooooooooooooooo",
"ooooooooooooooooooooo   XXXXXXXXXXXXXXXXXXXXXXXXXXXXXXXX   ooooooooooooooooooooo",
"ooooooooooooooooooooo   XXXXXXXXXXXXXXXXXXXXXXXXXXXXXXXX   ooooooooooooooooooooo",
"ooooooooooooooooooooo   XXXXXXXXXXXXXXXXXXXXXXXXXXXXXXXX   ooooooooooooooooooooo",
"ooooooooooooooooooooo   XXXXXXXXXXXXXXXXXXXXXXXXXXXXXXXX   ooooooooooooooooooooo",
"ooooooooooooooooooooo   XX         XXXXXXXXXXXXXXXXXXXXX   ooooooooooooooooooooo",
"ooooooooooooooooooooo   XX         XXXXXXXXXXXXXXXXXXXXX   ooooooooooooooooooooo",
"ooooooooooooooooooooo   XXXXXXXXXXXXXXXXXXXXXXXXXXXXXXXX   ooooooooooooooooooooo",
"ooooooooooooooooooooo   XX                          XXXX   ooooooooooooooooooooo",
"ooooooooooooooooooooo   XX                          XXXX   ooooooooooooooooooooo",
"ooooooooooooooooooooo   XX                          XXXX   ooooooooooooooooooooo",
"ooooooooooooooooooooo   XXXXXXXXXXXXXXXXXXXXXXXXXXXXXXXX   ooooooooooooooooooooo",
"ooooooooooooooooooooo   XX                          XXXX   ooooooooooooooooooooo",
"ooooooooooooooooooooo   XX                          XXXX   ooooooooooooooooooooo",
"ooooooooooooooooooooo   XX                          XXXX   ooooooooooooooooooooo",
"ooooooooooooooooooooo   XXXXXXXXXXXXXXXXXXXXXXXXXXXXXXXX   ooooooooooooooooooooo",
"ooooooooooooooooooooo   XX                          XXXX   ooooooooooooooooooooo",
"ooooooooooooooooooooo   XX                          XXXX   ooooooooooooooooooooo",
"ooooooooooooooooooooo   XX                          XXXX   ooooooooooooooooooooo",
"ooooooooooooooooooooo   XXXXXXXXXXXXXXXXXXXXXXXXXXXXXXXX   ooooooooooooooooooooo",
"ooooooooooooooooooooo   XXXXXXXXXXXXXXXXXXXXXXXXXXXXXXXX   ooooooooooooooooooooo",
"ooooooooooooooooooooo   XXXXXXXXXXXXXXXXXXXXXXXXXX    XX   ooooooooooooooooooooo",
"ooooooooooooooooooooo   XXXXXXXXXXXXXXXXXXXXXX    XXXXXX   ooooooooooooooooooooo",
"ooooooooooooooooooooo   XXXXXXXXXXXXXXXXXXXXXXXXXXXXXXXX   ooooooooooooooooooooo",
"ooooooooooooooooooooo   XXXXXXXXXXXXXXXXXXXXXXXXXXXXXXXX   ooooooooooooooooooooo",
"ooooooooooooooooooooo   XXXXXXXXXXXXXXXXXXXXXXXXXXXXXXXX   ooooooooooooooooooooo",
"ooooooooooooooooooooo                                      ooooooooooooooooooooo",
"ooooooooooooooooooooo                                      ooooooooooooooooooooo",
"ooooooooooooooooooooo                                      ooooooooooooooooooooo",
"oooooooooooooooooooooooooooooooooooooooooooooooooooooooooooooooooooooooooooooooo",
"oooooooooooooooooooooooooooooooooooooooooooooooooooooooooooooooooooooooooooooooo",
"oooooooooooooooooooooooooooooooooooooooooooooooooooooooooooooooooooooooooooooooo",
"oooooooooooooooooooooooooooooooooooooooooooooooooooooooooooooooooooooooooooooooo",
"oooooooooooooooooooooooooooooooooooooooooooooooooooooooooooooooooooooooooooooooo",
"oooooooooooooooooooooooooooooooooooooooooooooooooooooooooooooooooooooooooooooooo",
"oooooooooooooooooooooooooooooooooooooooooooooooooooooooooooooooooooooooooooooooo",
"oooooooooooooooooooooooooooooooooooooooooooooooooooooooooooooooooooooooooooooooo",
"oooooooooooooooooooooooooooooooooooooooooooooooooooooooooooooooooooooooooooooooo",
"oooooooooooooooooooooooooooooooooooooooooooooooooooooooooooooooooooooooooooooooo",
"oooooooooooooooooooooooooooooooooooooooooooooooooooooooooooooooooooooooooooooooo",
"oooooooooooooooooooooooooooooooooooooooooooooooooooooooooooooooooooooooooooooooo",
"oooooooooooooooooooooooooooooooooooooooooooooooooooooooooooooooooooooooooooooooo",
"oooooooooooooooooooooooooooooooooooooooooooooooooooooooooooooooooooooooooooooooo",
"oooooooooooooooooooooooooooooooooooooooooooooooooooooooooooooooooooooooooooooooo",
"oooooooooooooooooooooooooooooooooooooooooooooooooooooooooooooooooooooooooooooooo",
"oooooooooooooooooooooooooooooooooooooooooooooooooooooooooooooooooooooooooooooooo"
};
