/* XPM */
static char *result[] = {
/* columns rows colors chars-per-pixel */
"112 112 4 1 ",
"  c black",
". c #98AFB5",
"X c #B4CFD6",
"o c None",
/* pixels */
"oooooooooooooooooooooooooooooooooooooooooooooooooooooooooooooooooooooooooooooooooooooooooooooooooooooooooooooooo",
"oooooooooooooooooooooooooooooooooooooooooooooooooooooooooooooooooooooooooooooooooooooooooooooooooooooooooooooooo",
"oooooooooooooooooooooooooooooooooooooooooooooooooooooooooooooooooooooooooooooooooooooooooooooooooooooooooooooooo",
"oooooooooooooooooooooooooooooooooooooooooooooooooooooooooooooooooooooooooooooooooooooooooooooooooooooooooooooooo",
"oooooooooooooooooooooooooooooooooooooooooooooooooooooooooooooooooooooooooooooooooooooooooooooooooooooooooooooooo",
"oooooooooooooooooooooooooooooooooooooooooooooooooooooooooooooooooooooooooooooooooooooooooooooooooooooooooooooooo",
"oooooooooooooooooooooooooooooooooooooooooooooooooooooooooooooooooooooooooooooooooooooooooooooooooooooooooooooooo",
"oooooooooooooooooooooooooooooooooooooooooooooooooooooooooooooooooooooooooooooooooooooooooooooooooooooooooooooooo",
"oooooooooooooooooooooooooooooooooooooooooooooooooooooooooooooooooooooooooooooooooooooooooooooooooooooooooooooooo",
"oooooooooooooooooooooooooooooooooooooooooooooooooooooooooooooooooooooooooooooooooooooooooooooooooooooooooooooooo",
"oooooooooooooooooooooooooooooooooooooooooooooooooooooooooooooooooooooooooooooooooooooooooooooooooooooooooooooooo",
"oooooooooooooooooooooooooooooooooooooooooooooooooooooooooooooooooooooooooooooooooooooooooooooooooooooooooooooooo",
"oooooooooooooooooooooooooooooooooooooooooooooooooooooooooooooooooooooooooooooooooooooooooooooooooooooooooooooooo",
"oooooooooooooooooooooooooooooooooooooooooooooooooooooooooooooooooooooooooooooooooooooooooooooooooooooooooooooooo",
"oooooooooooooooooooooooooooooooooooooooooooooooooooooooooooooooooooooooooooooooooooooooooooooooooooooooooooooooo",
"oooooooooooooooooooooooooooooooooooooooooooooooooooooooooooooooooooooooooooooooooooooooooooooooooooooooooooooooo",
"oooooooooooooooooooooooooooooooooooooooooooooooooooooooooooooooooooooooooooooooooooooooooooooooooooooooooooooooo",
"oooooooooooooooooooooooooooooooooooooooooooooooooooooooooooooooooooooooooooooooooooooooooooooooooooooooooooooooo",
"oooooooooooooooooooooooooooooooooooooooooooooooooooooooooooooooooooooooooooooooooooooooooooooooooooooooooooooooo",
"oooooooooooooooooooooooooooooooooooooooooooooooooooooooooooooooooooooooooooooooooooooooooooooooooooooooooooooooo",
"oooooooooooooooooooooooooooooooooooooooooooooooooooooooooooooooooooooooooooooooooooooooooooooooooooooooooooooooo",
"oooooooooooooooooooooooooooooooooooooooooooooooooooooooooooooooooooooooooooooooooooooooooooooooooooooooooooooooo",
"oooooooooooooooooooooooooooooooooooooooooooooooooooooooooooooooooooooooooooooooooooooooooooooooooooooooooooooooo",
"ooooooooooooooooooooooooooooo                                        ooooooooooooooooooooooooooooooooooooooooooo",
"ooooooooooooooooooooooooooooo                                         oooooooooooooooooooooooooooooooooooooooooo",
"ooooooooooooooooooooooooooooo                                          ooooooooooooooooooooooooooooooooooooooooo",
"ooooooooooooooooooooooooooooo                                           oooooooooooooooooooooooooooooooooooooooo",
"ooooooooooooooooooooooooooooo                                            ooooooooooooooooooooooooooooooooooooooo",
"ooooooooooooooooooooooooooooo     XXXXXXXXXXXXXXXXXXXXXXX     .....       oooooooooooooooooooooooooooooooooooooo",
"ooooooooooooooooooooooooooooo     XXXXXXXXXXXXXXXXXXXXXXX     ......      oooooooooooooooooooooooooooooooooooooo",
"ooooooooooooooooooooooooooooo     XXXXXXXXXXXXXXXXXXXXXXX     .......      ooooooooooooooooooooooooooooooooooooo",
"ooooooooooooooooooooooooooooo     XXXXXXXXXXXXXXXXXXXXXXX     ........      oooooooooooooooooooooooooooooooooooo",
"ooooooooooooooooooooooooooooo     XXXXXXXXXXXXXXXXXXXXXXX     .........      ooooooooooooooooooooooooooooooooooo",
"ooooooooooooooooooooooooooooo     XXXXXXXXXXXXXXXXXXXXXXX     ..........      oooooooooooooooooooooooooooooooooo",
"ooooooooooooooooooooooooooooo     XXXXXXXXXXXXXXXXXXXXXXX     ...........      ooooooooooooooooooooooooooooooooo",
"ooooooooooooooooooooooooooooo     XX                   XX     ............      oooooooooooooooooooooooooooooooo",
"ooooooooooooooooooooooooooooo     XX                   XX     .............     oooooooooooooooooooooooooooooooo",
"ooooooooooooooooooooooooooooo     XX                   XX     ..............     ooooooooooooooooooooooooooooooo",
"ooooooooooooooooooooooooooooo     XX                   XX     ...............     oooooooooooooooooooooooooooooo",
"ooooooooooooooooooooooooooooo     XX                   XX     ................     ooooooooooooooooooooooooooooo",
"ooooooooooooooooooooooooooooo     XX                   XX     ................     ooooooooooooooooooooooooooooo",
"ooooooooooooooooooooooooooooo     XX                   XX     ................     ooooooooooooooooooooooooooooo",
"ooooooooooooooooooooooooooooo     XX                   XX     ................     ooooooooooooooooooooooooooooo",
"ooooooooooooooooooooooooooooo     XX                   XX                          ooooooooooooooooooooooooooooo",
"ooooooooooooooooooooooooooooo     XX                   XX                          ooooooooooooooooooooooooooooo",
"ooooooooooooooooooooooooooooo     XX                   XX                          ooooooooooooooooooooooooooooo",
"ooooooooooooooooooooooooooooo     XX                   XX                          ooooooooooooooooooooooooooooo",
"ooooooooooooooooooooooooooooo     XX                   XX                          ooooooooooooooooooooooooooooo",
"ooooooooooooooooooooooooooooo     XXXXXXXXXXXXXXXXXXXXXXXXXXXXXXXXXXXXXXXXXXXX     ooooooooooooooooooooooooooooo",
"ooooooooooooooooooooooooooooo     XXXXXXXXXXXXXXXXXXXXXXXXXXXXXXXXXXXXXXXXXXXX     ooooooooooooooooooooooooooooo",
"ooooooooooooooooooooooooooooo     XXXXXXXXXXXXXXXXXXXXXXXXXXXXXXXXXXXXXXXXXXXX     ooooooooooooooooooooooooooooo",
"ooooooooooooooooooooooooooooo     XXXXXXXXXXXXXXXXXXXXXXXXXXXXXXXXXXXXXXXXXXXX     ooooooooooooooooooooooooooooo",
"ooooooooooooooooooooooooooooo     XXXXXXXXXXXXXXXXXXXXXXXXXXXXXXXXXXXXXXXXXXXX     ooooooooooooooooooooooooooooo",
"ooooooooooooooooooooooooooooo     XXXXXXXXXXXXXXXXXXXXXXXXXXXXXXXXXXXXXXXXXXXX     ooooooooooooooooooooooooooooo",
"ooooooooooooooooooooooooooooo     XXXXXXXXXXXXXXXXXXXXXXXXXXXXXXXXXXXXXXXXXXXX     ooooooooooooooooooooooooooooo",
"ooooooooooooooooooooooooooooo     XX             XXXXXXXXXXXXXXXXXXXXXXXXXXXXX     ooooooooooooooooooooooooooooo",
"ooooooooooooooooooooooooooooo     XX             XXXXXXXXXXXXXXXXXXXXXXXXXXXXX     ooooooooooooooooooooooooooooo",
"ooooooooooooooooooooooooooooo     XXXXXXXXXXXXXXXXXXXXXXXXXXXXXXXXXXXXXXXXXXXX     ooooooooooooooooooooooooooooo",
"ooooooooooooooooooooooooooooo     XXXXXXXXXXXXXXXXXXXXXXXXXXXXXXXXXXXXXXXXXXXX     ooooooooooooooooooooooooooooo",
"ooooooooooooooooooooooooooooo     XX                                     XXXXX     ooooooooooooooooooooooooooooo",
"ooooooooooooooooooooooooooooo     XX                                     XXXXX     ooooooooooooooooooooooooooooo",
"ooooooooooooooooooooooooooooo     XX                                     XXXXX     ooooooooooooooooooooooooooooo",
"ooooooooooooooooooooooooooooo     XX                                     XXXXX     ooooooooooooooooooooooooooooo",
"ooooooooooooooooooooooooooooo     XXXXXXXXXXXXXXXXXXXXXXXXXXXXXXXXXXXXXXXXXXXX     ooooooooooooooooooooooooooooo",
"ooooooooooooooooooooooooooooo     XX                                     XXXXX     ooooooooooooooooooooooooooooo",
"ooooooooooooooooooooooooooooo     XX                                     XXXXX     ooooooooooooooooooooooooooooo",
"ooooooooooooooooooooooooooooo     XX                                     XXXXX     ooooooooooooooooooooooooooooo",
"ooooooooooooooooooooooooooooo     XX                                     XXXXX     ooooooooooooooooooooooooooooo",
"ooooooooooooooooooooooooooooo     XX                                     XXXXX     ooooooooooooooooooooooooooooo",
"ooooooooooooooooooooooooooooo     XXXXXXXXXXXXXXXXXXXXXXXXXXXXXXXXXXXXXXXXXXXX     ooooooooooooooooooooooooooooo",
"ooooooooooooooooooooooooooooo     XX                                     XXXXX     ooooooooooooooooooooooooooooo",
"ooooooooooooooooooooooooooooo     XX                                     XXXXX     ooooooooooooooooooooooooooooo",
"ooooooooooooooooooooooooooooo     XX                                     XXXXX     ooooooooooooooooooooooooooooo",
"ooooooooooooooooooooooooooooo     XX                                     XXXXX     ooooooooooooooooooooooooooooo",
"ooooooooooooooooooooooooooooo     XXXXXXXXXXXXXXXXXXXXXXXXXXXXXXXXXXXXXXXXXXXX     ooooooooooooooooooooooooooooo",
"ooooooooooooooooooooooooooooo     XXXXXXXXXXXXXXXXXXXXXXXXXXXXXXXXXXXXXXXXXXXX     ooooooooooooooooooooooooooooo",
"ooooooooooooooooooooooooooooo     XXXXXXXXXXXXXXXXXXXXXXXXXXXXXXXXXXXXXXXXXXXX     ooooooooooooooooooooooooooooo",
"ooooooooooooooooooooooooooooo     XXXXXXXXXXXXXXXXXXXXXXXXXXXXXXXXXXXX      XX     ooooooooooooooooooooooooooooo",
"ooooooooooooooooooooooooooooo     XXXXXXXXXXXXXXXXXXXXXXXXXXXXXX      XXXXXXXX     ooooooooooooooooooooooooooooo",
"ooooooooooooooooooooooooooooo     XXXXXXXXXXXXXXXXXXXXXXXXXXXXXX      XXXXXXXX     ooooooooooooooooooooooooooooo",
"ooooooooooooooooooooooooooooo     XXXXXXXXXXXXXXXXXXXXXXXXXXXXXXXXXXXXXXXXXXXX     ooooooooooooooooooooooooooooo",
"ooooooooooooooooooooooooooooo     XXXXXXXXXXXXXXXXXXXXXXXXXXXXXXXXXXXXXXXXXXXX     ooooooooooooooooooooooooooooo",
"ooooooooooooooooooooooooooooo     XXXXXXXXXXXXXXXXXXXXXXXXXXXXXXXXXXXXXXXXXXXX     ooooooooooooooooooooooooooooo",
"ooooooooooooooooooooooooooooo     XXXXXXXXXXXXXXXXXXXXXXXXXXXXXXXXXXXXXXXXXXXX     ooooooooooooooooooooooooooooo",
"ooooooooooooooooooooooooooooo                                                      ooooooooooooooooooooooooooooo",
"ooooooooooooooooooooooooooooo                                                      ooooooooooooooooooooooooooooo",
"ooooooooooooooooooooooooooooo                                                      ooooooooooooooooooooooooooooo",
"ooooooooooooooooooooooooooooo                                                      ooooooooooooooooooooooooooooo",
"ooooooooooooooooooooooooooooo                                                      ooooooooooooooooooooooooooooo",
"oooooooooooooooooooooooooooooooooooooooooooooooooooooooooooooooooooooooooooooooooooooooooooooooooooooooooooooooo",
"oooooooooooooooooooooooooooooooooooooooooooooooooooooooooooooooooooooooooooooooooooooooooooooooooooooooooooooooo",
"oooooooooooooooooooooooooooooooooooooooooooooooooooooooooooooooooooooooooooooooooooooooooooooooooooooooooooooooo",
"oooooooooooooooooooooooooooooooooooooooooooooooooooooooooooooooooooooooooooooooooooooooooooooooooooooooooooooooo",
"oooooooooooooooooooooooooooooooooooooooooooooooooooooooooooooooooooooooooooooooooooooooooooooooooooooooooooooooo",
"oooooooooooooooooooooooooooooooooooooooooooooooooooooooooooooooooooooooooooooooooooooooooooooooooooooooooooooooo",
"oooooooooooooooooooooooooooooooooooooooooooooooooooooooooooooooooooooooooooooooooooooooooooooooooooooooooooooooo",
"oooooooooooooooooooooooooooooooooooooooooooooooooooooooooooooooooooooooooooooooooooooooooooooooooooooooooooooooo",
"oooooooooooooooooooooooooooooooooooooooooooooooooooooooooooooooooooooooooooooooooooooooooooooooooooooooooooooooo",
"oooooooooooooooooooooooooooooooooooooooooooooooooooooooooooooooooooooooooooooooooooooooooooooooooooooooooooooooo",
"oooooooooooooooooooooooooooooooooooooooooooooooooooooooooooooooooooooooooooooooooooooooooooooooooooooooooooooooo",
"oooooooooooooooooooooooooooooooooooooooooooooooooooooooooooooooooooooooooooooooooooooooooooooooooooooooooooooooo",
"oooooooooooooooooooooooooooooooooooooooooooooooooooooooooooooooooooooooooooooooooooooooooooooooooooooooooooooooo",
"oooooooooooooooooooooooooooooooooooooooooooooooooooooooooooooooooooooooooooooooooooooooooooooooooooooooooooooooo",
"oooooooooooooooooooooooooooooooooooooooooooooooooooooooooooooooooooooooooooooooooooooooooooooooooooooooooooooooo",
"oooooooooooooooooooooooooooooooooooooooooooooooooooooooooooooooooooooooooooooooooooooooooooooooooooooooooooooooo",
"oooooooooooooooooooooooooooooooooooooooooooooooooooooooooooooooooooooooooooooooooooooooooooooooooooooooooooooooo",
"oooooooooooooooooooooooooooooooooooooooooooooooooooooooooooooooooooooooooooooooooooooooooooooooooooooooooooooooo",
"oooooooooooooooooooooooooooooooooooooooooooooooooooooooooooooooooooooooooooooooooooooooooooooooooooooooooooooooo",
"oooooooooooooooooooooooooooooooooooooooooooooooooooooooooooooooooooooooooooooooooooooooooooooooooooooooooooooooo",
"oooooooooooooooooooooooooooooooooooooooooooooooooooooooooooooooooooooooooooooooooooooooooooooooooooooooooooooooo",
"oooooooooooooooooooooooooooooooooooooooooooooooooooooooooooooooooooooooooooooooooooooooooooooooooooooooooooooooo",
"oooooooooooooooooooooooooooooooooooooooooooooooooooooooooooooooooooooooooooooooooooooooooooooooooooooooooooooooo"
};
