/* XPM */
static char *a3c5067a72ea4ee4bc5f3a6015162f94R8q6ShWpGMBQQWCH[] = {
/* columns rows colors chars-per-pixel */
"32 32 4 1 ",
"  c black",
". c #A09DA3",
"X c #C1BCC4",
"o c white",
/* pixels */
"oooooooooooooooooooooooooooooooo",
"oooooooooooooooooooooooooooooooo",
"oooooooooooooooooooooooooooooooo",
"oooooooooooooooooooooooooooooooo",
"oooooooooooooooooooooooooooooooo",
"oooooooooooooooooooooooooooooooo",
"oooooooooooooooooooooooooooooooo",
"ooooooooo          ooooooooooooo",
"ooooooooo XXXXXXX . oooooooooooo",
"ooooooooo X     X .. ooooooooooo",
"ooooooooo X     X ... oooooooooo",
"ooooooooo X     X .... ooooooooo",
"ooooooooo X     X      ooooooooo",
"ooooooooo XXXXXXXXXXXX ooooooooo",
"ooooooooo XXXXXXXXXXXX ooooooooo",
"ooooooooo X         XX ooooooooo",
"ooooooooo XXXXXXXXXXXX ooooooooo",
"ooooooooo X         XX ooooooooo",
"ooooooooo XXXXXXXXXXXX ooooooooo",
"ooooooooo X         XX ooooooooo",
"ooooooooo XXXXXXXXXXXX ooooooooo",
"ooooooooo XXXXXXXX  XX ooooooooo",
"ooooooooo XXXXXXXXXXXX ooooooooo",
"ooooooooo              ooooooooo",
"oooooooooooooooooooooooooooooooo",
"oooooooooooooooooooooooooooooooo",
"oooooooooooooooooooooooooooooooo",
"oooooooooooooooooooooooooooooooo",
"oooooooooooooooooooooooooooooooo",
"oooooooooooooooooooooooooooooooo",
"oooooooooooooooooooooooooooooooo",
"oooooooooooooooooooooooooooooooo"
};
