/* XPM */
static char *form_2_64x64[] = {
/* columns rows colors chars-per-pixel */
"64 64 5 1 ",
"  c black",
". c #5C565B",
"X c #CCA081",
"o c #FCC49C",
"O c #D1C5CF",
/* pixels */
"................................................................",
".OOOOOOOOOOOOOOOOOOOOOOOOOOOOOOOOOOOOOOOOOOOOOOOOOOOOOOOOOOOOOO.",
".OOOOOOOOOOOOOOOOOOOOOOOOOOOOOOOOOOOOOOOOOOOOOOOOOOOOOOOOOOOOOO.",
".OOOOOOOOOOOOOOOOOOOOOOOOOOOOOOOOOOOOOOOOOOOOOOOOOOOOOOOOOOOOOO.",
".OOOOOOOOOOOOOOOOOOOOOOOOOOOOOOOOOOOOOOOOOOOOOOOOOOOOOOOOOOOOOO.",
".OOOOOOOOOOOOOOOOOOOOOOOOOOOOOOOOOOOOOOOOOOOOOOOOOOOOOOOOOOOOOO.",
".OOOOOOOOOOOOOOOOOOOOOOOOOOOOOOOOOOOOOOOOOOOOOOOOOOOOOOOOOOOOOO.",
".OOOOOOOOOOOOOOOOOOOOOOOOOOOOOOOOOOOOOOOOOOOOOOOOOOOOOOOOOOOOOO.",
".OOOOOOOOOOOOOOOOOOOOOOOOOOOOOOOOOOOOOOOOOOOOOOOOOOOOOOOOOOOOOO.",
".OOOOOOOOOOOOOOOOOOOOOOOOOOOOOOOOOOOOOOOOOOOOOOOOOOOOOOOOOOOOOO.",
".OOOOOOOOOOOOOOOOOOOOOOOOOOOOOOOOOOOOOOOOOOOOOOOOOOOOOOOOOOOOOO.",
".OOOOOOOOOOOOOOOOOOOOOOOOOOOOOOOOOOOOOOOOOOOOOOOOOOOOOOOOOOOOOO.",
".OOOOOOOOOOOOOOOOOOOOOOOOOOOOOOOOOOOOOOOOOOOOOOOOOOOOOOOOOOOOOO.",
".OOOOOOOOOOOOOOOOOOOOOOOOOOOOOOOOOOOOOOOOOOOOOOOOOOOOOOOOOOOOOO.",
".OOOOOOOOOOOOOOOO                      OOOOOOOOOOOOOOOOOOOOOOOO.",
".OOOOOOOOOOOOOOOO                      OOOOOOOOOOOOOOOOOOOOOOOO.",
".OOOOOOOOOOOOOOOO  oooooooooooooo  XX   OOOOOOOOOOOOOOOOOOOOOOO.",
".OOOOOOOOOOOOOOOO  oooooooooooooo  XXX   OOOOOOOOOOOOOOOOOOOOOO.",
".OOOOOOOOOOOOOOOO  oooooooooooooo  XXXX   OOOOOOOOOOOOOOOOOOOOO.",
".OOOOOOOOOOOOOOOO  oooooooooooooo  XXXXX   OOOOOOOOOOOOOOOOOOOO.",
".OOOOOOOOOOOOOOOO  oo          oo  XXXXXX   OOOOOOOOOOOOOOOOOOO.",
".OOOOOOOOOOOOOOOO  oo          oo  XXXXXXX   OOOOOOOOOOOOOOOOOO.",
".OOOOOOOOOOOOOOOO  oo          oo  XXXXXXXX   OOOOOOOOOOOOOOOOO.",
".OOOOOOOOOOOOOOOO  oo          oo  XXXXXXXXX   OOOOOOOOOOOOOOOO.",
".OOOOOOOOOOOOOOOO  oo          oo  XXXXXXXXXX  OOOOOOOOOOOOOOOO.",
".OOOOOOOOOOOOOOOO  oo          oo              OOOOOOOOOOOOOOOO.",
".OOOOOOOOOOOOOOOO  oo          oo              OOOOOOOOOOOOOOOO.",
".OOOOOOOOOOOOOOOO  oooooooooooooooooooooooooo  OOOOOOOOOOOOOOOO.",
".OOOOOOOOOOOOOOOO  oooooooooooooooooooooooooo  OOOOOOOOOOOOOOOO.",
".OOOOOOOOOOOOOOOO  oooooooooooooooooooooooooo  OOOOOOOOOOOOOOOO.",
".OOOOOOOOOOOOOOOO  oooooooooooooooooooooooooo  OOOOOOOOOOOOOOOO.",
".OOOOOOOOOOOOOOOO  oo       ooooooooooooooooo  OOOOOOOOOOOOOOOO.",
".OOOOOOOOOOOOOOOO  oo       ooooooooooooooooo  OOOOOOOOOOOOOOOO.",
".OOOOOOOOOOOOOOOO  oooooooooooooooooooooooooo  OOOOOOOOOOOOOOOO.",
".OOOOOOOOOOOOOOOO  oo                     ooo  OOOOOOOOOOOOOOOO.",
".OOOOOOOOOOOOOOOO  oo                     ooo  OOOOOOOOOOOOOOOO.",
".OOOOOOOOOOOOOOOO  oooooooooooooooooooooooooo  OOOOOOOOOOOOOOOO.",
".OOOOOOOOOOOOOOOO  oo                     ooo  OOOOOOOOOOOOOOOO.",
".OOOOOOOOOOOOOOOO  oo                     ooo  OOOOOOOOOOOOOOOO.",
".OOOOOOOOOOOOOOOO  oooooooooooooooooooooooooo  OOOOOOOOOOOOOOOO.",
".OOOOOOOOOOOOOOOO  oo                     ooo  OOOOOOOOOOOOOOOO.",
".OOOOOOOOOOOOOOOO  oo                     ooo  OOOOOOOOOOOOOOOO.",
".OOOOOOOOOOOOOOOO  oooooooooooooooooooooooooo  OOOOOOOOOOOOOOOO.",
".OOOOOOOOOOOOOOOO  oooooooooooooooooooooooooo  OOOOOOOOOOOOOOOO.",
".OOOOOOOOOOOOOOOO  ooooooooooooooooooooo   oo  OOOOOOOOOOOOOOOO.",
".OOOOOOOOOOOOOOOO  oooooooooooooooooo   ooooo  OOOOOOOOOOOOOOOO.",
".OOOOOOOOOOOOOOOO  oooooooooooooooooooooooooo  OOOOOOOOOOOOOOOO.",
".OOOOOOOOOOOOOOOO  oooooooooooooooooooooooooo  OOOOOOOOOOOOOOOO.",
".OOOOOOOOOOOOOOOO                              OOOOOOOOOOOOOOOO.",
".OOOOOOOOOOOOOOOO                              OOOOOOOOOOOOOOOO.",
".OOOOOOOOOOOOOOOOOOOOOOOOOOOOOOOOOOOOOOOOOOOOOOOOOOOOOOOOOOOOOO.",
".OOOOOOOOOOOOOOOOOOOOOOOOOOOOOOOOOOOOOOOOOOOOOOOOOOOOOOOOOOOOOO.",
".OOOOOOOOOOOOOOOOOOOOOOOOOOOOOOOOOOOOOOOOOOOOOOOOOOOOOOOOOOOOOO.",
".OOOOOOOOOOOOOOOOOOOOOOOOOOOOOOOOOOOOOOOOOOOOOOOOOOOOOOOOOOOOOO.",
".OOOOOOOOOOOOOOOOOOOOOOOOOOOOOOOOOOOOOOOOOOOOOOOOOOOOOOOOOOOOOO.",
".OOOOOOOOOOOOOOOOOOOOOOOOOOOOOOOOOOOOOOOOOOOOOOOOOOOOOOOOOOOOOO.",
".OOOOOOOOOOOOOOOOOOOOOOOOOOOOOOOOOOOOOOOOOOOOOOOOOOOOOOOOOOOOOO.",
".OOOOOOOOOOOOOOOOOOOOOOOOOOOOOOOOOOOOOOOOOOOOOOOOOOOOOOOOOOOOOO.",
".OOOOOOOOOOOOOOOOOOOOOOOOOOOOOOOOOOOOOOOOOOOOOOOOOOOOOOOOOOOOOO.",
".OOOOOOOOOOOOOOOOOOOOOOOOOOOOOOOOOOOOOOOOOOOOOOOOOOOOOOOOOOOOOO.",
".OOOOOOOOOOOOOOOOOOOOOOOOOOOOOOOOOOOOOOOOOOOOOOOOOOOOOOOOOOOOOO.",
".OOOOOOOOOOOOOOOOOOOOOOOOOOOOOOOOOOOOOOOOOOOOOOOOOOOOOOOOOOOOOO.",
".OOOOOOOOOOOOOOOOOOOOOOOOOOOOOOOOOOOOOOOOOOOOOOOOOOOOOOOOOOOOOO.",
"................................................................"
};
