/* XPM */
static char *form_2_32x32[] = {
/* columns rows colors chars-per-pixel */
"32 32 5 1 ",
"  c black",
". c #5C565B",
"X c #CCA081",
"o c #FCC49C",
"O c #D1C5CF",
/* pixels */
"................................",
".OOOOOOOOOOOOOOOOOOOOOOOOOOOOOO.",
".OOOOOOOOOOOOOOOOOOOOOOOOOOOOOO.",
".OOOOOOOOOOOOOOOOOOOOOOOOOOOOOO.",
".OOOOOOOOOOOOOOOOOOOOOOOOOOOOOO.",
".OOOOOOOOOOOOOOOOOOOOOOOOOOOOOO.",
".OOOOOOOOOOOOOOOOOOOOOOOOOOOOOO.",
".OOOOOOOO          OOOOOOOOOOOO.",
".OOOOOOOO ooooooo X OOOOOOOOOOO.",
".OOOOOOOO o     o XX OOOOOOOOOO.",
".OOOOOOOO o     o XXX OOOOOOOOO.",
".OOOOOOOO o     o XXXX OOOOOOOO.",
".OOOOOOOO o     o      OOOOOOOO.",
".OOOOOOOO oooooooooooo OOOOOOOO.",
".OOOOOOOO oooooooooooo OOOOOOOO.",
".OOOOOOOO o         oo OOOOOOOO.",
".OOOOOOOO oooooooooooo OOOOOOOO.",
".OOOOOOOO o         oo OOOOOOOO.",
".OOOOOOOO oooooooooooo OOOOOOOO.",
".OOOOOOOO o         oo OOOOOOOO.",
".OOOOOOOO oooooooooooo OOOOOOOO.",
".OOOOOOOO oooooooo  oo OOOOOOOO.",
".OOOOOOOO oooooooooooo OOOOOOOO.",
".OOOOOOOO              OOOOOOOO.",
".OOOOOOOOOOOOOOOOOOOOOOOOOOOOOO.",
".OOOOOOOOOOOOOOOOOOOOOOOOOOOOOO.",
".OOOOOOOOOOOOOOOOOOOOOOOOOOOOOO.",
".OOOOOOOOOOOOOOOOOOOOOOOOOOOOOO.",
".OOOOOOOOOOOOOOOOOOOOOOOOOOOOOO.",
".OOOOOOOOOOOOOOOOOOOOOOOOOOOOOO.",
".OOOOOOOOOOOOOOOOOOOOOOOOOOOOOO.",
"................................"
};
