/* XPM */
static char *_2c513b2cf3a4e7a8002f9f78c2e2f2d6OFRUIfJCVKmCjuh[] = {
/* columns rows colors chars-per-pixel */
"40 40 4 1 ",
"  c black",
". c #A09DA3",
"X c #C1BCC4",
"o c white",
/* pixels */
"oooooooooooooooooooooooooooooooooooooooo",
"oooooooooooooooooooooooooooooooooooooooo",
"oooooooooooooooooooooooooooooooooooooooo",
"oooooooooooooooooooooooooooooooooooooooo",
"oooooooooooooooooooooooooooooooooooooooo",
"oooooooooooooooooooooooooooooooooooooooo",
"ooooooooooo              ooooooooooooooo",
"ooooooooooo XXXXXXXXXXX . oooooooooooooo",
"ooooooooooo XXXXXXXXXXX .. ooooooooooooo",
"ooooooooooo XX       XX ... oooooooooooo",
"ooooooooooo XX       XX .... ooooooooooo",
"ooooooooooo XX       XX ..... oooooooooo",
"ooooooooooo XX       XX ...... ooooooooo",
"ooooooooooo XX       XX        ooooooooo",
"ooooooooooo XXXXXXXXXXXXXXXXXX ooooooooo",
"ooooooooooo XXXXXXXXXXXXXXXXXX ooooooooo",
"ooooooooooo XX     XXXXXXXXXXX ooooooooo",
"ooooooooooo XXXXXXXXXXXXXXXXXX ooooooooo",
"ooooooooooo XX              XX ooooooooo",
"ooooooooooo XXXXXXXXXXXXXXXXXX ooooooooo",
"ooooooooooo XX              XX ooooooooo",
"ooooooooooo XXXXXXXXXXXXXXXXXX ooooooooo",
"ooooooooooo XX              XX ooooooooo",
"ooooooooooo XXXXXXXXXXXXXXXXXX ooooooooo",
"ooooooooooo XX              XX ooooooooo",
"ooooooooooo XXXXXXXXXXXXXXXXXX ooooooooo",
"ooooooooooo XX          XXXXXX ooooooooo",
"ooooooooooo XXXXXXXXXXXXXXXXXX ooooooooo",
"ooooooooooo XXXXXXXXXXXXX  XXX ooooooooo",
"ooooooooooo XXXXXXXXXXXX XXXXX ooooooooo",
"ooooooooooo XXXXXXXXXXXXXXXXXX ooooooooo",
"ooooooooooo                    ooooooooo",
"oooooooooooooooooooooooooooooooooooooooo",
"oooooooooooooooooooooooooooooooooooooooo",
"oooooooooooooooooooooooooooooooooooooooo",
"oooooooooooooooooooooooooooooooooooooooo",
"oooooooooooooooooooooooooooooooooooooooo",
"oooooooooooooooooooooooooooooooooooooooo",
"oooooooooooooooooooooooooooooooooooooooo",
"oooooooooooooooooooooooooooooooooooooooo"
};
