/* XPM */
static char *_c7f9420e647479cc75ffcfc970c25551FK8VEkTenGcTIhW[] = {
/* columns rows colors chars-per-pixel */
"48 48 4 1 ",
"  c black",
". c #A09DA3",
"X c #C1BCC4",
"o c white",
/* pixels */
"oooooooooooooooooooooooooooooooooooooooooooooooo",
"oooooooooooooooooooooooooooooooooooooooooooooooo",
"oooooooooooooooooooooooooooooooooooooooooooooooo",
"oooooooooooooooooooooooooooooooooooooooooooooooo",
"oooooooooooooooooooooooooooooooooooooooooooooooo",
"oooooooooooooooooooooooooooooooooooooooooooooooo",
"oooooooooooooooooooooooooooooooooooooooooooooooo",
"oooooooooooooooooooooooooooooooooooooooooooooooo",
"oooooooooooooooooooooooooooooooooooooooooooooooo",
"oooooooooooooooooooooooooooooooooooooooooooooooo",
"ooooooooooooo                ooooooooooooooooooo",
"ooooooooooooo XXXXXXXXXXX ..  oooooooooooooooooo",
"ooooooooooooo XXXXXXXXXXX ...  ooooooooooooooooo",
"ooooooooooooo XXXXXXXXXXX ....  oooooooooooooooo",
"ooooooooooooo XX       XX .....  ooooooooooooooo",
"ooooooooooooo XX       XX ......  oooooooooooooo",
"ooooooooooooo XX       XX .......  ooooooooooooo",
"ooooooooooooo XX       XX ........ ooooooooooooo",
"ooooooooooooo XX       XX          ooooooooooooo",
"ooooooooooooo XXXXXXXXXXXXXXXXXXXX ooooooooooooo",
"ooooooooooooo XXXXXXXXXXXXXXXXXXXX ooooooooooooo",
"ooooooooooooo XXXXXXXXXXXXXXXXXXXX ooooooooooooo",
"ooooooooooooo XX     XXXXXXXXXXXXX ooooooooooooo",
"ooooooooooooo XXXXXXXXXXXXXXXXXXXX ooooooooooooo",
"ooooooooooooo XX              XXXX ooooooooooooo",
"ooooooooooooo XXXXXXXXXXXXXXXXXXXX ooooooooooooo",
"ooooooooooooo XX              XXXX ooooooooooooo",
"ooooooooooooo XXXXXXXXXXXXXXXXXXXX ooooooooooooo",
"ooooooooooooo XX              XXXX ooooooooooooo",
"ooooooooooooo XXXXXXXXXXXXXXXXXXXX ooooooooooooo",
"ooooooooooooo XX              XXXX ooooooooooooo",
"ooooooooooooo XXXXXXXXXXXXXXXXXXXX ooooooooooooo",
"ooooooooooooo XXXXXXXXXXXXXXX   XX ooooooooooooo",
"ooooooooooooo XXXXXXXXXXXXXX  XXXX ooooooooooooo",
"ooooooooooooo XXXXXXXXXXXXXXXXXXXX ooooooooooooo",
"ooooooooooooo                      ooooooooooooo",
"oooooooooooooooooooooooooooooooooooooooooooooooo",
"oooooooooooooooooooooooooooooooooooooooooooooooo",
"oooooooooooooooooooooooooooooooooooooooooooooooo",
"oooooooooooooooooooooooooooooooooooooooooooooooo",
"oooooooooooooooooooooooooooooooooooooooooooooooo",
"oooooooooooooooooooooooooooooooooooooooooooooooo",
"oooooooooooooooooooooooooooooooooooooooooooooooo",
"oooooooooooooooooooooooooooooooooooooooooooooooo",
"oooooooooooooooooooooooooooooooooooooooooooooooo",
"oooooooooooooooooooooooooooooooooooooooooooooooo",
"oooooooooooooooooooooooooooooooooooooooooooooooo",
"oooooooooooooooooooooooooooooooooooooooooooooooo"
};
