/* XPM */
static char *result[] = {
/* columns rows colors chars-per-pixel */
"80 80 7 1 ",
"  c black",
". c #1E1D1F",
"X c #2E2E2F",
"o c #5C565B",
"O c #A09DA3",
"+ c #C1BCC4",
"@ c #D1C5CF",
/* pixels */
"oooooooooooooooooooooooooooooooooooooooooooooooooooooooooooooooooooooooooooooooo",
"o@@@@@@@@@@@@@@@@@@@@@@@@@@@@@@@@@@@@@@@@@@@@@@@@@@@@@@@@@@@@@@@@@@@@@@@@@@@@@@o",
"o@@@@@@@@@@@@@@@@@@@@@@@@@@@@@@@@@@@@@@@@@@@@@@@@@@@@@@@@@@@@@@@@@@@@@@@@@@@@@@o",
"o@@@@@@@@@@@@@@@@@@@@@@@@@@@@@@@@@@@@@@@@@@@@@@@@@@@@@@@@@@@@@@@@@@@@@@@@@@@@@@o",
"o@@@@@@@@@@@@@@@@@@@@@@@@@@@@@@@@@@@@@@@@@@@@@@@@@@@@@@@@@@@@@@@@@@@@@@@@@@@@@@o",
"o@@@@@@@@@@@@@@@@@@@@@@@@@@@@@@@@@@@@@@@@@@@@@@@@@@@@@@@@@@@@@@@@@@@@@@@@@@@@@@o",
"o@@@@@@@@@@@@@@@@@@@@@@@@@@@@@@@@@@@@@@@@@@@@@@@@@@@@@@@@@@@@@@@@@@@@@@@@@@@@@@o",
"o@@@@@@@@@@@@@@@@@@@@@@@@@@@@@@@@@@@@@@@@@@@@@@@@@@@@@@@@@@@@@@@@@@@@@@@@@@@@@@o",
"o@@@@@@@@@@@@@@@@@@@@@@@@@@@@@@@@@@@@@@@@@@@@@@@@@@@@@@@@@@@@@@@@@@@@@@@@@@@@@@o",
"o@@@@@@@@@@@@@@@@@@@@@@@@@@@@@@@@@@@@@@@@@@@@@@@@@@@@@@@@@@@@@@@@@@@@@@@@@@@@@@o",
"o@@@@@@@@@@@@@@@@@@@@@@@@@@@@@@@@@@@@@@@@@@@@@@@@@@@@@@@@@@@@@@@@@@@@@@@@@@@@@@o",
"o@@@@@@@@@@@@@@@@@@@@@@@@@@@@@@@@@@@@@@@@@@@@@@@@@@@@@@@@@@@@@@@@@@@@@@@@@@@@@@o",
"o@@@@@@@@@@@@@@@@@@@@@@@@@@@@@@@@@@@@@@@@@@@@@@@@@@@@@@@@@@@@@@@@@@@@@@@@@@@@@@o",
"o@@@@@@@@@@@@@@@@@@@@@@@@@@@@@@@@@@@@@@@@@@@@@@@@@@@@@@@@@@@@@@@@@@@@@@@@@@@@@@o",
"o@@@@@@@@@@@@@@@@@@@@@@@@@@@@@@@@@@@@@@@@@@@@@@@@@@@@@@@@@@@@@@@@@@@@@@@@@@@@@@o",
"o@@@@@@@@@@@@@@@@@@@@@@@@@@@@@@@@@@@@@@@@@@@@@@@@@@@@@@@@@@@@@@@@@@@@@@@@@@@@@@o",
"o@@@@@@@@@@@@@@@@@@@@@@@@@@@@@@@@@@@@@@@@@@@@@@@@@@@@@@@@@@@@@@@@@@@@@@@@@@@@@@o",
"o@@@@@@@@@@@@@@@@@@@@                          @@@@@@@@@@@@@@@@@@@@@@@@@@@@@@@@o",
"o@@@@@@@@@@@@@@@@@@@@                           @@@@@@@@@@@@@@@@@@@@@@@@@@@@@@@o",
"o@@@@@@@@@@@@@@@@@@@@  ................... XXX   @@@@@@@@@@@@@@@@@@@@@@@@@@@@@@o",
"o@@@@@@@@@@@@@@@@@@@@  .+++++++++++++++++. XOO    @@@@@@@@@@@@@@@@@@@@@@@@@@@@@o",
"o@@@@@@@@@@@@@@@@@@@@  .+++++++++++++++++. XOOOX   @@@@@@@@@@@@@@@@@@@@@@@@@@@@o",
"o@@@@@@@@@@@@@@@@@@@@  .+++++++++++++++++. XOOOOX   @@@@@@@@@@@@@@@@@@@@@@@@@@@o",
"o@@@@@@@@@@@@@@@@@@@@  .+++++++++++++++++. XOOOOOX   @@@@@@@@@@@@@@@@@@@@@@@@@@o",
"o@@@@@@@@@@@@@@@@@@@@  .+++++++++++++++++. XOOOOOOX   @@@@@@@@@@@@@@@@@@@@@@@@@o",
"o@@@@@@@@@@@@@@@@@@@@  .++.............++. XOOOOOOOX   @@@@@@@@@@@@@@@@@@@@@@@@o",
"o@@@@@@@@@@@@@@@@@@@@  .++.           .++. XOOOOOOOO  X @@@@@@@@@@@@@@@@@@@@@@@o",
"o@@@@@@@@@@@@@@@@@@@@  .++.           .++. XOOOOOOOOO    @@@@@@@@@@@@@@@@@@@@@@o",
"o@@@@@@@@@@@@@@@@@@@@  .++.           .++. XOOOOOOOOOO X @@@@@@@@@@@@@@@@@@@@@@o",
"o@@@@@@@@@@@@@@@@@@@@  .++.           .++. XOOOOOOOOOOOXX @@@@@@@@@@@@@@@@@@@@@o",
"o@@@@@@@@@@@@@@@@@@@@  .++.           .++. XOOOOOOOOOOOOX  @@@@@@@@@@@@@@@@@@@@o",
"o@@@@@@@@@@@@@@@@@@@@  .++.           .++. XXXXXXXXXXXXXX  @@@@@@@@@@@@@@@@@@@@o",
"o@@@@@@@@@@@@@@@@@@@@  .++.           .++.                 @@@@@@@@@@@@@@@@@@@@o",
"o@@@@@@@@@@@@@@@@@@@@  .++.............++................  @@@@@@@@@@@@@@@@@@@@o",
"o@@@@@@@@@@@@@@@@@@@@  .++++++++++++++++++++++++++++++++.  @@@@@@@@@@@@@@@@@@@@o",
"o@@@@@@@@@@@@@@@@@@@@  .++++++++++++++++++++++++++++++++.  @@@@@@@@@@@@@@@@@@@@o",
"o@@@@@@@@@@@@@@@@@@@@  .++++++++++++++++++++++++++++++++.  @@@@@@@@@@@@@@@@@@@@o",
"o@@@@@@@@@@@@@@@@@@@@  .++++++++++++++++++++++++++++++++.  @@@@@@@@@@@@@@@@@@@@o",
"o@@@@@@@@@@@@@@@@@@@@  .++++++++++++++++++++++++++++++++.  @@@@@@@@@@@@@@@@@@@@o",
"o@@@@@@@@@@@@@@@@@@@@  .++.........+++++++++++++++++++++.  @@@@@@@@@@@@@@@@@@@@o",
"o@@@@@@@@@@@@@@@@@@@@  .++.........+++++++++++++++++++++.  @@@@@@@@@@@@@@@@@@@@o",
"o@@@@@@@@@@@@@@@@@@@@  .++++++++++++++++++++++++++++++++.  @@@@@@@@@@@@@@@@@@@@o",
"o@@@@@@@@@@@@@@@@@@@@  .++..........................++++.  @@@@@@@@@@@@@@@@@@@@o",
"o@@@@@@@@@@@@@@@@@@@@  .++.                        .++++.  @@@@@@@@@@@@@@@@@@@@o",
"o@@@@@@@@@@@@@@@@@@@@  .++..........................++++.  @@@@@@@@@@@@@@@@@@@@o",
"o@@@@@@@@@@@@@@@@@@@@  .++++++++++++++++++++++++++++++++.  @@@@@@@@@@@@@@@@@@@@o",
"o@@@@@@@@@@@@@@@@@@@@  .++..........................++++.  @@@@@@@@@@@@@@@@@@@@o",
"o@@@@@@@@@@@@@@@@@@@@  .++.                        .++++.  @@@@@@@@@@@@@@@@@@@@o",
"o@@@@@@@@@@@@@@@@@@@@  .++..........................++++.  @@@@@@@@@@@@@@@@@@@@o",
"o@@@@@@@@@@@@@@@@@@@@  .++++++++++++++++++++++++++++++++.  @@@@@@@@@@@@@@@@@@@@o",
"o@@@@@@@@@@@@@@@@@@@@  .++..........................++++.  @@@@@@@@@@@@@@@@@@@@o",
"o@@@@@@@@@@@@@@@@@@@@  .++.                        .++++.  @@@@@@@@@@@@@@@@@@@@o",
"o@@@@@@@@@@@@@@@@@@@@  .++..........................++++.  @@@@@@@@@@@@@@@@@@@@o",
"o@@@@@@@@@@@@@@@@@@@@  .++++++++++++++++++++++++++++++++.  @@@@@@@@@@@@@@@@@@@@o",
"o@@@@@@@@@@@@@@@@@@@@  .++++++++++++++++++++++++++++++++.  @@@@@@@@@@@@@@@@@@@@o",
"o@@@@@@@@@@@@@@@@@@@@  .++++++++++++++++++++++++++....++.  @@@@@@@@@@@@@@@@@@@@o",
"o@@@@@@@@@@@@@@@@@@@@  .++++++++++++++++++++++....++++++.  @@@@@@@@@@@@@@@@@@@@o",
"o@@@@@@@@@@@@@@@@@@@@  .++++++++++++++++++++++++++++++++.  @@@@@@@@@@@@@@@@@@@@o",
"o@@@@@@@@@@@@@@@@@@@@  .++++++++++++++++++++++++++++++++.  @@@@@@@@@@@@@@@@@@@@o",
"o@@@@@@@@@@@@@@@@@@@@  .++++++++++++++++++++++++++++++++.  @@@@@@@@@@@@@@@@@@@@o",
"o@@@@@@@@@@@@@@@@@@@@  ..................................  @@@@@@@@@@@@@@@@@@@@o",
"o@@@@@@@@@@@@@@@@@@@@                                      @@@@@@@@@@@@@@@@@@@@o",
"o@@@@@@@@@@@@@@@@@@@@                                      @@@@@@@@@@@@@@@@@@@@o",
"o@@@@@@@@@@@@@@@@@@@@@@@@@@@@@@@@@@@@@@@@@@@@@@@@@@@@@@@@@@@@@@@@@@@@@@@@@@@@@@o",
"o@@@@@@@@@@@@@@@@@@@@@@@@@@@@@@@@@@@@@@@@@@@@@@@@@@@@@@@@@@@@@@@@@@@@@@@@@@@@@@o",
"o@@@@@@@@@@@@@@@@@@@@@@@@@@@@@@@@@@@@@@@@@@@@@@@@@@@@@@@@@@@@@@@@@@@@@@@@@@@@@@o",
"o@@@@@@@@@@@@@@@@@@@@@@@@@@@@@@@@@@@@@@@@@@@@@@@@@@@@@@@@@@@@@@@@@@@@@@@@@@@@@@o",
"o@@@@@@@@@@@@@@@@@@@@@@@@@@@@@@@@@@@@@@@@@@@@@@@@@@@@@@@@@@@@@@@@@@@@@@@@@@@@@@o",
"o@@@@@@@@@@@@@@@@@@@@@@@@@@@@@@@@@@@@@@@@@@@@@@@@@@@@@@@@@@@@@@@@@@@@@@@@@@@@@@o",
"o@@@@@@@@@@@@@@@@@@@@@@@@@@@@@@@@@@@@@@@@@@@@@@@@@@@@@@@@@@@@@@@@@@@@@@@@@@@@@@o",
"o@@@@@@@@@@@@@@@@@@@@@@@@@@@@@@@@@@@@@@@@@@@@@@@@@@@@@@@@@@@@@@@@@@@@@@@@@@@@@@o",
"o@@@@@@@@@@@@@@@@@@@@@@@@@@@@@@@@@@@@@@@@@@@@@@@@@@@@@@@@@@@@@@@@@@@@@@@@@@@@@@o",
"o@@@@@@@@@@@@@@@@@@@@@@@@@@@@@@@@@@@@@@@@@@@@@@@@@@@@@@@@@@@@@@@@@@@@@@@@@@@@@@o",
"o@@@@@@@@@@@@@@@@@@@@@@@@@@@@@@@@@@@@@@@@@@@@@@@@@@@@@@@@@@@@@@@@@@@@@@@@@@@@@@o",
"o@@@@@@@@@@@@@@@@@@@@@@@@@@@@@@@@@@@@@@@@@@@@@@@@@@@@@@@@@@@@@@@@@@@@@@@@@@@@@@o",
"o@@@@@@@@@@@@@@@@@@@@@@@@@@@@@@@@@@@@@@@@@@@@@@@@@@@@@@@@@@@@@@@@@@@@@@@@@@@@@@o",
"o@@@@@@@@@@@@@@@@@@@@@@@@@@@@@@@@@@@@@@@@@@@@@@@@@@@@@@@@@@@@@@@@@@@@@@@@@@@@@@o",
"o@@@@@@@@@@@@@@@@@@@@@@@@@@@@@@@@@@@@@@@@@@@@@@@@@@@@@@@@@@@@@@@@@@@@@@@@@@@@@@o",
"o@@@@@@@@@@@@@@@@@@@@@@@@@@@@@@@@@@@@@@@@@@@@@@@@@@@@@@@@@@@@@@@@@@@@@@@@@@@@@@o",
"oooooooooooooooooooooooooooooooooooooooooooooooooooooooooooooooooooooooooooooooo"
};
