/* XPM */
static char *result[] = {
/* columns rows colors chars-per-pixel */
"48 48 16 1 ",
"  c black",
". c #E53900",
"X c #9E0057",
"o c #40A100",
"O c #00B06C",
"+ c #FF8C06",
"@ c #91C100",
"# c #A7FF09",
"$ c #EDC400",
"% c #004DB0",
"& c #6200C4",
"* c #9C7BFF",
"= c #0088A4",
"- c #00BCA7",
"; c #FFEBD7",
": c None",
/* pixels */
":::::::::                            :::::::::::",
":::::::  @@ooOO--==%%&&XX..++$$@@ooOO ::::::::::",
"::::::: @@ooOO--==%%&&XX..++$$@@ooOO- ::::::::::",
":::::  @@ooOO--==%%&&XX..++$$@@ooOO--=   :::::::",
"::::: @@ooOO--==%%&&XX..++$$@@ooOO--==%% :::::::",
"::::: @ooOO--==%%&&XX..++$$@@ooOO--==%%& :::::::",
"::::: ooOO--==%%&&XX..++$$@@ooOO--==%%&& :::::::",
"::::: oOO--==%%&&XX..++$$@@ooOO--==%%&&XX ::::::",
"::::  OO--==%%&&XX..++$$@@ooOO--==%%&&XX. ::::::",
":::   O--==%%&&XX..++$$@@ooOO--==%%&&XX..  :::::",
"      ;;;;;%&&XX..++$$@@oo;;;;;;%%&&XX..+      :",
" ooOO ;;;;;;;XX..++$$@@oo;;;;;;;;&&XX..+ $$@@oo ",
" oOO- ;;;;;;;X..++$$@@ooO;;;;;;;;XXX..++ $@@ooO ",
" ;;;- ;;;;;;;..++$$@@ooOO;;;;;;;;XX..++$ @;;;;O ",
" ;;;= ;;;; ;;;;+$$@@ooOO;;;;; ;;;;..++$$ @;;;;- ",
" ; ;= ;;; # ;;;;;;;;;;;;;;;; * ;;;;;;$$@ o; ;;- ",
" ;;;% ;;;; ;;;;;;;;;;;;;;;;;; ;;;;;;;$@@ o;;;;= ",
" ;;;% ;;;;;;;;;;;;;;;;;;;;;;;;;;;;;;;@@o O;;;;= ",
" %%&& ;;;;;;;;;;;;;;;;;;;;;;;;;;;;;;;@oo O--==  ",
" %&&X ;;;;;;;;;;;;;;;;;;;;;;;;;;;;;;;ooO --== ::",
" &&XX ;;;;;;;;;;;;;;;;;;;;;;;;;;;;;;;oOO -==% ::",
":     ;;;;;;;;;;;;;  ;;;;;;;;;;;;;;;;OO- =    ::",
":::::;   ;;;;;;;;;;  ;;;;;;;;;;;;;;;;O-   ::::::",
":::::::: ;;;;;;;;;;;;;;;;;;;;;;;;;;;;- :::::::::",
"::::::::; ;;;;;;;;;;;;;;;;;;;;;;;;;;  ::::::::::",
":::::::::;     ooOO--==%%&&XX..++    :::       :",
":::::::::::::: @ooOO--==%%&&XX..+ :::::  =--OOO ",
":::::::::::::: @@ooOO--==%%&&XX.. :::: %==::::o ",
"::::::::::::: $$@@ooOO--==%%&&XX. :::: %::::::o ",
":::::::::::: ++$$@@ooOO--==%%&&XX :::: &::::::@ ",
"::::::::::  ..++$$@@ooOO--==%%&&X   :: &:::::@@ ",
"::::::::: &XX..++$$@@ooOO--==%%&&XX. ::::::::$ :",
":::::::: %&&XX..+;;;;;;;;;;;;=%%&&XX :::::::$$ :",
":::::::: %%&&XX;;;;;;;;;;;;;;;=%%&&XX ::::::+ ::",
":::::::: =%%&&X;;;;;;;;;;;;;;;==%%&&X :::::++ ::",
":::::::: ==%%&&;;;;;;;;;;;;;;;-==%%&& :::::+ :::",
":::::::: -==%%&;;;;;;;;;;;;;;;--==%%& :::... :::",
":::::::: --==%%;;;;;;;;;;;;;;;O--==%% :XX.   :::",
"::::::::  --==%;;;;;  ;;;;;;;oOO--==% XX  ::::::",
":::::::::: --==%;;;;  ;;;;;;;ooOO--==   ::::::::",
"::::::::::     =;;;;;;;;;;;$@@ooO     ::::::::::",
":::::::::::::: ==%%&&XX..++$$@@oo ::::::::::::::",
":::::::::::::: -==%%&&XX..++$$@@o ::::::::::::::",
":::::::::::::: --==%         $$@  ::::::::::::::",
":::::::::::::: O--= ::::::::: $$ :::::::::::::::",
":::::::::::::: OO-- ::::::::: +$ :::::::::::::::",
":::::::::::::: o   :::::::::: ++ :::::::::::::::",
"::::::::::::::   ::::::::::::   ::::::::::::::::"
};
