/* XPM */
static char *moonkey_64x64[] = {
/* columns rows colors chars-per-pixel */
"64 61 17 1 ",
"  c black",
". c #5C565B",
"X c #E53900",
"o c #9E0057",
"O c #40A100",
"+ c #00B06C",
"@ c #FF8C06",
"# c #91C100",
"$ c #A7FF09",
"% c #EDC400",
"& c #004DB0",
"* c #6200C4",
"= c #9C7BFF",
"- c #0088A4",
"; c #00BCA7",
": c #D1C5CF",
"> c #FFEBD7",
/* pixels */
"............                                   .................",
".:::::::::   oXX@@%%##OO;;--&&**ooXX@@%%##OO++;    ::::::::::::.",
".::::::::: ooXX@@%%##OO;;--&&**ooXX@@%%##OO++;;--& ::::::::::::.",
".::::::::: oXX@@%%##OO;;--&&**ooXX@@%%##OO++;;--&& ::::::::::::.",
".::::::::: XX@@%%##OO;;--&&**ooXX@@%%##OO++;;--&&**   :::::::::.",
".::::::::: X@@%%##OO;;--&&**ooXX@@%%##OO++;;--&&**ooX :::::::::.",
".::::::::: @@%%##OO;;--&&**ooXX@@%%##OO++;;--&&**ooXX :::::::::.",
".::::::::: @%%##OO;;--&&**ooXX@@%%##OO++;;--&&**ooXX@ :::::::::.",
".::::::::: %%##OO;;--&&**ooXX@@%%##OO++;;--&&**ooXX@@ :::::::::.",
".::::::::: %##OO;;--&&**ooXX@@%%##OO++;;--&&**ooXX@@%%  :::::::.",
".:::::::: %##OO;;--&&**ooXX@@%%##OO++;;--&&**ooXX@@%%## :::::::.",
".::::::   ##OO;;--&&**ooXX@@%%##OO++;;--&&**ooXX@@%%##O :::::::.",
".       % #OO;;--&&**ooXX@@%%##OO++;;--&&**ooXX@@%%##OO        .",
". XX@@%%# >>>>>>&&**ooXX@@%%##OO++;>>>>>>>>>>>@@%%##OO++;;--&& .",
"  X@@%%## >>>>>>>>>>oXX@@%%##OO>>>>>>>>>>>>>>>@%%##OO++;;--&&* .",
" X@@%%##O >>>>>>>>>>XX@@%%##OO+>>>>>>>>>>>>>>>%%##OO++;;--&&** .",
" @@%%##OO >>>>>>>>>>X@@%%##OO++>>>>>>>>>>>>>>>%##OO++;;--&&**o .",
" >>>>>>O; >>>>  >>>>>@%%##OO++>>>>>>>  >>>>>%%##OO++;;->>>>*ooX ",
" >>>>>>;; >>> $$ >>>>%%##OO++;>>>>>> == >>>>%##OO++;;->>>>>ooXX ",
" >> >>>-- >>> $$ >>>>>>>>>>>>>>>>>>> == >>>>>>>>++;;-->> >>oXX@ ",
" >> >>>-& >>>>  >>>>>>>>>>>>>>>>>>>>>  >>>>>>>>>+;;--&>> >>XX@@ ",
" >>>>>>&& >>>>>>>>>>>>>>>>>>>>>>>>>>>>>>>>>>>>>>;;--&&>>>>>X@@% ",
" O;;--&&* >>>>>>>>>>>>>>>>>>>>>>>>>>>>>>>>>>>>>>;--&&**ooXX@@%% ",
" ;;--&&** >>>>>>>>>>>>>>>>>>>>>>>>>>>>>>>>>>>>>>--&&**ooXX@@%%# ",
" ;--&&**o >>>>>>>>>>>>>>>>>>>>>>>>>>>>>>>>>>>>>>-&&**ooXX@@%    ",
". -&&**oo >>>>>>>>>>>>>>>>>>>>>>>>>>>>>>>>>>>>>>&&**ooXX@@%% ::.",
".         >>>>>>>>>>>>>>>> >>>>>>>>>>>>>>>>>>>>>&**ooXX@     ::.",
".:::::::: >>>>>>>>>>>>>>>> >>>>>>>>>>>>>>>>>>>>>**ooXX@ :::::::.",
".:::::::: >>>>>>>>>>>>>>>> >>>>>>>>>>>>>>>>>>>>>*ooXX@@ :::::::.",
".::::::::    >>>>>>>>>>>>>>>>>>>>>>>>>>>>>>>>>>>ooXX    :::::::.",
".:::::::::::  >>>>>>>>>>>>>>>>>>>>>>>>>>>>>>>>>     :::::::::::.",
".::::::::::::>       OO++;;--&&**ooXX@@%%##OO   ::::           .",
".::::::::::::::::::: #OO++;;--&&**ooXX@@%%##O :::::  --;;;+++OO ",
".::::::::::::::::::: ##OO++;;--&&**ooXX@@%%## ::::: --::::::::O ",
".::::::::::::::::::: %##OO++;;--&&**ooXX@@%%# ::::: &:::::::::# ",
".::::::::::::::::    %%##OO++;;--&&**ooXX@@%% ::::: &:::::::::# ",
".:::::::::::::::: XX@@%%##OO++;;--&&**ooXX@@% ::::: *:::::::::# ",
".:::::::::::::::: oXX@@%%##OO++;;--&&**ooXX@@ ::::: *:::::::::% ",
".:::::::::::::    ooXX@@%%##OO++;;--&&**ooXX@   ::: o:::::::::% ",
".::::::::::::: &&**ooXX@@%%##OO++;;--&&**ooXX@@ ::: o:::::::::% ",
".::::::::::::  -&&**oo>>>>>>>>>>>>>>>>&&**ooXX@ ::::::::::::::@ ",
".:::::::::::: ;--&&**o>>>>>>>>>>>>>>>>>&&**ooXX :::::::::::XX@@ ",
".::::::::::: +;;--&&*>>>>>>>>>>>>>>>>>>>&&**ooXX   ::::::::X   .",
".::::::::::: ++;;--&&>>>>>>>>>>>>>>>>>>>-&&**ooXX@ :::::::oo ::.",
".::::::::::: O++;;--&>>>>>>>>>>>>>>>>>>>--&&**ooXX ::::::*o  ::.",
".::::::::::: OO++;;-->>>>>>>>>>>>>>>>>>>;--&&**ooX ::::::* ::::.",
".::::::::::: #OO++;;->>>>>>>>>>>>>>>>>>>;;--&&**oo :::-&&* ::::.",
".::::::::::: ##OO++;;>>>>>>>>>>>>>>>>>>>+;;--&&**o :::-    ::::.",
".::::::::::: %##OO++;;>>>>>>  >>>>>>>>OO++;;--&&** :::- :::::::.",
".:::::::::::  %##OO++;>>>>>>  >>>>>>>>#OO++;;--&&** ;;; :::::::.",
".::::::::::::  %##OO++>>>>>>>>>>>>>>>>##OO++;;--&&*     :::::::.",
".:::::::::::::       +>>>>>>>>>>>XX@@%%##OO++       :::::::::::.",
".::::::::::::::::::: O++;;--&&**ooXX@@%%##OO+ :::::::::::::::::.",
".::::::::::::::::::: OO++;;--&&**ooXX@@%%##OO :::::::::::::::::.",
".::::::::::::::::::: #OO++;;--&&**ooXX@@%%##O :::::::::::::::::.",
".::::::::::::::::::: ##OO++           X@@%    :::::::::::::::::.",
".::::::::::::::::::: %##OO ::::::::::: X@@ ::::::::::::::::::::.",
".::::::::::::::::::: %%#   ::::::::::: XX@ ::::::::::::::::::::.",
".::::::::::::::::::: @% ::::::::::::::: XX ::::::::::::::::::::.",
".::::::::::::::::::: @@ ::::::::::::::: oX ::::::::::::::::::::.",
".:::::::::::::::::::    :::::::::::::::    ::::::::::::::::::::."
};
