/* XPM */
static char *moonkey_32x32[] = {
/* columns rows colors chars-per-pixel */
"32 32 19 1 ",
"  c black",
". c #5C565B",
"X c #E53900",
"o c #9E0057",
"O c #AD0045",
"+ c #40A100",
"@ c #00B06C",
"# c #FF8C06",
"$ c #91C100",
"% c #A7FF09",
"& c #EDC400",
"* c #7A00A7",
"= c #004DB0",
"- c #6200C4",
"; c #9C7BFF",
": c #0088A4",
"> c #00BCA7",
", c #D1C5CF",
"< c #FFEBD7",
/* pixels */
"......                  ........",
".,,,,  >::==**OOXXX##&&$ ,,,,,,.",
".,,,,  >::==**OOXXX##&&$ ,,,,,,.",
".,,,, >::==**OOXXX##&&$$+  ,,,,.",
".,,,, ::==**OOXX###&&$$++@ ,,,,.",
".,,,, :==**OOXX###&&$$++@@  ,,,.",
".,,  ::=**OOXX##&&&$$++@@>> ,,,.",
".    <<<<OOXX##&<<<<<<<@>>     .",
"  >: <<<<OXX##&&<<<<<<<>>: ==- .",
" <<= << <<X##&&<<<< <<>>:: <<<  ",
"  <= < % <<<<<<<<< ; <<<:= < <* ",
" <<* << <<<<<<<<<<< <<<<== <<<o ",
" ==O <<<<<<<<<<<<<<<<<<<=- **   ",
".    <<<<<<< <<<<<<<<<<<-- o  ,.",
".,,,   <<<<< <<<<<<<<<<<-   ,,,.",
".,,,,, <<<<<<<<<<<<<<<<   ,,,,,.",
".,,,,,,   ++@@>>:::==-  ,,     .",
".,,,,,,,, $++@@>>>::== ,,  &&$  ",
".,,,,,,,, $++@@>>>::== ,,  &&$  ",
".,,,,,,,  $$++@@>>>::= ,, ##,$$ ",
".,,,,,,  &&$$++@@@>>::  , X,,@+ ",
".,,,,,  ##&<<<<<<<<>>:: ,,,,>@  ",
".,,,,,  X#<<<<<<<<<<>>:: ,,:>  .",
".,,,,, OXX<<<<<<<<<<@>>: ,=:  ,.",
".,,,,, OOX<<<<<<<<<<@@>> o-  ,,.",
".,,,,,  OOX<< <<<<<++@@>    ,,,.",
".,,,,,,   O<<<<<&&$$++    ,,,,,.",
".,,,,,,,, OOXX##&&&$$+ ,,,,,,,,.",
".,,,,,,,, *OO      &$  ,,,,,,,,.",
".,,,,,,,, *  ,,,,,, & ,,,,,,,,,.",
".,,,,,,,, = ,,,,,,, # ,,,,,,,,,.",
".........   .......   .........."
};
