/* XPM */
static char *result[] = {
/* columns rows colors chars-per-pixel */
"80 80 16 1 ",
"  c black",
". c #E53900",
"X c #9E0057",
"o c #40A100",
"O c #00B06C",
"+ c #FF8C06",
"@ c #91C100",
"# c #A7FF09",
"$ c #EDC400",
"% c #004DB0",
"& c #6200C4",
"* c #9C7BFF",
"= c #0088A4",
"- c #00BCA7",
"; c #FFEBD7",
": c None",
/* pixels */
":::::::::::::::                                            :::::::::::::::::::::",
"::::::::::::    X...++$$$@@ooo--===%%&&&XX...++$$$@@oooOO--     ::::::::::::::::",
"::::::::::::  XX...++$$$@@ooo--===%%&&&XX...++$$$@@oooOO---==%  ::::::::::::::::",
":::::::::::: XXX...++$$$@@ooo--===%%&&&XX...++$$$@@oooOO---==%  ::::::::::::::::",
":::::::::::: XX..+++$$@@@oo---==%%%&&XXX..+++$$@@@ooOOO--===%%  ::::::::::::::::",
":::::::::::: X..+++$$@@@oo---==%%%&&XXX..+++$$@@@ooOOO--===%%&&&   :::::::::::::",
":::::::::::: ..++$$$@@ooo--===%%&&&XX...++$$$@@oooOO---==%%%&&XXX. :::::::::::::",
":::::::::::: .++$$$@@ooo--===%%&&&XX...++$$$@@oooOO---==%%%&&XXX.. :::::::::::::",
":::::::::::: +++$$$@@ooo--===%%&&&XX...++$$$@@oooOO---==%%%&&XXX.. :::::::::::::",
":::::::::::: ++$$@@@oo---==%%%&&XXX..+++$$@@@ooOOO--===%%&&&XX...+ :::::::::::::",
":::::::::::: $$$$@@@oo---==%%%&&XXX..+++$$@@@ooOOO--===%%&&&XX...+ :::::::::::::",
":::::::::::: $$$@@@oo---==%%%&&XXX..+++$$@@@ooOOO--===%%&&&XX...++ :::::::::::::",
":::::::::::: $$@@ooo--===%%&&&XX...++$$$@@oooOO---==%%%&&XXX..+++$$   ::::::::::",
"::::::::::: $$@@ooo--===%%&&&XX...++$$$@@oooOO---==%%%&&XXX..+++$$@@@ ::::::::::",
"::::::::::: $$@@ooo--===%%&&&XX...++$$$@@oooOO---==%%%&&XXX..+++$$@@@ ::::::::::",
":::::::::   @@@oo---==%%%&&XXX..+++$$@@@ooOOO--===%%&&&XX...++$$$@@oo ::::::::::",
":         $ @@oo---==%%%&&XXX..+++$$@@@ooOOO--===%%&&&XX...++$$$@@ooo          :",
": ...++$$$@ ;;;;;;;;%%&&&XX...++$$$@@oooOO--;;;;;;;;;;;;;+++$$@@@ooOOO--===%%  :",
"  ..++$$$@@ ;;;;;;;;;;;;;X...++$$$@@ooo;;;;;;;;;;;;;;;;;;++$$@@@ooOOO--===%%&  :",
"  ..++$$$@@ ;;;;;;;;;;;;;X...++$$$@@ooo;;;;;;;;;;;;;;;;;;++$$@@@ooOOO--===%%&  :",
" .+++$$@@@o ;;;;;;;;;;;;;..+++$$@@@ooOO;;;;;;;;;;;;;;;;;;$$$@@oooOO---==%%%&&  :",
" +++$$@@@oo ;;;;;;;;;;;;;.+++$$@@@ooOOO;;;;;;;;;;;;;;;;;;$$@@oooOO---==%%%&&X  :",
" ;;;;;;;;o- ;;;;;   ;;;;;;+$$$@@oooOO;;;;;;;;;   ;;;;;;$$@@@ooOOO--==;;;;;&XX.. ",
" ;;;;;;;;-- ;;;; ### ;;;;;$$$@@oooOO-;;;;;;;; *** ;;;;;$@@@ooOOO--=;;;;;;;XX... ",
" ;;;;;;;;-- ;;;; ### ;;;;;$$$@@oooOO-;;;;;;;; *** ;;;;;$@@@ooOOO--=;;;;;;;XX... ",
" ;;; ;;;;== ;;;; ### ;;;;;;;;;;;;;;;;;;;;;;;; *** ;;;;;;;;;;OO---==;;; ;;;X..++ ",
" ;;; ;;;;=% ;;;;;   ;;;;;;;;;;;;;;;;;;;;;;;;;;   ;;;;;;;;;;;O---==%;;; ;;;..+++ ",
" ;;;;;;;;%% ;;;;;;;;;;;;;;;;;;;;;;;;;;;;;;;;;;;;;;;;;;;;;;;;--===%%;;;;;;;.++$$ ",
" o---==%%%& ;;;;;;;;;;;;;;;;;;;;;;;;;;;;;;;;;;;;;;;;;;;;;;;;-===%%&&&XX...++$$$ ",
" o---==%%%& ;;;;;;;;;;;;;;;;;;;;;;;;;;;;;;;;;;;;;;;;;;;;;;;;-===%%&&&XX...++$$$ ",
" o---==%%%& ;;;;;;;;;;;;;;;;;;;;;;;;;;;;;;;;;;;;;;;;;;;;;;;;-===%%&&&XX...++$$$ ",
" ---==%%%&& ;;;;;;;;;;;;;;;;;;;;;;;;;;;;;;;;;;;;;;;;;;;;;;;;==%%%&&XXX..+++$$@@ ",
" -===%%&&&X ;;;;;;;;;;;;;;;;;;;;;;;;;;;;;;;;;;;;;;;;;;;;;;;;=%%%&&XXX..+++$     ",
": ==%%&&&XX ;;;;;;;;;;;;;;;;;;;;;;;;;;;;;;;;;;;;;;;;;;;;;;;;%%&&&XX...++$$$ ::::",
":           ;;;;;;;;;;;;;;;;;;;;  ;;;;;;;;;;;;;;;;;;;;;;;;;;%&&&XX...+      ::::",
":           ;;;;;;;;;;;;;;;;;;;;  ;;;;;;;;;;;;;;;;;;;;;;;;;;%&&&XX...+      ::::",
"::::::::::: ;;;;;;;;;;;;;;;;;;;;  ;;;;;;;;;;;;;;;;;;;;;;;;;;&&XXX..++ ::::::::::",
"::::::::::: ;;;;;;;;;;;;;;;;;;;;  ;;;;;;;;;;;;;;;;;;;;;;;;;;&XXX..+++ ::::::::::",
":::::::::::     ;;;;;;;;;;;;;;;;;;;;;;;;;;;;;;;;;;;;;;;;;;;;XX...     ::::::::::",
":::::::::::::::  ;;;;;;;;;;;;;;;;;;;;;;;;;;;;;;;;;;;;;;;;;;      :::::::::::::::",
":::::::::::::::  ;;;;;;;;;;;;;;;;;;;;;;;;;;;;;;;;;;;;;;;;;;      :::::::::::::::",
"::::::::::::::::;         oooOO---==%%%&&XXX..+++$$@@@oo    :::::              :",
"::::::::::::::::::::::::: @oooOO---==%%%&&XXX..+++$$@@@o :::::::  ===---OOOOooo ",
"::::::::::::::::::::::::: @@@ooOOO--===%%&&&XX...++$$$@@ ::::::: ==::::::::::oo ",
"::::::::::::::::::::::::: $@@@ooOOO--===%%&&&XX...++$$$@ ::::::: %:::::::::::@@ ",
"::::::::::::::::::::::::: $@@@ooOOO--===%%&&&XX...++$$$@ ::::::: %:::::::::::@@ ",
":::::::::::::::::::::     $$$@@oooOO---==%%%&&XXX..+++$$ ::::::: %:::::::::::@@ ",
"::::::::::::::::::::: ...++$$$@@oooOO---==%%%&&XXX..+++$ ::::::: &:::::::::::@@ ",
"::::::::::::::::::::: XX..+++$$@@@ooOOO--===%%&&&XX...++ ::::::: &:::::::::::$$ ",
":::::::::::::::::     XXX..+++$$@@@ooOOO--===%%&&&XX...+    :::: X:::::::::::$$ ",
":::::::::::::::::     XXX..+++$$@@@ooOOO--===%%&&&XX...+    :::: X:::::::::::$$ ",
":::::::::::::::::     XXX..+++$$@@@ooOOO--===%%&&&XX...+    :::: X:::::::::::$$ ",
":::::::::::::::::  %%&&&XX...++$$$@@oooOO---==%%%&&XXX..+++ :::: X:::::::::::$$ ",
"::::::::::::::::   =%%&&&XX;;;;;;;;;;;;;;;;;;;;%%%&&XXX..++ :::::::::::::::::++ ",
":::::::::::::::: --==%%%&&X;;;;;;;;;;;;;;;;;;;;;;%%&&&XX... ::::::::::::::..+++ ",
"::::::::::::::: O---==%%%&;;;;;;;;;;;;;;;;;;;;;;;;%%&&&XX...    ::::::::::.    :",
"::::::::::::::: O---==%%%&;;;;;;;;;;;;;;;;;;;;;;;;%%&&&XX...    ::::::::::.    :",
"::::::::::::::: OOO--===%%;;;;;;;;;;;;;;;;;;;;;;;;=%%%&&XXX..+  ::::::::XXX ::::",
"::::::::::::::: oOOO--===%;;;;;;;;;;;;;;;;;;;;;;;;==%%%&&XXX..  :::::::&XX  ::::",
"::::::::::::::: oooOO---==;;;;;;;;;;;;;;;;;;;;;;;;-===%%&&&XX.  :::::::&  ::::::",
"::::::::::::::: @oooOO---=;;;;;;;;;;;;;;;;;;;;;;;;--===%%&&&XX  :::==%%&  ::::::",
"::::::::::::::: @oooOO---=;;;;;;;;;;;;;;;;;;;;;;;;--===%%&&&XX  :::==%%&  ::::::",
"::::::::::::::: @@@ooOOO--;;;;;;;;;;;;;;;;;;;;;;;;O---==%%%&&X  :::==     ::::::",
"::::::::::::::: $@@@ooOOO--;;;;;;;;  ;;;;;;;;;;oooOO---==%%%&&  :::== ::::::::::",
":::::::::::::::  $$@@oooOO-;;;;;;;;  ;;;;;;;;;;@@ooOOO--===%%&&& ---- ::::::::::",
"::::::::::::::::   $@@oooOO;;;;;;;;;;;;;;;;;;;;@@@ooOOO--===%%&&      ::::::::::",
"::::::::::::::::   $@@oooOO;;;;;;;;;;;;;;;;;;;;@@@ooOOO--===%%&&      ::::::::::",
":::::::::::::::::         O;;;;;;;;;;;;;;...++$$$@@oooOO         :::::::::::::::",
"::::::::::::::::::::::::: oOOO--===%%&&&XX...++$$$@@oooO :::::::::::::::::::::::",
"::::::::::::::::::::::::: oooOO---==%%%&&XXX..+++$$@@@oo :::::::::::::::::::::::",
"::::::::::::::::::::::::: oooOO---==%%%&&XXX..+++$$@@@oo :::::::::::::::::::::::",
"::::::::::::::::::::::::: @oooOO---==%%%&&XXX..+++$$@@@o :::::::::::::::::::::::",
"::::::::::::::::::::::::: @oooOO---==%%%&&XXX..+++$$@@@o :::::::::::::::::::::::",
"::::::::::::::::::::::::: @@@ooOOO             ..++$     :::::::::::::::::::::::",
"::::::::::::::::::::::::: $@@@oo  :::::::::::::  .++  ::::::::::::::::::::::::::",
"::::::::::::::::::::::::: $$$@    :::::::::::::  ..+  ::::::::::::::::::::::::::",
"::::::::::::::::::::::::: +$$ ::::::::::::::::::: ..  ::::::::::::::::::::::::::",
"::::::::::::::::::::::::: +$$ ::::::::::::::::::: ..  ::::::::::::::::::::::::::",
"::::::::::::::::::::::::: +++ ::::::::::::::::::: X.  ::::::::::::::::::::::::::",
":::::::::::::::::::::::::     :::::::::::::::::::     ::::::::::::::::::::::::::"
};
