/* XPM */
static char *moonkey_80x80[] = {
/* columns rows colors chars-per-pixel */
"80 80 17 1 ",
"  c black",
". c #5C565B",
"X c #E53900",
"o c #9E0057",
"O c #40A100",
"+ c #00B06C",
"@ c #FF8C06",
"# c #91C100",
"$ c #A7FF09",
"% c #EDC400",
"& c #004DB0",
"* c #6200C4",
"= c #9C7BFF",
"- c #0088A4",
"; c #00BCA7",
": c #D1C5CF",
"> c #FFEBD7",
/* pixels */
"...............                                            .....................",
".:::::::::::    oXXX@@%%%##OOO;;---&&***ooXXX@@%%%##OOO++;;     :::::::::::::::.",
".:::::::::::  ooXXX@@%%%##OOO;;---&&***ooXXX@@%%%##OOO++;;;--&  :::::::::::::::.",
".::::::::::: oooXXX@@%%%##OOO;;---&&***ooXXX@@%%%##OOO++;;;--&  :::::::::::::::.",
".::::::::::: ooXX@@@%%###OO;;;--&&&**oooXX@@@%%###OO+++;;---&&  :::::::::::::::.",
".::::::::::: oXX@@@%%###OO;;;--&&&**oooXX@@@%%###OO+++;;---&&***   ::::::::::::.",
".::::::::::: XX@@%%%##OOO;;---&&***ooXXX@@%%%##OOO++;;;--&&&**oooX ::::::::::::.",
".::::::::::: X@@%%%##OOO;;---&&***ooXXX@@%%%##OOO++;;;--&&&**oooXX ::::::::::::.",
".::::::::::: @@@%%%##OOO;;---&&***ooXXX@@%%%##OOO++;;;--&&&**oooXX ::::::::::::.",
".::::::::::: @@%%###OO;;;--&&&**oooXX@@@%%###OO+++;;---&&***ooXXX@ ::::::::::::.",
".::::::::::: %%%%###OO;;;--&&&**oooXX@@@%%###OO+++;;---&&***ooXXX@ ::::::::::::.",
".::::::::::: %%%###OO;;;--&&&**oooXX@@@%%###OO+++;;---&&***ooXXX@@ ::::::::::::.",
".::::::::::: %%##OOO;;---&&***ooXXX@@%%%##OOO++;;;--&&&**oooXX@@@%%   :::::::::.",
".:::::::::: %%##OOO;;---&&***ooXXX@@%%%##OOO++;;;--&&&**oooXX@@@%%### :::::::::.",
".:::::::::: %%##OOO;;---&&***ooXXX@@%%%##OOO++;;;--&&&**oooXX@@@%%### :::::::::.",
".::::::::   ###OO;;;--&&&**oooXX@@@%%###OO+++;;---&&***ooXXX@@%%%##OO :::::::::.",
".         % ##OO;;;--&&&**oooXX@@@%%###OO+++;;---&&***ooXXX@@%%%##OOO          .",
". XXX@@%%%# >>>>>>>>&&***ooXXX@@%%%##OOO++;;>>>>>>>>>>>>>@@@%%###OO+++;;---&&  .",
"  XX@@%%%## >>>>>>>>>>>>>oXXX@@%%%##OOO>>>>>>>>>>>>>>>>>>@@%%###OO+++;;---&&*  .",
"  XX@@%%%## >>>>>>>>>>>>>oXXX@@%%%##OOO>>>>>>>>>>>>>>>>>>@@%%###OO+++;;---&&*  .",
" X@@@%%###O >>>>>>>>>>>>>XX@@@%%###OO++>>>>>>>>>>>>>>>>>>%%%##OOO++;;;--&&&**  .",
" @@@%%###OO >>>>>>>>>>>>>X@@@%%###OO+++>>>>>>>>>>>>>>>>>>%%##OOO++;;;--&&&**o  .",
" >>>>>>>>O; >>>>>   >>>>>>@%%%##OOO++>>>>>>>>>   >>>>>>%%###OO+++;;-->>>>>*ooXX ",
" >>>>>>>>;; >>>> $$$ >>>>>%%%##OOO++;>>>>>>>> === >>>>>%###OO+++;;->>>>>>>ooXXX ",
" >>>>>>>>;; >>>> $$$ >>>>>%%%##OOO++;>>>>>>>> === >>>>>%###OO+++;;->>>>>>>ooXXX ",
" >>> >>>>-- >>>> $$$ >>>>>>>>>>>>>>>>>>>>>>>> === >>>>>>>>>>++;;;-->>> >>>oXX@@ ",
" >>> >>>>-& >>>>>   >>>>>>>>>>>>>>>>>>>>>>>>>>   >>>>>>>>>>>+;;;--&>>> >>>XX@@@ ",
" >>>>>>>>&& >>>>>>>>>>>>>>>>>>>>>>>>>>>>>>>>>>>>>>>>>>>>>>>>;;---&&>>>>>>>X@@%% ",
" O;;;--&&&* >>>>>>>>>>>>>>>>>>>>>>>>>>>>>>>>>>>>>>>>>>>>>>>>;---&&***ooXXX@@%%% ",
" O;;;--&&&* >>>>>>>>>>>>>>>>>>>>>>>>>>>>>>>>>>>>>>>>>>>>>>>>;---&&***ooXXX@@%%% ",
" O;;;--&&&* >>>>>>>>>>>>>>>>>>>>>>>>>>>>>>>>>>>>>>>>>>>>>>>>;---&&***ooXXX@@%%% ",
" ;;;--&&&** >>>>>>>>>>>>>>>>>>>>>>>>>>>>>>>>>>>>>>>>>>>>>>>>--&&&**oooXX@@@%%## ",
" ;---&&***o >>>>>>>>>>>>>>>>>>>>>>>>>>>>>>>>>>>>>>>>>>>>>>>>-&&&**oooXX@@@%     ",
". --&&***oo >>>>>>>>>>>>>>>>>>>>>>>>>>>>>>>>>>>>>>>>>>>>>>>>&&***ooXXX@@%%% :::.",
".           >>>>>>>>>>>>>>>>>>>>  >>>>>>>>>>>>>>>>>>>>>>>>>>&***ooXXX@      :::.",
".           >>>>>>>>>>>>>>>>>>>>  >>>>>>>>>>>>>>>>>>>>>>>>>>&***ooXXX@      :::.",
".:::::::::: >>>>>>>>>>>>>>>>>>>>  >>>>>>>>>>>>>>>>>>>>>>>>>>**oooXX@@ :::::::::.",
".:::::::::: >>>>>>>>>>>>>>>>>>>>  >>>>>>>>>>>>>>>>>>>>>>>>>>*oooXX@@@ :::::::::.",
".::::::::::     >>>>>>>>>>>>>>>>>>>>>>>>>>>>>>>>>>>>>>>>>>>>ooXXX     :::::::::.",
".::::::::::::::  >>>>>>>>>>>>>>>>>>>>>>>>>>>>>>>>>>>>>>>>>>      ::::::::::::::.",
".::::::::::::::  >>>>>>>>>>>>>>>>>>>>>>>>>>>>>>>>>>>>>>>>>>      ::::::::::::::.",
".:::::::::::::::>         OOO++;;;--&&&**oooXX@@@%%###OO    :::::              .",
".:::::::::::::::::::::::: #OOO++;;;--&&&**oooXX@@@%%###O :::::::  ---;;;++++OOO ",
".:::::::::::::::::::::::: ###OO+++;;---&&***ooXXX@@%%%## ::::::: --::::::::::OO ",
".:::::::::::::::::::::::: %###OO+++;;---&&***ooXXX@@%%%# ::::::: &:::::::::::## ",
".:::::::::::::::::::::::: %###OO+++;;---&&***ooXXX@@%%%# ::::::: &:::::::::::## ",
".::::::::::::::::::::     %%%##OOO++;;;--&&&**oooXX@@@%% ::::::: &:::::::::::## ",
".:::::::::::::::::::: XXX@@%%%##OOO++;;;--&&&**oooXX@@@% ::::::: *:::::::::::## ",
".:::::::::::::::::::: ooXX@@@%%###OO+++;;---&&***ooXXX@@ ::::::: *:::::::::::%% ",
".::::::::::::::::     oooXX@@@%%###OO+++;;---&&***ooXXX@    :::: o:::::::::::%% ",
".::::::::::::::::     oooXX@@@%%###OO+++;;---&&***ooXXX@    :::: o:::::::::::%% ",
".::::::::::::::::     oooXX@@@%%###OO+++;;---&&***ooXXX@    :::: o:::::::::::%% ",
".::::::::::::::::  &&***ooXXX@@%%%##OOO++;;;--&&&**oooXX@@@ :::: o:::::::::::%% ",
".:::::::::::::::   -&&***oo>>>>>>>>>>>>>>>>>>>>&&&**oooXX@@ :::::::::::::::::@@ ",
".::::::::::::::: ;;--&&&**o>>>>>>>>>>>>>>>>>>>>>>&&***ooXXX ::::::::::::::XX@@@ ",
".:::::::::::::: +;;;--&&&*>>>>>>>>>>>>>>>>>>>>>>>>&&***ooXXX    ::::::::::X    .",
".:::::::::::::: +;;;--&&&*>>>>>>>>>>>>>>>>>>>>>>>>&&***ooXXX    ::::::::::X    .",
".:::::::::::::: +++;;---&&>>>>>>>>>>>>>>>>>>>>>>>>-&&&**oooXX@  ::::::::ooo :::.",
".:::::::::::::: O+++;;---&>>>>>>>>>>>>>>>>>>>>>>>>--&&&**oooXX  :::::::*oo  :::.",
".:::::::::::::: OOO++;;;-->>>>>>>>>>>>>>>>>>>>>>>>;---&&***ooX  :::::::*  :::::.",
".:::::::::::::: #OOO++;;;->>>>>>>>>>>>>>>>>>>>>>>>;;---&&***oo  :::--&&*  :::::.",
".:::::::::::::: #OOO++;;;->>>>>>>>>>>>>>>>>>>>>>>>;;---&&***oo  :::--&&*  :::::.",
".:::::::::::::: ###OO+++;;>>>>>>>>>>>>>>>>>>>>>>>>+;;;--&&&**o  :::--     :::::.",
".:::::::::::::: %###OO+++;;>>>>>>>>  >>>>>>>>>>OOO++;;;--&&&**  :::-- :::::::::.",
".::::::::::::::  %%##OOO++;>>>>>>>>  >>>>>>>>>>##OO+++;;---&&*** ;;;; :::::::::.",
".:::::::::::::::   %##OOO++>>>>>>>>>>>>>>>>>>>>###OO+++;;---&&**      :::::::::.",
".:::::::::::::::   %##OOO++>>>>>>>>>>>>>>>>>>>>###OO+++;;---&&**      :::::::::.",
".::::::::::::::::         +>>>>>>>>>>>>>>XXX@@%%%##OOO++         ::::::::::::::.",
".:::::::::::::::::::::::: O+++;;---&&***ooXXX@@%%%##OOO+ ::::::::::::::::::::::.",
".:::::::::::::::::::::::: OOO++;;;--&&&**oooXX@@@%%###OO ::::::::::::::::::::::.",
".:::::::::::::::::::::::: OOO++;;;--&&&**oooXX@@@%%###OO ::::::::::::::::::::::.",
".:::::::::::::::::::::::: #OOO++;;;--&&&**oooXX@@@%%###O ::::::::::::::::::::::.",
".:::::::::::::::::::::::: #OOO++;;;--&&&**oooXX@@@%%###O ::::::::::::::::::::::.",
".:::::::::::::::::::::::: ###OO+++             XX@@%     ::::::::::::::::::::::.",
".:::::::::::::::::::::::: %###OO  :::::::::::::  X@@  :::::::::::::::::::::::::.",
".:::::::::::::::::::::::: %%%#    :::::::::::::  XX@  :::::::::::::::::::::::::.",
".:::::::::::::::::::::::: @%% ::::::::::::::::::: XX  :::::::::::::::::::::::::.",
".:::::::::::::::::::::::: @%% ::::::::::::::::::: XX  :::::::::::::::::::::::::.",
".:::::::::::::::::::::::: @@@ ::::::::::::::::::: oX  :::::::::::::::::::::::::.",
".........................     ...................     .........................."
};
