/* XPM */
static char *result[] = {
/* columns rows colors chars-per-pixel */
"96 96 16 1 ",
"  c black",
". c #E53900",
"X c #9E0057",
"o c #40A100",
"O c #00B06C",
"+ c #FF8C06",
"@ c #91C100",
"# c #A7FF09",
"$ c #EDC400",
"% c #004DB0",
"& c #6200C4",
"* c #9C7BFF",
"= c #0088A4",
"- c #00BCA7",
"; c #FFEBD7",
": c None",
/* pixels */
"::::::::::::::::::                                                     :::::::::::::::::::::::::",
"::::::::::::::     X....++$$$$@@oooo--====%%&&&&XX....++$$$$@@ooooOO---      :::::::::::::::::::",
"::::::::::::::   XX....++$$$$@@oooo--====%%&&&&XX....++$$$$@@ooooOO----==%   :::::::::::::::::::",
"::::::::::::::   XX....++$$$$@@oooo--====%%&&&&XX....++$$$$@@ooooOO----==%   :::::::::::::::::::",
"::::::::::::::  XXX....++$$$$@@oooo--====%%&&&&XX....++$$$$@@ooooOO----==%   :::::::::::::::::::",
"::::::::::::::  XX..++++$$@@@@oo----==%%%%&&XXXX..++++$$@@@@ooOOOO--====%%   :::::::::::::::::::",
"::::::::::::::  X..++++$$@@@@oo----==%%%%&&XXXX..++++$$@@@@ooOOOO--====%%&&&&   ::::::::::::::::",
"::::::::::::::  ..++$$$$@@oooo--====%%&&&&XX....++$$$$@@ooooOO----==%%%%&&XXXX. ::::::::::::::::",
"::::::::::::::  .++$$$$@@oooo--====%%&&&&XX....++$$$$@@ooooOO----==%%%%&&XXXX.. ::::::::::::::::",
"::::::::::::::  .++$$$$@@oooo--====%%&&&&XX....++$$$$@@ooooOO----==%%%%&&XXXX.. ::::::::::::::::",
"::::::::::::::  +++$$$$@@oooo--====%%&&&&XX....++$$$$@@ooooOO----==%%%%&&XXXX.. ::::::::::::::::",
"::::::::::::::  ++$$@@@@oo----==%%%%&&XXXX..++++$$@@@@ooOOOO--====%%&&&&XX....+ ::::::::::::::::",
"::::::::::::::  $$$$@@@@oo----==%%%%&&XXXX..++++$$@@@@ooOOOO--====%%&&&&XX....+ ::::::::::::::::",
"::::::::::::::  $$$@@@@oo----==%%%%&&XXXX..++++$$@@@@ooOOOO--====%%&&&&XX....++ ::::::::::::::::",
"::::::::::::::  $$@@oooo--====%%&&&&XX....++$$$$@@ooooOO----==%%%%&&XXXX..++++$$    ::::::::::::",
"::::::::::::::  $$@@oooo--====%%&&&&XX....++$$$$@@ooooOO----==%%%%&&XXXX..++++$$    ::::::::::::",
"::::::::::::: $$$@@oooo--====%%&&&&XX....++$$$$@@ooooOO----==%%%%&&XXXX..++++$$@@@@ ::::::::::::",
"::::::::::::: $$$@@oooo--====%%&&&&XX....++$$$$@@ooooOO----==%%%%&&XXXX..++++$$@@@@ ::::::::::::",
":::::::::::   @@@@oo----==%%%%&&XXXX..++++$$@@@@ooOOOO--====%%&&&&XX....++$$$$@@ooo ::::::::::::",
":           $ @@@oo----==%%%%&&XXXX..++++$$@@@@ooOOOO--====%%&&&&XX....++$$$$@@oooo            :",
": ....++$$$$@ ;;;;;;;;;;%%&&&&XX....++$$$$@@ooooOO---;;;;;;;;;;;;;;;++++$$@@@@ooOOOO--====%%   :",
": ....++$$$$@ ;;;;;;;;;;%%&&&&XX....++$$$$@@ooooOO---;;;;;;;;;;;;;;;++++$$@@@@ooOOOO--====%%   :",
"  ...++$$$$@@ ;;;;;;;;;;;;;;;;X....++$$$$@@oooo;;;;;;;;;;;;;;;;;;;;;+++$$@@@@ooOOOO--====%%&   :",
"  ...++$$$$@@ ;;;;;;;;;;;;;;;;X....++$$$$@@oooo;;;;;;;;;;;;;;;;;;;;;+++$$@@@@ooOOOO--====%%&   :",
" .++++$$@@@@o ;;;;;;;;;;;;;;;;..++++$$@@@@ooOOO;;;;;;;;;;;;;;;;;;;;;$$$$@@ooooOO----==%%%%&&   :",
" ++++$$@@@@oo ;;;;;;;;;;;;;;;;.++++$$@@@@ooOOOO;;;;;;;;;;;;;;;;;;;;;$$$@@ooooOO----==%%%%&&X   :",
" ;;;;;;;;;;o- ;;;;;;    ;;;;;;;+$$$$@@ooooOO;;;;;;;;;;;    ;;;;;;;$$@@@@ooOOOO--===;;;;;;&XX... ",
" ;;;;;;;;;;o- ;;;;;;    ;;;;;;;+$$$$@@ooooOO;;;;;;;;;;;    ;;;;;;;$$@@@@ooOOOO--===;;;;;;&XX... ",
" ;;;;;;;;;;-- ;;;;; #### ;;;;;;$$$$@@ooooOO-;;;;;;;;;; **** ;;;;;;$@@@@ooOOOO--=;;;;;;;;;XX.... ",
" ;;;;;;;;;;-- ;;;;; #### ;;;;;;$$$$@@ooooOO-;;;;;;;;;; **** ;;;;;;$@@@@ooOOOO--=;;;;;;;;;XX.... ",
" ;;;; ;;;;;== ;;;;; #### ;;;;;;;;;;;;;;;;;;;;;;;;;;;;; **** ;;;;;;;;;;;;OO----==;;;; ;;;;X..+++ ",
" ;;;; ;;;;;=% ;;;;;;    ;;;;;;;;;;;;;;;;;;;;;;;;;;;;;;;    ;;;;;;;;;;;;;O----==%;;;; ;;;;..++++ ",
" ;;;;;;;;;;%% ;;;;;;;;;;;;;;;;;;;;;;;;;;;;;;;;;;;;;;;;;;;;;;;;;;;;;;;;;;--====%%;;;;;;;;;.++$$$ ",
" ;;;;;;;;;;%% ;;;;;;;;;;;;;;;;;;;;;;;;;;;;;;;;;;;;;;;;;;;;;;;;;;;;;;;;;;--====%%;;;;;;;;;.++$$$ ",
" o----==%%%%& ;;;;;;;;;;;;;;;;;;;;;;;;;;;;;;;;;;;;;;;;;;;;;;;;;;;;;;;;;;-====%%&&&&XX....++$$$$ ",
" o----==%%%%& ;;;;;;;;;;;;;;;;;;;;;;;;;;;;;;;;;;;;;;;;;;;;;;;;;;;;;;;;;;-====%%&&&&XX....++$$$$ ",
" o----==%%%%& ;;;;;;;;;;;;;;;;;;;;;;;;;;;;;;;;;;;;;;;;;;;;;;;;;;;;;;;;;;-====%%&&&&XX....++$$$$ ",
" ----==%%%%&& ;;;;;;;;;;;;;;;;;;;;;;;;;;;;;;;;;;;;;;;;;;;;;;;;;;;;;;;;;;==%%%%&&XXXX..++++$$@@@ ",
" -====%%&&&&X ;;;;;;;;;;;;;;;;;;;;;;;;;;;;;;;;;;;;;;;;;;;;;;;;;;;;;;;;;;=%%%%&&XXXX..++++$      ",
" -====%%&&&&X ;;;;;;;;;;;;;;;;;;;;;;;;;;;;;;;;;;;;;;;;;;;;;;;;;;;;;;;;;;=%%%%&&XXXX..++++$      ",
": ===%%&&&&XX ;;;;;;;;;;;;;;;;;;;;;;;;;;;;;;;;;;;;;;;;;;;;;;;;;;;;;;;;;;%%&&&&XX....++$$$$ :::::",
":             ;;;;;;;;;;;;;;;;;;;;;;;;   ;;;;;;;;;;;;;;;;;;;;;;;;;;;;;;;%&&&&XX....+       :::::",
":             ;;;;;;;;;;;;;;;;;;;;;;;;   ;;;;;;;;;;;;;;;;;;;;;;;;;;;;;;;%&&&&XX....+       :::::",
"::::::::::::: ;;;;;;;;;;;;;;;;;;;;;;;;   ;;;;;;;;;;;;;;;;;;;;;;;;;;;;;;;&&XXXX..+++ ::::::::::::",
"::::::::::::: ;;;;;;;;;;;;;;;;;;;;;;;;   ;;;;;;;;;;;;;;;;;;;;;;;;;;;;;;;&XXXX..++++ ::::::::::::",
"::::::::::::: ;;;;;;;;;;;;;;;;;;;;;;;;   ;;;;;;;;;;;;;;;;;;;;;;;;;;;;;;;&XXXX..++++ ::::::::::::",
":::::::::::::      ;;;;;;;;;;;;;;;;;;;;;;;;;;;;;;;;;;;;;;;;;;;;;;;;;;;;;XX....      ::::::::::::",
"::::::::::::::::::  ;;;;;;;;;;;;;;;;;;;;;;;;;;;;;;;;;;;;;;;;;;;;;;;;;;;       ::::::::::::::::::",
"::::::::::::::::::  ;;;;;;;;;;;;;;;;;;;;;;;;;;;;;;;;;;;;;;;;;;;;;;;;;;;       ::::::::::::::::::",
":::::::::::::::::::;           ooooOO----==%%%%&&XXXX..++++$$@@@@oo     ::::::                 :",
":::::::::::::::::::::::::::::: @ooooOO----==%%%%&&XXXX..++++$$@@@@o :::::::::  ====---OOOOOoooo ",
":::::::::::::::::::::::::::::: @ooooOO----==%%%%&&XXXX..++++$$@@@@o :::::::::  ====---OOOOOoooo ",
":::::::::::::::::::::::::::::: @@@@ooOOOO--====%%&&&&XX....++$$$$@@ ::::::::: ==::::::::::::ooo ",
":::::::::::::::::::::::::::::: $@@@@ooOOOO--====%%&&&&XX....++$$$$@ ::::::::: %:::::::::::::@@@ ",
":::::::::::::::::::::::::::::: $@@@@ooOOOO--====%%&&&&XX....++$$$$@ ::::::::: %:::::::::::::@@@ ",
":::::::::::::::::::::::::      $$$$@@ooooOO----==%%%%&&XXXX..++++$$ ::::::::: %:::::::::::::@@@ ",
"::::::::::::::::::::::::: ....++$$$$@@ooooOO----==%%%%&&XXXX..++++$ ::::::::: &:::::::::::::@@@ ",
"::::::::::::::::::::::::: ....++$$$$@@ooooOO----==%%%%&&XXXX..++++$ ::::::::: &:::::::::::::@@@ ",
"::::::::::::::::::::::::: XXX..++++$$@@@@ooOOOO--====%%&&&&XX....++ ::::::::: &:::::::::::::$$$ ",
"::::::::::::::::::::      XXXX..++++$$@@@@ooOOOO--====%%&&&&XX....+     ::::: X:::::::::::::$$$ ",
"::::::::::::::::::::      XXXX..++++$$@@@@ooOOOO--====%%&&&&XX....+     ::::: X:::::::::::::$$$ ",
"::::::::::::::::::::      XXXX..++++$$@@@@ooOOOO--====%%&&&&XX....+     ::::: X:::::::::::::$$$ ",
"::::::::::::::::::::   %%&&&&XX....++$$$$@@ooooOO----==%%%%&&XXXX..++++ ::::: X:::::::::::::$$$ ",
"::::::::::::::::::::   %%&&&&XX....++$$$$@@ooooOO----==%%%%&&XXXX..++++ ::::: X:::::::::::::$$$ ",
":::::::::::::::::::    =%%&&&&XX;;;;;;;;;;;;;;;;;;;;;;;;%%%%&&XXXX..+++ ::::::::::::::::::::+++ ",
"::::::::::::::::::: ---==%%%%&&X;;;;;;;;;;;;;;;;;;;;;;;;;;;%%&&&&XX.... :::::::::::::::::..++++ ",
":::::::::::::::::: O----==%%%%&;;;;;;;;;;;;;;;;;;;;;;;;;;;;;%%&&&&XX....     ::::::::::::.     :",
":::::::::::::::::: O----==%%%%&;;;;;;;;;;;;;;;;;;;;;;;;;;;;;%%&&&&XX....     ::::::::::::.     :",
":::::::::::::::::: OOOO--====%%;;;;;;;;;;;;;;;;;;;;;;;;;;;;;=%%%%&&XXXX..+   :::::::::XXXX :::::",
":::::::::::::::::: OOOO--====%%;;;;;;;;;;;;;;;;;;;;;;;;;;;;;=%%%%&&XXXX..+   :::::::::XXXX :::::",
":::::::::::::::::: oOOOO--====%;;;;;;;;;;;;;;;;;;;;;;;;;;;;;==%%%%&&XXXX..   ::::::::&XXX  :::::",
":::::::::::::::::: ooooOO----==;;;;;;;;;;;;;;;;;;;;;;;;;;;;;-====%%&&&&XX.   ::::::::&   :::::::",
":::::::::::::::::: @ooooOO----=;;;;;;;;;;;;;;;;;;;;;;;;;;;;;--====%%&&&&XX   :::===%%&   :::::::",
":::::::::::::::::: @ooooOO----=;;;;;;;;;;;;;;;;;;;;;;;;;;;;;--====%%&&&&XX   :::===%%&   :::::::",
":::::::::::::::::: @@@@ooOOOO--;;;;;;;;;;;;;;;;;;;;;;;;;;;;;O----==%%%%&&X   :::===      :::::::",
":::::::::::::::::: @@@@ooOOOO--;;;;;;;;;;;;;;;;;;;;;;;;;;;;;O----==%%%%&&X   :::===      :::::::",
":::::::::::::::::: $@@@@ooOOOO--;;;;;;;;;;  ;;;;;;;;;;;;ooooOO----==%%%%&&   :::=== ::::::::::::",
"::::::::::::::::::  $$$@@ooooOO-;;;;;;;;;;  ;;;;;;;;;;;;@@@ooOOOO--====%%&&&& ----- ::::::::::::",
":::::::::::::::::::    $@@ooooOO;;;;;;;;;;;;;;;;;;;;;;;;@@@@ooOOOO--====%%&&&       ::::::::::::",
":::::::::::::::::::    $@@ooooOO;;;;;;;;;;;;;;;;;;;;;;;;@@@@ooOOOO--====%%&&&       ::::::::::::",
"::::::::::::::::::::           O;;;;;;;;;;;;;;;;;....++$$$$@@ooooOO           ::::::::::::::::::",
"::::::::::::::::::::           O;;;;;;;;;;;;;;;;;....++$$$$@@ooooOO           ::::::::::::::::::",
":::::::::::::::::::::::::::::: oOOOO--====%%&&&&XX....++$$$$@@ooooO ::::::::::::::::::::::::::::",
":::::::::::::::::::::::::::::: ooooOO----==%%%%&&XXXX..++++$$@@@@oo ::::::::::::::::::::::::::::",
":::::::::::::::::::::::::::::: ooooOO----==%%%%&&XXXX..++++$$@@@@oo ::::::::::::::::::::::::::::",
":::::::::::::::::::::::::::::: @ooooOO----==%%%%&&XXXX..++++$$@@@@o ::::::::::::::::::::::::::::",
":::::::::::::::::::::::::::::: @ooooOO----==%%%%&&XXXX..++++$$@@@@o ::::::::::::::::::::::::::::",
":::::::::::::::::::::::::::::: @ooooOO----==%%%%&&XXXX..++++$$@@@@o ::::::::::::::::::::::::::::",
":::::::::::::::::::::::::::::: @@@@ooOOOO               ...++$      ::::::::::::::::::::::::::::",
":::::::::::::::::::::::::::::: $@@@@oo   :::::::::::::::   .++   :::::::::::::::::::::::::::::::",
":::::::::::::::::::::::::::::: $$$$@     :::::::::::::::   ..+   :::::::::::::::::::::::::::::::",
":::::::::::::::::::::::::::::: +$$$ ::::::::::::::::::::::: ..   :::::::::::::::::::::::::::::::",
":::::::::::::::::::::::::::::: +$$$ ::::::::::::::::::::::: ..   :::::::::::::::::::::::::::::::",
":::::::::::::::::::::::::::::: +$$$ ::::::::::::::::::::::: ..   :::::::::::::::::::::::::::::::",
":::::::::::::::::::::::::::::: ++++ ::::::::::::::::::::::: X.   :::::::::::::::::::::::::::::::",
"::::::::::::::::::::::::::::::      :::::::::::::::::::::::      :::::::::::::::::::::::::::::::"
};
