/* XPM */
static char *result[] = {
/* columns rows colors chars-per-pixel */
"112 112 16 1 ",
"  c black",
". c #E53900",
"X c #9E0057",
"o c #40A100",
"O c #00B06C",
"+ c #FF8C06",
"@ c #91C100",
"# c #A7FF09",
"$ c #EDC400",
"% c #004DB0",
"& c #6200C4",
"* c #9C7BFF",
"= c #0088A4",
"- c #00BCA7",
"; c #FFEBD7",
": c None",
/* pixels */
":::::::::::::::::::::                                                              :::::::::::::::::::::::::::::",
"::::::::::::::::      X.....++$$$$$@@ooooo--=====%%&&&&&XX.....++$$$$$@@oooooOO----       ::::::::::::::::::::::",
"::::::::::::::::    XX.....++$$$$$@@ooooo--=====%%&&&&&XX.....++$$$$$@@oooooOO-----==%    ::::::::::::::::::::::",
"::::::::::::::::    XX.....++$$$$$@@ooooo--=====%%&&&&&XX.....++$$$$$@@oooooOO-----==%    ::::::::::::::::::::::",
"::::::::::::::::    XX.....++$$$$$@@ooooo--=====%%&&&&&XX.....++$$$$$@@oooooOO-----==%    ::::::::::::::::::::::",
"::::::::::::::::   XXX.....++$$$$$@@ooooo--=====%%&&&&&XX.....++$$$$$@@oooooOO-----==%    ::::::::::::::::::::::",
"::::::::::::::::   XX..+++++$$@@@@@oo-----==%%%%%&&XXXXX..+++++$$@@@@@ooOOOOO--=====%%    ::::::::::::::::::::::",
"::::::::::::::::   X..+++++$$@@@@@oo-----==%%%%%&&XXXXX..+++++$$@@@@@ooOOOOO--=====%%&&&&&   :::::::::::::::::::",
"::::::::::::::::   ..++$$$$$@@ooooo--=====%%&&&&&XX.....++$$$$$@@oooooOO-----==%%%%%&&XXXXX. :::::::::::::::::::",
"::::::::::::::::   .++$$$$$@@ooooo--=====%%&&&&&XX.....++$$$$$@@oooooOO-----==%%%%%&&XXXXX.. :::::::::::::::::::",
"::::::::::::::::   .++$$$$$@@ooooo--=====%%&&&&&XX.....++$$$$$@@oooooOO-----==%%%%%&&XXXXX.. :::::::::::::::::::",
"::::::::::::::::   .++$$$$$@@ooooo--=====%%&&&&&XX.....++$$$$$@@oooooOO-----==%%%%%&&XXXXX.. :::::::::::::::::::",
"::::::::::::::::   +++$$$$$@@ooooo--=====%%&&&&&XX.....++$$$$$@@oooooOO-----==%%%%%&&XXXXX.. :::::::::::::::::::",
"::::::::::::::::   ++$$@@@@@oo-----==%%%%%&&XXXXX..+++++$$@@@@@ooOOOOO--=====%%&&&&&XX.....+ :::::::::::::::::::",
"::::::::::::::::   $$$$@@@@@oo-----==%%%%%&&XXXXX..+++++$$@@@@@ooOOOOO--=====%%&&&&&XX.....+ :::::::::::::::::::",
"::::::::::::::::   $$$@@@@@oo-----==%%%%%&&XXXXX..+++++$$@@@@@ooOOOOO--=====%%&&&&&XX.....++ :::::::::::::::::::",
"::::::::::::::::   $$@@ooooo--=====%%&&&&&XX.....++$$$$$@@oooooOO-----==%%%%%&&XXXXX..+++++$$     ::::::::::::::",
"::::::::::::::::   $$@@ooooo--=====%%&&&&&XX.....++$$$$$@@oooooOO-----==%%%%%&&XXXXX..+++++$$     ::::::::::::::",
"::::::::::::::::   $$@@ooooo--=====%%&&&&&XX.....++$$$$$@@oooooOO-----==%%%%%&&XXXXX..+++++$$     ::::::::::::::",
"::::::::::::::: $$$$@@ooooo--=====%%&&&&&XX.....++$$$$$@@oooooOO-----==%%%%%&&XXXXX..+++++$$@@@@@ ::::::::::::::",
"::::::::::::::: $$$$@@ooooo--=====%%&&&&&XX.....++$$$$$@@oooooOO-----==%%%%%&&XXXXX..+++++$$@@@@@ ::::::::::::::",
":::::::::::::   @@@@@oo-----==%%%%%&&XXXXX..+++++$$@@@@@ooOOOOO--=====%%&&&&&XX.....++$$$$$@@oooo ::::::::::::::",
":             $ @@@@oo-----==%%%%%&&XXXXX..+++++$$@@@@@ooOOOOO--=====%%&&&&&XX.....++$$$$$@@ooooo              :",
": .....++$$$$$@ ;;;;;;;;;;;;%%&&&&&XX.....++$$$$$@@oooooOO----;;;;;;;;;;;;;;;;;+++++$$@@@@@ooOOOOO--=====%%    :",
": .....++$$$$$@ ;;;;;;;;;;;;%%&&&&&XX.....++$$$$$@@oooooOO----;;;;;;;;;;;;;;;;;+++++$$@@@@@ooOOOOO--=====%%    :",
": .....++$$$$$@ ;;;;;;;;;;;;%%&&&&&XX.....++$$$$$@@oooooOO----;;;;;;;;;;;;;;;;;+++++$$@@@@@ooOOOOO--=====%%    :",
"  ....++$$$$$@@ ;;;;;;;;;;;;;;;;;;;X.....++$$$$$@@ooooo;;;;;;;;;;;;;;;;;;;;;;;;++++$$@@@@@ooOOOOO--=====%%&    :",
"  ....++$$$$$@@ ;;;;;;;;;;;;;;;;;;;X.....++$$$$$@@ooooo;;;;;;;;;;;;;;;;;;;;;;;;++++$$@@@@@ooOOOOO--=====%%&    :",
" .+++++$$@@@@@o ;;;;;;;;;;;;;;;;;;;..+++++$$@@@@@ooOOOO;;;;;;;;;;;;;;;;;;;;;;;;$$$$$@@oooooOO-----==%%%%%&&    :",
" +++++$$@@@@@oo ;;;;;;;;;;;;;;;;;;;.+++++$$@@@@@ooOOOOO;;;;;;;;;;;;;;;;;;;;;;;;$$$$@@oooooOO-----==%%%%%&&X    :",
" ;;;;;;;;;;;;o- ;;;;;;;;;;;;;;;;;;;;+$$$$$@@oooooOO;;;;;;;;;;;;;;;;;;;;;;;;;;$$@@@@@ooOOOOO--====;;;;;;;&XX.... ",
" ;;;;;;;;;;;;o- ;;;;;;;;;;;;;;;;;;;;+$$$$$@@oooooOO;;;;;;;;;;;;;;;;;;;;;;;;;;$$@@@@@ooOOOOO--====;;;;;;;&XX.... ",
" ;;;;;;;;;;;;o- ;;;;;;;     ;;;;;;;;+$$$$$@@oooooOO;;;;;;;;;;;;;     ;;;;;;;;$$@@@@@ooOOOOO--====;;;;;;;&XX.... ",
" ;;;;;;;;;;;;-- ;;;;;; ##### ;;;;;;;$$$$$@@oooooOO-;;;;;;;;;;;; ***** ;;;;;;;$@@@@@ooOOOOO--=;;;;;;;;;;;XX..... ",
" ;;;;;;;;;;;;-- ;;;;;; ##### ;;;;;;;$$$$$@@oooooOO-;;;;;;;;;;;; ***** ;;;;;;;$@@@@@ooOOOOO--=;;;;;;;;;;;XX..... ",
" ;;;;; ;;;;;;== ;;;;;; ##### ;;;;;;;;;;;;;;;;;;;;;;;;;;;;;;;;;; ***** ;;;;;;;;;;;;;;OO-----==;;;;; ;;;;;X..++++ ",
" ;;;;; ;;;;;;=% ;;;;;;;     ;;;;;;;;;;;;;;;;;;;;;;;;;;;;;;;;;;;;     ;;;;;;;;;;;;;;;O-----==%;;;;; ;;;;;..+++++ ",
" ;;;;;;;;;;;;%% ;;;;;;;;;;;;;;;;;;;;;;;;;;;;;;;;;;;;;;;;;;;;;;;;;;;;;;;;;;;;;;;;;;;;--=====%%;;;;;;;;;;;.++$$$$ ",
" ;;;;;;;;;;;;%% ;;;;;;;;;;;;;;;;;;;;;;;;;;;;;;;;;;;;;;;;;;;;;;;;;;;;;;;;;;;;;;;;;;;;--=====%%;;;;;;;;;;;.++$$$$ ",
" ;;;;;;;;;;;;%% ;;;;;;;;;;;;;;;;;;;;;;;;;;;;;;;;;;;;;;;;;;;;;;;;;;;;;;;;;;;;;;;;;;;;--=====%%;;;;;;;;;;;.++$$$$ ",
" o-----==%%%%%& ;;;;;;;;;;;;;;;;;;;;;;;;;;;;;;;;;;;;;;;;;;;;;;;;;;;;;;;;;;;;;;;;;;;;-=====%%&&&&&XX.....++$$$$$ ",
" o-----==%%%%%& ;;;;;;;;;;;;;;;;;;;;;;;;;;;;;;;;;;;;;;;;;;;;;;;;;;;;;;;;;;;;;;;;;;;;-=====%%&&&&&XX.....++$$$$$ ",
" o-----==%%%%%& ;;;;;;;;;;;;;;;;;;;;;;;;;;;;;;;;;;;;;;;;;;;;;;;;;;;;;;;;;;;;;;;;;;;;-=====%%&&&&&XX.....++$$$$$ ",
" -----==%%%%%&& ;;;;;;;;;;;;;;;;;;;;;;;;;;;;;;;;;;;;;;;;;;;;;;;;;;;;;;;;;;;;;;;;;;;;==%%%%%&&XXXXX..+++++$$@@@@ ",
" -=====%%&&&&&X ;;;;;;;;;;;;;;;;;;;;;;;;;;;;;;;;;;;;;;;;;;;;;;;;;;;;;;;;;;;;;;;;;;;;=%%%%%&&XXXXX..+++++$       ",
" -=====%%&&&&&X ;;;;;;;;;;;;;;;;;;;;;;;;;;;;;;;;;;;;;;;;;;;;;;;;;;;;;;;;;;;;;;;;;;;;=%%%%%&&XXXXX..+++++$       ",
" -=====%%&&&&&X ;;;;;;;;;;;;;;;;;;;;;;;;;;;;;;;;;;;;;;;;;;;;;;;;;;;;;;;;;;;;;;;;;;;;=%%%%%&&XXXXX..+++++$       ",
": ====%%&&&&&XX ;;;;;;;;;;;;;;;;;;;;;;;;;;;;;;;;;;;;;;;;;;;;;;;;;;;;;;;;;;;;;;;;;;;;%%&&&&&XX.....++$$$$$ ::::::",
":               ;;;;;;;;;;;;;;;;;;;;;;;;;;;;    ;;;;;;;;;;;;;;;;;;;;;;;;;;;;;;;;;;;;%&&&&&XX.....+        ::::::",
":               ;;;;;;;;;;;;;;;;;;;;;;;;;;;;    ;;;;;;;;;;;;;;;;;;;;;;;;;;;;;;;;;;;;%&&&&&XX.....+        ::::::",
"::::::::::::::: ;;;;;;;;;;;;;;;;;;;;;;;;;;;;    ;;;;;;;;;;;;;;;;;;;;;;;;;;;;;;;;;;;;&&XXXXX..++++ ::::::::::::::",
"::::::::::::::: ;;;;;;;;;;;;;;;;;;;;;;;;;;;;    ;;;;;;;;;;;;;;;;;;;;;;;;;;;;;;;;;;;;&XXXXX..+++++ ::::::::::::::",
"::::::::::::::: ;;;;;;;;;;;;;;;;;;;;;;;;;;;;    ;;;;;;;;;;;;;;;;;;;;;;;;;;;;;;;;;;;;&XXXXX..+++++ ::::::::::::::",
"::::::::::::::: ;;;;;;;;;;;;;;;;;;;;;;;;;;;;;;;;;;;;;;;;;;;;;;;;;;;;;;;;;;;;;;;;;;;;&XXXXX..+++++ ::::::::::::::",
":::::::::::::::       ;;;;;;;;;;;;;;;;;;;;;;;;;;;;;;;;;;;;;;;;;;;;;;;;;;;;;;;;;;;;;;XX.....       ::::::::::::::",
":::::::::::::::::::::  ;;;;;;;;;;;;;;;;;;;;;;;;;;;;;;;;;;;;;;;;;;;;;;;;;;;;;;;;;;;;        :::::::::::::::::::::",
":::::::::::::::::::::  ;;;;;;;;;;;;;;;;;;;;;;;;;;;;;;;;;;;;;;;;;;;;;;;;;;;;;;;;;;;;        :::::::::::::::::::::",
"::::::::::::::::::::::;             oooooOO-----==%%%%%&&XXXXX..+++++$$@@@@@oo      :::::::                    :",
"::::::::::::::::::::::::::::::::::: @oooooOO-----==%%%%%&&XXXXX..+++++$$@@@@@o :::::::::::  =====---OOOOOOooooo ",
"::::::::::::::::::::::::::::::::::: @oooooOO-----==%%%%%&&XXXXX..+++++$$@@@@@o :::::::::::  =====---OOOOOOooooo ",
"::::::::::::::::::::::::::::::::::: @oooooOO-----==%%%%%&&XXXXX..+++++$$@@@@@o :::::::::::  =====---OOOOOOooooo ",
"::::::::::::::::::::::::::::::::::: @@@@@ooOOOOO--=====%%&&&&&XX.....++$$$$$@@ ::::::::::: ==::::::::::::::oooo ",
"::::::::::::::::::::::::::::::::::: $@@@@@ooOOOOO--=====%%&&&&&XX.....++$$$$$@ ::::::::::: %:::::::::::::::@@@@ ",
"::::::::::::::::::::::::::::::::::: $@@@@@ooOOOOO--=====%%&&&&&XX.....++$$$$$@ ::::::::::: %:::::::::::::::@@@@ ",
":::::::::::::::::::::::::::::       $$$$$@@oooooOO-----==%%%%%&&XXXXX..+++++$$ ::::::::::: %:::::::::::::::@@@@ ",
"::::::::::::::::::::::::::::: .....++$$$$$@@oooooOO-----==%%%%%&&XXXXX..+++++$ ::::::::::: &:::::::::::::::@@@@ ",
"::::::::::::::::::::::::::::: .....++$$$$$@@oooooOO-----==%%%%%&&XXXXX..+++++$ ::::::::::: &:::::::::::::::@@@@ ",
"::::::::::::::::::::::::::::: .....++$$$$$@@oooooOO-----==%%%%%&&XXXXX..+++++$ ::::::::::: &:::::::::::::::@@@@ ",
"::::::::::::::::::::::::::::: XXXX..+++++$$@@@@@ooOOOOO--=====%%&&&&&XX.....++ ::::::::::: &:::::::::::::::$$$$ ",
":::::::::::::::::::::::       XXXXX..+++++$$@@@@@ooOOOOO--=====%%&&&&&XX.....+      :::::: X:::::::::::::::$$$$ ",
":::::::::::::::::::::::       XXXXX..+++++$$@@@@@ooOOOOO--=====%%&&&&&XX.....+      :::::: X:::::::::::::::$$$$ ",
":::::::::::::::::::::::       XXXXX..+++++$$@@@@@ooOOOOO--=====%%&&&&&XX.....+      :::::: X:::::::::::::::$$$$ ",
":::::::::::::::::::::::    %%&&&&&XX.....++$$$$$@@oooooOO-----==%%%%%&&XXXXX..+++++ :::::: X:::::::::::::::$$$$ ",
":::::::::::::::::::::::    %%&&&&&XX.....++$$$$$@@oooooOO-----==%%%%%&&XXXXX..+++++ :::::: X:::::::::::::::$$$$ ",
":::::::::::::::::::::::    %%&&&&&XX.....++$$$$$@@oooooOO-----==%%%%%&&XXXXX..+++++ :::::: X:::::::::::::::$$$$ ",
"::::::::::::::::::::::     =%%&&&&&XX;;;;;;;;;;;;;;;;;;;;;;;;;;;;%%%%%&&XXXXX..++++ :::::::::::::::::::::::++++ ",
":::::::::::::::::::::: ----==%%%%%&&X;;;;;;;;;;;;;;;;;;;;;;;;;;;;;;;;%%&&&&&XX..... ::::::::::::::::::::..+++++ ",
"::::::::::::::::::::: O-----==%%%%%&;;;;;;;;;;;;;;;;;;;;;;;;;;;;;;;;;;%%&&&&&XX.....      ::::::::::::::.      :",
"::::::::::::::::::::: O-----==%%%%%&;;;;;;;;;;;;;;;;;;;;;;;;;;;;;;;;;;%%&&&&&XX.....      ::::::::::::::.      :",
"::::::::::::::::::::: OOOOO--=====%%;;;;;;;;;;;;;;;;;;;;;;;;;;;;;;;;;;=%%%%%&&XXXXX..+    ::::::::::XXXXX ::::::",
"::::::::::::::::::::: OOOOO--=====%%;;;;;;;;;;;;;;;;;;;;;;;;;;;;;;;;;;=%%%%%&&XXXXX..+    ::::::::::XXXXX ::::::",
"::::::::::::::::::::: OOOOO--=====%%;;;;;;;;;;;;;;;;;;;;;;;;;;;;;;;;;;=%%%%%&&XXXXX..+    ::::::::::XXXXX ::::::",
"::::::::::::::::::::: oOOOOO--=====%;;;;;;;;;;;;;;;;;;;;;;;;;;;;;;;;;;==%%%%%&&XXXXX..    :::::::::&XXXX  ::::::",
"::::::::::::::::::::: oooooOO-----==;;;;;;;;;;;;;;;;;;;;;;;;;;;;;;;;;;-=====%%&&&&&XX.    :::::::::&    ::::::::",
"::::::::::::::::::::: @oooooOO-----=;;;;;;;;;;;;;;;;;;;;;;;;;;;;;;;;;;--=====%%&&&&&XX    :::====%%&    ::::::::",
"::::::::::::::::::::: @oooooOO-----=;;;;;;;;;;;;;;;;;;;;;;;;;;;;;;;;;;--=====%%&&&&&XX    :::====%%&    ::::::::",
"::::::::::::::::::::: @@@@@ooOOOOO--;;;;;;;;;;;;;;;;;;;;;;;;;;;;;;;;;;O-----==%%%%%&&X    :::====       ::::::::",
"::::::::::::::::::::: @@@@@ooOOOOO--;;;;;;;;;;;;;;;;;;;;;;;;;;;;;;;;;;O-----==%%%%%&&X    :::====       ::::::::",
"::::::::::::::::::::: @@@@@ooOOOOO--;;;;;;;;;;;;;;;;;;;;;;;;;;;;;;;;;;O-----==%%%%%&&X    :::====       ::::::::",
"::::::::::::::::::::: $@@@@@ooOOOOO--;;;;;;;;;;;;  ;;;;;;;;;;;;;;oooooOO-----==%%%%%&&    :::==== ::::::::::::::",
":::::::::::::::::::::  $$$$@@oooooOO-;;;;;;;;;;;;  ;;;;;;;;;;;;;;@@@@ooOOOOO--=====%%&&&&& ------ ::::::::::::::",
"::::::::::::::::::::::     $@@oooooOO;;;;;;;;;;;;;;;;;;;;;;;;;;;;@@@@@ooOOOOO--=====%%&&&&        ::::::::::::::",
"::::::::::::::::::::::     $@@oooooOO;;;;;;;;;;;;;;;;;;;;;;;;;;;;@@@@@ooOOOOO--=====%%&&&&        ::::::::::::::",
":::::::::::::::::::::::             O;;;;;;;;;;;;;;;;;;;;.....++$$$$$@@oooooOO             :::::::::::::::::::::",
":::::::::::::::::::::::             O;;;;;;;;;;;;;;;;;;;;.....++$$$$$@@oooooOO             :::::::::::::::::::::",
":::::::::::::::::::::::             O;;;;;;;;;;;;;;;;;;;;.....++$$$$$@@oooooOO             :::::::::::::::::::::",
"::::::::::::::::::::::::::::::::::: oOOOOO--=====%%&&&&&XX.....++$$$$$@@oooooO :::::::::::::::::::::::::::::::::",
"::::::::::::::::::::::::::::::::::: oooooOO-----==%%%%%&&XXXXX..+++++$$@@@@@oo :::::::::::::::::::::::::::::::::",
"::::::::::::::::::::::::::::::::::: oooooOO-----==%%%%%&&XXXXX..+++++$$@@@@@oo :::::::::::::::::::::::::::::::::",
"::::::::::::::::::::::::::::::::::: @oooooOO-----==%%%%%&&XXXXX..+++++$$@@@@@o :::::::::::::::::::::::::::::::::",
"::::::::::::::::::::::::::::::::::: @oooooOO-----==%%%%%&&XXXXX..+++++$$@@@@@o :::::::::::::::::::::::::::::::::",
"::::::::::::::::::::::::::::::::::: @oooooOO-----==%%%%%&&XXXXX..+++++$$@@@@@o :::::::::::::::::::::::::::::::::",
"::::::::::::::::::::::::::::::::::: @oooooOO-----==%%%%%&&XXXXX..+++++$$@@@@@o :::::::::::::::::::::::::::::::::",
"::::::::::::::::::::::::::::::::::: @@@@@ooOOOOO                 ....++$       :::::::::::::::::::::::::::::::::",
"::::::::::::::::::::::::::::::::::: $@@@@@oo    :::::::::::::::::    .++    ::::::::::::::::::::::::::::::::::::",
"::::::::::::::::::::::::::::::::::: $$$$$@      :::::::::::::::::    ..+    ::::::::::::::::::::::::::::::::::::",
"::::::::::::::::::::::::::::::::::: +$$$$ ::::::::::::::::::::::::::: ..    ::::::::::::::::::::::::::::::::::::",
"::::::::::::::::::::::::::::::::::: +$$$$ ::::::::::::::::::::::::::: ..    ::::::::::::::::::::::::::::::::::::",
"::::::::::::::::::::::::::::::::::: +$$$$ ::::::::::::::::::::::::::: ..    ::::::::::::::::::::::::::::::::::::",
"::::::::::::::::::::::::::::::::::: +$$$$ ::::::::::::::::::::::::::: ..    ::::::::::::::::::::::::::::::::::::",
"::::::::::::::::::::::::::::::::::: +++++ ::::::::::::::::::::::::::: X.    ::::::::::::::::::::::::::::::::::::",
":::::::::::::::::::::::::::::::::::       :::::::::::::::::::::::::::       ::::::::::::::::::::::::::::::::::::"
};
