/* XPM */
static char *moonkey_48x48[] = {
/* columns rows colors chars-per-pixel */
"48 48 17 1 ",
"  c black",
". c #5C565B",
"X c #E53900",
"o c #9E0057",
"O c #40A100",
"+ c #00B06C",
"@ c #FF8C06",
"# c #91C100",
"$ c #A7FF09",
"% c #EDC400",
"& c #004DB0",
"* c #6200C4",
"= c #9C7BFF",
"- c #0088A4",
"; c #00BCA7",
": c #D1C5CF",
"> c #FFEBD7",
/* pixels */
".........                            ...........",
".::::::  ##OO++;;--&&**ooXX@@%%##OO++ :::::::::.",
".:::::: ##OO++;;--&&**ooXX@@%%##OO++; :::::::::.",
".::::  ##OO++;;--&&**ooXX@@%%##OO++;;-   ::::::.",
".:::: ##OO++;;--&&**ooXX@@%%##OO++;;--&& ::::::.",
".:::: #OO++;;--&&**ooXX@@%%##OO++;;--&&* ::::::.",
".:::: OO++;;--&&**ooXX@@%%##OO++;;--&&** ::::::.",
".:::: O++;;--&&**ooXX@@%%##OO++;;--&&**oo :::::.",
".:::  ++;;--&&**ooXX@@%%##OO++;;--&&**ooX :::::.",
".::   +;;--&&**ooXX@@%%##OO++;;--&&**ooXX  ::::.",
"      >>>>>&**ooXX@@%%##OO>>>>>>&&**ooXX@      .",
" OO++ >>>>>>>ooXX@@%%##OO>>>>>>>>**ooXX@ %%##OO ",
" O++; >>>>>>>oXX@@%%##OO+>>>>>>>>oooXX@@ %##OO+ ",
" >>>; >>>>>>>XX@@%%##OO++>>>>>>>>ooXX@@% #>>>>+ ",
" >>>- >>>> >>>>@%%##OO++>>>>> >>>>XX@@%% #>>>>; ",
" > >- >>> $ >>>>>>>>>>>>>>>> = >>>>>>%%# O> >>; ",
" >>>& >>>> >>>>>>>>>>>>>>>>>> >>>>>>>%## O>>>>- ",
" >>>& >>>>>>>>>>>>>>>>>>>>>>>>>>>>>>>##O +>>>>- ",
" &&** >>>>>>>>>>>>>>>>>>>>>>>>>>>>>>>#OO +;;--  ",
" &**o >>>>>>>>>>>>>>>>>>>>>>>>>>>>>>>OO+ ;;-- :.",
" **oo >>>>>>>>>>>>>>>>>>>>>>>>>>>>>>>O++ ;--& :.",
".     >>>>>>>>>>>>>  >>>>>>>>>>>>>>>>++; -    :.",
".::::>   >>>>>>>>>>  >>>>>>>>>>>>>>>>+;   :::::.",
".::::::: >>>>>>>>>>>>>>>>>>>>>>>>>>>>; ::::::::.",
".:::::::> >>>>>>>>>>>>>>>>>>>>>>>>>>  :::::::::.",
".::::::::>     OO++;;--&&**ooXX@@    :::       .",
".::::::::::::: #OO++;;--&&**ooXX@ :::::  -;;+++ ",
".::::::::::::: ##OO++;;--&&**ooXX :::: &--::::O ",
".:::::::::::: %%##OO++;;--&&**ooX :::: &::::::O ",
".::::::::::: @@%%##OO++;;--&&**oo :::: *::::::# ",
".:::::::::  XX@@%%##OO++;;--&&**o   :: *:::::## ",
".:::::::: *ooXX@@%%##OO++;;--&&**ooX ::::::::% .",
".::::::: &**ooXX@>>>>>>>>>>>>-&&**oo :::::::%% .",
".::::::: &&**oo>>>>>>>>>>>>>>>-&&**oo ::::::@ :.",
".::::::: -&&**o>>>>>>>>>>>>>>>--&&**o :::::@@ :.",
".::::::: --&&**>>>>>>>>>>>>>>>;--&&** :::::@ ::.",
".::::::: ;--&&*>>>>>>>>>>>>>>>;;--&&* :::XXX ::.",
".::::::: ;;--&&>>>>>>>>>>>>>>>+;;--&& :ooX   ::.",
".:::::::  ;;--&>>>>>  >>>>>>>O++;;--& oo  :::::.",
".::::::::: ;;--&>>>>  >>>>>>>OO++;;--   :::::::.",
".:::::::::     ->>>>>>>>>>>%##OO+     :::::::::.",
".::::::::::::: --&&**ooXX@@%%##OO :::::::::::::.",
".::::::::::::: ;--&&**ooXX@@%%##O :::::::::::::.",
".::::::::::::: ;;--&         %%#  :::::::::::::.",
".::::::::::::: +;;- ::::::::: %% ::::::::::::::.",
".::::::::::::: ++;; ::::::::: @% ::::::::::::::.",
".::::::::::::: O   :::::::::: @@ ::::::::::::::.",
"..............   ............   ................"
};
