/* XPM */
static char *moonkey_112x112[] = {
/* columns rows colors chars-per-pixel */
"112 112 17 1 ",
"  c black",
". c #5C565B",
"X c #E53900",
"o c #9E0057",
"O c #40A100",
"+ c #00B06C",
"@ c #FF8C06",
"# c #91C100",
"$ c #A7FF09",
"% c #EDC400",
"& c #004DB0",
"* c #6200C4",
"= c #9C7BFF",
"- c #0088A4",
"; c #00BCA7",
": c #D1C5CF",
"> c #FFEBD7",
/* pixels */
".....................                                                              .............................",
"................      oXXXXX@@%%%%%##OOOOO;;-----&&*****ooXXXXX@@%%%%%##OOOOO++;;;;       ......................",
"..::::::::::::::    ooXXXXX@@%%%%%##OOOOO;;-----&&*****ooXXXXX@@%%%%%##OOOOO++;;;;;--&    ::::::::::::::::::::..",
"..::::::::::::::    ooXXXXX@@%%%%%##OOOOO;;-----&&*****ooXXXXX@@%%%%%##OOOOO++;;;;;--&    ::::::::::::::::::::..",
"..::::::::::::::    ooXXXXX@@%%%%%##OOOOO;;-----&&*****ooXXXXX@@%%%%%##OOOOO++;;;;;--&    ::::::::::::::::::::..",
"..::::::::::::::   oooXXXXX@@%%%%%##OOOOO;;-----&&*****ooXXXXX@@%%%%%##OOOOO++;;;;;--&    ::::::::::::::::::::..",
"..::::::::::::::   ooXX@@@@@%%#####OO;;;;;--&&&&&**oooooXX@@@@@%%#####OO+++++;;-----&&    ::::::::::::::::::::..",
"..::::::::::::::   oXX@@@@@%%#####OO;;;;;--&&&&&**oooooXX@@@@@%%#####OO+++++;;-----&&*****   :::::::::::::::::..",
"..::::::::::::::   XX@@%%%%%##OOOOO;;-----&&*****ooXXXXX@@%%%%%##OOOOO++;;;;;--&&&&&**oooooX :::::::::::::::::..",
"..::::::::::::::   X@@%%%%%##OOOOO;;-----&&*****ooXXXXX@@%%%%%##OOOOO++;;;;;--&&&&&**oooooXX :::::::::::::::::..",
"..::::::::::::::   X@@%%%%%##OOOOO;;-----&&*****ooXXXXX@@%%%%%##OOOOO++;;;;;--&&&&&**oooooXX :::::::::::::::::..",
"..::::::::::::::   X@@%%%%%##OOOOO;;-----&&*****ooXXXXX@@%%%%%##OOOOO++;;;;;--&&&&&**oooooXX :::::::::::::::::..",
"..::::::::::::::   @@@%%%%%##OOOOO;;-----&&*****ooXXXXX@@%%%%%##OOOOO++;;;;;--&&&&&**oooooXX :::::::::::::::::..",
"..::::::::::::::   @@%%#####OO;;;;;--&&&&&**oooooXX@@@@@%%#####OO+++++;;-----&&*****ooXXXXX@ :::::::::::::::::..",
"..::::::::::::::   %%%%#####OO;;;;;--&&&&&**oooooXX@@@@@%%#####OO+++++;;-----&&*****ooXXXXX@ :::::::::::::::::..",
"..::::::::::::::   %%%#####OO;;;;;--&&&&&**oooooXX@@@@@%%#####OO+++++;;-----&&*****ooXXXXX@@ :::::::::::::::::..",
"..::::::::::::::   %%##OOOOO;;-----&&*****ooXXXXX@@%%%%%##OOOOO++;;;;;--&&&&&**oooooXX@@@@@%%     ::::::::::::..",
"..::::::::::::::   %%##OOOOO;;-----&&*****ooXXXXX@@%%%%%##OOOOO++;;;;;--&&&&&**oooooXX@@@@@%%     ::::::::::::..",
"..::::::::::::::   %%##OOOOO;;-----&&*****ooXXXXX@@%%%%%##OOOOO++;;;;;--&&&&&**oooooXX@@@@@%%     ::::::::::::..",
"..::::::::::::: %%%%##OOOOO;;-----&&*****ooXXXXX@@%%%%%##OOOOO++;;;;;--&&&&&**oooooXX@@@@@%%##### ::::::::::::..",
"..::::::::::::: %%%%##OOOOO;;-----&&*****ooXXXXX@@%%%%%##OOOOO++;;;;;--&&&&&**oooooXX@@@@@%%##### ::::::::::::..",
"..:::::::::::   #####OO;;;;;--&&&&&**oooooXX@@@@@%%#####OO+++++;;-----&&*****ooXXXXX@@%%%%%##OOOO ::::::::::::..",
".             % ####OO;;;;;--&&&&&**oooooXX@@@@@%%#####OO+++++;;-----&&*****ooXXXXX@@%%%%%##OOOOO              .",
". XXXXX@@%%%%%# >>>>>>>>>>>>&&*****ooXXXXX@@%%%%%##OOOOO++;;;;>>>>>>>>>>>>>>>>>@@@@@%%#####OO+++++;;-----&&    .",
". XXXXX@@%%%%%# >>>>>>>>>>>>&&*****ooXXXXX@@%%%%%##OOOOO++;;;;>>>>>>>>>>>>>>>>>@@@@@%%#####OO+++++;;-----&&    .",
". XXXXX@@%%%%%# >>>>>>>>>>>>&&*****ooXXXXX@@%%%%%##OOOOO++;;;;>>>>>>>>>>>>>>>>>@@@@@%%#####OO+++++;;-----&&    .",
"  XXXX@@%%%%%## >>>>>>>>>>>>>>>>>>>oXXXXX@@%%%%%##OOOOO>>>>>>>>>>>>>>>>>>>>>>>>@@@@%%#####OO+++++;;-----&&*    .",
"  XXXX@@%%%%%## >>>>>>>>>>>>>>>>>>>oXXXXX@@%%%%%##OOOOO>>>>>>>>>>>>>>>>>>>>>>>>@@@@%%#####OO+++++;;-----&&*    .",
" X@@@@@%%#####O >>>>>>>>>>>>>>>>>>>XX@@@@@%%#####OO++++>>>>>>>>>>>>>>>>>>>>>>>>%%%%%##OOOOO++;;;;;--&&&&&**    .",
" @@@@@%%#####OO >>>>>>>>>>>>>>>>>>>X@@@@@%%#####OO+++++>>>>>>>>>>>>>>>>>>>>>>>>%%%%##OOOOO++;;;;;--&&&&&**o    .",
" >>>>>>>>>>>>O; >>>>>>>>>>>>>>>>>>>>@%%%%%##OOOOO++>>>>>>>>>>>>>>>>>>>>>>>>>>%%#####OO+++++;;---->>>>>>>*ooXXXX ",
" >>>>>>>>>>>>O; >>>>>>>>>>>>>>>>>>>>@%%%%%##OOOOO++>>>>>>>>>>>>>>>>>>>>>>>>>>%%#####OO+++++;;---->>>>>>>*ooXXXX ",
" >>>>>>>>>>>>O; >>>>>>>     >>>>>>>>@%%%%%##OOOOO++>>>>>>>>>>>>>     >>>>>>>>%%#####OO+++++;;---->>>>>>>*ooXXXX ",
" >>>>>>>>>>>>;; >>>>>> $$$$$ >>>>>>>%%%%%##OOOOO++;>>>>>>>>>>>> ===== >>>>>>>%#####OO+++++;;->>>>>>>>>>>ooXXXXX ",
" >>>>>>>>>>>>;; >>>>>> $$$$$ >>>>>>>%%%%%##OOOOO++;>>>>>>>>>>>> ===== >>>>>>>%#####OO+++++;;->>>>>>>>>>>ooXXXXX ",
" >>>>> >>>>>>-- >>>>>> $$$$$ >>>>>>>>>>>>>>>>>>>>>>>>>>>>>>>>>> ===== >>>>>>>>>>>>>>++;;;;;-->>>>> >>>>>oXX@@@@ ",
" >>>>> >>>>>>-& >>>>>>>     >>>>>>>>>>>>>>>>>>>>>>>>>>>>>>>>>>>>     >>>>>>>>>>>>>>>+;;;;;--&>>>>> >>>>>XX@@@@@ ",
" >>>>>>>>>>>>&& >>>>>>>>>>>>>>>>>>>>>>>>>>>>>>>>>>>>>>>>>>>>>>>>>>>>>>>>>>>>>>>>>>>>;;-----&&>>>>>>>>>>>X@@%%%% ",
" >>>>>>>>>>>>&& >>>>>>>>>>>>>>>>>>>>>>>>>>>>>>>>>>>>>>>>>>>>>>>>>>>>>>>>>>>>>>>>>>>>;;-----&&>>>>>>>>>>>X@@%%%% ",
" >>>>>>>>>>>>&& >>>>>>>>>>>>>>>>>>>>>>>>>>>>>>>>>>>>>>>>>>>>>>>>>>>>>>>>>>>>>>>>>>>>;;-----&&>>>>>>>>>>>X@@%%%% ",
" O;;;;;--&&&&&* >>>>>>>>>>>>>>>>>>>>>>>>>>>>>>>>>>>>>>>>>>>>>>>>>>>>>>>>>>>>>>>>>>>>;-----&&*****ooXXXXX@@%%%%% ",
" O;;;;;--&&&&&* >>>>>>>>>>>>>>>>>>>>>>>>>>>>>>>>>>>>>>>>>>>>>>>>>>>>>>>>>>>>>>>>>>>>;-----&&*****ooXXXXX@@%%%%% ",
" O;;;;;--&&&&&* >>>>>>>>>>>>>>>>>>>>>>>>>>>>>>>>>>>>>>>>>>>>>>>>>>>>>>>>>>>>>>>>>>>>;-----&&*****ooXXXXX@@%%%%% ",
" ;;;;;--&&&&&** >>>>>>>>>>>>>>>>>>>>>>>>>>>>>>>>>>>>>>>>>>>>>>>>>>>>>>>>>>>>>>>>>>>>--&&&&&**oooooXX@@@@@%%#### ",
" ;-----&&*****o >>>>>>>>>>>>>>>>>>>>>>>>>>>>>>>>>>>>>>>>>>>>>>>>>>>>>>>>>>>>>>>>>>>>-&&&&&**oooooXX@@@@@%       ",
" ;-----&&*****o >>>>>>>>>>>>>>>>>>>>>>>>>>>>>>>>>>>>>>>>>>>>>>>>>>>>>>>>>>>>>>>>>>>>-&&&&&**oooooXX@@@@@%       ",
" ;-----&&*****o >>>>>>>>>>>>>>>>>>>>>>>>>>>>>>>>>>>>>>>>>>>>>>>>>>>>>>>>>>>>>>>>>>>>-&&&&&**oooooXX@@@@@%       ",
". ----&&*****oo >>>>>>>>>>>>>>>>>>>>>>>>>>>>>>>>>>>>>>>>>>>>>>>>>>>>>>>>>>>>>>>>>>>>&&*****ooXXXXX@@%%%%% ::::..",
".               >>>>>>>>>>>>>>>>>>>>>>>>>>>>    >>>>>>>>>>>>>>>>>>>>>>>>>>>>>>>>>>>>&*****ooXXXXX@        ::::..",
".               >>>>>>>>>>>>>>>>>>>>>>>>>>>>    >>>>>>>>>>>>>>>>>>>>>>>>>>>>>>>>>>>>&*****ooXXXXX@        ::::..",
"..::::::::::::: >>>>>>>>>>>>>>>>>>>>>>>>>>>>    >>>>>>>>>>>>>>>>>>>>>>>>>>>>>>>>>>>>**oooooXX@@@@ ::::::::::::..",
"..::::::::::::: >>>>>>>>>>>>>>>>>>>>>>>>>>>>    >>>>>>>>>>>>>>>>>>>>>>>>>>>>>>>>>>>>*oooooXX@@@@@ ::::::::::::..",
"..::::::::::::: >>>>>>>>>>>>>>>>>>>>>>>>>>>>    >>>>>>>>>>>>>>>>>>>>>>>>>>>>>>>>>>>>*oooooXX@@@@@ ::::::::::::..",
"..::::::::::::: >>>>>>>>>>>>>>>>>>>>>>>>>>>>>>>>>>>>>>>>>>>>>>>>>>>>>>>>>>>>>>>>>>>>*oooooXX@@@@@ ::::::::::::..",
"..:::::::::::::       >>>>>>>>>>>>>>>>>>>>>>>>>>>>>>>>>>>>>>>>>>>>>>>>>>>>>>>>>>>>>>ooXXXXX       ::::::::::::..",
"..:::::::::::::::::::  >>>>>>>>>>>>>>>>>>>>>>>>>>>>>>>>>>>>>>>>>>>>>>>>>>>>>>>>>>>>        :::::::::::::::::::..",
"..:::::::::::::::::::  >>>>>>>>>>>>>>>>>>>>>>>>>>>>>>>>>>>>>>>>>>>>>>>>>>>>>>>>>>>>        :::::::::::::::::::..",
"..::::::::::::::::::::>             OOOOO++;;;;;--&&&&&**oooooXX@@@@@%%#####OO      :::::::                    .",
"..::::::::::::::::::::::::::::::::: #OOOOO++;;;;;--&&&&&**oooooXX@@@@@%%#####O :::::::::::  -----;;;++++++OOOOO ",
"..::::::::::::::::::::::::::::::::: #OOOOO++;;;;;--&&&&&**oooooXX@@@@@%%#####O :::::::::::  -----;;;++++++OOOOO ",
"..::::::::::::::::::::::::::::::::: #OOOOO++;;;;;--&&&&&**oooooXX@@@@@%%#####O :::::::::::  -----;;;++++++OOOOO ",
"..::::::::::::::::::::::::::::::::: #####OO+++++;;-----&&*****ooXXXXX@@%%%%%## ::::::::::: --::::::::::::::OOOO ",
"..::::::::::::::::::::::::::::::::: %#####OO+++++;;-----&&*****ooXXXXX@@%%%%%# ::::::::::: &:::::::::::::::#### ",
"..::::::::::::::::::::::::::::::::: %#####OO+++++;;-----&&*****ooXXXXX@@%%%%%# ::::::::::: &:::::::::::::::#### ",
"..:::::::::::::::::::::::::::       %%%%%##OOOOO++;;;;;--&&&&&**oooooXX@@@@@%% ::::::::::: &:::::::::::::::#### ",
"..::::::::::::::::::::::::::: XXXXX@@%%%%%##OOOOO++;;;;;--&&&&&**oooooXX@@@@@% ::::::::::: *:::::::::::::::#### ",
"..::::::::::::::::::::::::::: XXXXX@@%%%%%##OOOOO++;;;;;--&&&&&**oooooXX@@@@@% ::::::::::: *:::::::::::::::#### ",
"..::::::::::::::::::::::::::: XXXXX@@%%%%%##OOOOO++;;;;;--&&&&&**oooooXX@@@@@% ::::::::::: *:::::::::::::::#### ",
"..::::::::::::::::::::::::::: ooooXX@@@@@%%#####OO+++++;;-----&&*****ooXXXXX@@ ::::::::::: *:::::::::::::::%%%% ",
"..:::::::::::::::::::::       oooooXX@@@@@%%#####OO+++++;;-----&&*****ooXXXXX@      :::::: o:::::::::::::::%%%% ",
"..:::::::::::::::::::::       oooooXX@@@@@%%#####OO+++++;;-----&&*****ooXXXXX@      :::::: o:::::::::::::::%%%% ",
"..:::::::::::::::::::::       oooooXX@@@@@%%#####OO+++++;;-----&&*****ooXXXXX@      :::::: o:::::::::::::::%%%% ",
"..:::::::::::::::::::::    &&*****ooXXXXX@@%%%%%##OOOOO++;;;;;--&&&&&**oooooXX@@@@@ :::::: o:::::::::::::::%%%% ",
"..:::::::::::::::::::::    &&*****ooXXXXX@@%%%%%##OOOOO++;;;;;--&&&&&**oooooXX@@@@@ :::::: o:::::::::::::::%%%% ",
"..:::::::::::::::::::::    &&*****ooXXXXX@@%%%%%##OOOOO++;;;;;--&&&&&**oooooXX@@@@@ :::::: o:::::::::::::::%%%% ",
"..::::::::::::::::::::     -&&*****oo>>>>>>>>>>>>>>>>>>>>>>>>>>>>&&&&&**oooooXX@@@@ :::::::::::::::::::::::@@@@ ",
"..:::::::::::::::::::: ;;;;--&&&&&**o>>>>>>>>>>>>>>>>>>>>>>>>>>>>>>>>&&*****ooXXXXX ::::::::::::::::::::XX@@@@@ ",
"..::::::::::::::::::: +;;;;;--&&&&&*>>>>>>>>>>>>>>>>>>>>>>>>>>>>>>>>>>&&*****ooXXXXX      ::::::::::::::X      .",
"..::::::::::::::::::: +;;;;;--&&&&&*>>>>>>>>>>>>>>>>>>>>>>>>>>>>>>>>>>&&*****ooXXXXX      ::::::::::::::X      .",
"..::::::::::::::::::: +++++;;-----&&>>>>>>>>>>>>>>>>>>>>>>>>>>>>>>>>>>-&&&&&**oooooXX@    ::::::::::ooooo ::::..",
"..::::::::::::::::::: +++++;;-----&&>>>>>>>>>>>>>>>>>>>>>>>>>>>>>>>>>>-&&&&&**oooooXX@    ::::::::::ooooo ::::..",
"..::::::::::::::::::: +++++;;-----&&>>>>>>>>>>>>>>>>>>>>>>>>>>>>>>>>>>-&&&&&**oooooXX@    ::::::::::ooooo ::::..",
"..::::::::::::::::::: O+++++;;-----&>>>>>>>>>>>>>>>>>>>>>>>>>>>>>>>>>>--&&&&&**oooooXX    :::::::::*oooo  ::::..",
"..::::::::::::::::::: OOOOO++;;;;;-->>>>>>>>>>>>>>>>>>>>>>>>>>>>>>>>>>;-----&&*****ooX    :::::::::*    ::::::..",
"..::::::::::::::::::: #OOOOO++;;;;;->>>>>>>>>>>>>>>>>>>>>>>>>>>>>>>>>>;;-----&&*****oo    :::----&&*    ::::::..",
"..::::::::::::::::::: #OOOOO++;;;;;->>>>>>>>>>>>>>>>>>>>>>>>>>>>>>>>>>;;-----&&*****oo    :::----&&*    ::::::..",
"..::::::::::::::::::: #####OO+++++;;>>>>>>>>>>>>>>>>>>>>>>>>>>>>>>>>>>+;;;;;--&&&&&**o    :::----       ::::::..",
"..::::::::::::::::::: #####OO+++++;;>>>>>>>>>>>>>>>>>>>>>>>>>>>>>>>>>>+;;;;;--&&&&&**o    :::----       ::::::..",
"..::::::::::::::::::: #####OO+++++;;>>>>>>>>>>>>>>>>>>>>>>>>>>>>>>>>>>+;;;;;--&&&&&**o    :::----       ::::::..",
"..::::::::::::::::::: %#####OO+++++;;>>>>>>>>>>>>  >>>>>>>>>>>>>>OOOOO++;;;;;--&&&&&**    :::---- ::::::::::::..",
"..:::::::::::::::::::  %%%%##OOOOO++;>>>>>>>>>>>>  >>>>>>>>>>>>>>####OO+++++;;-----&&***** ;;;;;; ::::::::::::..",
"..::::::::::::::::::::     %##OOOOO++>>>>>>>>>>>>>>>>>>>>>>>>>>>>#####OO+++++;;-----&&****        ::::::::::::..",
"..::::::::::::::::::::     %##OOOOO++>>>>>>>>>>>>>>>>>>>>>>>>>>>>#####OO+++++;;-----&&****        ::::::::::::..",
"..:::::::::::::::::::::             +>>>>>>>>>>>>>>>>>>>>XXXXX@@%%%%%##OOOOO++             :::::::::::::::::::..",
"..:::::::::::::::::::::             +>>>>>>>>>>>>>>>>>>>>XXXXX@@%%%%%##OOOOO++             :::::::::::::::::::..",
"..:::::::::::::::::::::             +>>>>>>>>>>>>>>>>>>>>XXXXX@@%%%%%##OOOOO++             :::::::::::::::::::..",
"..::::::::::::::::::::::::::::::::: O+++++;;-----&&*****ooXXXXX@@%%%%%##OOOOO+ :::::::::::::::::::::::::::::::..",
"..::::::::::::::::::::::::::::::::: OOOOO++;;;;;--&&&&&**oooooXX@@@@@%%#####OO :::::::::::::::::::::::::::::::..",
"..::::::::::::::::::::::::::::::::: OOOOO++;;;;;--&&&&&**oooooXX@@@@@%%#####OO :::::::::::::::::::::::::::::::..",
"..::::::::::::::::::::::::::::::::: #OOOOO++;;;;;--&&&&&**oooooXX@@@@@%%#####O :::::::::::::::::::::::::::::::..",
"..::::::::::::::::::::::::::::::::: #OOOOO++;;;;;--&&&&&**oooooXX@@@@@%%#####O :::::::::::::::::::::::::::::::..",
"..::::::::::::::::::::::::::::::::: #OOOOO++;;;;;--&&&&&**oooooXX@@@@@%%#####O :::::::::::::::::::::::::::::::..",
"..::::::::::::::::::::::::::::::::: #OOOOO++;;;;;--&&&&&**oooooXX@@@@@%%#####O :::::::::::::::::::::::::::::::..",
"..::::::::::::::::::::::::::::::::: #####OO+++++                 XXXX@@%       :::::::::::::::::::::::::::::::..",
"..::::::::::::::::::::::::::::::::: %#####OO    :::::::::::::::::    X@@    ::::::::::::::::::::::::::::::::::..",
"..::::::::::::::::::::::::::::::::: %%%%%#      :::::::::::::::::    XX@    ::::::::::::::::::::::::::::::::::..",
"..::::::::::::::::::::::::::::::::: @%%%% ::::::::::::::::::::::::::: XX    ::::::::::::::::::::::::::::::::::..",
"..::::::::::::::::::::::::::::::::: @%%%% ::::::::::::::::::::::::::: XX    ::::::::::::::::::::::::::::::::::..",
"..::::::::::::::::::::::::::::::::: @%%%% ::::::::::::::::::::::::::: XX    ::::::::::::::::::::::::::::::::::..",
"..::::::::::::::::::::::::::::::::: @%%%% ::::::::::::::::::::::::::: XX    ::::::::::::::::::::::::::::::::::..",
"................................... @@@@@ ........................... oX    ....................................",
"...................................       ...........................       ...................................."
};
